<?xml version="1.0" encoding="utf-8"?>
<!-- Generator: Adobe Illustrator 20.1.0, SVG Export Plug-In . SVG Version: 6.00 Build 0)  -->
<svg version="1.1" id="Ebene_1" xmlns="http://www.w3.org/2000/svg" xmlns:xlink="http://www.w3.org/1999/xlink" x="0px" y="0px"
	 viewBox="0 0 32 32" style="enable-background:new 0 0 32 32;" xml:space="preserve">
<style type="text/css">
	.st0{fill:none;}
	.st1{fill:#8CD211;}
	.st2{fill:#FFFFFF;}
</style>
<g id="Symbol_31_1" transform="translate(-4145 -3556)">
	<g id="Gruppe_2109" transform="translate(-30 -1)">
		<g id="Gruppe_2102">
			<rect id="Rechteck_1717" x="4175" y="3557" class="st0" width="32" height="32"/>
			<g id="Gruppe_2097" transform="translate(-95 1)">
				<ellipse id="Ellipse_147" class="st1" cx="4286" cy="3572" rx="14" ry="14"/>
				<path id="Differenzmenge_115" class="st2" d="M4288.3,3583c-0.6,0-1.1-0.4-1.1-1c0,0,0-0.1,0-0.1v-6h-2.3v6c0,0.6-0.4,1.1-1,1.1
					c0,0-0.1,0-0.1,0c-0.6,0-1.1-0.5-1.1-1.1v-13.4h-5.7c-0.6,0-1.1-0.4-1.1-1c0,0,0-0.1,0-0.1c0-0.6,0.4-1.1,1-1.1c0,0,0.1,0,0.1,0
					h18.3c0.6,0,1.1,0.4,1.1,1c0,0,0,0.1,0,0.1c0,0.6-0.4,1.1-1,1.1c0,0-0.1,0-0.1,0h-2.4c0.1,0.3,0.1,0.6,0.1,0.9
					c0,1.5-1.3,2.8-3.5,4.8v7.7c0,0.6-0.4,1.1-1,1.1C4288.4,3583,4288.3,3583,4288.3,3583z M4286.1,3567.7c-1,0-1.8,0.8-1.9,1.7
					c0,1.1,1.1,2.1,3,3.9l0,0c0.3,0.2,0.5,0.5,0.8,0.8c0.3-0.3,0.6-0.6,0.9-0.9c1.8-1.7,2.9-2.7,2.9-3.8c-0.1-1-0.9-1.8-1.9-1.7
					c-0.8,0.1-1.4,0.5-1.9,1.1l-0.1,0.1l-0.1-0.1C4287.5,3568.1,4286.9,3567.7,4286.1,3567.7z M4286,3565.1c-1.2,0-2.3-1-2.3-2.2
					c0-1.3,1.1-2.3,2.3-2.2c1.2,0,2.2,1,2.2,2.2C4288.3,3564.1,4287.2,3565.1,4286,3565.1L4286,3565.1z"/>
			</g>
		</g>
	</g>
</g>
</svg>
