<?xml version="1.0" encoding="utf-8"?>
<!-- Generator: Adobe Illustrator 20.1.0, SVG Export Plug-In . SVG Version: 6.00 Build 0)  -->
<svg version="1.1" id="Ebene_1" xmlns="http://www.w3.org/2000/svg" xmlns:xlink="http://www.w3.org/1999/xlink" x="0px" y="0px"
	 viewBox="0 0 88 88" style="enable-background:new 0 0 88 88;" xml:space="preserve">
<style type="text/css">
	.st0{fill:none;}
	.st1{fill:#FF7822;}
	.st2{fill:#FFFFFF;}
</style>
<g id="Symbol_36_1" transform="translate(-4145 -3556)">
	<rect id="Rechteck_1712" x="4145" y="3556" class="st0" width="88" height="88"/>
	<g id="Gruppe_2067" transform="translate(-26 -58)">
		<path id="pfad-1" class="st1" d="M4215,3700c23.2,0,42-18.8,42-42s-18.8-42-42-42s-42,18.8-42,42S4191.8,3700,4215,3700L4215,3700
			"/>
		<g id="gruppe-241" transform="translate(2541.44 643.51)">
			<path id="pfad-40" class="st2" d="M1670.7,3046.1c1.3-0.4,13.7-5.7,18.8-8.2c1.9-1.1,1.3-1.7,0.8-3c-0.6-2.1-3.2-9.3,0.2-13.5
				c16.2-20,3.2-41.1-16.2-38.8c-8.4,0.8-16.4,6.7-19.2,12c-2.5,4.6-2.1,7.2-1.9,9.3c0.3,1.3,0.5,2.5,0.6,3.8c0,1.3-5.3,7.2-5.3,8.9
				c0,2.5,3.8,1.5,4,2.7c0.2,1.7-0.8,1.9,0,3.4c0.2,0.4,0.8,0.4,0.8,0.8c0,0.4-0.4,0.8-0.4,1.5c0.2,1.5,2.7,1.7,2.5,3.4
				c-0.3,1.1-0.5,2.2-0.4,3.4s0.9,2.3,2.1,2.5c2.3,0.4,8.2-1.3,9.1,2.1c1.1,3.8,1.5,5.1,2.5,8
				C1668.8,3045.1,1669.2,3046.5,1670.7,3046.1z"/>
			<g id="gruppe-240" transform="translate(-2371.262 -322.638)">
				<path id="ellipse" class="st1" d="M4046.4,3309.9c9.6,0,17.4,7.8,17.4,17.4c0,9.6-7.8,17.4-17.4,17.4c-9.6,0-17.4-7.8-17.4-17.4
					l0,0C4029,3317.7,4036.8,3309.9,4046.4,3309.9z"/>
				<circle id="ellipse-2" class="st2" cx="4046.4" cy="3327.3" r="14.7"/>
				
					<ellipse id="ellipse-3" transform="matrix(0.7071 -0.7071 0.7071 0.7071 -1167.6198 3835.7615)" class="st1" cx="4046.4" cy="3327.3" rx="12.3" ry="12.3"/>
				
					<ellipse id="ellipse-4" transform="matrix(0.7071 -0.7071 0.7071 0.7071 -1167.6196 3835.7612)" class="st2" cx="4046.4" cy="3327.3" rx="9.2" ry="9.2"/>
				<rect id="rechteck" x="4044.6" y="3308" class="st2" width="3.4" height="6.1"/>
				<rect id="rechteck-2" x="4044.6" y="3334.2" class="st2" width="3.4" height="6.7"/>
				
					<rect id="rechteck-3" x="4037.1" y="3316.7" transform="matrix(0.7071 -0.7071 0.7071 0.7071 -1164.6921 3828.2966)" class="st2" width="3.4" height="6.7"/>
				
					<ellipse id="ellipse-5" transform="matrix(0.7071 -0.7071 0.7071 0.7071 -1167.6199 3835.7615)" class="st1" cx="4046.4" cy="3327.3" rx="6.5" ry="6.5"/>
				
					<ellipse id="ellipse-6" transform="matrix(0.7071 -0.7071 0.7071 0.7071 -1167.5675 3835.5737)" class="st2" cx="4046.2" cy="3327.2" rx="3.4" ry="3.4"/>
				<rect id="rechteck-4" x="4060.1" y="3325.5" class="st2" width="5" height="3.4"/>
				
					<rect id="rechteck-5" x="4044" y="3323.2" transform="matrix(0.7071 -0.7071 0.7071 0.7071 -1165.2418 3836.6934)" class="st2" width="9.4" height="3.4"/>
				
					<rect id="rechteck-6" x="4029.1" y="3338.2" transform="matrix(0.7071 -0.7071 0.7071 0.7071 -1180.1821 3830.533)" class="st2" width="9.4" height="3.4"/>
			</g>
		</g>
	</g>
</g>
</svg>
