<?xml version="1.0" encoding="utf-8"?>
<!-- Generator: Adobe Illustrator 20.1.0, SVG Export Plug-In . SVG Version: 6.00 Build 0)  -->
<svg version="1.1" id="Ebene_1" xmlns="http://www.w3.org/2000/svg" xmlns:xlink="http://www.w3.org/1999/xlink" x="0px" y="0px"
	 viewBox="0 0 32 32" style="enable-background:new 0 0 32 32;" xml:space="preserve">
<style type="text/css">
	.st0{fill:none;}
	.st1{fill:#FF7822;}
	.st2{fill:#FFFFFF;}
</style>
<g id="Symbol_35_1" transform="translate(-4145 -3556)">
	<g id="Gruppe_2100" transform="translate(-30 -1)">
		<rect id="Rechteck_1718" x="4175" y="3557" class="st0" width="32" height="32"/>
		<g id="Gruppe_2087" transform="translate(-92 -57)">
			<path id="pfad-1" class="st1" d="M4283,3644c7.7,0,14-6.3,14-14s-6.3-14-14-14s-14,6.3-14,14S4275.3,3644,4283,3644"/>
			<g id="gruppe-241" transform="translate(149.667 311.333)">
				<path id="pfad-40" class="st2" d="M4132.4,3329.2c0.4-0.1,4.6-1.9,6.3-2.7c0.6-0.4,0.4-0.6,0.3-1c-0.2-0.7-1.1-3.1,0.1-4.5
					c5.4-6.7,1.1-13.7-5.4-12.9c-2.6,0.3-5,1.8-6.4,4c-0.6,0.9-0.8,2-0.6,3.1c0.1,0.4,0.2,0.8,0.2,1.3c0,0.4-1.8,2.4-1.8,3
					c0,0.8,1.3,0.5,1.3,0.9c0.1,0.6-0.3,0.6,0,1.1c0.1,0.1,0.3,0.1,0.3,0.3c0,0.1-0.1,0.3-0.1,0.5c0.1,0.5,0.9,0.6,0.8,1.1
					c-0.1,0.4-0.2,0.7-0.1,1.1c0,0.4,0.3,0.8,0.7,0.8c0.8,0.1,2.7-0.4,3,0.7c0.4,1.3,0.5,1.7,0.8,2.7
					C4131.7,3328.9,4131.9,3329.3,4132.4,3329.2z"/>
				<g id="gruppe-240" transform="translate(3.059 0.957)">
					<path id="ellipse" class="st1" d="M4130.8,3308.6c3.2,0,5.8,2.6,5.8,5.8c0,3.2-2.6,5.8-5.8,5.8c-3.2,0-5.8-2.6-5.8-5.8
						C4125,3311.2,4127.6,3308.6,4130.8,3308.6C4130.8,3308.6,4130.8,3308.6,4130.8,3308.6z"/>
					<circle id="ellipse-2" class="st2" cx="4130.8" cy="3314.4" r="4.9"/>
					
						<ellipse id="ellipse-3" transform="matrix(0.7071 -0.7071 0.7071 0.7071 -1133.7706 3891.6975)" class="st1" cx="4130.8" cy="3314.4" rx="4.1" ry="4.1"/>
					
						<ellipse id="ellipse-4" transform="matrix(0.7071 -0.7071 0.7071 0.7071 -1133.7705 3891.6978)" class="st2" cx="4130.8" cy="3314.4" rx="3.1" ry="3.1"/>
					<rect id="rechteck" x="4130.2" y="3308" class="st2" width="1.1" height="2"/>
					<rect id="rechteck-2" x="4130.2" y="3316.7" class="st2" width="1.1" height="2.2"/>
					
						<rect id="rechteck-3" x="4127.7" y="3310.9" transform="matrix(0.7071 -0.7071 0.7071 0.7071 -1132.8093 3889.2163)" class="st2" width="1.1" height="2.2"/>
					
						<ellipse id="ellipse-5" transform="matrix(0.7071 -0.7071 0.7071 0.7071 -1133.7706 3891.6975)" class="st1" cx="4130.8" cy="3314.4" rx="2.2" ry="2.2"/>
					
						<ellipse id="ellipse-6" transform="matrix(0.7071 -0.7071 0.7071 0.7071 -1133.7665 3891.6216)" class="st2" cx="4130.7" cy="3314.4" rx="1.1" ry="1.1"/>
					<rect id="rechteck-4" x="4135.4" y="3313.8" class="st2" width="1.7" height="1.1"/>
					
						<rect id="rechteck-5" x="4130" y="3313.1" transform="matrix(0.7071 -0.7071 0.7071 0.7071 -1132.9756 3892.0039)" class="st2" width="3.1" height="1.1"/>
					
						<rect id="rechteck-6" x="4125" y="3318.1" transform="matrix(0.7071 -0.7071 0.7071 0.7071 -1137.968 3889.9412)" class="st2" width="3.1" height="1.1"/>
				</g>
			</g>
		</g>
	</g>
</g>
</svg>
