<?xml version="1.0" encoding="utf-8"?>
<!-- Generator: Adobe Illustrator 20.1.0, SVG Export Plug-In . SVG Version: 6.00 Build 0)  -->
<svg version="1.1" id="Ebene_1" xmlns="http://www.w3.org/2000/svg" xmlns:xlink="http://www.w3.org/1999/xlink" x="0px" y="0px"
	 viewBox="0 0 32 32" style="enable-background:new 0 0 32 32;" xml:space="preserve">
<style type="text/css">
	.st0{fill:none;}
	.st1{fill:#4178BE;}
</style>
<g id="Gruppe_3992" transform="translate(-5470 -3534)">
	<rect id="Rechteck_1728" x="5470" y="3534" class="st0" width="32" height="32"/>
	<path id="Differenzmenge_167" class="st1" d="M5486,3564c-7.7,0-14-6.3-14-14s6.3-14,14-14s14,6.3,14,14l0,0
		C5500,3557.7,5493.7,3564,5486,3564z M5480,3542c-1.4,0-2.5,1.1-2.5,2.4c0,0,0,0,0,0.1v8c0,1.4,1.1,2.5,2.4,2.5c0,0,0,0,0.1,0h9.1
		l5.4,4v-14.5c0.1-1.3-1-2.4-2.3-2.5c0,0-0.1,0-0.1,0H5480z M5492.5,3555L5492.5,3555l-2.8-2h-9.7c-0.3,0-0.5-0.3-0.5-0.6v-8
		c0-0.4,0.4-0.4,0.6-0.4h11.9c0.3,0,0.5,0.2,0.5,0.4c0,0,0,0,0,0.1V3555z"/>
</g>
</svg>
