<?xml version="1.0" encoding="utf-8"?>
<!-- Generator: Adobe Illustrator 20.1.0, SVG Export Plug-In . SVG Version: 6.00 Build 0)  -->
<svg version="1.1" id="Ebene_1" xmlns="http://www.w3.org/2000/svg" xmlns:xlink="http://www.w3.org/1999/xlink" x="0px" y="0px"
	 viewBox="0 0 88 88" style="enable-background:new 0 0 88 88;" xml:space="preserve">
<style type="text/css">
	.st0{fill:none;}
	.st1{fill:#9933CC;}
	.st2{fill:#FFFFFF;}
</style>
<g id="Symbol_40_1" transform="translate(-4145 -3556)">
	<rect id="Rechteck_1715" x="4145" y="3556" class="st0" width="88" height="88"/>
	<g id="Gruppe_2068" transform="translate(-29 -140)">
		<path id="pfad-1" class="st1" d="M4218,3782c23.2,0,42-18.8,42-42s-18.8-42-42-42s-42,18.8-42,42S4194.8,3782,4218,3782L4218,3782
			"/>
		<g id="Gruppe_49" transform="translate(3)">
			<path id="Differenzmenge_8" class="st2" d="M4206.5,3759L4206.5,3759c-0.3,0-0.5,0-0.8,0c1.5-4.7,3.3-9.4,5.4-13.9
				c3.6-7.9,8-15.5,13-22.6c0,0-3.2,2.3-9.8,12.6c-5.7,8.9-9.4,20.1-10.5,23.3c-2.6-1.2-4.4-4.2-5.2-8.5c-1-5.5,2.7-16,2.7-16.1
				l4.6,7.3l-1.9-11.9c0,0,0.6-1.9,10.4-9s23.4-8.4,23.6-8.4c-1.6,1.9-3,3.9-4.3,6c-3.2,4.8-6.1,14.3-6.1,14.4l-8.3,4.1h5.8
				c-0.8,1.8-3.4,7.9-6.5,14.6C4215.1,3758.4,4211.2,3759,4206.5,3759z"/>
			<path id="Pfad_126" class="st2" d="M4203.3,3760l1.9,0.4c0,0-1.2,3.9-1.7,6.8c-0.5,2.9-0.9,5.7-0.9,5.7h-1.9c0,0,0.5-4.6,1.2-7.5
				C4202.5,3762.4,4203.3,3760,4203.3,3760z"/>
		</g>
	</g>
</g>
</svg>
