<?xml version="1.0" encoding="utf-8"?>
<!-- Generator: Adobe Illustrator 20.1.0, SVG Export Plug-In . SVG Version: 6.00 Build 0)  -->
<svg version="1.1" id="Ebene_1" xmlns="http://www.w3.org/2000/svg" xmlns:xlink="http://www.w3.org/1999/xlink" x="0px" y="0px"
	 viewBox="0 0 32 32" style="enable-background:new 0 0 32 32;" xml:space="preserve">
<style type="text/css">
	.st0{fill:none;}
	.st1{fill:#FFC107;}
	.st2{fill:#FFFFFF;}
</style>
<g id="Symbol_33_1" transform="translate(-4145 -3556)">
	<path id="Pfad_2930" class="st0" d="M4145,3556h32v32h-32V3556z"/>
	<g id="Gruppe_2081" transform="translate(-122 -76)">
		<path id="pfad-1" class="st1" d="M4283,3662c7.7,0,14-6.3,14-14s-6.3-14-14-14s-14,6.3-14,14S4275.3,3662,4283,3662"/>
		<g id="gruppe-91" transform="translate(150.857 231.151)">
			<circle id="ellipse" class="st2" cx="4138" cy="3412.7" r="1.9"/>
			<path id="pfad" class="st2" d="M4125,3425.6c0,0,1.3-7,2.6-9c1.3-2,8.5-9.2,10.2-10.5c0.5-0.4,1.7,0.4,0.9,1.3
				c-1.2,1.2-3.9,4.6-3.8,5s1.6,3.3,2.2,4.7c0.2,0.5,0.1,0.9-0.4,1c-1.3,0.3-2.6,0.6-3.5,0.8c-0.8,0.2-1-1.2-0.2-1.4
				c0.6-0.2,1.8-0.4,2.1-0.5c0.1,0-0.8-1.3-0.8-1.3l-2.2,1.7l0.3,3.1c0,0,0.6,3.9,0.7,5.1c0,0.6-0.4,1.1-1,1.1c-0.6,0-1.1-0.4-1.1-1
				c-0.3-1.5-1.6-7.3-1.7-7.3c-0.6,1.2-1.1,2.5-1.4,3.9c-0.5,1.9-0.8,2.6-1,3.4c-0.2,0.8-0.7,1-1.2,1c-0.6,0-1-0.5-1-1.1
				C4125,3425.8,4125,3425.7,4125,3425.6z"/>
		</g>
	</g>
</g>
</svg>
