<?xml version="1.0" encoding="utf-8"?>
<!-- Generator: Adobe Illustrator 20.1.0, SVG Export Plug-In . SVG Version: 6.00 Build 0)  -->
<svg version="1.1" id="Ebene_1" xmlns="http://www.w3.org/2000/svg" xmlns:xlink="http://www.w3.org/1999/xlink" x="0px" y="0px"
	 viewBox="0 0 324 324" style="enable-background:new 0 0 324 324;" xml:space="preserve">
<style type="text/css">
	.st0{fill:#4178BE;}
	.st1{fill:#EFC100;}
	.st2{fill:#FFD791;}
	.st3{fill:#264A60;}
	.st4{fill:#8CD211;}
	.st5{fill:#FFFFFF;}
	.st6{fill:#E71D32;}
	.st7{fill:none;}
</style>
<path id="pfad-1" class="st0" d="M162,322c88.4,0,160-71.6,160-160S250.4,2,162,2S2,73.6,2,162S73.6,322,162,322"/>
<circle id="ellipse" class="st1" cx="60.7" cy="96.3" r="10.6"/>
<path id="pfad-2" class="st2" d="M60.7,100.6l-4.6,2.4l0.9-5.2l-3.7-3.7l5.2-0.8l2.3-4.7l2.3,4.7l5.2,0.8l-3.7,3.7l0.9,5.2
	L60.7,100.6z"/>
<ellipse id="ellipse-2" transform="matrix(0.3396 -0.9406 0.9406 0.3396 -45.3078 163.494)" class="st1" cx="93.8" cy="114" rx="10.6" ry="10.6"/>
<path id="pfad-3" class="st2" d="M92.3,118.1l-5.2,0.7l2.6-4.6l-2.3-4.7l5.1,1.1l3.8-3.6l0.6,5.2l4.6,2.5l-4.8,2.2l-0.9,5.2
	L92.3,118.1z"/>
<ellipse id="ellipse-3" transform="matrix(0.3396 -0.9406 0.9406 0.3396 37.9813 131.4523)" class="st1" cx="112.6" cy="38.7" rx="10.6" ry="10.6"/>
<path id="pfad-4" class="st2" d="M111.2,42.7l-5.2,0.7l2.6-4.6l-2.3-4.7l5.1,1.1l3.8-3.6l0.6,5.2l4.6,2.5l-4.8,2.2l-0.9,5.2
	L111.2,42.7z"/>
<ellipse id="ellipse-5" transform="matrix(0.9192 -0.3938 0.3938 0.9192 -46.5147 24.2109)" class="st1" cx="35.7" cy="125.5" rx="10.6" ry="10.6"/>
<path id="pfad-6" class="st2" d="M37.4,129.5l-3.3,4.1l-1.2-5.1l-4.9-1.9l4.5-2.7l0.3-5.2l4,3.4l5.1-1.3l-2,4.8l2.8,4.4L37.4,129.5z
	"/>
<ellipse id="ellipse-6" transform="matrix(0.9192 -0.3938 0.3938 0.9192 -24.8609 42.5384)" class="st1" cx="91.2" cy="81.9" rx="10.6" ry="10.6"/>
<path id="pfad-7" class="st2" d="M92.9,85.9l-3.3,4.1l-1.2-5.1L83.5,83l4.5-2.7l0.3-5.2l4,3.4l5.1-1.3l-2,4.8l2.8,4.4L92.9,85.9z"/>
<ellipse id="ellipse-7" transform="matrix(0.9192 -0.3938 0.3938 0.9192 -36.5789 58.7718)" class="st1" cx="124.9" cy="118.5" rx="10.6" ry="10.6"/>
<path id="pfad-8" class="st2" d="M126.6,122.6l-3.3,4.1l-1.2-5.1l-4.9-1.9l4.5-2.7l0.3-5.2l4,3.4l5.1-1.3l-2,4.8l2.8,4.4
	L126.6,122.6z"/>
<ellipse id="ellipse-8" transform="matrix(0.9498 -0.3129 0.3129 0.9498 -41.7304 33.4985)" class="st1" cx="83.5" cy="146.8" rx="10.6" ry="10.6"/>
<path id="pfad-9" class="st2" d="M87.6,145.4l3.8,3.6l-5.2,0.8l-2.3,4.7l-2.3-4.7l-5.2-0.7l3.7-3.7l-0.9-5.2l4.6,2.4l4.6-2.5
	L87.6,145.4z"/>
<ellipse id="ellipse-9" transform="matrix(0.9498 -0.3129 0.3129 0.9498 -42.9155 41.9622)" class="st1" cx="109.3" cy="154.7" rx="10.6" ry="10.6"/>
<path id="pfad-10" class="st2" d="M113.4,153.3l3.8,3.6l-5.2,0.8l-2.3,4.7l-2.3-4.7l-5.2-0.7l3.7-3.7l-0.9-5.2l4.6,2.4l4.6-2.5
	L113.4,153.3z"/>
<ellipse id="ellipse-10" transform="matrix(0.9192 -0.3938 0.3938 0.9192 -62.5145 59.2133)" class="st1" cx="113" cy="181.9" rx="10.6" ry="10.6"/>
<path id="pfad-11" class="st2" d="M114.7,186l-3.3,4.1l-1.2-5.1l-4.9-1.9l4.5-2.7l0.3-5.2l4,3.4l5.1-1.3l-2,4.8l2.8,4.4L114.7,186z"
	/>
<path class="st3" d="M191,286.3c-3.5,0-6.8-2.8-8.9-7.9l1.8-0.8c2.1,5,5.1,7.4,8.3,6.5c6.6-1.7,15.2-18.5,10.4-56.1
	c-7-54.8-26.7-69.9-31.7-69.3c-10.6,1.4-18.5,5.5-23.6,12.4c-8.6,11.7-5.8,27.5-5.8,27.6l-2,0.4c-0.1-0.7-2.9-16.8,6.1-29.2
	c5.4-7.3,13.8-11.8,24.9-13.2c6.3-0.8,26.8,15.1,33.9,71c2.1,16.7,1.8,31.2-0.9,41.9c-2.3,9.1-6.3,15.1-11,16.3
	C192.2,286.3,191.6,286.3,191,286.3z"/>
<path id="rechteck-9" class="st4" d="M165.5,276.2l19-2.4c1.6-0.2,3.1,1,3.4,2.6l0.5,4c0.2,1.6-1,3.1-2.6,3.4l-19,2.4
	c-1.6,0.2-3.1-1-3.4-2.6l-0.5-4C162.7,277.9,163.8,276.4,165.5,276.2z"/>
<ellipse id="ellipse-12" transform="matrix(0.9919 -0.127 0.127 0.9919 -33.9694 25.4673)" class="st3" cx="182.8" cy="279.2" rx="2.5" ry="2.5"/>
<path id="pfad-15" class="st3" d="M160.1,89.2l65.1,5.2c2.1,0.2,3.6,2,3.4,4l-2.1,25.8c-0.2,2.4-2.3,4.2-4.7,4l0,0l-64.5-5.2
	c-2.4-0.2-4.2-2.3-4-4.7l0,0l2-25.2C155.7,90.8,157.8,89,160.1,89.2L160.1,89.2z"/>
<path id="rechteck-10" class="st2" d="M187.4,116.3l0.8,0.8c1.3,1.2,1.4,3.2,0.2,4.5l-9.8,10.7c-1.2,1.3-3.2,1.4-4.5,0.2l-0.8-0.8
	c-1.3-1.2-1.4-3.2-0.2-4.5l9.8-10.7C184,115.2,186.1,115.1,187.4,116.3z"/>
<path id="pfad-16" class="st2" d="M238.5,94.8l-13.2-12.2c0,0-7.4-0.1-12.8,0.3c-3.2,0.2-8.7,1.5-10.8,3.8l-8.7,9.4
	c-1.1,1.3-1,3.2,0.3,4.3l27.5,25.4c1.2,1.2,3.1,1.2,4.3,0l7.9-8.6C237.8,112.1,240.2,96.3,238.5,94.8z"/>
<path id="pfad-17" class="st5" d="M163.7,94.4h65.3c2.1,0,3.7,1.7,3.7,3.7V124c0,2.4-1.9,4.3-4.3,4.3h-64.7c-2.4,0-4.3-1.9-4.3-4.3
	V98.7C159.4,96.4,161.3,94.4,163.7,94.4z"/>
<path id="pfad-18" class="st2" d="M204.3,90.2l-0.9-0.8c-1.3-1.2-3.5-0.9-5,0.7l-9.9,10.7c-1.5,1.6-2.2,3.3-1,4.4
	c3,2.8,7.8-0.6,9.3-2.2l7.2-7.8C205.5,93.7,205.6,91.4,204.3,90.2z"/>
<path id="rechteck-12" class="st2" d="M222.8,121.1l0.9,0.7c1.4,1.1,1.5,3.1,0.4,4.5l-4.7,5.6c-1.1,1.4-3.1,1.5-4.5,0.4l-0.9-0.7
	c-1.4-1.1-1.5-3.1-0.4-4.5l4.7-5.6C219.4,120.1,221.4,119.9,222.8,121.1z"/>
<path id="rechteck-13" class="st2" d="M210.7,120.4l0.9,0.7c1.4,1.1,1.5,3.1,0.4,4.5l-4.7,5.6c-1.1,1.4-3.1,1.5-4.5,0.4l-0.9-0.7
	c-1.4-1.1-1.5-3.1-0.4-4.5l4.7-5.6C207.4,119.5,209.4,119.3,210.7,120.4z"/>
<path id="rechteck-14" class="st2" d="M198.7,119.3l0.9,0.7c1.4,1.1,1.5,3.1,0.4,4.5l-4.7,5.6c-1.1,1.4-3.1,1.5-4.5,0.4l-0.9-0.7
	c-1.4-1.1-1.5-3.1-0.4-4.5l4.7-5.6C195.3,118.4,197.3,118.2,198.7,119.3z"/>
<rect id="rechteck-15" x="165.6" y="105.1" class="st6" width="18.9" height="3.8"/>
<rect id="rechteck-16" x="167.5" y="108.1" class="st6" width="15.2" height="13.6"/>
<path class="st6" d="M173.9,106.1c-0.3,0-0.7-0.1-1.1-0.2c-0.8-0.3-1.6-0.8-2.4-1.6s-1.3-1.6-1.6-2.4c-0.4-1-0.2-1.9,0.3-2.5l0,0
	l0,0v0c0.6-0.6,1.5-0.7,2.5-0.3c0.8,0.3,1.6,0.8,2.3,1.6c0.7,0.7,1.3,1.6,1.6,2.4c0.4,1,0.2,1.9-0.3,2.5
	C174.9,106,174.4,106.1,173.9,106.1z M170.7,101c0,0.3,0.3,1.1,1.2,2c0.9,0.9,1.7,1.2,2,1.2c0-0.3-0.3-1.1-1.2-2S171,101,170.7,101z
	"/>
<path class="st6" d="M176.4,106.1c-0.6,0-1.1-0.2-1.4-0.5c-1.1-1.1-0.6-3.1,1.2-4.9c0.7-0.7,1.6-1.3,2.4-1.6c1-0.4,1.9-0.2,2.5,0.3
	c0.6,0.6,0.7,1.5,0.3,2.5c-0.3,0.8-0.8,1.6-1.6,2.4c-0.7,0.7-1.6,1.3-2.4,1.6C177.1,106.1,176.7,106.1,176.4,106.1z M179.6,101
	c-0.3,0-1.1,0.3-2,1.2l0,0c-0.9,0.9-1.2,1.7-1.2,2c0.3,0,1.1-0.3,2-1.2S179.5,101.3,179.6,101z"/>
<rect x="174.1" y="104.9" class="st5" width="2" height="16.8"/>
<rect x="166.8" y="112.3" class="st5" width="16.8" height="2"/>
<rect x="203.5" y="108.4" transform="matrix(0.7185 -0.6955 0.6955 0.7185 -15.3452 180.8634)" class="st6" width="24.4" height="2"/>
<path class="st6" d="M210.2,110c-2.1,0-3.8-2.1-3.8-4.7s1.7-4.7,3.8-4.7s3.8,2.1,3.8,4.7S212.3,110,210.2,110z M210.2,102.6
	c-1,0-1.8,1.2-1.8,2.7s0.8,2.7,1.8,2.7c1,0,1.8-1.2,1.8-2.7S211.2,102.6,210.2,102.6z"/>
<path class="st6" d="M221,118c-2.1,0-3.8-2.1-3.8-4.7s1.7-4.7,3.8-4.7s3.8,2.1,3.8,4.7S223.1,118,221,118z M221,110.6
	c-1,0-1.8,1.2-1.8,2.7s0.8,2.7,1.8,2.7c1,0,1.8-1.2,1.8-2.7S222,110.6,221,110.6z"/>
<path id="pfad-19" class="st3" d="M215.5,146.9l65.3,5.2c2.1,0.2,3.6,2,3.4,4l0,0l-2.1,25.9c-0.2,2.4-2.3,4.2-4.7,4l-64.7-5.2
	c-2.4-0.2-4.2-2.3-4-4.7l2-25.3C211.1,148.5,213.2,146.7,215.5,146.9L215.5,146.9z"/>
<path id="rechteck-17" class="st2" d="M239.3,174.6l0.8,0.8c1.3,1.2,1.4,3.2,0.2,4.5l-9.8,10.7c-1.2,1.3-3.2,1.4-4.5,0.2l-0.8-0.8
	c-1.3-1.2-1.4-3.2-0.2-4.5l9.8-10.7C236,173.5,238,173.4,239.3,174.6z"/>
<path id="pfad-20" class="st2" d="M290.4,153l-13.2-12.2c0,0-7.4-0.1-12.8,0.3c-3.2,0.2-8.7,1.5-10.8,3.8l-8.7,9.4
	c-1.1,1.3-1,3.2,0.3,4.3l27.5,25.4c1.2,1.2,3.1,1.2,4.3,0l7.9-8.6C289.7,170.4,292.1,154.6,290.4,153z"/>
<path id="pfad-21" class="st5" d="M215.7,152.7H281c2.1,0,3.7,1.7,3.7,3.7v25.9c0,2.4-1.9,4.3-4.3,4.3l0,0h-64.7
	c-2.4,0-4.3-1.9-4.3-4.3V157C211.4,154.6,213.3,152.7,215.7,152.7C215.7,152.7,215.7,152.7,215.7,152.7z"/>
<path id="pfad-22" class="st2" d="M256.3,148.5l-0.9-0.8c-1.3-1.2-3.5-0.9-5,0.7l-9.9,10.7c-1.5,1.6-2.2,3.3-1,4.4
	c3,2.8,7.8-0.6,9.3-2.2l7.2-7.8C257.5,151.9,257.6,149.7,256.3,148.5z"/>
<path id="rechteck-19" class="st2" d="M274.8,179.4l0.9,0.7c1.4,1.1,1.5,3.1,0.4,4.5l-4.7,5.6c-1.1,1.4-3.1,1.5-4.5,0.4l-0.9-0.7
	c-1.4-1.1-1.5-3.1-0.4-4.5l4.7-5.6C271.4,178.4,273.4,178.2,274.8,179.4z"/>
<path id="rechteck-20" class="st2" d="M262.7,178.7l0.9,0.7c1.4,1.1,1.5,3.1,0.4,4.5l-4.7,5.6c-1.1,1.4-3.1,1.5-4.5,0.4l-0.9-0.7
	c-1.4-1.1-1.5-3.1-0.4-4.5l4.7-5.6C259.3,177.7,261.3,177.6,262.7,178.7z"/>
<path id="rechteck-21" class="st2" d="M250.6,177.6l0.9,0.7c1.4,1.1,1.5,3.1,0.4,4.5l-4.7,5.6c-1.1,1.4-3.1,1.5-4.5,0.4l-0.9-0.7
	c-1.4-1.1-1.5-3.1-0.4-4.5l4.7-5.6C247.3,176.6,249.3,176.5,250.6,177.6z"/>
<rect id="rechteck-22" x="217.6" y="163.4" class="st6" width="18.9" height="3.8"/>
<rect id="rechteck-23" x="219.5" y="166.4" class="st6" width="15.2" height="13.6"/>
<path class="st6" d="M225.8,164.4c-0.3,0-0.7-0.1-1.1-0.2c-0.8-0.3-1.6-0.8-2.4-1.6c-1.8-1.8-2.3-3.8-1.2-4.9l0,0
	c1.1-1.1,3.1-0.6,4.9,1.2c0.7,0.7,1.3,1.6,1.6,2.4c0.4,1,0.2,1.9-0.3,2.5C226.9,164.2,226.4,164.4,225.8,164.4z M222.6,159.3
	c0,0.3,0.3,1.1,1.2,2c0.9,0.9,1.7,1.2,2,1.2c0-0.3-0.3-1.1-1.2-2C223.8,159.6,223,159.3,222.6,159.3z"/>
<path class="st6" d="M228.3,164.4c-0.6,0-1.1-0.2-1.4-0.5c-1.1-1.1-0.6-3.1,1.2-4.9c0.7-0.7,1.6-1.3,2.4-1.6c1-0.4,1.9-0.2,2.5,0.3
	c1.1,1.1,0.6,3.1-1.2,4.9C230.6,163.8,229.4,164.4,228.3,164.4z M231.5,159.3c-0.3,0-1.1,0.3-2,1.2c-0.9,0.9-1.2,1.7-1.2,2
	c0.3,0,1.1-0.3,2-1.2C231.2,160.4,231.5,159.6,231.5,159.3z"/>
<rect x="226.1" y="163.2" class="st5" width="2" height="16.8"/>
<rect x="218.8" y="170.6" class="st5" width="16.8" height="2"/>
<rect x="255.5" y="166.7" transform="matrix(0.7178 -0.6963 0.6963 0.7178 -41.1821 233.7404)" class="st6" width="24.4" height="2"/>
<path class="st6" d="M262.1,168.3c-2.1,0-3.8-2.1-3.8-4.7s1.7-4.7,3.8-4.7s3.8,2.1,3.8,4.7S264.3,168.3,262.1,168.3z M262.1,160.9
	c-1,0-1.8,1.2-1.8,2.7s0.8,2.7,1.8,2.7c1,0,1.8-1.2,1.8-2.7S263.1,160.9,262.1,160.9z"/>
<path class="st6" d="M273,176.3c-2.1,0-3.8-2.1-3.8-4.7s1.7-4.7,3.8-4.7s3.8,2.1,3.8,4.7S275.1,176.3,273,176.3z M273,168.9
	c-1,0-1.8,1.2-1.8,2.7s0.8,2.7,1.8,2.7c1,0,1.8-1.2,1.8-2.7S274,168.9,273,168.9z"/>
<path class="st1" d="M46.6,51.2c0.6,3.7,3.1,7,6.9,8.4c5.5,2,11.6-0.9,13.6-6.4s-0.9-11.6-6.4-13.6c-0.4-0.2-0.9-0.3-1.3-0.4
	C54.9,43,50.7,47,46.6,51.2z"/>
<rect id="Rechteck_1889" class="st7" width="324" height="324"/>
<path class="st2" d="M53.1,49.8l-2.6,4.6l5.2-0.7l3.5,3.9l0.9-5.2l4.8-2.2l-4.6-2.5l-0.6-5.2l-3.8,3.6l-3.5-0.7
	c-0.3,0.3-0.7,0.6-1,1L53.1,49.8z"/>
<path class="st2" d="M264.9,39.5l-41.4,44.8l14.2,13.1l41.2-44.6C274.5,48,269.8,43.6,264.9,39.5z"/>
<path class="st2" d="M311.1,103.9l-35.6,38.6l14.2,13.1l28.1-30.4C316,117.9,313.8,110.8,311.1,103.9z"/>
<g>
	<path class="st3" d="M93.8,176.7c-7-5.8-16.3-8-27.5-6.5c-3.7,0.5-9.2,6.5-12.8,19c-3.1,10.4-5.9,28.9-2.2,58.3
		c2.1,16.4,5.9,30.2,11.1,39.9c1.5,1.2,2.9,2.3,4.4,3.4c-5.4-7.8-10.8-21.7-13.6-43.5c-3.7-29-0.9-47.3,2.1-57.5
		c3.6-12.3,8.7-17.2,11.2-17.5c10.6-1.4,19.4,0.7,26,6.1c11.2,9.2,12.5,25.1,12.5,25.3l2-0.1C107.1,202.7,105.7,186.4,93.8,176.7z"
		/>
	<path class="st3" d="M83.9,290.4c-0.7,4.6-2.5,7.6-5.1,8.2c0.7,0.4,1.4,0.8,2.1,1.3c2.6-1.5,4.3-4.7,5-9.2L83.9,290.4z"/>
</g>
<path id="pfad-14" class="st4" d="M99,189.6c0,0-18.7,50.2-15.2,77.8c2.5,19.7,6.8,28.6,16.4,27.4l71.3-9.1
	c8.9-1.1,11.1-6.4,7.6-33.6c-3.4-26.7-28.8-67.1-32.3-68.3S99,189.6,99,189.6z"/>
<path id="rechteck" class="st3" d="M102.1,185.6l3.5,2.7c0.9,0.7,1,1.9,0.4,2.8l-2.7,3.5c-0.7,0.9-1.9,1-2.8,0.4l-3.5-2.7
	c-0.9-0.7-1-1.9-0.4-2.8l2.7-3.5C100,185.1,101.2,184.9,102.1,185.6z"/>
<path id="rechteck-2" class="st3" d="M109.4,184.7l3.5,2.7c0.9,0.7,1,1.9,0.4,2.8l-2.7,3.5c-0.7,0.9-1.9,1-2.8,0.4l-3.5-2.7
	c-0.9-0.7-1-1.9-0.4-2.8l2.7-3.5C107.3,184.1,108.5,184,109.4,184.7z"/>
<path id="rechteck-3" class="st3" d="M116.7,183.7l3.5,2.7c0.9,0.7,1,1.9,0.4,2.8l-2.7,3.5c-0.7,0.9-1.9,1-2.8,0.4l-3.5-2.7
	c-0.9-0.7-1-1.9-0.4-2.8l2.7-3.5C114.6,183.2,115.9,183.1,116.7,183.7z"/>
<path id="rechteck-4" class="st3" d="M124.1,182.8l3.5,2.7c0.9,0.7,1,1.9,0.4,2.8l-2.7,3.5c-0.7,0.9-1.9,1-2.8,0.4l-3.5-2.7
	c-0.9-0.7-1-1.9-0.4-2.8l2.7-3.5C121.9,182.3,123.2,182.1,124.1,182.8z"/>
<path id="rechteck-5" class="st3" d="M131.4,181.9l3.5,2.7c0.9,0.7,1,1.9,0.4,2.8l-2.7,3.5c-0.7,0.9-1.9,1-2.8,0.4l-3.5-2.7
	c-0.9-0.7-1-1.9-0.4-2.8l2.7-3.5C129.3,181.3,130.5,181.2,131.4,181.9z"/>
<path id="rechteck-6" class="st3" d="M138.7,180.9l3.5,2.7c0.9,0.7,1,1.9,0.4,2.8l-2.7,3.5c-0.7,0.9-1.9,1-2.8,0.4l-3.5-2.7
	c-0.9-0.7-1-1.9-0.4-2.8l2.7-3.5C136.6,180.4,137.9,180.3,138.7,180.9z"/>
<path id="rechteck-7" class="st3" d="M146.1,180l3.5,2.7c0.9,0.7,1,1.9,0.4,2.8l-2.7,3.5c-0.7,0.9-1.9,1-2.8,0.4l-3.5-2.7
	c-0.9-0.7-1-1.9-0.4-2.8l2.7-3.5C143.9,179.5,145.2,179.3,146.1,180z"/>
<path id="rechteck-8" class="st4" d="M82.4,286.8l19-2.4c1.6-0.2,3.1,1,3.4,2.6l0.5,4c0.2,1.6-1,3.1-2.6,3.4l-19,2.4
	c-1.6,0.2-3.1-1-3.4-2.6l-0.5-4C79.6,288.5,80.8,287,82.4,286.8z"/>
<ellipse id="ellipse-11" transform="matrix(0.9919 -0.127 0.127 0.9919 -36.3167 13.2921)" class="st3" cx="86.1" cy="291.5" rx="2.5" ry="2.5"/>
</svg>
