<?xml version="1.0" encoding="utf-8"?>
<!-- Generator: Adobe Illustrator 20.1.0, SVG Export Plug-In . SVG Version: 6.00 Build 0)  -->
<svg version="1.1" id="Ebene_1" xmlns="http://www.w3.org/2000/svg" xmlns:xlink="http://www.w3.org/1999/xlink" x="0px" y="0px"
	 viewBox="0 0 32 32" style="enable-background:new 0 0 32 32;" xml:space="preserve">
<style type="text/css">
	.st0{fill:none;}
	.st1{fill:#4178BE;}
</style>
<g id="Symbol_55_1" transform="translate(-5470 -3534)">
	<path id="Pfad_2931" class="st0" d="M5470,3534h32v32h-32V3534z"/>
	<g id="Gruppe_2162" transform="translate(2.5 -28)">
		<g id="Gruppe_2157" transform="translate(-11 -128)">
			<path id="Differenzmenge_166" class="st1" d="M5494.5,3720c-7.7,0-14-6.3-14-14s6.3-14,14-14s14,6.3,14,14
				C5508.5,3713.7,5502.2,3720,5494.5,3720z M5487.5,3707.9l-2.3,0.6c0.7,5.1,5.5,8.6,10.6,7.9c4.1-0.6,7.3-3.8,7.9-7.9l-2.3-0.6
				c-0.3,3.1-2.7,5.7-5.8,6.2v-6.9h2.3v-2.3h-2.3v-2.5c1.8-0.6,2.8-2.6,2.1-4.5c-0.6-1.8-2.6-2.8-4.5-2.1s-2.8,2.6-2.1,4.5
				c0.4,1,1.1,1.8,2.1,2.1v2.5h-2.3v2.3h2.3v6.9C5490.2,3713.5,5487.9,3711,5487.5,3707.9L5487.5,3707.9z"/>
		</g>
	</g>
</g>
</svg>
