<svg id="Ebene_1" data-name="Ebene 1" xmlns="http://www.w3.org/2000/svg" width="32" height="32" viewBox="0 0 32 32"><title>ID_524_ic_qrscan_blue_32px</title><g id="Symbol_110_310" data-name="Symbol 110 310"><g id="Symbol_110_307" data-name="Symbol 110 307"><g id="Gruppe_5001" data-name="Gruppe 5001"><rect id="Rechteck_3132" data-name="Rechteck 3132" width="32" height="32" style="fill:none"/><g id="Gruppe_4996" data-name="Gruppe 4996"><path id="Vereinigungsmenge_770" data-name="Vereinigungsmenge 770" d="M4,28V21H6v5h5v2Z" style="fill:#fff"/><path id="Vereinigungsmenge_771" data-name="Vereinigungsmenge 771" d="M4,4h7V6H6v5H4Z" style="fill:#fff"/><path id="Vereinigungsmenge_772" data-name="Vereinigungsmenge 772" d="M28,4v7H26V6H21V4Z" style="fill:#fff"/><path id="Vereinigungsmenge_773" data-name="Vereinigungsmenge 773" d="M28,28H21V26h5V21h2Z" style="fill:#fff"/><rect id="rechteck-21" x="9" y="9" width="5" height="5" style="fill:#fff"/><rect id="rechteck-21-2" x="9" y="18" width="5" height="5" style="fill:#fff"/><rect id="rechteck-21-3" x="18" y="20" width="5" height="3" style="fill:#fff"/><rect id="rechteck-21-4" x="18" y="18" width="2" height="3" style="fill:#fff"/><rect id="rechteck-21-5" x="18" y="9" width="5" height="5" style="fill:#fff"/></g></g></g><g id="Gruppe_5002" data-name="Gruppe 5002"><path id="Vereinigungsmenge_774" data-name="Vereinigungsmenge 774" d="M4,28V21H6v5h5v2Z" style="fill:#4178be"/><path id="Vereinigungsmenge_775" data-name="Vereinigungsmenge 775" d="M4,4h7V6H6v5H4Z" style="fill:#4178be"/><path id="Vereinigungsmenge_776" data-name="Vereinigungsmenge 776" d="M28,4v7H26V6H21V4Z" style="fill:#4178be"/><path id="Vereinigungsmenge_777" data-name="Vereinigungsmenge 777" d="M28,28H21V26h5V21h2Z" style="fill:#4178be"/><rect id="rechteck-21-6" x="9" y="9" width="5" height="5" style="fill:#4178be"/><rect id="rechteck-21-7" x="9" y="18" width="5" height="5" style="fill:#4178be"/><polygon points="20 20 20 18 18 18 18 20 18 21 18 23 23 23 23 20 20 20" style="fill:#4178be"/><rect id="rechteck-21-10" x="18" y="9" width="5" height="5" style="fill:#4178be"/></g></g></svg>