<?xml version="1.0" encoding="utf-8"?>
<!-- Generator: Adobe Illustrator 20.1.0, SVG Export Plug-In . SVG Version: 6.00 Build 0)  -->
<svg version="1.1" id="Ebene_1" xmlns="http://www.w3.org/2000/svg" xmlns:xlink="http://www.w3.org/1999/xlink" x="0px" y="0px"
	 viewBox="0 0 20 20" style="enable-background:new 0 0 20 20;" xml:space="preserve">
<style type="text/css">
	.st0{fill:none;}
</style>
<g id="Symbol_93_1" transform="translate(-4817 -3556)">
	<path id="Pfad_3382" class="st0" d="M4817,3556h20v20h-20V3556z"/>
	<g id="Gruppe_2799" transform="translate(-490 230.333)">
		<path id="Pfad_3383" d="M5319,3328.7h-4v1.3h4V3328.7z M5321.7,3332.9l0.9-0.9c-0.3-0.3-0.6-0.7-0.9-0.9l-0.9,0.9
			c-2.6-2.1-6.4-1.6-8.4,0.9s-1.6,6.4,0.9,8.4s6.4,1.6,8.4-0.9C5323.4,3338.2,5323.4,3335.1,5321.7,3332.9z M5317,3341.3
			c-2.6,0-4.7-2.1-4.7-4.7c0-2.6,2.1-4.7,4.7-4.7s4.7,2.1,4.7,4.7l0,0C5321.7,3339.2,5319.6,3341.3,5317,3341.3
			C5317,3341.3,5317,3341.3,5317,3341.3z"/>
		<path id="pfad-14" d="M5316,3336.9C5316,3336.9,5316,3336.9,5316,3336.9L5316,3336.9v-0.1c0-0.1,0-0.2,0.1-0.2l1-4.1l1,4.1
			c0,0.1,0,0.2,0.1,0.2v0l0,0c0,0,0,0.1,0,0.1c0,0.6-0.5,1-1,1c0,0,0,0,0,0C5316.5,3337.9,5316,3337.5,5316,3336.9z"/>
	</g>
</g>
</svg>
