<?xml version="1.0" encoding="utf-8"?>
<!-- Generator: Adobe Illustrator 20.1.0, SVG Export Plug-In . SVG Version: 6.00 Build 0)  -->
<svg version="1.1" id="Ebene_1" xmlns="http://www.w3.org/2000/svg" xmlns:xlink="http://www.w3.org/1999/xlink" x="0px" y="0px"
	 viewBox="0 0 32 32" style="enable-background:new 0 0 32 32;" xml:space="preserve">
<style type="text/css">
	.st0{fill:#4178BE;}
	.st1{fill:none;}
</style>
<g id="Gruppe_3993" transform="translate(-5470 -3534)">
	<g id="Gruppe_2156" transform="translate(20.5 -273)">
		<path id="Differenzmenge_168" class="st0" d="M5465.5,3837c-7.7,0-14-6.3-14-14s6.3-14,14-14s14,6.3,14,14
			C5479.5,3830.7,5473.2,3837,5465.5,3837z M5465.4,3829.6L5465.4,3829.6l6.8,3.4v-16.1c0-1.6-1.4-2.9-3-2.9h-7.7
			c-1.6,0-3,1.2-3,2.9c0,0,0,0.1,0,0.1v16L5465.4,3829.6z M5460.5,3829.8V3817c0-0.5,0.4-1,0.9-1c0,0,0.1,0,0.1,0h7.7
			c0.5,0,0.9,0.5,0.9,1v12.8l-4.8-2.4L5460.5,3829.8L5460.5,3829.8z"/>
	</g>
	<path id="Pfad_2952" class="st1" d="M5470,3534h32v32h-32V3534z"/>
</g>
</svg>
