<?xml version="1.0" encoding="utf-8"?>
<!-- Generator: Adobe Illustrator 20.1.0, SVG Export Plug-In . SVG Version: 6.00 Build 0)  -->
<svg version="1.1" id="Ebene_1" xmlns="http://www.w3.org/2000/svg" xmlns:xlink="http://www.w3.org/1999/xlink" x="0px" y="0px"
	 viewBox="0 0 257 162" style="enable-background:new 0 0 257 162;" xml:space="preserve">
<style type="text/css">
	.st0{fill:none;}
	.st1{fill:#FFCC00;}
	.st2{fill:#DBB100;}
</style>
<g id="Symbol_44_1" transform="translate(-3546 -3543)">
	<rect id="Rechteck_1891" x="3546" y="3543" class="st0" width="257" height="162"/>
	<g id="Gruppe_2343" transform="translate(-8)">
		<g id="Gruppe_2341">
			<path id="pfad" class="st1" d="M3574.3,3564.7c3.6-1.5,6.1-4.8,6.5-8.6c0.7-4.1-0.9-8.3-4-11.1c-3.7,1.8-6.3,5.3-6.7,9.4
				C3569.5,3558.3,3571.1,3562.3,3574.3,3564.7"/>
			<path id="pfad-2" class="st1" d="M3573.9,3573.4c0-3.9,2-7.4,5.4-9.3c3.6-2.3,8-2.5,11.8-0.6c-0.2,4.1-2.5,7.7-6.1,9.7
				C3581.6,3575.4,3577.3,3575.4,3573.9,3573.4"/>
			<path id="pfad-3" class="st1" d="M3573.9,3573.4c0-3.9-2-7.4-5.4-9.3c-3.6-2.2-8-2.4-11.8-0.6c0.2,4.1,2.5,7.7,6.1,9.7
				C3566.2,3575.4,3570.5,3575.4,3573.9,3573.4"/>
			<path id="pfad-4" class="st1" d="M3574.6,3587.7c-0.3-4.1,1.7-8,5.2-10.1c6.6-4.3,12.3-1.3,12.3-1.3c0,4.3-2.3,8.3-5.9,10.5
				C3579.9,3591,3574.6,3587.7,3574.6,3587.7"/>
			<path id="pfad-5" class="st1" d="M3574.6,3587.7c-0.2-4.1-2.6-7.7-6.2-9.5c-3.8-2.2-8.6-2.2-12.4,0c0.5,4.2,3.1,7.9,6.9,9.8
				C3566.5,3590.1,3571.1,3590,3574.6,3587.7"/>
			<path id="pfad-6" class="st1" d="M3577.2,3603.4c-0.8-4.2,0.8-8.4,4.1-11.1c3.4-3.1,8.3-4.2,12.7-2.9c0.6,4.5-1.2,8.9-4.8,11.7
				C3583.1,3606.1,3577.2,3603.4,3577.2,3603.4"/>
			<path id="pfad-7" class="st1" d="M3577.1,3603.4c-0.7-4.2-3.7-7.7-7.7-9.1c-7.8-2.8-12.9,1.6-12.9,1.6c1,4.4,4.2,7.9,8.5,9.4
				C3569.1,3607,3573.7,3606.2,3577.1,3603.4"/>
			<path id="pfad-8" class="st1" d="M3582.3,3619.6c-1.4-4.2-0.4-8.9,2.6-12.2c5.8-6.5,12.8-4.9,12.8-4.9c1.2,4.6,0,9.4-3.2,12.9
				C3588.9,3621.5,3582.3,3619.6,3582.3,3619.6"/>
			<path id="pfad-9" class="st1" d="M3582.2,3619.6c-1.3-4.3-4.9-7.5-9.3-8.3c-8.5-1.8-13.2,3.5-13.2,3.5c1.7,4.4,5.6,7.6,10.2,8.5
				C3578,3625,3582.2,3619.6,3582.2,3619.6"/>
			<path id="pfad-10" class="st1" d="M3590.8,3636.2c-2.1-4.2-1.7-9.2,1-13.1c2.7-4.3,7.5-6.9,12.6-6.9c1.9,4.6,1.3,9.9-1.6,13.9
				C3597.9,3637.3,3590.8,3636.2,3590.8,3636.2"/>
			<path id="pfad-11" class="st1" d="M3590.8,3636.3c-2-4.2-6.1-7-10.8-7.3c-9.1-0.7-13.2,5.5-13.2,5.5c2.4,4.3,6.8,7.1,11.8,7.4
				C3587.2,3642.5,3590.8,3636.3,3590.8,3636.3"/>
			<path id="pfad-12" class="st1" d="M3603.2,3651.5c-2.9-4-3.3-9.3-1.2-13.7c4-8.7,11.9-9.3,11.9-9.3c2.8,4.4,3,9.9,0.7,14.6
				C3610.8,3651.5,3603.2,3651.5,3603.2,3651.5"/>
			<path id="pfad-13" class="st1" d="M3603.2,3651.5c-2.8-4.1-7.6-6.3-12.5-5.8c-9.5,0.8-12.8,8-12.8,8c3.2,4.1,8.3,6.3,13.5,5.7
				C3600.6,3658.6,3603.2,3651.5,3603.2,3651.5"/>
			<path id="pfad-14" class="st1" d="M3619.8,3664c-3.8-3.6-5.3-8.9-3.9-13.9c2.4-9.8,10.4-11.9,10.4-11.9c3.7,4,5.1,9.6,3.7,14.9
				C3627.6,3662.4,3619.8,3664,3619.8,3664"/>
			<path id="pfad-15" class="st1" d="M3619.7,3664c-3.7-3.6-9.1-4.9-14-3.4c-9.7,2.8-11.6,10.8-11.6,10.8c4.1,3.6,9.8,4.8,15,3.2
				C3618.4,3671.8,3619.7,3664,3619.7,3664"/>
			<path id="pfad-16" class="st1" d="M3637,3676.3c-4.3-3.3-6.5-8.7-5.6-14.1c1.5-10.5,9.5-13.6,9.5-13.6c4.4,3.8,6.4,9.5,5.5,15.2
				C3645,3673.8,3637,3676.3,3637,3676.3"/>
			<path id="pfad-17" class="st1" d="M3637,3676.4c-4.2-3.4-10-4.2-15-2.1c-9.8,4-10.9,12.5-10.9,12.5c4.7,3.3,10.8,3.9,16.1,1.6
				C3636.5,3684.7,3637,3676.4,3637,3676.4"/>
		</g>
		<g id="Gruppe_2342">
			<path id="pfad-18" class="st1" d="M3790.7,3564.7c-3.6-1.5-6.1-4.8-6.5-8.6c-0.7-4.1,0.9-8.3,4-11.1c3.7,1.8,6.2,5.3,6.6,9.4
				C3795.5,3558.3,3793.9,3562.3,3790.7,3564.7"/>
			<path id="pfad-19" class="st1" d="M3791,3573.4c0-3.9-2-7.4-5.4-9.3c-3.6-2.3-8-2.5-11.8-0.6c0.2,4.1,2.5,7.7,6.1,9.7
				C3783.3,3575.4,3787.6,3575.4,3791,3573.4"/>
			<path id="pfad-20" class="st1" d="M3791.1,3573.4c0-3.9,2-7.4,5.4-9.3c3.6-2.3,8-2.5,11.8-0.6c-0.2,4.1-2.5,7.7-6.1,9.7
				C3795.9,3576.8,3791.1,3573.4,3791.1,3573.4"/>
			<path id="pfad-21" class="st1" d="M3790.3,3587.7c0.3-4.1-1.7-8-5.2-10.1c-6.6-4.3-12.3-1.3-12.3-1.3c0,4.3,2.3,8.3,5.9,10.5
				C3785,3591,3790.3,3587.7,3790.3,3587.7"/>
			<path id="pfad-22" class="st1" d="M3790.4,3587.7c0.2-4.1,2.6-7.7,6.2-9.5c3.8-2.2,8.6-2.2,12.4,0c-0.5,4.2-3.1,7.9-6.9,9.8
				C3795.3,3591.5,3790.4,3587.7,3790.4,3587.7"/>
			<path id="pfad-23" class="st1" d="M3787.8,3603.4c0.8-4.2-0.8-8.4-4.1-11.1c-3.4-3.1-8.3-4.2-12.7-2.9c-0.6,4.5,1.2,8.9,4.8,11.7
				C3779.1,3604,3783.7,3604.9,3787.8,3603.4"/>
			<path id="pfad-24" class="st1" d="M3787.8,3603.4c0.7-4.2,3.7-7.7,7.7-9.1c7.8-2.8,12.9,1.6,12.9,1.6c-1,4.4-4.2,7.9-8.5,9.4
				C3795.8,3607,3791.2,3606.2,3787.8,3603.4"/>
			<path id="pfad-25" class="st1" d="M3782.7,3619.6c1.4-4.2,0.4-8.9-2.6-12.2c-5.8-6.5-12.8-4.9-12.8-4.9c-1.2,4.6,0,9.4,3.2,12.9
				C3776.1,3621.5,3782.7,3619.6,3782.7,3619.6"/>
			<path id="pfad-26" class="st1" d="M3782.7,3619.6c1.3-4.3,4.9-7.5,9.3-8.3c8.5-1.8,13.2,3.5,13.2,3.5c-1.7,4.4-5.6,7.6-10.2,8.5
				C3786.9,3625,3782.7,3619.6,3782.7,3619.6"/>
			<path id="pfad-27" class="st1" d="M3774.2,3636.2c2.1-4.2,1.7-9.2-1-13.1c-2.7-4.3-7.5-6.9-12.6-6.9c-1.9,4.6-1.3,9.9,1.6,13.9
				C3764.7,3634.2,3769.4,3636.6,3774.2,3636.2"/>
			<path id="pfad-28" class="st1" d="M3774.2,3636.3c2-4.2,6.1-7,10.8-7.3c9.1-0.7,13.2,5.5,13.2,5.5c-2.4,4.3-6.8,7.1-11.8,7.4
				C3777.8,3642.5,3774.2,3636.3,3774.2,3636.3"/>
			<path id="pfad-29" class="st1" d="M3761.7,3651.5c2.9-4,3.3-9.3,1.2-13.7c-4-8.7-11.9-9.3-11.9-9.3c-2.8,4.4-3,9.9-0.7,14.6
				C3754.1,3651.5,3761.7,3651.5,3761.7,3651.5"/>
			<path id="pfad-30" class="st1" d="M3761.7,3651.5c2.8-4.1,7.6-6.3,12.5-5.8c9.5,0.8,12.8,8,12.8,8c-3.2,4.1-8.3,6.3-13.5,5.7
				C3764.4,3658.6,3761.7,3651.5,3761.7,3651.5"/>
			<path id="pfad-31" class="st1" d="M3745.2,3664c3.8-3.6,5.3-8.9,3.9-13.9c-2.4-9.8-10.4-11.9-10.4-11.9c-3.7,4-5.1,9.6-3.7,14.9
				C3737.4,3662.4,3745.2,3664,3745.2,3664"/>
			<path id="pfad-32" class="st1" d="M3745.2,3664c3.7-3.6,9.1-4.9,14-3.4c9.7,2.8,11.6,10.8,11.6,10.8c-4.1,3.6-9.8,4.8-15,3.2
				C3746.5,3671.8,3745.2,3664,3745.2,3664"/>
			<path id="pfad-33" class="st1" d="M3728,3676.3c4.3-3.3,6.5-8.7,5.6-14.1c-1.5-10.5-9.5-13.6-9.5-13.6c-4.4,3.8-6.4,9.5-5.5,15.2
				C3720,3673.8,3728,3676.3,3728,3676.3"/>
			<path id="pfad-34" class="st1" d="M3728,3676.4c4.2-3.4,10-4.2,15-2.1c9.8,4,10.9,12.5,10.9,12.5c-4.7,3.3-10.8,3.9-16.1,1.6
				C3728.5,3684.7,3728,3676.4,3728,3676.4"/>
		</g>
		<g id="Gruppe_2340">
			<path id="Vereinigungsmenge_726" class="st1" d="M3657.9,3703c-2.6,0.1-4.7-1.8-4.9-4.4c0-1,0.2-2,0.8-2.8
				c2.3-3.2,9.1-3.4,15.6-17.9c3.4-7.1,5.5-14.8,6.4-22.6c-21.1-5.6-37.4-37.9-37.7-67V3572h88.3v16.3
				c-0.4,28.3-15.9,59.7-36.2,66.5c1.1,8,3.4,15.8,6.9,23.1c5.7,14,11.8,14.3,14.5,18.3c1.9,2.7-0.4,6.8-4.1,6.8L3657.9,3703z"/>
			<path id="Pfad_3272" class="st2" d="M3682.1,3624.7l16.8,8.9l-4.2-19.1l14.5-12.8l-19.1-3.1l-8-16.5l-7.8,16.5l-19.4,3.1
				l14.5,12.8l-4.2,19.1L3682.1,3624.7z"/>
			<g id="Gruppe_2339_1_" transform="translate(-3477.596 -3190.9)">
				<path id="Pfad_3518" class="st1" d="M7131.4,6823.8c-14.3,0-27.6-7.5-35.1-19.7c-4.8-7.9-7.4-17-7.5-26.2c0-1,0.4-2,1.1-2.8
					c0.7-0.8,1.7-1.2,2.8-1.2h25.4c2.2,0,3.9,1.7,3.9,3.9c0,2.2-1.7,3.9-3.9,3.9h-21.2c0.7,6.5,2.8,12.7,6.2,18.2
					c6.1,9.8,16.8,15.9,28.4,15.9h0.1c2.2,0,3.9,1.7,3.9,3.9c0,2.1-1.7,3.9-3.8,3.9c0,0-0.1,0-0.1,0
					C7131.5,6823.8,7131.5,6823.8,7131.4,6823.8z"/>
				<path id="Pfad_3519" class="st1" d="M7187.9,6823.8h-0.2c-2.2,0-3.9-1.7-3.9-3.9s1.7-3.9,3.9-3.9h0.2c11.6,0,22.4-6.1,28.5-16
					c3.4-5.5,5.5-11.8,6.2-18.2h-21.3c-2.2,0-3.9-1.7-3.9-3.9s1.7-3.9,3.9-3.9h25.4c2.2,0,3.9,1.8,3.9,4c0,0,0,0,0,0
					c-0.1,9.3-2.7,18.3-7.6,26.2C7215.5,6816.4,7202.2,6823.8,7187.9,6823.8z"/>
			</g>
		</g>
	</g>
</g>
</svg>
