<?xml version="1.0" encoding="utf-8"?>
<!-- Generator: Adobe Illustrator 20.1.0, SVG Export Plug-In . SVG Version: 6.00 Build 0)  -->
<svg version="1.1" id="Ebene_1" xmlns="http://www.w3.org/2000/svg" xmlns:xlink="http://www.w3.org/1999/xlink" x="0px" y="0px"
	 viewBox="0 0 20 20" style="enable-background:new 0 0 20 20;" xml:space="preserve">
<style type="text/css">
	.st0{fill:none;}
</style>
<g id="Symbol_97_1" transform="translate(-4817 -3556)">
	<path id="Pfad_3354" class="st0" d="M4817,3556h20v20h-20V3556z"/>
	<path d="M4827,3573.4l-0.4-0.5c-0.2-0.2-5.2-5.6-5.2-9.5c0-1.5,0.6-2.9,1.7-3.9c1.1-1,2.5-1.6,3.9-1.6h0c0,0,0,0,0.1,0
		c1.5,0,2.8,0.6,3.9,1.6c1.1,1,1.6,2.4,1.7,3.9c0,3.9-4.9,9.3-5.2,9.5L4827,3573.4z M4826.9,3559.1c-1.1,0-2.2,0.4-3,1.2
		c-0.8,0.8-1.3,1.9-1.3,3.1c0,2.8,3.2,6.8,4.4,8.2c1.2-1.4,4.4-5.4,4.4-8.2c0-1.2-0.5-2.2-1.3-3.1
		C4829.3,3559.5,4828.2,3559.1,4826.9,3559.1L4826.9,3559.1C4827,3559.1,4827,3559.1,4826.9,3559.1z M4827,3565.8
		C4827,3565.8,4827,3565.8,4827,3565.8L4827,3565.8c-1.3,0-2.4-1.1-2.3-2.4c0-1.3,1.1-2.3,2.4-2.3c1.3,0,2.3,1.1,2.3,2.3
		C4829.4,3564.7,4828.3,3565.8,4827,3565.8z M4827,3564.5C4827,3564.5,4827,3564.5,4827,3564.5c0.6,0,1.2-0.5,1.2-1.2
		c0-0.6-0.5-1.1-1.1-1.1c-0.6,0-1.2,0.5-1.2,1.1C4825.9,3564,4826.4,3564.5,4827,3564.5z"/>
</g>
</svg>
