<?xml version="1.0" encoding="utf-8"?>
<!-- Generator: Adobe Illustrator 20.1.0, SVG Export Plug-In . SVG Version: 6.00 Build 0)  -->
<svg version="1.1" id="Ebene_1" xmlns="http://www.w3.org/2000/svg" xmlns:xlink="http://www.w3.org/1999/xlink" x="0px" y="0px"
	 viewBox="0 0 32 32" style="enable-background:new 0 0 32 32;" xml:space="preserve">
<style type="text/css">
	.st0{fill:none;}
	.st1{fill:#305B81;}
	.st2{fill:#FFFFFF;}
</style>
<g id="Symbol_37_1" transform="translate(-4145 -3556)">
	<g id="Gruppe_2099" transform="translate(-30 -1)">
		<rect id="Rechteck_1719" x="4175" y="3557" class="st0" width="32" height="32"/>
		<g id="Gruppe_2089" transform="translate(-92 -52)">
			<path id="pfad-1" class="st1" d="M4283,3639c7.7,0,14-6.3,14-14s-6.3-14-14-14s-14,6.3-14,14S4275.3,3639,4283,3639"/>
			<g id="gruppe-244" transform="translate(148.667 405)">
				<path id="pfad" class="st2" d="M4128.5,3213.3c0,0.6-0.5,1.1-1.1,1.1s-1.1-0.5-1.1-1.1c0-0.6,0.5-1.1,1.1-1.1l0,0
					C4128,3212.2,4128.4,3212.7,4128.5,3213.3C4128.5,3213.3,4128.5,3213.3,4128.5,3213.3"/>
				<path id="pfad-2" class="st2" d="M4128,3226.5c-0.3-0.6-0.3-1.2,0.1-1.8c0.3-0.4,0.8-0.5,1.2-0.4c0.3,0.1,0.7,0.3,0.7,1.1
					c0,0.6-0.5,1-1,1.1C4128.7,3226.6,4128.3,3226.6,4128,3226.5 M4127.4,3215.1c-0.9,0-1.7-0.8-1.7-1.8c0-0.9,0.7-1.7,1.7-1.7
					c0,0,0,0,0,0c0.9,0,1.7,0.7,1.7,1.7c0,0,0,0,0,0C4129.1,3214.2,4128.3,3215,4127.4,3215.1 M4142.8,3213
					c-0.3-0.3-0.7-0.4-1.1-0.4h-1.1c-0.2-0.4-0.6-0.6-1-0.6c-0.6,0-1.2,0.5-1.2,1.1c0,0.6,0.6,1.2,1.2,1.1c0.5,0,0.9-0.3,1.1-0.7
					h1.1c0.1,0,0.2,0.1,0.3,0.1c0.2,0.2,0.2,0.5,0.1,0.8c-0.1,0.9-0.5,3.6-0.9,6.1h-0.4c0,0-0.4,3.2-0.5,3.9s-0.4,0.7-0.7,0.7h-4.6
					c-0.3,0-0.7,0-0.7-0.7s-0.5-3.9-0.5-3.9h-0.3c-0.4-2.4-0.7-5.2-0.9-6.1c-0.1-0.3,0-0.6,0.1-0.8c0.1-0.1,0.2-0.1,0.3-0.1h1.1
					c0.3,0.6,1,0.9,1.6,0.6c0.4-0.2,0.7-0.6,0.7-1c0-0.6-0.6-1.2-1.2-1.1c-0.4,0-0.8,0.2-1,0.6h-1.1c-0.4,0-0.8,0.1-1.1,0.4
					c-0.4,0.4-0.6,1-0.5,1.6c0.1,0.9,0.5,3.5,0.9,5.9h-0.4c0,0,0.5,4.5,0.7,5c0.1,0.6,0.5,1.4,1.9,1.4h2.2c-0.1,0.9-0.6,1.7-1.3,2.3
					c-1.6,1.3-4.6,0.9-6.2-0.7c-0.3-0.3-0.5-0.6-0.7-0.9c0.2,0,0.4,0,0.5-0.1c1-0.2,1.8-1.1,1.8-2.1c0.1-0.9-0.5-1.8-1.4-2
					c-0.9-0.3-1.8,0.1-2.4,0.8c-0.3,0.5-0.4,1.1-0.3,1.7c-0.3-0.2-0.5-0.5-0.6-0.9c-0.9-1.9,0.7-3.7,2-5.1c0.3-0.3,0.6-0.7,0.8-0.9
					c1-1.4,0.3-3-0.2-3.9c0.5-0.4,0.9-1.1,0.9-1.8c0-1.3-1.1-2.3-2.4-2.3c-1.3,0-2.3,1-2.3,2.3c0,0,0,0,0,0c0,1.3,1,2.3,2.3,2.3
					c0,0,0,0,0,0c0.2,0,0.4,0,0.5-0.1c0.3,0.6,0.9,1.9,0.3,2.8c-0.2,0.3-0.5,0.6-0.7,0.9c-1.3,1.5-3.2,3.8-2.1,6.3
					c0.4,0.8,1.1,1.5,2,1.9c0.4,0.7,0.8,1.3,1.4,1.8c1.2,1.2,2.8,1.8,4.5,1.8c1.1,0,2.2-0.3,3.1-1c1-0.7,1.5-1.8,1.6-3h2.2
					c0.9,0.1,1.7-0.5,1.9-1.4c0.1-0.6,0.7-5,0.7-5h-0.3c0.3-2.4,0.7-5.1,0.9-5.9C4143.4,3214.1,4143.3,3213.4,4142.8,3213"/>
			</g>
		</g>
	</g>
</g>
</svg>
