<?xml version="1.0" encoding="utf-8"?>
<!-- Generator: Adobe Illustrator 20.1.0, SVG Export Plug-In . SVG Version: 6.00 Build 0)  -->
<svg version="1.1" id="Ebene_1" xmlns="http://www.w3.org/2000/svg" xmlns:xlink="http://www.w3.org/1999/xlink" x="0px" y="0px"
	 viewBox="0 0 32 32" style="enable-background:new 0 0 32 32;" xml:space="preserve">
<style type="text/css">
	.st0{fill:#FFFFFF;}
	.st1{fill:none;}
</style>
<g id="Symbol_70_1" transform="translate(-4201 -4832)">
	<g id="ic_cancel_black_24px" transform="translate(20 140)">
		<path id="Pfad_3201" class="st0" d="M4197,4694c-7.7,0-14,6.3-14,14s6.3,14,14,14s14-6.3,14-14C4211,4700.3,4204.8,4694,4197,4694
			C4197,4694,4197,4694,4197,4694z M4204,4713l-2,2l-5-5l-5,5l-2-2l5-5l-5-5l2-2l5,5l5-5l2,2l-5,5L4204,4713z"/>
		<path id="Pfad_3202" class="st1" d="M4181,4692h32v32h-32V4692z"/>
	</g>
</g>
</svg>
