<svg id="Ebene_1" data-name="Ebene 1" xmlns="http://www.w3.org/2000/svg" width="324" height="324" viewBox="0 0 324 324"><title>ID_xx_illu_error</title><path id="pfad-1" d="M162,322A160,160,0,1,0,2,162,160,160,0,0,0,162,322" style="fill:#4178be"/><path d="M121.73,201.09c-1.16,0-2.25,0-3.28-.15-7.54-.71-12.95-3.39-16.55-8.19-5.72-7.61-6.79-20.31-3.27-38.82,5.46-28.74.07-39.49-3.63-43.33a10,10,0,0,0-9.06-3.09c-17.11,2.56-18,24.38-17.47,57.37l-2,0c-.49-29-.94-56.37,19.18-59.39a12,12,0,0,1,10.8,3.68c6.85,7.13,8.33,23.14,4.15,45.09-3.36,17.68-2.38,30.21,2.9,37.25,3.25,4.32,8.2,6.74,15.14,7.4,8.75.83,23.64-2.24,34.25-9l-.25-.12c-6.41-3.15-10.57-11.71-10.88-18.17-.57-11.47,3.92-19.33,11.71-20.58-4.16-8.1-6.22-17.43-3-24.72.83-1.9,1.69-3.65,2.51-5.34l.54-1.1a6.76,6.76,0,0,1-1.3-.37c-3.44-1.35-6.62-5.66-6.66-9a10.42,10.42,0,0,1,.63-4,12.36,12.36,0,0,1-3.64-8.05c-.39-5.55,2.63-11.75,8.07-16.6,7.9-7,27.63-12.48,48.64-8.74,13.22,2.36,31.15,9.25,41.51,28.66,10.65,20,17.37,40,20,59.46l-2,.27c-2.58-19.27-9.23-39-19.76-58.79-10-18.7-27.31-25.35-40.1-27.63-19.65-3.51-39.31,1.45-47,8.26-5,4.43-7.75,10-7.4,15a10.42,10.42,0,0,0,2.73,6.42,4.51,4.51,0,0,1,1.29-1c1.9-1,4.42-.5,6.73,1.25a7.3,7.3,0,0,1,3.18,5.19,4.37,4.37,0,0,1,2.66,2.65c.38,1.46-.35,3.11-2.31,5.18a6.17,6.17,0,0,1-3.07,1.85c-.32.67-.65,1.35-1,2-.82,1.67-1.67,3.4-2.48,5.26-2.3,5.25-1.87,14.2,3.27,23.75a11.41,11.41,0,0,1,8.51,3.68c2.89,3.15,4.19,8,3.83,14,1.91,3.5,3.15,7.26,2.68,10.86s-2.59,6.7-6.29,9.27a11.27,11.27,0,0,1-8.93,2.09C145.45,197.65,131.49,201.09,121.73,201.09Zm45.74-28.75q-.27,1.68-.69,3.46c-1.24,5.22-4.58,9.63-9.06,13.25a10,10,0,0,0,5.41-2c3.26-2.27,5-4.85,5.45-7.89A13.5,13.5,0,0,0,167.47,172.34Zm-13-19.33-.57.07c-8.11,1.2-10.56,10.36-10.16,18.53.28,5.75,4.1,13.68,9.77,16.47a10.16,10.16,0,0,0,1.38.56c4.95-3.56,8.68-8,9.94-13.3a41.45,41.45,0,0,0,1-6.28,56.68,56.68,0,0,0-5.93-8.21A51.92,51.92,0,0,1,154.49,153Zm2.25,0a51.76,51.76,0,0,0,4.73,6.55,67.94,67.94,0,0,1,4.46,5.82c-.2-4-1.32-7.2-3.34-9.4A9.22,9.22,0,0,0,156.73,153ZM147.81,108a9.81,9.81,0,0,0-.27,2.57c0,2.32,2.44,6.06,5.39,7.21a4.35,4.35,0,0,0,1.48.32,19.83,19.83,0,0,0,2.1-6.48c-.7-.26-1.48-.51-2.25-.75a23.47,23.47,0,0,1-5.85-2.45Zm10.59,4.52a19.28,19.28,0,0,1-1.34,4.51l.3-.29c1.36-1.44,2-2.61,1.82-3.3A1.73,1.73,0,0,0,158.4,112.47Zm-9.68-6.34q.38.3.79.57a22.08,22.08,0,0,0,5.35,2.21l1.37.44a5.88,5.88,0,0,0-2.15-2.72c-1.69-1.27-3.42-1.67-4.63-1.06A2.55,2.55,0,0,0,148.71,106.13Z" style="fill:#fdd600"/><path id="pfad-71" d="M72.36,170a114.49,114.49,0,0,1,2.79,24.55c-.25,11.67-3.85,25.58-3.85,25.58s-11,5.6-10.82-.24a100,100,0,0,1-2.77-25.51,90.69,90.69,0,0,1,3.83-24.62s11-5.6,10.82.24" style="fill:#8cd211"/><path id="pfad-72" d="M72.27,159.51a3.58,3.58,0,0,1,3.55,3.61s0,.06,0,.09l-.07,3.25A3.58,3.58,0,0,1,72.13,170H72l-10.24-.16a3.58,3.58,0,0,1-3.55-3.61s0-.06,0-.09l.07-3.25a3.58,3.58,0,0,1,3.61-3.55H62l10.24.22" style="fill:#264a60"/><path id="pfad-73" d="M71,220.13a3.58,3.58,0,0,1,3.55,3.61s0,.06,0,.09l-.07,3.25a3.58,3.58,0,0,1-3.61,3.55h-.09l-10.24-.16A3.58,3.58,0,0,1,57,226.86s0-.06,0-.09l.07-3.25A3.58,3.58,0,0,1,60.66,220h.09l10.24.22" style="fill:#264a60"/><path id="pfad-71-2" data-name="pfad-71" d="M255.49,170.74a114.49,114.49,0,0,0-.29,24.7c1.43,11.59,6.42,25.06,6.42,25.06s11.52,4.46,10.74-1.34a100,100,0,0,0,.17-25.66,90.69,90.69,0,0,0-6.3-24.11s-11.52-4.46-10.74,1.34" style="fill:#8cd211"/><path id="pfad-72-2" data-name="pfad-72" d="M254.52,160.29a3.58,3.58,0,0,0-3.16,4v.09l.39,3.22a3.58,3.58,0,0,0,4,3.16h.09L266,169.51a3.58,3.58,0,0,0,3.16-4v-.09l-.39-3.22a3.58,3.58,0,0,0-4-3.16h-.09l-10.17,1.25" style="fill:#264a60"/><path id="pfad-73-2" data-name="pfad-73" d="M261.93,220.47a3.58,3.58,0,0,0-3.16,4v.09l.39,3.22a3.58,3.58,0,0,0,4,3.16h.09l10.17-1.19a3.58,3.58,0,0,0,3.16-4v-.09l-.39-3.22a3.58,3.58,0,0,0-4-3.16h-.09l-10.17,1.25" style="fill:#264a60"/></svg>