<?xml version="1.0" encoding="utf-8"?>
<!-- Generator: Adobe Illustrator 20.1.0, SVG Export Plug-In . SVG Version: 6.00 Build 0)  -->
<svg version="1.1" id="Ebene_1" xmlns="http://www.w3.org/2000/svg" xmlns:xlink="http://www.w3.org/1999/xlink" x="0px" y="0px"
	 viewBox="0 0 24 24" style="enable-background:new 0 0 24 24;" xml:space="preserve">
<style type="text/css">
	.st0{fill:none;}
	.st1{fill:#FFCC00;}
	.st2{fill:#DBB100;}
</style>
<g id="Symbol_41_1" transform="translate(-3546 -3543)">
	<rect id="Rechteck_1879" x="3546" y="3543" class="st0" width="24" height="24"/>
	<path id="ellipse" class="st1" d="M3548,3555.1c0-5.5,4.5-10,10-10c5.5,0,10,4.5,10,10c0,5.5-4.4,10-10,10
		C3552.6,3565.1,3548.1,3560.6,3548,3555.1C3548,3555.1,3548,3555.1,3548,3555.1z"/>
	<path id="Pfad_3215" class="st2" d="M3558,3558.8l4.3,2.2l-1.1-4.8l3.8-3.2l-4.9-0.8l-2.1-4.2l-2,4.2l-5,0.8l3.8,3.2l-1.1,4.8
		L3558,3558.8z"/>
</g>
</svg>
