<?xml version="1.0" encoding="utf-8"?>
<!-- Generator: Adobe Illustrator 20.1.0, SVG Export Plug-In . SVG Version: 6.00 Build 0)  -->
<svg version="1.1" id="Ebene_1" xmlns="http://www.w3.org/2000/svg" xmlns:xlink="http://www.w3.org/1999/xlink" x="0px" y="0px"
	 viewBox="0 0 24 24" style="enable-background:new 0 0 24 24;" xml:space="preserve">
<style type="text/css">
	.st0{fill:none;}
	.st1{fill:#305B81;}
</style>
<g id="Symbol_76_1" transform="translate(-3585 -4832)">
	<rect id="Rechteck_1875" x="3585" y="4832" class="st0" width="24" height="24"/>
	<g id="Gruppe_2271" transform="translate(2381 1412) rotate(180)">
		<g id="Gruppe_2270" transform="translate(2339 1152)">
			<path id="Differenzmenge_151" class="st1" d="M-3555-4574c-5.5,0-10-4.5-10-10s4.5-10,10-10s10,4.5,10,10
				C-3545-4578.5-3549.5-4574-3555-4574z M-3555-4589.2c-2.9,0-5.2,2.3-5.2,5.2c0,2.9,2.3,5.2,5.2,5.2c2.9,0,5.2-2.3,5.2-5.2
				C-3549.8-4586.9-3552.1-4589.2-3555-4589.2L-3555-4589.2z"/>
		</g>
	</g>
</g>
</svg>
