<?xml version="1.0" encoding="utf-8"?>
<!-- Generator: Adobe Illustrator 20.1.0, SVG Export Plug-In . SVG Version: 6.00 Build 0)  -->
<svg version="1.1" id="Ebene_1" xmlns="http://www.w3.org/2000/svg" xmlns:xlink="http://www.w3.org/1999/xlink" x="0px" y="0px"
	 viewBox="0 0 20 20" style="enable-background:new 0 0 20 20;" xml:space="preserve">
<style type="text/css">
	.st0{fill:none;}
</style>
<g id="Symbol_98_1" transform="translate(-4817 -3556)">
	<path id="Pfad_3355" class="st0" d="M4817,3556h20v20h-20V3556z"/>
	<path d="M4827,3558.5c-4.1,0-7.5,3.4-7.5,7.5s3.4,7.5,7.5,7.5s7.5-3.4,7.5-7.5S4831.1,3558.5,4827,3558.5z M4833.1,3563.7l-4.1-0.4
		l-1.6-3.8C4830,3559.7,4832.2,3561.3,4833.1,3563.7z M4829.6,3569.7l-2.6-1.6l-2.6,1.6l0.7-3l-2.3-2l3.1-0.3l1.2-2.8l1.2,2.8
		l3.1,0.3l-2.3,2L4829.6,3569.7z M4826.7,3559.5l-1.6,3.8l-4.1,0.3C4821.8,3561.3,4824,3559.7,4826.7,3559.5z M4820.5,3566
		c0-0.6,0.1-1.1,0.2-1.6l3.1,2.7l-0.9,4C4821.4,3569.8,4820.5,3568,4820.5,3566z M4823.5,3571.5l3.5-2.1l3.5,2.1c-1,0.6-2.2,1-3.5,1
		S4824.5,3572.1,4823.5,3571.5z M4831.1,3571l-0.9-4l3.1-2.7c0.1,0.5,0.2,1.1,0.2,1.6C4833.5,3568,4832.6,3569.8,4831.1,3571z"/>
</g>
</svg>
