<?xml version="1.0" encoding="utf-8"?>
<!-- Generator: Adobe Illustrator 20.1.0, SVG Export Plug-In . SVG Version: 6.00 Build 0)  -->
<svg version="1.1" id="Ebene_1" xmlns="http://www.w3.org/2000/svg" xmlns:xlink="http://www.w3.org/1999/xlink" x="0px" y="0px"
	 viewBox="0 0 324 324" style="enable-background:new 0 0 324 324;" xml:space="preserve">
<style type="text/css">
	.st0{fill:#4178BE;}
	.st1{fill:#C0E6FF;}
	.st2{fill:#FFD791;}
	.st3{fill:#7CC7FF;}
	.st4{fill:#FFFFFF;}
	.st5{fill:#DFE9E9;}
	.st6{fill:#264A60;stroke:#C0E6FF;}
	.st7{fill:#8CD211;}
	.st8{fill:#5596E6;}
	.st9{fill:#264A60;}
	.st10{fill:none;stroke:#264A60;}
	.st11{fill:none;}
	.st12{fill:#5596E6;stroke:#264A60;}
	.st13{fill:#EFC100;}
	.st14{fill:#BA8FF7;}
	.st15{fill:#EFB000;}
	.st16{fill:#144D14;}
	.st17{fill:#E0BF94;}
	.st18{fill:#ECD1A5;}
	.st19{fill:#5AA700;}
	.st20{fill:#CB5434;}
	.st21{fill:#FDD600;}
	.st22{fill:#2D660A;}
	.st23{fill:#E71D32;}
	.st24{fill:#666666;}
</style>
<path id="pfad-1_1_" class="st0" d="M161.9,322c88.4,0,160-71.6,160-160S250.3,2,161.9,2S1.9,73.6,1.9,162
	C1.9,250.3,73.5,322,161.9,322C161.9,322,161.9,322,161.9,322"/>
<path id="Pfad_3244" class="st1" d="M9.9,111.9h79.8v-2H10.6C10.3,110.6,10.1,111.3,9.9,111.9z"/>
<path id="Pfad_3245" class="st1" d="M306.8,94.1h-79.8c-3.6,0-6.3,1-8,3c-1.5,1.8-2.2,4.2-1.9,6.5V161c0,4.4-0.8,7.4-2.6,9.2
	c-2.3,2.2-6,2.2-10,2.2h-24.6v2h25.4c4.1,0,7.9-0.2,10.6-2.8c2.1-2.1,3.2-5.6,3.2-10.6v-57.6c-0.2-1.8,0.4-3.6,1.5-5
	c1.3-1.5,3.5-2.3,6.5-2.3h80.7C307.5,95.4,307.2,94.7,306.8,94.1z"/>
<path id="Pfad_3246" class="st2" d="M201.6,223.5c-0.4-5.1-2.4-13.8-6-17.1l-15-13.9l-0.1-0.1c-2-1.7-5-1.4-6.7,0.6l-40.4,43.6l0,0
	c-1.9,1.9-1.8,5,0.1,6.9c0,0,5.6,5.2,13.7,12.7c7.1,6.5,26.8,10.2,33.5,9.4l48.1,42c9.8-4.5,19.2-10,27.9-16.4l-54.5-47.6
	C202.1,241.8,202.1,231.3,201.6,223.5z"/>
<rect id="Rechteck_1882" x="153.2" y="62.9" class="st1" width="2" height="87.2"/>
<g id="Gruppe_2312">
	<circle id="ellipse-3_2_" class="st3" cx="154.1" cy="62.2" r="21"/>
	<path id="Pfad_3247" class="st1" d="M154.1,84.2c-12.2,0-22-9.8-22-22s9.8-22,22-22s22,9.8,22,22C176.1,74.3,166.3,84.2,154.1,84.2
		z M154.1,42.2c-11,0-20,9-20,20s9,20,20,20s20-9,20-20C174.1,51.2,165.2,42.2,154.1,42.2z"/>
</g>
<path id="Pfad_3248" class="st1" d="M238.1,195.2h-56.2v-2h55.3c4.5,0,9.1,0,11.9-2.7c1.8-1.8,2.7-4.6,2.7-8.6v-27.8h2v27.8
	c0,4.6-1.1,7.9-3.3,10.1C247.4,195,242.6,195.2,238.1,195.2z"/>
<path id="Pfad_3249" class="st1" d="M58.5,220.5h-2v-28.3c0-4.4,1-7.6,3.2-9.7c3.3-3.3,8.6-3.2,13.2-3.2h55.5v2H72.9
	c-4.4,0-9-0.1-11.8,2.6c-1.7,1.7-2.6,4.4-2.6,8.3L58.5,220.5L58.5,220.5z"/>
<path id="Pfad_3250" class="st1" d="M103.4,204.1c-3.9,0-7.6-0.1-10.1-2.6c-2.1-2.1-3.1-5.5-3.1-10.8v-59.5h2v59.5
	c0,4.6,0.8,7.7,2.5,9.4c2.1,2.1,5.5,2.1,9.5,2h26.2v2L103.4,204.1L103.4,204.1z"/>
<path id="pfad-15_1_" class="st2" d="M147.8,184.2l0.3-0.3c2.1-2.3,2-5.9-0.3-8.1l-17-15.6c-2.3-2.1-5.9-2-8.1,0.3l-0.3,0.3
	c-2.1,2.3-2,5.9,0.3,8.1l17,15.6C142.1,186.7,145.7,186.5,147.8,184.2C147.8,184.2,147.8,184.2,147.8,184.2z"/>
<path id="pfad-16_1_" class="st4" d="M127.6,246.9l0.2-93.2c0.1-2.4,2-4.3,4.4-4.4l46.4,0.1c2.4,0.1,4.3,2,4.4,4.4l-0.2,93.8
	c0,2.1-1.7,3.8-3.8,3.8l0,0l0,0l-47-0.1C129.6,251.2,127.7,249.3,127.6,246.9L127.6,246.9z"/>
<path id="pfad-17_1_" class="st5" d="M131.4,237.5l0.2-74c0-0.1,0-0.1,0.1-0.1l0,0l47.3,0.1c0.1,0,0.1,0,0.1,0.1l0,0l-0.2,74.2
	l-47.5-0.1L131.4,237.5L131.4,237.5z"/>
<path id="pfad-18_1_" class="st5" d="M146.3,156.8v-0.5c0-0.5,0.4-0.9,0.9-0.9h16c0.5,0,0.9,0.4,0.9,0.9l0,0v0.6
	c0,0.4-0.3,0.8-0.8,0.8c0,0,0,0,0,0h-16.1C146.8,157.7,146.4,157.3,146.3,156.8L146.3,156.8z"/>
<path id="pfad-19_1_" class="st2" d="M139.8,241.4l1-1.2c1.8-2.1,1.6-5.4-0.6-7.2c0,0,0,0,0,0l-0.1-0.1l-8.7-7.2
	c-2.1-1.8-5.4-1.6-7.2,0.6c0,0,0,0,0,0l-0.1,0.1l-1,1.2c-1.8,2.1-1.6,5.4,0.6,7.2c0,0,0,0,0,0l0.1,0.1l8.7,7.2
	C134.7,243.9,137.9,243.6,139.8,241.4z"/>
<circle id="ellipse-4_1_" class="st5" cx="155.2" cy="244.4" r="4.8"/>
<circle id="ellipse-5_1_" class="st6" cx="252.6" cy="153.4" r="21"/>
<circle id="ellipse-6_1_" class="st6" cx="91.4" cy="110.5" r="21"/>
<g id="Gruppe_2313">
	<circle id="ellipse-7_2_" class="st7" cx="57.7" cy="220.8" r="21"/>
	<path id="Pfad_3251" class="st1" d="M57.7,242.8c-12.2,0-22-9.8-22-22c0-12.2,9.8-22,22-22s22,9.8,22,22
		C79.7,232.9,69.9,242.8,57.7,242.8z M57.7,200.8c-11,0-20,9-20,20s9,20,20,20s20-9,20-20C77.7,209.8,68.8,200.8,57.7,200.8z"/>
</g>
<g id="Gruppe_2314">
	<circle id="ellipse-8_2_" class="st8" cx="255.2" cy="94.4" r="21"/>
	<path id="Pfad_3252" class="st1" d="M255.2,116.4c-12.2,0-22-9.8-22-22s9.8-22,22-22c12.2,0,22,9.8,22,22c0,0,0,0,0,0
		C277.2,106.5,267.4,116.4,255.2,116.4z M255.2,74.4c-11,0-20,9-20,20s9,20,20,20c11,0,20-9,20-20c0,0,0,0,0,0
		C275.2,83.4,266.3,74.4,255.2,74.4z"/>
</g>
<g id="gruppe-11_1_" transform="translate(501.273 331.756)">
	<path id="pfad-42_1_" class="st8" d="M-357.5-259.5c-0.6,0-1-0.4-1-1v-17.1c0-0.6,0.4-1,1-1h21.4c0.6,0,1,0.4,1,1v17.1
		c0,0.6-0.4,1-1,1H-357.5z"/>
	<path id="pfad-43_1_" class="st9" d="M-336.1-278c0.2,0,0.5,0.2,0.5,0.4v17.2c0,0.2-0.2,0.5-0.4,0.5h-21.5c-0.2,0-0.5-0.2-0.5-0.4
		v-17.3c0-0.2,0.2-0.5,0.4-0.5h0.1L-336.1-278 M-336.1-279h-21.4c-0.8,0-1.5,0.7-1.5,1.5v17.1c0,0.8,0.7,1.5,1.5,1.5h21.4
		c0.8,0,1.5-0.7,1.5-1.5v-17.1c0-0.8-0.5-1.4-1.3-1.5H-336.1z"/>
</g>
<g id="gruppe-12_1_" transform="translate(501.967 337.803)">
	<line id="linie-2_1_" class="st10" x1="-359" y1="-279" x2="-336.1" y2="-279"/>
	<line id="linie-3_1_" class="st11" x1="-359" y1="-279" x2="-336.1" y2="-279"/>
</g>
<g id="gruppe-13_1_" transform="translate(506.229 329.575)">
	<path id="pfad-44_1_" class="st12" d="M-356.6-273.8h-1.4c-0.6,0-1.1-0.5-1.1-1.1v-3c0-0.6,0.5-1.1,1.1-1.1h1.3
		c0.6,0,1.1,0.5,1.1,1.1v3c0.1,0.5-0.3,1-0.8,1.1H-356.6z"/>
	<path id="pfad-45_1_" class="st12" d="M-345.8-273.8h-1.1c-0.6,0-1.2-0.5-1.2-1.1c0,0,0-0.1,0-0.1v-2.8c0-0.6,0.5-1.2,1.1-1.2
		c0,0,0.1,0,0.1,0h1.1c0.6,0,1.2,0.5,1.2,1.1c0,0,0,0.1,0,0.1v2.8C-344.6-274.4-345.1-273.8-345.8-273.8L-345.8-273.8z"/>
</g>
<rect id="rechteck-6_1_" x="133.6" y="168.7" class="st13" width="42.7" height="11.4"/>
<rect id="rechteck-7_1_" x="133.6" y="182" class="st7" width="42.7" height="11.4"/>
<rect id="rechteck-8_1_" x="133.6" y="195.4" class="st14" width="42.7" height="11.4"/>
<path id="pfad-46_1_" class="st2" d="M189.9,210.6l1.3-1.4c1.9-2.1,1.4-5.6-1.2-7.9l-17-15.8c-2.6-2.4-5.3-3.6-6.9-1.7
	c-4.5,4.9,1,12.4,3.5,14.7l12.3,11.4C184.4,212.4,188.1,212.7,189.9,210.6z"/>
<path id="pfad-47_1_" class="st2" d="M139.8,222.2l0.9-1.1c1.9-2.2,1.6-5.5-0.6-7.4c0,0,0,0,0,0c-0.1,0-0.1,0-0.1-0.1v0l-8.5-7.1
	c-2.2-1.9-5.5-1.6-7.4,0.6c0,0,0,0,0,0c0,0.1,0,0.1-0.1,0.1c0,0,0,0,0,0l-0.9,1.1c-1.9,2.2-1.6,5.5,0.6,7.4c0,0,0,0,0,0
	c0.1,0,0.1,0,0.1,0.1l0,0l8.5,7.1C134.5,224.7,137.8,224.4,139.8,222.2z"/>
<path id="pfad-48_1_" class="st2" d="M139.8,203l0.9-1.1c1.9-2.2,1.6-5.5-0.6-7.4c0,0,0,0,0,0l-0.1-0.1l-8.6-7.2
	c-2.2-1.9-5.5-1.6-7.4,0.6c0,0,0,0,0,0l-0.1,0.1l-0.9,1.1c-1.9,2.2-1.6,5.5,0.6,7.4c0,0,0,0,0,0l0.1,0.1l8.6,7.2
	C134.5,205.5,137.8,205.2,139.8,203z"/>
<path id="Pfad_3268" class="st9" d="M160.2,225.9c-0.9,0-1.8,0.4-2.4,1l-6.1-3.9c0.2-0.4,0.2-0.8,0.2-1.2c0-0.5-0.1-1-0.3-1.4
	l6.3-4.6c0.6,0.6,1.4,0.9,2.2,0.9c1.8,0,3.3-1.5,3.3-3.3c0-1.8-1.5-3.3-3.3-3.3c-1.8,0-3.3,1.5-3.3,3.3c0,0.5,0.1,1,0.3,1.4
	l-6.3,4.6c-0.6-0.6-1.4-0.9-2.2-0.9c-1.8,0-3.3,1.5-3.3,3.3s1.5,3.3,3.3,3.3c0.9,0,1.8-0.4,2.4-1l6.1,3.9c-0.2,0.4-0.2,0.8-0.2,1.2
	c0,1.8,1.5,3.3,3.3,3.3c1.8,0,3.3-1.5,3.3-3.3C163.5,227.4,162.1,225.9,160.2,225.9z"/>
<g>
	<path id="pfad-60_2_" class="st15" d="M85.2,98.5c0,0-1.6,1.9-1.9,7c-0.1,1.5,1.5,3.4,1.7,4.2c0.1,1.5-0.4,3-1.5,4.1l5.8,0.2
		c0,0-1.1-3.9-1.3-4.4c-0.3-0.6-0.4-1.3-0.5-2L85.2,98.5z"/>
	<path id="pfad-61_2_" class="st15" d="M96.6,97c0,0,2.4,1.3,2.6,5.8c0.1,2.5,1,7.7-0.9,9.6c-1.2,1.1-2.9,1.6-4.5,1.4
		c0,0,0.4-3.5,0.5-4.1c0.2-0.9,0.3-1.7,0.3-2.6L96.6,97z"/>
	<path id="pfad-62_2_" class="st16" d="M97.2,115.8c0,1.3-2.7,2.4-5.9,2.4s-5.9-1.1-5.9-2.4s2.7-2.4,5.9-2.4S97.2,114.5,97.2,115.8"
		/>
	<path id="pfad-63_2_" class="st17" d="M96.6,104.7c0,2.1-1.9,4.7-2.1,6.4c-0.1,0.6-0.5,3.9,0.6,4.7c4,3-1.1,12.2-3.8,12.2
		c-3.2,0-7.6-8.5-3.6-12.2c1.3-1.2,0.7-4.1,0.5-4.6c-0.7-1.8-2.3-3.5-2.7-5.9c-0.6-4.5-0.2-7.8,5.5-7.8
		C96.6,97.4,96.6,100,96.6,104.7"/>
	<path class="st18" d="M97.3,103.8c-0.1,0-0.2,0-0.3,0c0.1-4.1-0.2-6.9-5.7-6.7c-5.5,0-6.4,2.9-6,6.9c-0.1,0-0.1,0-0.2,0
		c-0.6,0.1-0.8,1.1-0.5,2.3c0.3,1.1,0.9,1.9,1.4,1.8c0,0,0,0,0,0c1,3.4,2.7,5.4,5.1,5.4c2.4-0.1,4.5-2,5.4-5.5c0,0,0.1,0,0.1,0
		c0.5,0.1,1.1-0.8,1.3-1.9S97.9,103.9,97.3,103.8z"/>
	<path class="st15" d="M98.4,101c-0.3-2.6-1-3.7-3.3-4.9c-2-0.9-4.3-0.9-6.4-0.1c-0.9,0.3-1.6,0.9-2.2,1.6c0,0-2.6,0.4-2.2,6.2
		c0.1,0.8,0.1,1.5,0,2.3l1.6,1c-0.3-1.9-0.3-3.8,0-5.7c0.1-0.4,0.2-0.9,0.3-1.3c0.1,0.6,0.6,1.2,1.2,1.5c1.8,0.9,5.3,0.6,5.3,0.6
		c-0.2-0.2-0.4-0.4-0.5-0.7c1.2,0.3,2.4,0.9,3.4,1.7c1.1,0.9,1,3.2,1,3.2l1.2-2.2C98.3,103.2,98.5,102.1,98.4,101z M86.6,98.8
		C86.6,98.8,86.7,98.9,86.6,98.8L86.6,98.8C86.6,98.8,86.6,98.8,86.6,98.8z"/>
	<path class="st19" d="M102.6,118.9c-0.1-0.3-0.2-0.5-0.4-0.7c0,0,0-0.1,0-0.1l0,0c-0.6-0.7-1.5-1.1-2.6-1.5h0
		c-1.1-0.4-2.3-0.7-3.5-0.9l-1.8,3.4c-0.7,0.1-1.7,0.3-3.1,0.2c-1.1,0-1.9-0.1-2.5-0.2l-1.9-3.4c-1.6,0.3-3.1,0.8-4.5,1.4
		c-1.6,0.9-3.1,1.6-3.4,3.3c0,0,0,0.1,0,0.1c-0.3,0.9-1.1,2.8-1.9,5.1c3.7,3.6,8.7,5.9,14.3,5.9c5.8,0,10.9-2.4,14.6-6.2
		C104.6,122.6,103.2,120.1,102.6,118.9z"/>
	<path id="pfad-73_2_" class="st20" d="M99.3,107.4"/>
</g>
<path id="Pfad_3269" class="st1" d="M91.3,132.7c-12.2,0-22-9.8-22-22s9.8-22,22-22s22,9.8,22,22
	C113.3,122.8,103.5,132.7,91.3,132.7z M91.3,90.6c-11,0-20,9-20,20s9,20,20,20s20-9,20-20C111.3,99.6,102.4,90.6,91.3,90.6z"/>
<g id="Gruppe_2309_1_" transform="translate(508 340)">
	<path id="Pfad_3242_1_" class="st9" d="M-353.8-272.5v1.4h-5.3c0.1-0.5,0.2-1,0.5-1.5c0.5-0.7,1.1-1.3,1.7-1.9
		c0.5-0.4,0.9-0.8,1.3-1.3c0.2-0.3,0.3-0.6,0.3-0.9c0-0.3-0.1-0.6-0.3-0.8c-0.2-0.2-0.4-0.2-0.7-0.2c-0.4,0-0.6,0-0.8,0.2
		c-0.2,0.3-0.3,0.6-0.3,1l-1.5-0.2c0-0.7,0.3-1.3,0.8-1.8c0.5-0.3,1.2-0.5,1.8-0.5c0.7-0.1,1.3,0.2,1.8,0.6c0.5,0.4,0.7,1,0.7,1.6
		c0,0.3-0.1,0.7-0.2,1c-0.1,0.4-0.3,0.7-0.6,1c-0.3,0.4-0.6,0.7-1,1l-0.9,0.9c-0.1,0.1-0.2,0.3-0.3,0.4L-353.8-272.5L-353.8-272.5z"
		/>
	<path id="Pfad_3243_1_" class="st9" d="M-352.8-273.2l1.5-0.2c0,0.3,0.2,0.7,0.4,0.9c0.2,0.2,0.4,0.3,0.7,0.3
		c0.3,0,0.6-0.1,0.8-0.4c0.2-0.3,0.3-0.6,0.3-1c0-0.3-0.1-0.6-0.3-0.9c-0.2-0.2-0.5-0.3-0.8-0.3c-0.2,0-0.5,0-0.7,0.1l0.2-1.2
		c0.3,0,0.6-0.1,0.9-0.3c0.2-0.2,0.3-0.4,0.3-0.7c0-0.2-0.1-0.4-0.2-0.6c-0.2-0.2-0.4-0.3-0.6-0.3c-0.3,0-0.5,0.1-0.7,0.3
		c-0.2,0.2-0.3,0.5-0.3,0.8l-1.4-0.2c0-0.4,0.2-0.8,0.4-1.1c0.2-0.3,0.5-0.6,0.8-0.8c0.4-0.1,0.8-0.2,1.2-0.2c0.7,0,1.3,0.2,1.8,0.7
		c0.4,0.3,0.6,0.8,0.6,1.3c0,0.7-0.5,1.4-1.1,1.7c0.4,0.1,0.8,0.3,1.1,0.7c0.3,0.3,0.4,0.8,0.4,1.2c0,0.7-0.3,1.3-0.8,1.8
		c-0.6,0.4-1.3,0.6-2,0.6c-0.6,0-1.2-0.2-1.7-0.6C-352.4-272-352.7-272.6-352.8-273.2z"/>
</g>
<rect id="Rechteck_1888" x="-0.1" class="st11" width="324" height="324"/>
<g>
	<path id="pfad-74" class="st13" d="M271.7,98.4c-4.2,0.6-9.3-0.6-13.9-3.7c-5.7-3.8-9.1-9.4-9.2-14.3c-0.5,0.5-0.9,1-1.2,1.5
		c-3.7,5.5-1,13.8,5.9,18.5c6.8,4.5,15.1,4,19-1.1L271.7,98.4z"/>
	<g>
		<defs>
			<path id="SVGID_1_" d="M253.3,100.3c-7-4.7-9.6-12.9-5.9-18.5c0.4-0.5,0.8-1,1.2-1.5c0.1,4.9,3.5,10.5,9.2,14.3
				c4.6,3.1,9.7,4.3,13.9,3.7l0.6,0.8C268.5,104.3,260.1,104.9,253.3,100.3"/>
		</defs>
		<clipPath id="SVGID_2_">
			<use xlink:href="#SVGID_1_"  style="overflow:visible;"/>
		</clipPath>
	</g>
	<path id="pfad-76" class="st13" d="M262.8,107.6c-5.6,3.1-13.4,0.3-17.9-6.6c-0.7-1-1.2-2.1-1.7-3.2l0,0c-2.5-6.3-1.2-13,3.6-16
		c0.5-0.3,1.1-0.6,1.7-0.9c-1.9,4.5-1,11,2.7,16.8c3,4.7,7.2,7.8,11.3,9L262.8,107.6z"/>
	<g>
		<defs>
			<path id="SVGID_3_" d="M262.8,107.6c-5.6,3.1-13.4,0.3-17.9-6.6c-0.7-1-1.2-2.1-1.7-3.2l0,0c-2.5-6.3-1.2-13,3.6-16
				c0.5-0.3,1.1-0.6,1.7-0.9c-1.9,4.5-1,11,2.7,16.8c3,4.7,7.2,7.8,11.3,9L262.8,107.6z"/>
		</defs>
		<clipPath id="SVGID_4_">
			<use xlink:href="#SVGID_3_"  style="overflow:visible;"/>
		</clipPath>
	</g>
	<g>
		<defs>
			<path id="SVGID_5_" d="M249,79.2l-0.2,3.2l-0.7,0.4c-0.2,0.1-0.4,0.1-0.6,0l-1.1-0.4c-0.1,0-0.2-0.2-0.2-0.3c0,0,0-0.1,0.1-0.1
				l0.7-1c0.1-0.2,0.2-0.4,0.1-0.6l-0.2-0.9c0-0.2,0.1-0.4,0.2-0.4c0,0,0,0,0,0l1.3-0.3c0,0,0.3-0.1,0.4,0.2
				C249,79.1,249,79.2,249,79.2"/>
		</defs>
		<clipPath id="SVGID_6_">
			<use xlink:href="#SVGID_5_"  style="overflow:visible;"/>
		</clipPath>
	</g>
	<path class="st21" d="M262.6,106.9l0-0.2c-4.1-1.1-8.3-4.3-11.3-9c-3.7-5.8-4.6-12.3-2.7-16.8c-0.1,0-0.1,0.1-0.2,0.1
		c-4.2,4.1-4.5,11.7-0.4,18.1C251.6,104.7,257.5,107.7,262.6,106.9z"/>
	<path id="pfad-80" class="st16" d="M262.6,106.1L262.6,106.1l-0.5,0c-0.2,0-0.3,0.1-0.3,0.3c0,0,0,0,0,0.1l0.3,1.7l0.5,0
		c0.2,0,0.3-0.1,0.3-0.3c0,0,0,0,0-0.1L262.6,106.1z"/>
	<path class="st21" d="M255.4,97.3c5.6,3.7,12.1,4.1,16.5,1.3l-0.1-0.2c-4.2,0.6-9.3-0.6-13.9-3.7c-5.7-3.8-9.1-9.4-9.2-14.3
		c0,0-0.1,0.1-0.1,0.1C246.2,85.9,249,93.1,255.4,97.3z"/>
	<path id="pfad-81" class="st16" d="M271.8,97.8L271.8,97.8l-0.5,0.2c-0.1,0.1-0.2,0.2-0.1,0.4c0,0,0,0,0,0.1l1,1.4l0.5-0.2
		c0.1-0.1,0.2-0.2,0.1-0.4c0,0,0,0,0-0.1L271.8,97.8z"/>
	<path id="pfad-78" class="st22" d="M249,79.2l-0.2,3.2l-0.7,0.4c-0.2,0.1-0.4,0.1-0.6,0l-1.1-0.4c-0.1,0-0.2-0.2-0.2-0.3
		c0,0,0-0.1,0.1-0.1l0.7-1c0.1-0.2,0.2-0.4,0.1-0.6l-0.2-0.9c0-0.2,0.1-0.4,0.2-0.4c0,0,0,0,0,0l1.3-0.3c0,0,0.3-0.1,0.4,0.2
		C249,79.1,249,79.2,249,79.2"/>
	<path class="st7" d="M248.8,82.5l0.1-1.2h-1l-0.9,1.4c0,0,0,0,0,0l0.4,0.2c0.2,0.1,0.4,0.1,0.6,0L248.8,82.5z"/>
</g>
<g>
	<path id="pfad-7" class="st23" d="M56.4,214.7c2.5-1.6,3.6-4,4.2-3.9c0.6,0.1,2.3,1.3,2.6,2c0.3,0.7,0.1,1-0.7,1.4
		c-0.9,0.4-5.4,2.7-5.4,2.7L56.4,214.7z"/>
	<path id="pfad-8" class="st9" d="M58.6,212.8c-2.2,1.7-14,7.2-17.2,8.1c-1.1,0.3-1.6,2-0.9,3.2c0.7,1.2,3,2.6,5.4,2.6h25.9
		c1.3,0,1.7-0.6,1.7-1.2v-3.2c0-0.3,0.9-0.4,0.6-2.3c-0.3-1.9-1.6-5.8-2.2-6.4c-1-1-2.3,0.1-3.8,1c-1.4,0.9-3.9,0.4-4.8-0.1
		C62.5,213.9,59.4,212.1,58.6,212.8"/>
	<path class="st3" d="M51.8,219.4c0.6,0.1,2-0.5,2.9-1c0.9-0.5,6.2-3,8-4.3c-1.2-0.7-3.5-1.9-4.1-1.3l0,0c-1.3,1-5.7,3.3-9.9,5.1
		C49.4,218.5,50.5,219.3,51.8,219.4z"/>
	<g>
		<defs>
			<path id="SVGID_7_" d="M58.6,212.8c-2.2,1.7-14,7.2-17.2,8.1c-0.7,0.2-1.2,1.1-1.2,2v0c0,0.4,0.1,0.8,0.3,1.2
				c0.7,1.2,3,2.6,5.4,2.6h25.9c1.3,0,1.7-0.6,1.7-1.2v-3.2c0-0.3,0.9-0.4,0.6-2.3c-0.3-1.9-1.6-5.8-2.2-6.4c-1-1-2.3,0.1-3.8,1
				c-1.4,0.9-3.9,0.4-4.8-0.1c-0.7-0.5-3.1-1.9-4.3-1.9C58.9,212.6,58.7,212.7,58.6,212.8"/>
		</defs>
		<clipPath id="SVGID_8_">
			<use xlink:href="#SVGID_7_"  style="overflow:visible;"/>
		</clipPath>
	</g>
	<g>
		<defs>
			<path id="SVGID_9_" d="M66,222c-4.3,0-7.2,1.2-9.1,1.6c-1.9,0.4-9.4,0.3-11.6,0.3c-1.7-0.1-3.4-0.2-5-0.4
				c0.1,0.2,0.1,0.4,0.3,0.6c0.7,1.2,3,2.6,5.4,2.6h25.9c1.3,0,1.7-0.6,1.7-1.2v-3.2c0-0.1,0.1-0.2,0.2-0.3L66,222z"/>
		</defs>
		<clipPath id="SVGID_10_">
			<use xlink:href="#SVGID_9_"  style="overflow:visible;"/>
		</clipPath>
	</g>
	<path id="pfad-15" class="st9" d="M40.2,222.6c-0.1,0.5,0.1,1,0.3,1.4c0.7,1.2,3,2.6,5.3,2.6h25.9c1.3,0,1.7-0.6,1.7-1.2v-0.4
		c0,0.6-0.4,1.2-1.7,1.2H45.9c-2.3,0-4.6-1.4-5.3-2.6C40.3,223.3,40.2,223,40.2,222.6"/>
	<path id="pfad-16" class="st16" d="M73.5,222.5"/>
	<path id="pfad-17" class="st23" d="M59.4,215.2c0.2,0,0.4-0.2,0.4-0.5c0-0.2-0.2-0.4-0.5-0.4c-0.2,0-0.4,0.2-0.4,0.5
		c0,0.1,0.1,0.2,0.1,0.3C59.1,215.2,59.2,215.2,59.4,215.2"/>
	<path id="pfad-18" class="st23" d="M57.9,215.9c0.2,0,0.4-0.2,0.4-0.5c0-0.2-0.2-0.4-0.5-0.4c-0.2,0-0.4,0.2-0.4,0.5
		c0,0.1,0.1,0.2,0.1,0.3C57.6,215.9,57.8,216,57.9,215.9"/>
	<path id="pfad-19" class="st23" d="M56.4,216.7c0.2,0,0.4-0.2,0.4-0.5c0-0.2-0.2-0.4-0.5-0.4c-0.2,0-0.4,0.2-0.4,0.5
		c0,0.1,0.1,0.2,0.1,0.3C56.2,216.6,56.3,216.7,56.4,216.7"/>
	<path id="pfad-20" class="st23" d="M54.9,217.4c0.2,0,0.4-0.2,0.4-0.5c0-0.2-0.2-0.4-0.5-0.4c-0.2,0-0.4,0.2-0.4,0.5
		c0,0.1,0.1,0.2,0.1,0.3C54.7,217.4,54.8,217.4,54.9,217.4"/>
	<path id="pfad-21" class="st23" d="M52,218.8c0.2,0,0.4-0.2,0.4-0.5c0-0.2-0.2-0.4-0.5-0.4c-0.2,0-0.4,0.2-0.4,0.5
		c0,0.1,0.1,0.2,0.1,0.3C51.7,218.8,51.9,218.8,52,218.8"/>
	<path id="pfad-22" class="st23" d="M53.5,218.1c0.2,0,0.4-0.2,0.4-0.5c0-0.2-0.2-0.4-0.5-0.4c-0.2,0-0.4,0.2-0.4,0.5
		c0,0.1,0.1,0.2,0.1,0.3C53.2,218.1,53.3,218.1,53.5,218.1"/>
	<path id="pfad-23" class="st23" d="M58.6,212.5c-0.1,0-0.1,0.1-0.1,0.2c0,0,0,0,0,0l0.6,2.1c0,0.1,0.1,0.1,0.2,0.1c0,0,0,0,0,0
		l0.1,0c0.1,0,0.1-0.1,0.1-0.2c0,0,0,0,0,0l-0.6-2.1c0-0.1-0.1-0.1-0.2-0.1c0,0,0,0,0,0L58.6,212.5"/>
	<path id="pfad-24" class="st23" d="M57.1,213.2c-0.1,0-0.1,0.1-0.1,0.2c0,0,0,0,0,0l0.6,2.1c0,0.1,0.1,0.1,0.2,0.1c0,0,0,0,0,0
		l0.1,0c0.1,0,0.1-0.1,0.1-0.2c0,0,0,0,0,0l-0.6-2.1c0-0.1-0.1-0.1-0.2-0.1c0,0,0,0,0,0L57.1,213.2"/>
	<path id="pfad-25" class="st23" d="M55.7,214c-0.1,0-0.1,0.1-0.1,0.2c0,0,0,0,0,0l0.6,2.1c0,0.1,0.1,0.1,0.2,0.1c0,0,0,0,0,0l0.1,0
		c0.1,0,0.1-0.1,0.1-0.2c0,0,0,0,0,0L56,214c0-0.1-0.1-0.1-0.2-0.1c0,0,0,0,0,0L55.7,214"/>
	<path id="pfad-26" class="st23" d="M54.2,214.7c-0.1,0-0.1,0.1-0.1,0.2c0,0,0,0,0,0l0.6,2.1c0,0.1,0.1,0.1,0.2,0.1c0,0,0,0,0,0
		l0.1,0c0.1,0,0.1-0.1,0.1-0.2c0,0,0,0,0,0l-0.6-2.1c0-0.1-0.1-0.1-0.2-0.1c0,0,0,0,0,0L54.2,214.7"/>
	<path id="pfad-27" class="st23" d="M52.8,215.4c-0.1,0-0.1,0.1-0.1,0.2c0,0,0,0,0,0l0.6,2.1c0,0.1,0.1,0.1,0.2,0.1c0,0,0,0,0,0
		l0.1,0c0.1,0,0.1-0.1,0.1-0.2c0,0,0,0,0,0l-0.6-2.1c0-0.1-0.1-0.1-0.2-0.1c0,0,0,0,0,0L52.8,215.4"/>
	<path id="pfad-28" class="st23" d="M51.2,216.1c-0.1,0-0.1,0.1-0.1,0.2c0,0,0,0,0,0l0.6,2.1c0,0.1,0.1,0.1,0.2,0.1c0,0,0,0,0,0
		l0.1,0c0.1,0,0.1-0.1,0.1-0.2c0,0,0,0,0,0l-0.6-2.1c0-0.1-0.1-0.1-0.2-0.1c0,0,0,0,0,0L51.2,216.1"/>
	<path class="st13" d="M73.5,222.3c0-0.2,0.4-0.3,0.5-0.9c-1-1-3.3-2.8-4.2-3.7c-1-1-2.2-1.2-3-0.7c-0.9,0.4-9.3,4.3-11.7,5.2
		c-2.5,0.9-4.2,0.1-7.7,0.1c-3.5,0-3.8,1.4-3.8,1.4l0,0c0,0,3,1.7,3,1.9c0,0.1,21.8-1.3,26.8-1.6V222.3z"/>
	<path class="st1" d="M40.5,224c0.7,1.2,3,2.6,5.4,2.6h25.9c1.3,0,1.7-0.6,1.7-1.2v-3.2c0-0.1,0.1-0.2,0.2-0.3H66
		c-4.3,0-7.2,1.2-9.1,1.6c-1.9,0.4-9.4,0.3-11.6,0.3c-1.5,0-3.8-0.3-5-0.4C40.3,223.7,40.4,223.9,40.5,224z"/>
	<path class="st3" d="M66,222c-2.1,0-3.9,0.3-5.4,0.6c0,0,0,0-0.1,0c-2,1-3.3,2.6-4,3.7h15.1l-2-2.1l1.8-2.2H66z"/>
	<path id="pfad-15_2_" class="st9" d="M40.2,222.6c-0.1,0.5,0.1,1,0.3,1.4c0.7,1.2,3,2.6,5.3,2.6h25.9c1.3,0,1.7-0.6,1.7-1.2v-0.4
		c0,0.6-0.4,1.2-1.7,1.2H45.9c-2.3,0-4.6-1.4-5.3-2.6C40.3,223.3,40.2,223,40.2,222.6"/>
	<path class="st13" d="M73.8,218.7c-0.4-1.5-1-3.4-1.5-4.4c-0.6,0.4-1.4,1-1.4,1.5c0,0.7,0.3,1.6,1.7,2.3
		C73,218.3,73.4,218.5,73.8,218.7z"/>
	<g id="gruppe-2" transform="translate(185.322 323.32)">
		<path id="pfad-14" class="st1" d="M-123.2-99.6c-0.3,0-0.6,0.2-0.6,0.6c0,0,0,0,0,0.1v0.5c0,0.3,0.3,0.6,0.6,0.6c0,0,0,0,0,0h5.1
			c0.3,0,0.6-0.2,0.6-0.6c0,0,0,0,0,0v-0.5c0-0.3-0.2-0.6-0.6-0.6c0,0,0,0-0.1,0L-123.2-99.6"/>
	</g>
</g>
<g>
	<path id="pfad-74_2_" class="st17" d="M248,148.1c0,2.1,1.1,4.7,1.3,6.4c0.2,2.1-0.2,5.9,3.5,5.9c4.5,0,3.9-4.1,4.5-5.7
		c0.8-2,1.4-4.1,1.8-6.2c0.6-4.5,0.2-7.8-5.5-7.8C248,140.9,248,143.4,248,148.1"/>
	<path class="st1" d="M258,158.1c-0.3-0.4-0.5-0.8-0.6-1.2l-0.3-1.2c-0.5,0.8-1.1,1.6-1.7,2.3c-0.8,0.7-1.6,1.4-2.4,2
		c-0.9-0.7-1.7-1.4-2.4-2.3c-0.5-0.8-1-1.6-1.4-2.4l-0.6,1.2c-0.2,0.4-0.5,0.7-0.8,1c0,0-0.9,8.4-0.5,10.2c0.2,0.7,0.9,3.3,1.8,6.1
		c1.2,0.2,2.5,0.4,3.8,0.4c1.1,0,2.3-0.1,3.4-0.3c0.9-2.3,1.7-4.3,1.7-5.4c0.1-3.1-0.3-10.3-0.3-10.3L258,158.1z"/>
	<path class="st18" d="M260,147.5c-0.1,0-0.2,0-0.2-0.1c0.4-3.7-0.8-6.2-6.4-6.2c-5.5-0.1-6,2.4-5.9,6.2c-0.1,0-0.3,0-0.4,0.1
		c-0.5,0.1-0.5,1.2-0.1,2.3c0.3,0.7,0.7,1.3,1.1,1.5c0.9,3.1,2.9,5,5.5,5c2.5,0,4.3-2,5.3-4.8c0.4-0.2,0.9-0.8,1.2-1.6
		C260.6,148.8,260.5,147.7,260,147.5z"/>
	<path id="pfad-81_2_" class="st24" d="M248.1,149.8c-0.1,0.6-0.7-1.9-0.8-2.4c-0.5-1.7-0.5-3.5,0-5.2c0.3-1,1-1.9,1.9-2.5
		c0.4-0.5,1-0.9,1.7-1.1c2.4-1.1,5.3-0.6,7.3,1.1c2.7,2.1,2.1,3.4,2,4.8c-0.1,1.5-0.2,2.5-0.2,2.5s-0.6,3.7-0.9,3s-0.5-3.4-1-3.9
		c-1.4-1.5-5.6-2.5-6.4-2.7c-1.8-0.4-2.4-0.2-2.6,1.3C248.9,145.8,248.3,148.3,248.1,149.8"/>
	<path class="st0" d="M249.4,168.4c-0.7-4.8-1.3-11.3-1.3-11.3s-3.5,1.3-5.6,2.1c-1.8,0.6-3.6,1.3-5.3,2.3c-0.1,0-0.1,0.1-0.2,0.2
		l0,0l0,0.1c0,0.1-0.1,0.2-0.1,0.3l-0.7,3.3c3.2,4.6,8.3,7.8,14.2,8.5C250,172.1,249.6,170.2,249.4,168.4z"/>
	<path class="st0" d="M269.5,165.6c-0.6-2.3-1.1-3.8-1.2-3.9c-1.3-0.9-2.8-1.2-4.9-2c-2.1-0.8-5.8-2-5.8-2
		c-0.3,3.9-0.9,7.8-1.8,11.6c-0.4,1.6-0.8,3.2-1.3,4.8C260.7,173.6,266.1,170.4,269.5,165.6z"/>
	<path class="st9" d="M252.9,160l-1.9,1.9c0.5,0.6,1,1.2,1.4,1.9c0.1,0.3-1,6.3-1.7,10.3c0.7,0.1,1.5,0.1,2.2,0.1
		c0.9,0,1.7-0.1,2.6-0.2c-0.6-2.9-1.3-6.5-1.3-7c-0.1-1-0.5-3.3-0.5-3.3l1.4-1.8L252.9,160z"/>
</g>
<path id="Pfad_3270" class="st1" d="M252.8,175.6c-12.2,0-22-9.8-22-22s9.8-22,22-22c12.2,0,22,9.8,22,22
	C274.8,165.7,265,175.6,252.8,175.6z M252.8,133.6c-11,0-20,9-20,20s9,20,20,20s20-9,20-20C272.8,142.6,263.9,133.6,252.8,133.6z"/>
</svg>
