<?xml version="1.0" encoding="utf-8"?>
<!-- Generator: Adobe Illustrator 20.1.0, SVG Export Plug-In . SVG Version: 6.00 Build 0)  -->
<svg version="1.1" id="Ebene_1" xmlns="http://www.w3.org/2000/svg" xmlns:xlink="http://www.w3.org/1999/xlink" x="0px" y="0px"
	 viewBox="0 0 32 32" style="enable-background:new 0 0 32 32;" xml:space="preserve">
<style type="text/css">
	.st0{fill:none;}
	.st1{fill:#4178BE;}
</style>
<g id="Symbol_54_1" transform="translate(-5470 -3534)">
	<rect id="Rechteck_1731" x="5470" y="3534" class="st0" width="32" height="32"/>
	<g id="Gruppe_2158" transform="translate(19.5 -49)">
		<path id="Differenzmenge_165" class="st1" d="M5466.5,3613c-7.7,0-14-6.3-14-14s6.3-14,14-14s14,6.3,14,14
			C5480.5,3606.7,5474.2,3613,5466.5,3613z M5460.7,3592c-1.3,0-2.3,1-2.3,2.3l0,10.5c0,1.3,1,2.3,2.3,2.3h11.7
			c1.2,0.1,2.3-0.9,2.3-2.1c0-0.1,0-0.1,0-0.2v-10.5c0-1.3-1-2.3-2.3-2.3h-1.2v-2.3h-2.3v2.3h-4.7v-2.3h-2.3v2.3H5460.7z
			 M5472.3,3604.8h-11.7v-8.2h11.7L5472.3,3604.8L5472.3,3604.8z"/>
	</g>
</g>
</svg>
