<?xml version="1.0" encoding="utf-8"?>
<!-- Generator: Adobe Illustrator 20.1.0, SVG Export Plug-In . SVG Version: 6.00 Build 0)  -->
<svg version="1.1" id="Ebene_1" xmlns="http://www.w3.org/2000/svg" xmlns:xlink="http://www.w3.org/1999/xlink" x="0px" y="0px"
	 viewBox="0 0 24 24" style="enable-background:new 0 0 24 24;" xml:space="preserve">
<style type="text/css">
	.st0{fill:none;}
	.st1{fill:#4178BE;}
</style>
<g id="Symbol_59_1" transform="translate(-5433 -4832)">
	<path id="pfad" class="st0" d="M5433,4832h24v24h-24V4832z"/>
	<path id="pfad-2" class="st1" d="M5451,4848.1c-0.7,0-1.4,0.3-2,0.8l-7.1-4.1c0.1-0.2,0.1-0.5,0.1-0.7c0-0.2,0-0.5-0.1-0.7l7-4.1
		c1.2,1.1,3.1,1,4.2-0.2c1.1-1.2,1-3.1-0.2-4.2c-1.2-1.1-3.1-1-4.2,0.2c-0.5,0.6-0.8,1.3-0.8,2c0,0.2,0,0.5,0.1,0.7l-7,4.1
		c-1.2-1.1-3.1-1.1-4.2,0.1s-1.1,3.1,0.1,4.2c1.2,1.1,2.9,1.1,4.1,0l7.1,4.2c-0.1,0.2-0.1,0.4-0.1,0.6c0,1.6,1.3,2.9,2.9,2.9
		s2.9-1.3,2.9-2.9S5452.6,4848.1,5451,4848.1L5451,4848.1z"/>
</g>
</svg>
