<?xml version="1.0" encoding="utf-8"?>
<!-- Generator: Adobe Illustrator 20.1.0, SVG Export Plug-In . SVG Version: 6.00 Build 0)  -->
<svg version="1.1" id="Ebene_1" xmlns="http://www.w3.org/2000/svg" xmlns:xlink="http://www.w3.org/1999/xlink" x="0px" y="0px"
	 viewBox="0 0 121 158" style="enable-background:new 0 0 121 158;" xml:space="preserve">
<style type="text/css">
	.st0{fill:none;}
	.st1{fill:#FFCC00;}
	.st2{fill:#DBB100;}
	.st3{fill:#FFFFFF;}
</style>
<g id="Symbol_43_1" transform="translate(-3546 -3543)">
	<rect id="Rechteck_1890" x="3546" y="3543" class="st0" width="121" height="158"/>
	<g id="Gruppe_2337" transform="translate(-139 13)">
		<path id="pfad" class="st1" d="M3687,3671.6l22.5-8.2l8.2,22.6l36.2-78l-30.7-14.4L3687,3671.6z"/>
		<path id="pfad-2" class="st1" d="M3737.1,3608l36.2,78l8.2-22.6l22.5,8.2l-36.2-78.1L3737.1,3608z"/>
		<path id="pfad-3" class="st2" d="M3793.4,3563.4c0,0,0.5-3.8-3-5.2l-8-3.1c-2.2-1-4-2.7-4.9-4.9l-3.1-8c-0.8-2.1-2.9-3.3-5.1-3
			l-8.2,1.2c-2.4,0.2-4.8-0.4-6.7-1.9l-6.7-5.4c0,0-3-2.4-5.9,0l-6.3,5.1c-1.9,1.4-4.3,2.1-6.7,1.7l-8.3-1.5
			c-2.2-0.4-4.3,0.9-5.1,2.9l-2.8,7.7c-0.9,2.2-2.6,4-4.8,4.9l-7.7,2.8c-2.1,0.8-3.3,2.9-2.9,5.1l1.4,8.4c0.3,2.4-0.3,4.8-1.7,6.7
			l-5.1,6.3c0,0-2.4,3,0,5.9l5.4,6.7c1.4,1.9,2.1,4.3,1.9,6.7l-1.2,8.2c0,0-0.5,3.8,3,5.2l8,3.1c2.2,1,4,2.7,4.9,4.9l3.1,8
			c0.8,2.1,2.9,3.3,5.1,3l8.2-1.2c2.4-0.2,4.8,0.4,6.7,1.9l6.7,5.4c0,0,3,2.4,5.9,0l6.3-5.1c1.9-1.4,4.3-2.1,6.7-1.7l8.3,1.5
			c2.2,0.4,4.3-0.9,5.1-2.9l2.8-7.7c0.9-2.2,2.6-4,4.8-4.9l7.7-2.8c2.1-0.8,3.3-2.9,2.9-5.1l-1.2-7.1c-0.4-3.2,0.4-6.4,2.3-8.9
			l5.1-6.3c0.9-1.1,0.9-2.8,0-3.9l-4.6-5.7c0,0-4-4.9-3.1-11.2L3793.4,3563.4z"/>
		<g id="Gruppe_2336" transform="translate(82 5)">
			<g id="gruppe-303" transform="translate(71.988 106.057)">
				<g id="gruppe-279" transform="translate(17.012 10.943)">
					<path id="pfad-4" class="st3" d="M3575,3506c22.6,0,41-18.4,41-41c0-22.6-18.4-41-41-41c-22.6,0-41,18.4-41,41c0,0,0,0,0,0.1
						C3534,3487.7,3552.4,3506,3575,3506"/>
				</g>
			</g>
			<g id="Gruppe_2335" transform="translate(-76 -16)">
				<g id="Gruppe_2334" transform="translate(168 136)">
					<path id="ellipse" class="st1" d="M3534.1,3462.1c0-20.9,16.9-37.9,37.8-38c20.9,0,37.9,16.9,38,37.8c0,20.9-16.8,37.9-37.7,38
						c-20.9,0.1-37.9-16.7-38-37.6C3534.1,3462.2,3534.1,3462.2,3534.1,3462.1z"/>
				</g>
				<path id="Pfad_3271" class="st2" d="M3740,3613.5l16.8,8.9l-4.2-19.1l14.5-12.8l-19.1-3.1l-8-16.5l-7.8,16.5l-19.4,3.1
					l14.5,12.8l-4.2,19.1L3740,3613.5z"/>
			</g>
		</g>
	</g>
</g>
</svg>
