<?xml version="1.0" encoding="utf-8"?>
<!-- Generator: Adobe Illustrator 20.1.0, SVG Export Plug-In . SVG Version: 6.00 Build 0)  -->
<svg version="1.1" id="Ebene_1" xmlns="http://www.w3.org/2000/svg" xmlns:xlink="http://www.w3.org/1999/xlink" x="0px" y="0px"
	 viewBox="0 0 32 32" style="enable-background:new 0 0 32 32;" xml:space="preserve">
<style type="text/css">
	.st0{fill:none;}
	.st1{fill:#FFCC00;}
	.st2{fill:#DBB100;}
</style>
<g id="Symbol_42_1" transform="translate(-3546 -3543)">
	<rect id="Rechteck_1880" x="3546.1" y="3543" class="st0" width="32" height="32"/>
	<g id="Gruppe_2291" transform="translate(72.005 42.338)">
		<path id="ellipse" class="st1" d="M3476.1,3516.7c0-7.7,6.2-14,13.9-14c7.7,0,14,6.2,14,13.9c0,7.7-6.2,14-13.9,14
			C3482.4,3530.7,3476.1,3524.5,3476.1,3516.7C3476.1,3516.7,3476.1,3516.7,3476.1,3516.7z"/>
	</g>
	<path id="Pfad_3222" class="st2" d="M3562.1,3564.7l6.2,3.3l-1.5-7l5.4-4.7l-7-1.2l-3-6.1l-2.9,6.1l-7.1,1.2l5.4,4.7l-1.5,7
		L3562.1,3564.7z"/>
</g>
</svg>
