<svg id="Ebene_1" data-name="Ebene 1" xmlns="http://www.w3.org/2000/svg" width="242.94" height="70.31" viewBox="0 0 242.94 70.31"><defs><style>.cls-1{fill:#264885;}.cls-2{fill:#8ba8eb;}</style></defs><title>Zeichenfläche 1</title><g id="Gruppe_492" data-name="Gruppe 492"><path id="Pfad_271" data-name="Pfad 271" class="cls-1" d="M19.72,59.39V44.51H5.43V59.39H.12V26.8H5.43V40.09H19.72V26.8H25V59.39Z"/><path id="Pfad_272" data-name="Pfad 272" class="cls-1" d="M38.2,38.55c-4,0-4.6,4.49-4.6,6.49H43c-.06-2.54-.65-6.49-4.79-6.49m9.68,9.8H33.6c0,6.14,2.48,7.56,4.9,7.56,4.49,0,8.91-2.72,8.91-2.72l.18,4.13A18.22,18.22,0,0,1,37.79,60c-8.15,0-9.56-7.73-9.56-12.57,0-6.55,3.31-12.52,10-12.52,7.67,0,9.8,6,9.8,11.81a15.68,15.68,0,0,0-.18,1.65"/><path id="Pfad_273" data-name="Pfad 273" class="cls-1" d="M63.35,48.29c-1.36,0-5.2.18-7.08,1.89a3,3,0,0,0-1,2.48A3,3,0,0,0,58,55.9h.19a8.86,8.86,0,0,0,5.14-2.3V48.29Zm.53,11.1a16,16,0,0,1-.24-2.66s-3.13,3.19-7,3.19c-4.9,0-6.55-4.13-6.55-7.14a5.49,5.49,0,0,1,2.42-4.84c2.83-2.07,7.73-2.6,10.8-2.6V43c0-2.42-.35-4.07-3.19-4.07A19.94,19.94,0,0,0,52,41L51.6,37a26,26,0,0,1,9.62-2.13c3,0,4.84.89,6,2.36s1.24,3.31,1.24,5.49V54.85a32.16,32.16,0,0,0,.35,4.55Z"/><path id="Pfad_274" data-name="Pfad 274" class="cls-1" d="M73.33,59.39V24.68l5.08-.53V59.39Z"/><path id="Pfad_275" data-name="Pfad 275" class="cls-1" d="M91.33,60c-4.49,0-5.43-2.83-5.43-6.55V39.38H81.42V36l4.66-.71,1-5.79h4v5.85h6.55v4H91V53.13c0,1.18.35,2.48,1.83,2.48,1.89,0,4.9-1.65,4.9-1.65l.18,4.13A14.2,14.2,0,0,1,91.33,60"/><path id="Pfad_276" data-name="Pfad 276" class="cls-1" d="M115.89,59.39V43.33c0-3.25-1.3-4-3.42-4-1.71,0-4,1.12-6.32,3.19V59.39H101V24.68l5.14-.53V36.07c0,1.24-.18,2.78-.18,2.78,2.13-2.07,5-4,7.79-4s4.84.94,5.9,2.48a9,9,0,0,1,1.3,5.31V59.39Z"/><path id="Pfad_277" data-name="Pfad 277" class="cls-2" d="M182.07,59.39V35.48h3.54a25.53,25.53,0,0,1,.41,4.25V59.45h-4Zm2-28.46a2.6,2.6,0,0,1-2.61-2.59q0-.12,0-.24a2.6,2.6,0,0,1,2.36-2.82H184a2.84,2.84,0,0,1,0,5.67"/><path id="Pfad_278" data-name="Pfad 278" class="cls-2" d="M201.08,38c-5,0-6.49,4.25-6.49,8.8S195.65,57,201.32,57c5,0,6.49-4.19,6.49-8.74S206.75,38,201.08,38m0,22c-6.49,0-10.8-4.43-10.8-12.52S195.3,35,201.08,35c6.49,0,10.86,4.49,10.86,12.52S206.81,60,201.08,60"/><path id="Pfad_279" data-name="Pfad 279" class="cls-2" d="M230.43,59.39V43.16c0-3.78-1.48-4.78-4-4.78-1.36,0-3.78.59-7.2,3.72v17.3h-4V40.62a51.18,51.18,0,0,0-.35-5.14h3.84a28.35,28.35,0,0,1,.3,3.84c3.13-3.13,6.08-4.37,8.44-4.37,2.66,0,4.66.89,5.73,2.36a8.63,8.63,0,0,1,1.18,5.14V59.39Z"/><path id="Pfad_280" data-name="Pfad 280" class="cls-2" d="M153.74,59.39V35.48h3.54a25.53,25.53,0,0,1,.41,4.25V59.45h-4Zm1.89-28.46A2.6,2.6,0,0,1,153,28.35q0-.12,0-.24a2.6,2.6,0,0,1,2.36-2.82h.24a2.84,2.84,0,0,1,0,5.67"/><path id="Pfad_281" data-name="Pfad 281" class="cls-2" d="M170,59.92a19.17,19.17,0,0,1-7.56-1.71l.18-3.6a16.53,16.53,0,0,0,7.5,2.07c2.3,0,4.13-1.36,4.13-3.78,0-5-11.69-3.66-11.69-10.86,0-4.49,3.6-7.08,7.91-7.08a17.44,17.44,0,0,1,6.08,1.24l-.18,3.31A18.54,18.54,0,0,0,170.27,38c-2.48,0-4,1.36-4,3.48,0,4.43,11.75,3.13,11.75,11.1.06,4.72-3.72,7.32-8,7.32"/><path id="Pfad_282" data-name="Pfad 282" class="cls-2" d="M146.71,27.1l-8.26,22.67c-.59,1.65-1.24,4.25-1.3,4.49-.12-.35-1.48-5-1.48-5-7.73-23.62-26-42-48.41-47.35C63.11-3.84,35,3.78,18.9,20.37,34.3,4.49,63.88-1.77,87,3.72c21.43,5.08,37.9,24.15,45.34,46.7l3,9h3.25l12.1-32Z"/><path id="Pfad_283" data-name="Pfad 283" class="cls-2" d="M242.94,29.75a5.2,5.2,0,0,1-.3,1.71,3,3,0,0,1-.88,1.36,4.51,4.51,0,0,1-1.36.89,4.19,4.19,0,0,1-1.71.3,5.2,5.2,0,0,1-1.71-.3,4.2,4.2,0,0,1-1.3-.89,3.5,3.5,0,0,1-.83-1.36,5.11,5.11,0,0,1,0-3.42,3.5,3.5,0,0,1,.83-1.36,3.2,3.2,0,0,1,1.3-.89,4.23,4.23,0,0,1,1.71-.35,4.94,4.94,0,0,1,1.71.3,3.39,3.39,0,0,1,1.36.89,4.51,4.51,0,0,1,.89,1.36A4.3,4.3,0,0,1,242.94,29.75Zm-.53,0a4.19,4.19,0,0,0-.24-1.53,3.37,3.37,0,0,0-.77-1.24,2.74,2.74,0,0,0-1.18-.77,4.11,4.11,0,0,0-1.48-.3,3.87,3.87,0,0,0-1.48.3,2.66,2.66,0,0,0-1.12.83,3.5,3.5,0,0,0-.71,1.18,4.19,4.19,0,0,0-.24,1.53,4.4,4.4,0,0,0,.24,1.53,3.31,3.31,0,0,0,.71,1.18,4,4,0,0,0,1.12.83,4.11,4.11,0,0,0,1.48.3,3.87,3.87,0,0,0,1.48-.3,3.29,3.29,0,0,0,1.18-.83,5.07,5.07,0,0,0,.77-1.18A6.42,6.42,0,0,0,242.41,29.75Zm-1.48,2.42c0,.06-.06.12-.18.12H240c-.06,0-.06-.06-.12-.12L238.28,30c-.06-.06-.06-.06-.18-.06h-.24a.13.13,0,0,0-.12.12v2.07c0,.12-.06.18-.12.18h-.47a.16.16,0,0,1-.18-.18V27.39c0-.06,0-.06.06-.12s.06-.06.12-.06h1.54a2.21,2.21,0,0,1,.65.06,2.1,2.1,0,0,1,.53.24,2.57,2.57,0,0,1,.35.41,1.75,1.75,0,0,1,.12.59,1.63,1.63,0,0,1-.3.94,1.39,1.39,0,0,1-.83.41.21.21,0,0,0-.12.06c0,.06,0,.06.06.12L240.7,32c.06.06.06.06.06.12.18,0,.18,0,.18.06Zm-1.3-3.6a.74.74,0,0,0-.24-.65,1.31,1.31,0,0,0-.77-.24h-.71a.13.13,0,0,0-.12.12v1.54c0,.12.06.12.12.12h.47a1.3,1.3,0,0,0,.95-.24.69.69,0,0,0,.3-.65Z"/><path id="Pfad_284" data-name="Pfad 284" class="cls-2" d="M5.08,69.66a5,5,0,0,1-2.48.59C.77,70.25,0,68.78,0,66.89s.77-3.36,2.66-3.36a5.3,5.3,0,0,1,1.89.35l-.06.71a4.93,4.93,0,0,0-1.83-.41c-1.36,0-1.77,1.36-1.77,2.6s.41,2.78,1.83,2.78a2.84,2.84,0,0,0,1.53-.3V67.48l-1.18-.12v-.59h2Z"/><path id="Pfad_285" data-name="Pfad 285" class="cls-2" d="M7.09,70.14V63.64h3.66l-.06.71H7.92v2.07h2.36v.65H7.92v2.3h3v.71H7.09Z"/><path id="Pfad_286" data-name="Pfad 286" class="cls-2" d="M14.41,70.25a4.93,4.93,0,0,1-1.83-.41l.06-.83a4.44,4.44,0,0,0,1.83.47,1.12,1.12,0,0,0,1.24-1.12c0-1.54-3.07-1-3.07-3.07a1.8,1.8,0,0,1,1.82-1.78h.19a3.94,3.94,0,0,1,1.48.3l-.06.71a4.73,4.73,0,0,0-1.42-.3c-.77,0-1.24.41-1.24,1.06,0,1.36,3.07.94,3.07,3a1.89,1.89,0,0,1-1.82,2Z"/><path id="Pfad_287" data-name="Pfad 287" class="cls-2" d="M23.21,68.9a2.26,2.26,0,0,1-2.36,1.36,2.31,2.31,0,0,1-2.36-1.36,3.1,3.1,0,0,1-.12-1.06V63.64h.83v4.25a3.48,3.48,0,0,0,.12.83,1.44,1.44,0,0,0,1.53.89,1.46,1.46,0,0,0,1.53-.89,3.48,3.48,0,0,0,.12-.83V63.7h.83v4.13A6.51,6.51,0,0,1,23.21,68.9Z"/><path id="Pfad_288" data-name="Pfad 288" class="cls-2" d="M29.76,70.19l-3.31-4.9a2.91,2.91,0,0,1-.24-.53h-.06a6.15,6.15,0,0,1,.06.65v4.72h-.83V63.64l.83-.06,3.25,4.84a5.19,5.19,0,0,1,.3.59h.06a4.41,4.41,0,0,1-.12-.65V63.64h.83v6.49Z"/><path id="Pfad_289" data-name="Pfad 289" class="cls-2" d="M35.66,70a4.73,4.73,0,0,1-1.53.18H32.65V63.64s1.06-.06,1.83-.06a6.78,6.78,0,0,1,1.06.06c1,.18,2.13.94,2.13,3.31A2.85,2.85,0,0,1,35.66,70Zm-1.18-5.73a4.82,4.82,0,0,0-1.06.06v5.2h.65a3,3,0,0,0,1.3-.18,2.11,2.11,0,0,0,1.36-2.24C36.78,65.41,36.37,64.23,34.48,64.23Z"/><path id="Pfad_290" data-name="Pfad 290" class="cls-2" d="M43.57,70.14V67.07H40.44v3.07h-.83V63.64h.83v2.72h3.13V63.64h.83v6.49Z"/><path id="Pfad_291" data-name="Pfad 291" class="cls-2" d="M46.47,70.14V63.64h3.66l-.06.71H47.29v2.07h2.36v.65H47.29v2.3h3v.71H46.47Z"/><path id="Pfad_292" data-name="Pfad 292" class="cls-2" d="M52.13,70.14V63.64H53v6.49Z"/><path id="Pfad_293" data-name="Pfad 293" class="cls-2" d="M59.34,64.35H57.39v5.79h-.83V64.35H54.67v-.71h4.72Z"/><path id="Pfad_294" data-name="Pfad 294" class="cls-2" d="M69.84,70.14l-.06-5.79a16.2,16.2,0,0,1-.41,1.59L68,70.08h-.83l-1.36-4.14c-.18-.53-.41-1.59-.41-1.59l-.06,5.79h-.83l.18-6.49h1.18l1.48,4.55c.12.41.3,1.12.3,1.12a6.24,6.24,0,0,1,.3-1.12l1.54-4.55h1.12l.24,6.49Z"/><path id="Pfad_295" data-name="Pfad 295" class="cls-2" d="M72.74,70.14V63.64H76.4l-.06.71H73.56v2.07h2.36v.65H73.56v2.3h3v.71H72.74Z"/><path id="Pfad_296" data-name="Pfad 296" class="cls-2" d="M80,70.25a4.93,4.93,0,0,1-1.83-.41l.06-.83a4.44,4.44,0,0,0,1.83.47,1.12,1.12,0,0,0,1.24-1.12c0-1.54-3.07-1-3.07-3.07A1.8,1.8,0,0,1,80,63.51h.19a3.94,3.94,0,0,1,1.48.3l-.06.71a4.73,4.73,0,0,0-1.42-.3c-.77,0-1.24.41-1.24,1.06,0,1.36,3.07.94,3.07,3A1.84,1.84,0,0,1,80,70.25Z"/><path id="Pfad_297" data-name="Pfad 297" class="cls-2" d="M85.61,70.25a4.93,4.93,0,0,1-1.83-.41l.06-.83a4.44,4.44,0,0,0,1.83.47,1.12,1.12,0,0,0,1.24-1.12c0-1.54-3.07-1-3.07-3.07a1.8,1.8,0,0,1,1.82-1.78h.19a3.94,3.94,0,0,1,1.48.3l-.06.71a4.73,4.73,0,0,0-1.42-.3c-.77,0-1.24.41-1.24,1.06,0,1.36,3.07.94,3.07,3a1.84,1.84,0,0,1-2.07,1.95Z"/><path id="Pfad_298" data-name="Pfad 298" class="cls-2" d="M89.56,70.14V63.64h3.66l-.06.71H90.39v2.07h2.36v.65H90.39v2.3h3v.71H89.56Z"/><path id="Pfad_299" data-name="Pfad 299" class="cls-2" d="M99.54,70.19l-3.31-4.9a2.91,2.91,0,0,1-.24-.53h-.06a6.15,6.15,0,0,1,.06.65v4.72h-.83V63.64l.83-.06,3.25,4.84a5.19,5.19,0,0,1,.3.59h.06a4.41,4.41,0,0,1-.12-.65V63.64h.83v6.49Z"/><path id="Pfad_300" data-name="Pfad 300" class="cls-2" d="M115.66,69.66a5,5,0,0,1-2.48.59c-1.83,0-2.6-1.48-2.6-3.36s.77-3.36,2.66-3.36a5.3,5.3,0,0,1,1.89.35l-.06.71a4.93,4.93,0,0,0-1.83-.41c-1.36,0-1.77,1.36-1.77,2.6s.41,2.78,1.83,2.78a2.84,2.84,0,0,0,1.54-.3V67.48l-1.18-.12v-.59h2Z"/><path id="Pfad_301" data-name="Pfad 301" class="cls-2" d="M117.61,70.14V63.64h3.66l-.06.71h-2.77v2.07h2.36v.65h-2.36v2.3h3v.71h-3.78Z"/><path id="Pfad_302" data-name="Pfad 302" class="cls-2" d="M124.93,70.25a4.93,4.93,0,0,1-1.83-.41l.06-.83a4.44,4.44,0,0,0,1.83.47,1.12,1.12,0,0,0,1.24-1.12c0-1.54-3.07-1-3.07-3.07A1.8,1.8,0,0,1,125,63.51h.19a3.94,3.94,0,0,1,1.48.3l-.06.71a4.73,4.73,0,0,0-1.42-.3c-.77,0-1.24.41-1.24,1.06,0,1.36,3.07.94,3.07,3a1.86,1.86,0,0,1-1.76,2Z"/><path id="Pfad_303" data-name="Pfad 303" class="cls-2" d="M133.72,68.9a2.26,2.26,0,0,1-2.36,1.36A2.31,2.31,0,0,1,129,68.9a3.1,3.1,0,0,1-.12-1.06V63.64h.83v4.25a3.49,3.49,0,0,0,.12.83,1.44,1.44,0,0,0,1.54.89,1.46,1.46,0,0,0,1.54-.89,3.49,3.49,0,0,0,.12-.83V63.7h.83v4.13A2.2,2.2,0,0,1,133.72,68.9Z"/><path id="Pfad_304" data-name="Pfad 304" class="cls-2" d="M140.28,70.19,137,65.29a2.91,2.91,0,0,1-.24-.53h-.06a6.15,6.15,0,0,1,.06.65v4.72h-.83V63.64l.83-.06L140,68.42a5.18,5.18,0,0,1,.3.59h.06a4.41,4.41,0,0,1-.12-.65V63.64H141v6.49Z"/><path id="Pfad_305" data-name="Pfad 305" class="cls-2" d="M146.18,70a4.73,4.73,0,0,1-1.54.18h-1.48V63.64s1.06-.06,1.83-.06a6.78,6.78,0,0,1,1.06.06c1,.18,2.13.94,2.13,3.31A2.86,2.86,0,0,1,146.18,70ZM145,64.23a4.82,4.82,0,0,0-1.06.06v5.2h.65a3,3,0,0,0,1.3-.18,2.11,2.11,0,0,0,1.36-2.24C147.3,65.41,146.89,64.23,145,64.23Z"/><path id="Pfad_306" data-name="Pfad 306" class="cls-2" d="M154.09,70.14V67.07H151v3.07h-.83V63.64H151v2.72h3.13V63.64h.83v6.49Z"/><path id="Pfad_307" data-name="Pfad 307" class="cls-2" d="M157,70.14V63.64h3.66l-.06.71h-2.77v2.07h2.36v.65h-2.36v2.3h3v.71H157Z"/><path id="Pfad_308" data-name="Pfad 308" class="cls-2" d="M162.65,70.14V63.64h.83v6.49Z"/><path id="Pfad_309" data-name="Pfad 309" class="cls-2" d="M169.85,64.35H168v5.79h-.83V64.35h-1.88v-.71H170Z"/><path id="Pfad_310" data-name="Pfad 310" class="cls-2" d="M174.81,70.14V63.64h3.66l-.06.71h-2.77v2.07H178v.65h-2.36v2.3h3v.71h-3.78Z"/><path id="Pfad_311" data-name="Pfad 311" class="cls-2" d="M184.79,70.19l-3.31-4.9a2.91,2.91,0,0,1-.24-.53h-.06a6.15,6.15,0,0,1,.06.65v4.72h-.83V63.64l.83-.06,3.25,4.84a5.19,5.19,0,0,1,.3.59h.06a4.41,4.41,0,0,1-.12-.65V63.64h.83v6.49Z"/><path id="Pfad_312" data-name="Pfad 312" class="cls-2" d="M191.93,64.35H190v5.79h-.83V64.35h-1.89v-.71H192Z"/><path id="Pfad_313" data-name="Pfad 313" class="cls-2" d="M199.43,70.14h-1.12l-.89-4.25a13.48,13.48,0,0,1-.24-1.42c0,.06-.18.89-.3,1.42l-.95,4.25h-1.06l-1.59-6.49.89-.06,1,4.43a13,13,0,0,1,.24,1.3c0-.06.12-.77.24-1.3l.95-4.37h1.06L198.6,68c.12.47.24,1.3.24,1.3s.12-.77.24-1.3l1.06-4.37.89.06Z"/><path id="Pfad_314" data-name="Pfad 314" class="cls-2" d="M202.74,70.14V63.64h.83v6.49Z"/><path id="Pfad_315" data-name="Pfad 315" class="cls-2" d="M210.35,69.6a4.61,4.61,0,0,1-2.24.71c-1.83,0-2.6-1.48-2.6-3.36s.77-3.36,2.66-3.36a4.3,4.3,0,0,1,1.77.35l-.06.71a4.17,4.17,0,0,0-1.71-.35c-1.36,0-1.77,1.36-1.77,2.6s.41,2.78,1.83,2.78a4.49,4.49,0,0,0,2.13-.71Z"/><path id="Pfad_316" data-name="Pfad 316" class="cls-2" d="M216,70.19l-2.42-3.13-.59.71v2.36h-.83V63.64H213V67s.3-.47.47-.71l2.3-2.72.89.06-2.48,2.89,2.89,3.6Z"/><path id="Pfad_317" data-name="Pfad 317" class="cls-2" d="M218.38,70.14V63.64H222l-.06.71h-2.77v2.07h2.36v.65h-2.36v2.3h3v.71h-3.78Z"/><path id="Pfad_318" data-name="Pfad 318" class="cls-2" d="M224.05,70.14V63.64h.83v5.73h2.89v.77Z"/><path id="Pfad_319" data-name="Pfad 319" class="cls-2" d="M233.67,70.19l-3.31-4.9a2.91,2.91,0,0,1-.24-.53h-.06a6.15,6.15,0,0,1,.06.65v4.72h-.77V63.64l.83-.06,3.25,4.84a5.19,5.19,0,0,1,.3.59h.06a4.41,4.41,0,0,1-.12-.65V63.64h.83v6.49Z"/><path id="Pfad_320" data-name="Pfad 320" class="cls-2" d="M105.62,68a1.06,1.06,0,1,0-1.06-1.06A1.06,1.06,0,0,0,105.62,68h0"/></g></svg>