<?xml version="1.0" encoding="utf-8"?>
<!-- Generator: Adobe Illustrator 20.1.0, SVG Export Plug-In . SVG Version: 6.00 Build 0)  -->
<svg version="1.1" id="Ebene_1" xmlns="http://www.w3.org/2000/svg" xmlns:xlink="http://www.w3.org/1999/xlink" x="0px" y="0px"
	 viewBox="0 0 32 32" style="enable-background:new 0 0 32 32;" xml:space="preserve">
<style type="text/css">
	.st0{fill:none;}
	.st1{fill:#9933CC;}
	.st2{fill:#FFFFFF;}
</style>
<g id="Symbol_39_1" transform="translate(-4145 -3556)">
	<g id="Gruppe_2098" transform="translate(-30 -1)">
		<rect id="Rechteck_1720" x="4175" y="3557" class="st0" width="32" height="32"/>
		<g id="Gruppe_2092" transform="translate(-95 -139)">
			<path id="pfad-1" class="st1" d="M4286,3726c7.7,0,14-6.3,14-14s-6.3-14-14-14s-14,6.3-14,14S4278.3,3726,4286,3726"/>
			<g id="Gruppe_2091" transform="translate(155.471 588.593)">
				<path id="Differenzmenge_113" class="st2" d="M4127.7,3129.7L4127.7,3129.7c-0.1,0-0.2,0-0.3,0c0.5-1.6,1.1-3.1,1.8-4.6
					c1.2-2.6,2.7-5.2,4.3-7.5c0,0-1.1,0.8-3.3,4.2c-1.5,2.4-2.6,5.1-3.5,7.8c-1-0.6-1.6-1.7-1.7-2.8c-0.3-1.8,0.9-5.3,0.9-5.4
					l1.5,2.4l-0.6-4c0,0,0.2-0.6,3.5-3c2.4-1.5,5.1-2.5,7.9-2.8c-0.5,0.6-1,1.3-1.4,2c-0.8,1.5-1.5,3.1-2,4.8l-2.8,1.4h1.9
					c-0.3,0.6-1.1,2.6-2.2,4.9C4130.5,3129.5,4129.3,3129.7,4127.7,3129.7z"/>
				<path id="Pfad_2911" class="st2" d="M4126.6,3130.1l0.6,0.1c0,0-0.4,1.3-0.6,2.3c-0.2,1-0.3,1.9-0.3,1.9h-0.6
					c0,0,0.2-1.5,0.4-2.5S4126.6,3130.1,4126.6,3130.1z"/>
			</g>
		</g>
	</g>
</g>
</svg>
