<?xml version="1.0" encoding="utf-8"?>
<!-- Generator: Adobe Illustrator 20.1.0, SVG Export Plug-In . SVG Version: 6.00 Build 0)  -->
<svg version="1.1" id="Ebene_1" xmlns="http://www.w3.org/2000/svg" xmlns:xlink="http://www.w3.org/1999/xlink" x="0px" y="0px"
	 viewBox="0 0 88 88" style="enable-background:new 0 0 88 88;" xml:space="preserve">
<style type="text/css">
	.st0{fill:none;}
	.st1{fill:#305B81;}
	.st2{fill:#FFFFFF;}
</style>
<g id="Symbol_38_1" transform="translate(-4145 -3556)">
	<rect id="Rechteck_1714" x="4145" y="3556" class="st0" width="88" height="88"/>
	<g id="Gruppe_48" transform="translate(-26 -53)">
		<path id="pfad-1" class="st1" d="M4215,3695c23.2,0,42-18.8,42-42s-18.8-42-42-42s-42,18.8-42,42S4191.8,3695,4215,3695L4215,3695
			"/>
		<g id="gruppe-244" transform="translate(158.014 415)">
			<path id="pfad" class="st2" d="M4039.4,3217.9c0,1.8-1.4,3.2-3.2,3.2c0,0-0.1,0-0.1,0c-1.8,0-3.2-1.4-3.2-3.2c0,0,0-0.1,0-0.1
				c0-1.8,1.4-3.2,3.2-3.2c0,0,0.1,0,0.1,0C4037.9,3214.6,4039.3,3216,4039.4,3217.9C4039.4,3217.8,4039.4,3217.9,4039.4,3217.9"/>
			<path id="pfad-2" class="st2" d="M4038.1,3257.4c-0.9-1.7-0.8-3.7,0.2-5.3c0.8-1.1,2.3-1.6,3.6-1.2c1,0.2,2,1,2,3.2s-2,3-3,3.2
				C4040.1,3257.8,4039,3257.8,4038.1,3257.4 M4036.1,3223.2c-2.8-0.1-5.1-2.4-5.1-5.3c0-2.8,2.2-5,5-5.1c0,0,0.1,0,0.1,0
				c2.8,0,5,2.2,5.1,5c0,0,0,0.1,0,0.1C4041.2,3220.7,4039,3223.1,4036.1,3223.2 M4082.5,3216.9c-1-0.8-2.2-1.3-3.4-1.2h-3.4
				c-0.6-1.1-1.8-1.8-3-1.8c-1.9,0-3.6,1.5-3.6,3.4c0.1,1.9,1.7,3.5,3.6,3.4c1.4,0.1,2.7-0.8,3.2-2h3.4c0.4,0,0.7,0.2,1,0.4
				c0.5,0.7,0.7,1.6,0.4,2.4c-0.2,2.6-1.4,10.9-2.6,18.2h-1.2c0,0-1.2,9.7-1.4,11.8c-0.2,2-1.2,2-2.2,2h-13.8c-1,0-2,0-2.2-2
				c-0.2-2-1.4-11.8-1.4-11.8h-1c-1.2-7.3-2.2-15.6-2.6-18.2c-0.3-0.8-0.1-1.7,0.4-2.4c0.3-0.3,0.6-0.4,1-0.4h3.4
				c0.9,1.8,3.1,2.5,4.9,1.7c1.2-0.6,2-1.8,2-3.1c-0.1-1.9-1.7-3.5-3.6-3.4c-1.3,0-2.4,0.7-3,1.8h-3.4c-1.3,0-2.5,0.4-3.4,1.2
				c-1.2,1-1.6,2.6-1.4,4.9c0.2,2.6,1.4,10.5,2.6,17.8h-1.2c0,0,1.4,13.4,2,15c0.4,1.8,1.4,4.1,5.7,4.1h6.7
				c-0.3,2.7-1.7,5.2-3.9,6.9c-4.9,3.9-13.8,2.8-18.6-2.2c-0.8-0.8-1.6-1.7-2.2-2.6c0.5,0,1.1,0,1.6-0.2c3.2-0.8,5.5-3.2,5.5-6.3
				c0.2-2.8-1.6-5.3-4.3-6.1c-2.6-0.8-5.5,0.2-7.1,2.4c-0.8,1.6-1.2,3.3-1,5.1c-0.9-0.7-1.5-1.6-1.8-2.6c-2.6-5.7,2-11.1,5.9-15.4
				c0.8-1,1.8-2,2.4-2.8c3-4.1,0.8-9.1-0.6-11.6c1.6-1.3,2.6-3.2,2.6-5.3c-0.1-3.8-3.3-6.9-7.1-6.9c-3.8,0-6.9,3-6.9,6.8
				c0,0,0,0.1,0,0.1c0,3.8,3,6.9,6.8,6.9c0,0,0.1,0,0.1,0c0.5,0,1.1,0,1.6-0.2c1,1.8,2.8,5.7,0.8,8.3c-0.7,0.9-1.4,1.8-2.2,2.6
				c-3.9,4.5-9.7,11.4-6.3,18.9c1.2,2.5,3.3,4.5,5.9,5.7c1.1,2,2.5,3.8,4.1,5.5c3.6,3.5,8.4,5.5,13.4,5.5c3.4,0.1,6.7-1,9.3-3
				c2.9-2.2,4.6-5.5,4.9-9.1h6.7c4.1,0,5.3-2.4,5.7-4.1c0.4-1.8,2-15,2-15h-0.8c1-7.3,2.2-15.2,2.6-17.8
				C4084.1,3219.5,4083.7,3217.9,4082.5,3216.9"/>
		</g>
	</g>
</g>
</svg>
