<svg id="Ebene_1" data-name="Ebene 1" xmlns="http://www.w3.org/2000/svg" width="32" height="32" viewBox="0 0 32 32"><defs><style>.cls-1{fill:none;}.cls-2{fill:#fff;}</style></defs><title>Zeichenfläche 1</title><rect id="Rechteck_1731" data-name="Rechteck 1731" class="cls-1" width="32" height="32"/><g id="Gruppe_2158" data-name="Gruppe 2158"><path id="Differenzmenge_165" data-name="Differenzmenge 165" class="cls-2" d="M16,30A14,14,0,1,1,30,16,14,14,0,0,1,16,30ZM10.17,9a2.33,2.33,0,0,0-2.32,2.33v10.5a2.34,2.34,0,0,0,2.33,2.33H21.83A2.23,2.23,0,0,0,24.17,22c0-.07,0-.14,0-.21V11.33A2.34,2.34,0,0,0,21.83,9H20.67V6.67H18.33V9H13.67V6.67H11.33V9ZM21.83,21.84H10.17V13.67H21.83v8.17Z"/></g></svg>