<?xml version="1.0" encoding="utf-8"?>
<!-- Generator: Adobe Illustrator 20.1.0, SVG Export Plug-In . SVG Version: 6.00 Build 0)  -->
<svg version="1.1" id="Ebene_1" xmlns="http://www.w3.org/2000/svg" xmlns:xlink="http://www.w3.org/1999/xlink" x="0px" y="0px"
	 viewBox="0 0 88 88" style="enable-background:new 0 0 88 88;" xml:space="preserve">
<style type="text/css">
	.st0{fill:none;}
	.st1{fill:#FFC107;}
	.st2{fill:#FFFFFF;}
</style>
<g id="Symbol_34_1" transform="translate(-4145 -3556)">
	<rect id="Rechteck_1711" x="4145" y="3556" class="st0" width="88" height="88"/>
	<g id="Gruppe_2114" transform="translate(-26 -76)">
		<path id="pfad-1" class="st1" d="M4215,3718c23.2,0,42-18.8,42-42s-18.8-42-42-42s-42,18.8-42,42S4191.8,3718,4215,3718L4215,3718
			"/>
		<g id="gruppe-91" transform="translate(164.572 237.453)">
			<circle id="ellipse" class="st2" cx="4068.1" cy="3426.2" r="5.7"/>
			<path id="pfad" class="st2" d="M4029,3464.8c0,0,3.9-21.1,7.8-27c3.9-5.9,25.6-27.5,30.6-31.5c1.4-1.2,5.2,1.2,2.8,3.9
				c-3.5,3.7-11.6,13.9-11.5,15.1s4.9,9.8,6.7,14.2c0.6,1.4,0.3,2.7-1.1,3.1c-3.8,0.9-7.9,1.9-10.4,2.4c-2.3,0.5-3.1-3.5-0.5-4.2
				c1.7-0.5,5.5-1.2,6.4-1.5c0.3-0.1-2.3-3.8-2.3-3.8l-6.6,5.1l0.9,9.4c0,0,1.9,11.6,2.2,15.2c0.1,1.7-1.2,3.2-3,3.3
				c-1.7,0.1-3.1-1.1-3.3-2.8c-0.9-4.5-4.7-22-5-21.9c-1.8,3.7-3.3,7.6-4.4,11.6c-1.5,5.8-2.3,7.8-2.9,10.2s-2,3.1-3.5,3.1
				c-1.7-0.1-3-1.5-2.9-3.2C4029,3465.3,4029,3465.1,4029,3464.8L4029,3464.8z"/>
		</g>
	</g>
</g>
</svg>
