<?xml version="1.0" encoding="utf-8"?>
<!-- Generator: Adobe Illustrator 20.1.0, SVG Export Plug-In . SVG Version: 6.00 Build 0)  -->
<svg version="1.1" id="Ebene_1" xmlns="http://www.w3.org/2000/svg" xmlns:xlink="http://www.w3.org/1999/xlink" x="0px" y="0px"
	 viewBox="0 0 32 32" style="enable-background:new 0 0 32 32;" xml:space="preserve">
<style type="text/css">
	.st0{fill:none;}
	.st1{fill:#FFFFFF;}
</style>
<g id="Symbol_84_1" transform="translate(-4817 -4832)">
	<path id="Pfad_3166" class="st0" d="M4817,4832h32v32h-32V4832z"/>
	<path id="Pfad_3167" class="st1" d="M4838.2,4851.1h-1.1l-0.4-0.4c3.2-3.7,2.8-9.4-1-12.6c-3.7-3.2-9.4-2.8-12.6,1s-2.8,9.4,1,12.6
		c3.3,2.9,8.3,2.9,11.6,0l0.4,0.4v1.1l6.9,6.8l2-2L4838.2,4851.1z M4829.9,4851.1c-3.4,0-6.2-2.8-6.2-6.2c0-3.4,2.8-6.2,6.2-6.2
		c3.4,0,6.2,2.8,6.2,6.2C4836.1,4848.3,4833.3,4851.1,4829.9,4851.1C4829.9,4851.1,4829.9,4851.1,4829.9,4851.1z"/>
</g>
</svg>
