<svg id="Ebene_1" data-name="Ebene 1" xmlns="http://www.w3.org/2000/svg" width="24" height="24" viewBox="0 0 24 24"><defs><style>.cls-1{fill:none;}.cls-2{fill:#fff;}</style></defs><title>Zeichenfläche 1</title><g id="Symbol_113_1" data-name="Symbol 113 1"><path id="pfad" class="cls-1" d="M0,0H24V24H0Z"/><path id="pfad-2" class="cls-2" d="M18,16.08a2.91,2.91,0,0,0-2,.77L8.91,12.7A3.27,3.27,0,0,0,9,12a3.27,3.27,0,0,0-.09-.7L16,7.19A3,3,0,1,0,15,5a3.27,3.27,0,0,0,.09.7L8,9.81a3,3,0,1,0,0,4.38l7.12,4.16a2.82,2.82,0,0,0-.08.65A2.92,2.92,0,1,0,18,16.08Z"/></g></svg>