<?xml version="1.0" encoding="utf-8"?>
<!-- Generator: Adobe Illustrator 20.1.0, SVG Export Plug-In . SVG Version: 6.00 Build 0)  -->
<svg version="1.1" id="Ebene_1" xmlns="http://www.w3.org/2000/svg" xmlns:xlink="http://www.w3.org/1999/xlink" x="0px" y="0px"
	 viewBox="0 0 324 324" style="enable-background:new 0 0 324 324;" xml:space="preserve">
<style type="text/css">
	.st0{fill:#4178BE;}
	.st1{fill:#FFD791;}
	.st2{fill:#E71D32;}
	.st3{fill:#264A60;}
	.st4{fill:#7CC7FF;}
	.st5{fill:none;}
	.st6{fill:#144D14;}
	.st7{fill:#C0E6FF;}
	.st8{fill:#8CD211;}
	.st9{fill:#2D660A;}
	.st10{fill:#FDD600;}
	.st11{fill:#EFC100;}
</style>
<path id="pfad-1" class="st0" d="M162,322c88.4,0,160-71.6,160-160S250.4,2,162,2S2,73.6,2,162S73.6,322,162,322"/>
<path id="Schnittmenge_7" class="st1" d="M206.4,249.6h19.3v59.2c-6.3,2.7-12.7,5.1-19.3,6.9V249.6z"/>
<path id="pfad-7" class="st2" d="M218.8,231.8c7.8-5.1,11.5-12.9,13.4-12.4s7.4,4.1,8.3,6.5s0.5,3.2-2.3,4.6s-17,8.8-17,8.8
	L218.8,231.8z"/>
<path id="pfad-8" class="st3" d="M225.7,225.8c-6.9,5.5-44.7,23-54.8,25.8c-3.4,0.9-5.1,6.5-2.8,10.1s9.7,8.3,17,8.3h82.4
	c4.1,0,5.5-1.8,5.5-3.7v-10.1c0-0.9,2.8-1.4,1.8-7.4s-5.1-18.4-6.9-20.3c-3.2-3.2-7.4,0.5-12,3.2s-12.4,1.4-15.2-0.5
	S228.2,223.7,225.7,225.8"/>
<path class="st4" d="M204.1,247c2,0.3,6.2-1.7,9.2-3.2c2.9-1.5,19.7-9.4,25.6-13.7c-4-2.3-11.1-6-13.2-4.3l0,0
	c-4,3.2-18.2,10.4-31.5,16.4C196.5,244.2,200,246.5,204.1,247z"/>
<rect id="Rechteck_1881" class="st5" width="324" height="324"/>
<path id="Schnittmenge_6" class="st1" d="M117.7,315.8v-76.7H137v81C130.5,319,124.1,317.6,117.7,315.8z"/>
<g>
	<defs>
		<path id="SVGID_1_" d="M225.7,225.8c-6.9,5.5-44.7,23-54.8,25.8c-2.3,0.6-3.8,3.4-3.8,6.2v0.1c0,1.4,0.4,2.7,1.1,3.8
			c2.3,3.7,9.7,8.3,17,8.3h82.4c4.1,0,5.5-1.8,5.5-3.7v-10.1c0-0.9,2.8-1.4,1.8-7.4s-5.1-18.4-6.9-20.3c-3.2-3.2-7.4,0.5-12,3.2
			s-12.4,1.4-15.2-0.5c-2.4-1.6-9.9-5.9-13.6-5.9C226.7,225.3,226.2,225.5,225.7,225.8"/>
	</defs>
	<clipPath id="SVGID_2_">
		<use xlink:href="#SVGID_1_"  style="overflow:visible;"/>
	</clipPath>
</g>
<g>
	<defs>
		<path id="SVGID_3_" d="M249.2,255.3c-13.8,0-23,3.7-29,5.1s-29.9,0.9-36.8,0.9c-5.4-0.2-10.7-0.6-16-1.4c0.2,0.7,0.4,1.3,0.8,1.9
			c2.3,3.7,9.7,8.3,17,8.3h82.4c4.1,0,5.5-1.8,5.5-3.7v-10.1c0-0.3,0.3-0.5,0.6-0.9L249.2,255.3z"/>
	</defs>
	<clipPath id="SVGID_4_">
		<use xlink:href="#SVGID_3_"  style="overflow:visible;"/>
	</clipPath>
</g>
<path id="pfad-15" class="st3" d="M167.1,257.1c-0.2,1.6,0.2,3.2,1,4.6c2.3,3.7,9.7,8.3,17,8.3h82.4c4.1,0,5.5-1.8,5.5-3.7v-1.4
	c0,1.8-1.4,3.7-5.5,3.7h-82.4c-7.4,0-14.7-4.6-17-8.3C167.6,259.3,167.2,258.3,167.1,257.1"/>
<path id="pfad-16" class="st6" d="M273.2,256.7"/>
<path id="pfad-17" class="st2" d="M228.1,233.6c0.8,0,1.3-0.7,1.3-1.5c0-0.8-0.7-1.3-1.5-1.3s-1.3,0.7-1.3,1.5
	c0,0.4,0.2,0.7,0.5,0.9C227.4,233.5,227.7,233.6,228.1,233.6"/>
<path id="pfad-18" class="st2" d="M223.4,235.9c0.8,0,1.3-0.7,1.3-1.5c0-0.8-0.7-1.3-1.5-1.3s-1.3,0.7-1.3,1.5
	c0,0.4,0.2,0.7,0.5,0.9C222.7,235.8,223,235.9,223.4,235.9"/>
<path id="pfad-19" class="st2" d="M218.7,238.2c0.8,0,1.3-0.7,1.3-1.5c0-0.8-0.7-1.3-1.5-1.3c-0.8,0-1.3,0.7-1.3,1.5
	c0,0.4,0.2,0.7,0.5,0.9C217.9,238.1,218.3,238.2,218.7,238.2"/>
<path id="pfad-20" class="st2" d="M214,240.5c0.8,0,1.3-0.7,1.3-1.5c0-0.8-0.7-1.3-1.5-1.3s-1.3,0.7-1.3,1.5c0,0.4,0.2,0.7,0.5,0.9
	C213.3,240.4,213.6,240.5,214,240.5"/>
<path id="pfad-21" class="st2" d="M204.6,245.1c0.8,0,1.3-0.7,1.3-1.5c0-0.8-0.7-1.3-1.5-1.3s-1.3,0.7-1.3,1.5
	c0,0.4,0.2,0.7,0.5,0.9C203.9,245,204.3,245.1,204.6,245.1"/>
<path id="pfad-22" class="st2" d="M209.3,242.8c0.8,0,1.3-0.7,1.3-1.5c0-0.8-0.7-1.3-1.5-1.3c-0.8,0-1.3,0.7-1.3,1.5
	c0,0.4,0.2,0.7,0.5,0.9C208.6,242.7,208.9,242.8,209.3,242.8"/>
<path id="pfad-23" class="st2" d="M225.6,225c-0.3,0.1-0.4,0.4-0.4,0.6c0,0,0,0,0,0l1.9,6.7c0.1,0.3,0.4,0.4,0.6,0.4c0,0,0,0,0,0
	l0.4-0.1c0.3-0.1,0.4-0.4,0.4-0.6c0,0,0,0,0,0l-1.9-6.7c-0.1-0.3-0.4-0.4-0.6-0.4c0,0,0,0,0,0L225.6,225"/>
<path id="pfad-24" class="st2" d="M221,227.3c-0.3,0.1-0.4,0.4-0.4,0.6c0,0,0,0,0,0l1.9,6.7c0.1,0.3,0.4,0.4,0.6,0.4c0,0,0,0,0,0
	l0.4-0.1c0.3-0.1,0.4-0.4,0.4-0.6c0,0,0,0,0,0l-1.9-6.7c-0.1-0.3-0.4-0.4-0.6-0.4c0,0,0,0,0,0L221,227.3"/>
<path id="pfad-25" class="st2" d="M216.4,229.6c-0.3,0.1-0.4,0.4-0.4,0.6c0,0,0,0,0,0l1.9,6.7c0.1,0.3,0.4,0.4,0.6,0.4c0,0,0,0,0,0
	l0.4-0.1c0.3-0.1,0.4-0.4,0.4-0.6c0,0,0,0,0,0l-1.9-6.7c-0.1-0.3-0.4-0.4-0.6-0.4c0,0,0,0,0,0L216.4,229.6"/>
<path id="pfad-26" class="st2" d="M211.8,231.9c-0.3,0.1-0.4,0.4-0.4,0.6c0,0,0,0,0,0l1.9,6.7c0.1,0.3,0.4,0.4,0.6,0.4c0,0,0,0,0,0
	l0.4-0.1c0.3-0.1,0.4-0.4,0.4-0.6c0,0,0,0,0,0l-1.9-6.7c-0.1-0.3-0.4-0.4-0.6-0.4c0,0,0,0,0,0L211.8,231.9"/>
<path id="pfad-27" class="st2" d="M207.2,234.2c-0.3,0.1-0.4,0.4-0.4,0.6c0,0,0,0,0,0l1.9,6.7c0.1,0.3,0.4,0.4,0.6,0.4c0,0,0,0,0,0
	l0.4-0.1c0.3-0.1,0.4-0.4,0.4-0.6c0,0,0,0,0,0l-1.9-6.7c-0.1-0.3-0.4-0.4-0.6-0.4c0,0,0,0,0,0L207.2,234.2"/>
<path id="pfad-28" class="st2" d="M202.1,236.5c-0.3,0.1-0.4,0.4-0.4,0.6c0,0,0,0,0,0l1.9,6.7c0.1,0.3,0.4,0.4,0.6,0.4c0,0,0,0,0,0
	l0.4-0.1c0.3-0.1,0.4-0.4,0.4-0.6c0,0,0,0,0,0l-1.9-6.7c-0.1-0.3-0.4-0.4-0.6-0.4c0,0,0,0,0,0L202.1,236.5"/>
<path id="pfad-29" class="st1" d="M193.9,238.4c-1.5,0.8-2.1,2.8-1.2,4.3c0,0,0,0.1,0.1,0.1l1.1,1.9c0.8,1.5,2.8,2.1,4.3,1.2
	c0,0,0.1,0,0.1-0.1l1.4-0.8c1.5-0.8,2.1-2.8,1.2-4.3c0,0,0-0.1-0.1-0.1l-1.1-1.9c-0.8-1.5-2.8-2.1-4.3-1.2c0,0-0.1,0-0.1,0.1
	L193.9,238.4"/>
<path id="pfad-30" class="st1" d="M202.5,234c-1.5,0.8-2.1,2.8-1.2,4.3c0,0,0,0.1,0.1,0.1l1.1,1.9c0.8,1.5,2.8,2.1,4.3,1.2
	c0,0,0.1,0,0.1-0.1l1.4-0.8c1.5-0.8,2.1-2.8,1.2-4.3c0,0,0-0.1-0.1-0.1l-1.1-1.9c-0.8-1.5-2.8-2.1-4.3-1.2c0,0-0.1,0-0.1,0.1
	L202.5,234"/>
<path id="pfad-31" class="st1" d="M211.1,229.6c-1.5,0.8-2.1,2.8-1.2,4.3c0,0,0,0.1,0.1,0.1l1.1,1.9c0.8,1.5,2.8,2.1,4.3,1.2
	c0,0,0.1,0,0.1-0.1l1.4-0.8c1.5-0.8,2.1-2.8,1.2-4.3c0,0,0-0.1-0.1-0.1l-1.1-1.9c-0.8-1.5-2.8-2.1-4.3-1.2c0,0-0.1,0-0.1,0.1
	L211.1,229.6"/>
<path id="pfad-32" class="st1" d="M219.7,225.1c-1.5,0.8-2.1,2.8-1.2,4.3c0,0,0,0.1,0.1,0.1l1.1,1.9c0.8,1.5,2.8,2.1,4.3,1.2
	c0,0,0.1,0,0.1-0.1l1.4-0.8c1.5-0.8,2.1-2.8,1.2-4.3c0,0,0-0.1-0.1-0.1l-1.1-1.9c-0.8-1.5-2.8-2.1-4.3-1.2c0,0-0.1,0-0.1,0.1
	L219.7,225.1"/>
<path id="pfad-33" class="st7" d="M76.3,61.8c-0.7,0-1.3,0.5-1.3,1.2c0,0,0,0,0,0.1V64c0,0.7,0.5,1.3,1.2,1.3c0,0,0,0,0.1,0h4.8
	c0.7,0,1.3-0.5,1.3-1.2c0,0,0,0,0-0.1V63c0-0.7-0.5-1.3-1.2-1.3c0,0,0,0-0.1,0L76.3,61.8"/>
<path id="Schnittmenge_8" class="st1" d="M2.7,147c0.6-6.5,1.6-13,3-19.3h71.1V147H2.7z"/>
<path id="pfad-34" class="st7" d="M69.2,101.8c0,0-6.5,0-6.5,6.5v53.9c0,0,0,6.5,6.5,6.5h19.1c0,0,6.5,0,6.5-6.5v-53.9
	c0,0,0-6.5-6.5-6.5H69.2"/>
<path id="pfad-35" class="st7" d="M69.2,78.6c0,0-6.5,0-6.5,6.5v10.4c0,0,0,6.5,6.5,6.5h19.1c0,0,6.5,0,6.5-6.5V85.1
	c0,0,0-6.5-6.5-6.5H69.2"/>
<path id="pfad-36" class="st7" d="M68.3,67.4c-0.9,0-1.7,0.7-1.7,1.7c0,0,0,0,0,0.1V70c0,0.9,0.7,1.7,1.7,1.7c0,0,0,0,0.1,0h20.8
	c0.9,0,1.7-0.7,1.7-1.7c0,0,0,0,0-0.1v-0.9c0-0.9-0.7-1.7-1.7-1.7c0,0,0,0-0.1,0H68.3"/>
<path id="pfad-37" class="st7" d="M68.3,73c-0.9,0-1.7,0.7-1.7,1.7c0,0,0,0,0,0.1v0.9c0,0.9,0.7,1.7,1.7,1.7c0,0,0,0,0.1,0h20.8
	c0.9,0,1.7-0.7,1.7-1.7c0,0,0,0,0-0.1v-0.9c0-0.9-0.7-1.7-1.7-1.7c0,0,0,0-0.1,0L68.3,73"/>
<rect id="rechteck-2" x="76.8" y="64.4" class="st7" width="3.9" height="3.9"/>
<rect id="rechteck-3" x="70" y="75.5" class="st7" width="17.4" height="3.9"/>
<path class="st7" d="M90.7,83.7l-0.2-1.9c0.1,0,5.2-0.7,7.2-3.6c0.8-1.1,1-2.4,0.6-3.9c-0.4-1.6-1.2-2.7-2.5-3.4
	c-4.6-2.5-13.5,0.6-13.6,0.6l-0.7-1.8c0.4-0.1,9.7-3.4,15.2-0.5c1.8,1,3,2.6,3.5,4.7c0.5,2.1,0.2,3.9-0.9,5.5
	C96.8,82.9,91,83.7,90.7,83.7z"/>
<path id="pfad-41" class="st1" d="M97.3,145.8c0-1.4-1.2-2.5-2.6-2.4c0,0-0.1,0-0.1,0l-6.7,0.3c-1.4,0-2.5,1.2-2.4,2.6
	c0,0,0,0.1,0,0.1l0.1,2.1c0,1.4,1.2,2.5,2.6,2.4c0,0,0.1,0,0.1,0l6.7-0.4c1.4,0,2.5-1.2,2.4-2.6c0,0,0-0.1,0-0.1L97.3,145.8"/>
<path id="pfad-43" class="st1" d="M97.3,154.4c0-1.4-1.2-2.5-2.6-2.4c0,0-0.1,0-0.1,0l-4.4,0.2c-1.4,0-2.5,1.2-2.4,2.6
	c0,0,0,0.1,0,0.1l0.1,2.1c0,1.4,1.2,2.5,2.6,2.4c0,0,0.1,0,0.1,0l4.4-0.2c1.4,0,2.5-1.2,2.4-2.6c0,0,0-0.1,0-0.1L97.3,154.4"/>
<path id="pfad-44" class="st6" d="M121.7,201.8l-3,3c0,0,3.8,0,5.3,2.2s2.3,8.3,2.3,8.3h1.5c0,0-0.2-5.2-0.8-8.3
	C126.3,202.5,121.7,201.8,121.7,201.8"/>
<path id="pfad-45" class="st8" d="M143.2,213.1c-8.7-4.3-13.9,1.1-16.3,1.5c-2.4-0.4-7.6-5.8-16.3-1.5s-6,17.3-3,24
	c3.9,8.8,6.8,12.8,12,12.8c3.6,0,5.1-1.4,7.2-1.5c2.1,0.1,3.6,1.5,7.2,1.5c5.3,0,8.1-4,12-12.8C149.2,230.4,152,217.5,143.2,213.1"
	/>
<path id="pfad-46" class="st9" d="M143.6,198.5c0,0-7.5-1.5-12,1.5c-3.5,2.4-4.5,6-3,8.3s6.8,1.5,9.8-0.8S143.7,198.5,143.6,198.5"
	/>
<path id="pfad-47" class="st1" d="M150.7,215.2c-0.1-1.4-1.3-2.5-2.7-2.4c0,0-0.1,0-0.1,0l-11,0.8c-1.4,0.1-2.5,1.3-2.4,2.7
	c0,0,0,0.1,0,0.1l0.1,2.1c0.1,1.4,1.3,2.5,2.7,2.4c0,0,0.1,0,0.1,0l11.1-0.8c1.4-0.1,2.5-1.3,2.4-2.7c0,0,0-0.1,0-0.1L150.7,215.2"
	/>
<path id="pfad-48" class="st1" d="M152.6,224c-0.1-1.4-1.3-2.5-2.7-2.4c0,0-0.1,0-0.1,0l-9.3,0.7c-1.4,0.1-2.5,1.3-2.4,2.7
	c0,0,0,0.1,0,0.1l0.1,2.1c0.1,1.4,1.3,2.5,2.7,2.4c0,0,0.1,0,0.1,0l9.3-0.7c1.4-0.1,2.5-1.3,2.4-2.7c0,0,0-0.1,0-0.1L152.6,224"/>
<path id="pfad-49" class="st1" d="M150.6,232.6c-0.1-1.4-1.3-2.5-2.7-2.4c0,0-0.1,0-0.1,0l-6.7,0.5c-1.4,0.1-2.5,1.3-2.4,2.7
	c0,0,0,0.1,0,0.1l0.1,2.1c0.1,1.4,1.3,2.5,2.7,2.4c0,0,0.1,0,0.1,0l6.7-0.5c1.4-0.1,2.5-1.3,2.4-2.7c0,0,0-0.1,0-0.1L150.6,232.6"/>
<path id="pfad-50" class="st1" d="M116.3,219.4c0.8-1.6,0.1-3.4-1.4-4.2c0,0-0.1,0-0.1-0.1l-4.6-2.1c-1.6-0.8-3.5-0.1-4.2,1.4
	c0,0,0,0.1-0.1,0.1l-0.7,1.6c-0.8,1.6-0.1,3.5,1.4,4.2c0,0,0.1,0,0.1,0.1l4.6,2.1c1.6,0.8,3.5,0.1,4.2-1.4c0,0,0-0.1,0.1-0.1
	L116.3,219.4"/>
<path id="pfad-51" class="st1" d="M147,241c-0.1-1.4-1.3-2.5-2.7-2.4c0,0-0.1,0-0.1,0l-4.4,0.3c-1.4,0.1-2.5,1.3-2.4,2.7
	c0,0,0,0.1,0,0.1l0.1,2.1c0.1,1.4,1.3,2.5,2.7,2.4c0,0,0.1,0,0.1,0l4.4-0.3c1.4-0.1,2.5-1.3,2.4-2.7c0,0,0-0.1,0-0.1L147,241"/>
<path id="pfad-52" class="st3" d="M258.3,140.3c14.1,0,25.6-11.4,25.6-25.5c0-14.1-11.4-25.6-25.5-25.6c-14.1,0-25.6,11.4-25.6,25.5
	c0,0,0,0,0,0C232.8,128.8,244.2,140.3,258.3,140.3"/>
<path id="pfad-53" class="st3" d="M258.2,87.8c4.3,0,7.8-3.5,7.8-7.8c0-4.3-3.5-7.8-7.8-7.8c-4.3,0-7.8,3.5-7.8,7.8
	S253.9,87.8,258.2,87.8L258.2,87.8"/>
<path id="pfad-54" class="st7" d="M258.3,136c11.7,0,21.3-9.5,21.3-21.3c0-11.7-9.5-21.3-21.3-21.3c-11.7,0-21.3,9.5-21.3,21.3
	S246.6,136,258.3,136L258.3,136"/>
<rect id="rechteck-4" x="257.1" y="89.2" class="st3" width="2.4" height="8.2"/>
<rect id="rechteck-5" x="257.1" y="132" class="st3" width="2.4" height="8.2"/>
<rect id="rechteck-6" x="232.8" y="113.5" class="st3" width="8.2" height="2.4"/>
<rect id="rechteck-7" x="275.6" y="113.5" class="st3" width="8.2" height="2.4"/>
<path id="pfad-56" class="st0" d="M258.2,86.3c3.5,0,6.3-2.8,6.3-6.3s-2.8-6.3-6.3-6.3s-6.3,2.8-6.3,6.3S254.7,86.3,258.2,86.3
	L258.2,86.3"/>
<rect id="rechteck-8" x="256.5" y="81.2" class="st3" width="3.4" height="9.2"/>
<rect id="rechteck-9" x="273.5" y="92" transform="matrix(0.6157 -0.788 0.788 0.6157 32.3401 253.7103)" class="st3" width="5.4" height="3.4"/>
<rect id="rechteck-10" x="254.8" y="78.8" class="st3" width="6.7" height="4.3"/>
<rect id="rechteck-11" x="275.9" y="88" transform="matrix(0.6157 -0.788 0.788 0.6157 34.8587 254.2453)" class="st3" width="4.3" height="6.7"/>
<rect x="248.8" y="109.8" transform="matrix(0.7101 -0.7041 0.7041 0.7101 -1.8055 216.5019)" class="st2" width="26.4" height="1.3"/>
<path id="pfad-57" class="st2" d="M255.2,116.2l-4.5,3l2.4,2.4l3-4.5L255.2,116.2z"/>
<path id="pfad-58" class="st2" d="M255.7,116.7c1.4,1.4,3.7,1.4,5.1,0c1.4-1.4,1.4-3.7,0-5.1c-1.4-1.4-3.7-1.4-5.1,0c0,0,0,0,0,0
	C254.3,113,254.3,115.3,255.7,116.7"/>
<path id="pfad-59" class="st7" d="M257,115.4c0.7,0.7,1.8,0.7,2.5,0s0.7-1.8,0-2.5s-1.8-0.7-2.5,0c0,0,0,0,0,0
	C256.3,113.6,256.3,114.7,257,115.4"/>
<path id="pfad-60" class="st1" d="M154.9,34.4h18c0,0,4.5,5,8.2,8.9c2.2,2.3,5.3,7,5.3,10.1v12.9c-0.1,1.7-1.5,3-3.2,3h-36.5
	c-1.7,0.1-3.1-1.3-3.2-3V54.6C143.7,47.6,152.6,34.4,154.9,34.4z"/>
<path id="Schnittmenge_9" class="st1" d="M153.6,37V2.2c2.8-0.1,5.6-0.2,8.4-0.2c3.7,0,7.3,0.1,11,0.4V37L153.6,37z"/>
<path id="pfad-61" class="st3" d="M196,89.8c0,0-5.2,0-5.2-5.2V47.5c0,0,0-5.2,5.2-5.2h2.2c0,0,5.2,0,5.2,5.2v37.1
	c0,0,0,5.2-5.2,5.2L196,89.8"/>
<path id="pfad-62" class="st3" d="M206.6,82.9c0,0-4.5,0-4.5-4.5V55c0,0,0-4.5,4.5-4.5h1.6c0,0,4.5,0,4.5,4.5v23.4
	c0,0,0,4.5-4.5,4.5L206.6,82.9"/>
<path id="pfad-63" class="st3" d="M134.7,89.8c0,0,5.2,0,5.2-5.2V47.5c0,0,0-5.2-5.2-5.2h-2.2c0,0-5.2,0-5.2,5.2v37.1
	c0,0,0,5.2,5.2,5.2L134.7,89.8"/>
<path id="pfad-64" class="st3" d="M124.1,82.9c0,0,4.5,0,4.5-4.5V55c0,0,0-4.5-4.5-4.5h-1.6c0,0-4.5,0-4.5,4.5v23.4
	c0,0,0,4.5,4.5,4.5L124.1,82.9"/>
<rect x="118.5" y="62.3" class="st3" width="94.2" height="7.7"/>
<path id="rechteck-12" class="st1" d="M174.8,80h-1.1c-1.8,0-3.2-1.4-3.2-3.2v-8.5c0-1.8,1.4-3.2,3.2-3.2h1.1c1.8,0,3.2,1.4,3.2,3.2
	v8.5C178,78.6,176.5,80,174.8,80z"/>
<path id="pfad-65" class="st1" d="M182.1,54.8h1.2c1.7,0,3.2,1.8,3.2,4v12.6c0,2.2-0.6,4-2.2,4c-4.1,0-5.3-5.7-5.3-7.9v-8.6
	C179,56.5,180.4,54.8,182.1,54.8z"/>
<path id="rechteck-13" class="st1" d="M156.9,80h-1.1c-1.8,0-3.2-1.4-3.2-3.2v-8.5c0-1.8,1.4-3.2,3.2-3.2h1.1c1.8,0,3.2,1.4,3.2,3.2
	v8.5C160.1,78.6,158.7,80,156.9,80z"/>
<path id="rechteck-14" class="st1" d="M148,76.3h-1.1c-1.8,0-3.2-1.4-3.2-3.2v-4.8c0-1.8,1.4-3.2,3.2-3.2h1.1c1.8,0,3.2,1.4,3.2,3.2
	v4.8C151.2,74.9,149.8,76.3,148,76.3z"/>
<path id="rechteck-15" class="st1" d="M165.9,81.5h-1.1c-1.8,0-3.2-1.4-3.2-3.2V66.4c0-1.8,1.4-3.2,3.2-3.2h1.1
	c1.8,0,3.2,1.4,3.2,3.2v11.9C169.1,80.1,167.6,81.5,165.9,81.5z"/>
<path id="pfad-66" class="st1" d="M220.6,162.2v18c0,0-5,4.5-8.9,8.2c-2.3,2.2-7.7,3-10.8,3h-10.7c-1.7-0.1-3-1.5-3-3.2l-1.5-27.8
	c0-1.7,1.3-3.1,3-3.2h11.7C207.3,157.2,220.6,159.9,220.6,162.2z"/>
<path id="Schnittmenge_10" class="st1" d="M218,180.2v-19.3h104c0,0.4,0,0.8,0,1.1c0,6.1-0.3,12.2-1,18.2H218z"/>
<path class="st10" d="M164.5,195.9c-2.4,0-4.4-0.8-6-2.4c-0.8-0.9-1.5-1.9-2.1-3.2c-1.5-0.4-2.9-1.2-3.9-2.3
	c-6.6-6.8-3.8-25.1-1.1-42.7c0.2-1,0.3-2,0.5-3c-6.9-3.3-11.4-11.7-12.5-20.2c-1.1-8.7,1.7-15.1,7.1-15.8c2.8-0.4,5,0.3,6.6,2
	c0.2,0.2,0.3,0.3,0.5,0.5c2.5-0.2,4.6,0.4,6.1,2c4.5,4.7,3.7,16.7,1.7,30.6c1.3-0.3,2.9-0.8,4.6-1.6c-0.8-3.7-1.5-7.2-2-10.5
	c-0.7-4.4,0.6-8.2,3.7-10.6c3-2.3,7.3-2.9,11-1.4c1.9,0.8,3.5,2,4.7,3.6c0.3-1.4,0.6-2.9,0.6-4.5c0.4-9.5,5.8-12.7,10.3-12.6
	c5,0.1,10.2,4.4,10.2,11.3c0,8-0.1,24.8-0.1,24.8l-2,0c0,0,0.1-16.7,0.1-24.8c0-5.7-4.2-9.2-8.2-9.3c-0.1,0-0.1,0-0.2,0
	c-5.6,0-7.9,5.8-8.1,10.7c-0.1,2.4-0.5,4.6-1.2,6.7c0.7,1.5,1.2,3.2,1.5,5.1c0.5,4.3,2.2,17.9,2.2,18.1l-2,0.2
	c0-0.1-1.6-13.8-2.2-18.1c-0.1-1-0.3-1.9-0.6-2.7c-3.3,7.1-9.6,12.2-15.4,15c0.7,3.1,1.5,6.2,2.2,9.3c4.2,17.3,8.2,33.7,2.9,41.4
	c-1.6,2.4-4,3.8-7.2,4.2C165.5,195.8,165,195.9,164.5,195.9z M158.9,190.7c0.3,0.5,0.7,1,1.1,1.4c1.4,1.5,3.4,2,5.9,1.7
	c2.6-0.3,4.5-1.4,5.8-3.3c4.8-7,0.7-23.7-3.2-39.8c-0.7-3-1.4-5.9-2.1-8.9c-1.9,0.8-3.8,1.4-5.3,1.6c-0.3,2-0.6,4.1-0.9,6.1
	c7.1,14.4,13.8,28.8,9.8,36.2c-1.5,2.7-4.2,4.4-8.2,4.9C160.7,190.7,159.7,190.8,158.9,190.7z M157.9,188.6c1,0.2,2.2,0.2,3.5,0
	c3.4-0.4,5.6-1.7,6.7-3.8c3.3-6.2-2.2-18.8-8.6-31.8C157.4,167.1,155.4,181.2,157.9,188.6z M153.8,143c-0.1,0.9-0.3,1.7-0.4,2.6
	c-2.6,17.2-5.4,34.9,0.5,41c0.5,0.5,1.1,0.9,1.7,1.3c-2.2-8.5,0-22.6,2.2-37.3c0-0.2,0.1-0.5,0.1-0.7c-0.3-0.6-0.6-1.3-1-1.9
	c-0.8-1.6-1.5-3.1-2.3-4.7C154.4,143.2,154.1,143.1,153.8,143z M157.1,143.6c0.5,0.9,0.9,1.9,1.4,2.8c0.1-0.9,0.3-1.8,0.4-2.8
	C158.3,143.7,157.7,143.7,157.1,143.6z M156.1,141.5c1,0.2,2,0.2,3.1,0.1c1.9-13.3,2.9-25.4-1.1-29.5c-0.9-0.9-2-1.4-3.5-1.4
	c2.5,5.7,1.5,16-0.1,27.5C155,139.3,155.5,140.4,156.1,141.5z M147.8,108.1c-0.4,0-0.8,0-1.2,0.1c-4.8,0.6-6.2,7.2-5.3,13.5
	c1,7.6,4.9,15.3,10.9,18.4c0.1-0.5,0.2-1.1,0.2-1.6c-5.2-10.9-8.7-20.5-5.9-25.8c0.9-1.7,2.5-2.9,4.6-3.5
	C150.2,108.5,149.2,108.1,147.8,108.1z M174.1,118.4c-2,0-3.9,0.6-5.4,1.8c-2.4,1.9-3.5,5-2.9,8.7c0.5,3.1,1.1,6.5,1.9,9.9
	c5.6-2.8,12-7.9,14.8-15.5c-1.4-2.5-3.4-3.7-4.7-4.2C176.6,118.7,175.4,118.4,174.1,118.4z M152.5,110.9c-2.1,0.4-3.5,1.3-4.2,2.8
	c-2.2,4.1,0.5,12.1,4.7,21.2C154.3,124.5,155,115.3,152.5,110.9z"/>
<path id="pfad-68" class="st8" d="M183.9,154.7c-0.8,6.8-0.9,13.7-0.2,20.5c1.2,9.6,5.3,20.8,5.3,20.8s9.6,3.7,8.9-1.1
	c1-7.1,1-14.2,0.1-21.3c-0.8-6.9-2.6-13.6-5.2-20C192.8,153.6,183.3,149.9,183.9,154.7"/>
<path id="pfad-69" class="st3" d="M183.1,146c-1.6,0.2-2.8,1.7-2.6,3.3c0,0,0,0,0,0.1l0.3,2.7c0.2,1.6,1.7,2.8,3.3,2.6
	c0,0,0.1,0,0.1,0l8.4-1c1.6-0.2,2.8-1.7,2.6-3.3c0,0,0-0.1,0-0.1l-0.3-2.7c-0.2-1.6-1.7-2.8-3.3-2.6c0,0-0.1,0-0.1,0L183.1,146"/>
<path id="pfad-70" class="st3" d="M189.3,196c-1.6,0.2-2.8,1.7-2.6,3.3c0,0,0,0.1,0,0.1l0.3,2.7c0.2,1.6,1.7,2.8,3.3,2.6
	c0,0,0.1,0,0.1,0l8.4-1c1.6-0.2,2.8-1.7,2.6-3.3c0,0,0-0.1,0-0.1l-0.3-2.7c-0.2-1.6-1.7-2.8-3.3-2.6c0,0-0.1,0-0.1,0L189.3,196"/>
<path id="pfad-71" class="st8" d="M199.7,147.1c-0.8,6.8-0.9,13.7-0.2,20.5c1.2,9.6,5.3,20.8,5.3,20.8s9.6,3.7,8.9-1.1
	c1-7.1,1-14.2,0.1-21.3c-0.8-6.9-2.6-13.6-5.2-20C208.6,145.9,199.1,142.2,199.7,147.1"/>
<path id="pfad-72" class="st3" d="M198.9,138.4c-1.6,0.2-2.8,1.7-2.6,3.3c0,0,0,0.1,0,0.1l0.3,2.7c0.2,1.6,1.7,2.8,3.3,2.6
	c0,0,0.1,0,0.1,0l8.4-1c1.6-0.2,2.8-1.7,2.6-3.3c0,0,0-0.1,0-0.1l-0.3-2.7c-0.2-1.6-1.7-2.8-3.3-2.6c0,0-0.1,0-0.1,0L198.9,138.4"/>
<path id="pfad-73" class="st3" d="M205.1,188.4c-1.6,0.2-2.8,1.7-2.6,3.3c0,0,0,0.1,0,0.1l0.3,2.7c0.2,1.6,1.7,2.8,3.3,2.6
	c0,0,0.1,0,0.1,0l8.4-1c1.6-0.2,2.8-1.7,2.6-3.3c0,0,0-0.1,0-0.1l-0.3-2.7c-0.2-1.6-1.7-2.8-3.3-2.6c0,0-0.1,0-0.1,0L205.1,188.4"/>
<path id="rechteck-16" class="st1" d="M194.1,160.8l-0.2,1.1c-0.3,1.7-1.9,2.9-3.7,2.6l-8.4-1.3c-1.7-0.3-2.9-1.9-2.6-3.7l0.2-1.1
	c0.3-1.7,1.9-2.9,3.7-2.6l8.4,1.3C193.2,157.4,194.4,159.1,194.1,160.8z"/>
<path id="rechteck-17" class="st1" d="M193.1,178.9l-0.2,1.1c-0.3,1.7-1.9,2.9-3.7,2.6l-8.4-1.3c-1.7-0.3-2.9-1.9-2.6-3.7l0.2-1.1
	c0.3-1.7,1.9-2.9,3.7-2.6l8.4,1.3C192.2,175.6,193.4,177.2,193.1,178.9z"/>
<path id="rechteck-18" class="st1" d="M202.8,160.9l-0.5-1c-0.8-1.6-0.1-3.5,1.5-4.3l7.6-3.7c1.6-0.8,3.5-0.1,4.3,1.5l0.5,1
	c0.8,1.6,0.1,3.5-1.5,4.3l-7.6,3.7C205.5,163.1,203.6,162.5,202.8,160.9z"/>
<path id="rechteck-19" class="st1" d="M193.5,187.8l-0.2,1.1c-0.3,1.7-1.9,2.9-3.7,2.6l-4.7-0.8c-1.7-0.3-2.9-1.9-2.6-3.7l0.2-1.1
	c0.3-1.7,1.9-2.9,3.7-2.6l4.7,0.8C192.5,184.4,193.7,186,193.5,187.8z"/>
<path id="rechteck-20" class="st1" d="M195.7,170.1l-0.2,1.1c-0.3,1.7-1.9,2.9-3.7,2.6l-11.7-1.9c-1.7-0.3-2.9-1.9-2.6-3.7l0.2-1.1
	c0.3-1.7,1.9-2.9,3.7-2.6l11.7,1.9C194.8,166.7,196,168.3,195.7,170.1z"/>
<path id="pfad-74" class="st11" d="M92,220.5c-9.7,1.4-21.5-1.5-32.2-8.6c-13.2-8.8-21-21.8-21.2-33.1c-1.1,1.1-2,2.2-2.9,3.5
	c-8.6,12.8-2.4,31.9,13.7,42.7c15.7,10.5,35,9.3,43.9-2.5L92,220.5z"/>
<g>
	<defs>
		<path id="SVGID_5_" d="M49.4,224.9c-16.1-10.8-22.3-29.9-13.7-42.7c0.8-1.2,1.8-2.4,2.9-3.5c0.2,11.3,8,24.3,21.2,33.1
			c10.7,7.1,22.5,10,32.2,8.6l1.4,1.9C84.4,234.2,65.1,235.4,49.4,224.9"/>
	</defs>
	<clipPath id="SVGID_6_">
		<use xlink:href="#SVGID_5_"  style="overflow:visible;"/>
	</clipPath>
</g>
<path id="pfad-76" class="st11" d="M71.2,241.8c-12.9,7.2-31.1,0.6-41.3-15.2c-1.5-2.4-2.8-4.9-3.9-7.5l0,0
	c-5.8-14.5-2.7-30,8.3-37.1c1.3-0.8,2.6-1.5,4-2c-4.3,10.5-2.3,25.5,6.2,38.8c6.9,10.8,16.6,18.1,26.1,20.7L71.2,241.8z"/>
<g>
	<defs>
		<path id="SVGID_7_" d="M71.2,241.8c-12.9,7.2-31.1,0.6-41.3-15.2c-1.5-2.4-2.8-4.9-3.9-7.5l0,0c-5.8-14.5-2.7-30,8.3-37.1
			c1.3-0.8,2.6-1.5,4-2c-4.3,10.5-2.3,25.5,6.2,38.8c6.9,10.8,16.6,18.1,26.1,20.7L71.2,241.8z"/>
	</defs>
	<clipPath id="SVGID_8_">
		<use xlink:href="#SVGID_7_"  style="overflow:visible;"/>
	</clipPath>
</g>
<g>
	<defs>
		<path id="SVGID_9_" d="M39.4,176.1l-0.3,7.5l-1.7,0.9c-0.5,0.2-1,0.2-1.5,0.1l-2.4-1c-0.3-0.1-0.5-0.4-0.4-0.7
			c0-0.1,0.1-0.2,0.2-0.3l1.7-2.2c0.3-0.4,0.4-0.9,0.3-1.4l-0.5-2.1c-0.1-0.4,0.1-0.8,0.5-0.9c0,0,0,0,0.1,0l3.1-0.6
			c0,0,0.7-0.1,1,0.4C39.4,175.8,39.4,175.9,39.4,176.1"/>
	</defs>
	<clipPath id="SVGID_10_">
		<use xlink:href="#SVGID_9_"  style="overflow:visible;"/>
	</clipPath>
</g>
<polygon class="st2" points="62.6,149.4 94.8,141.9 94.8,110.7 62.6,118.1 "/>
<path id="pfad-42" class="st1" d="M70.1,129.9c0.8-1.6,0.1-3.5-1.4-4.2c0,0-0.1,0-0.1-0.1l-4.6-2.1c-1.6-0.8-3.5-0.1-4.2,1.4
	c0,0,0,0.1-0.1,0.1l-0.7,1.6c-0.8,1.6-0.1,3.5,1.4,4.2c0,0,0.1,0,0.1,0.1l4.6,2.1c1.6,0.8,3.5,0.1,4.2-1.4c0,0,0-0.1,0.1-0.1
	L70.1,129.9"/>
<path id="pfad-39" class="st1" d="M97.3,128.2c0-1.4-1.2-2.5-2.6-2.4c0,0-0.1,0-0.1,0l-11.1,0.6c-1.4,0-2.5,1.2-2.4,2.6
	c0,0,0,0.1,0,0.1l0.1,2.1c0,1.4,1.2,2.5,2.6,2.4c0,0,0.1,0,0.1,0l11.1-0.6c1.4,0,2.5-1.2,2.4-2.6c0,0,0-0.1,0-0.1L97.3,128.2"/>
<path id="pfad-40" class="st1" d="M97.3,137.1c0-1.4-1.2-2.5-2.6-2.4c0,0-0.1,0-0.1,0l-9.3,0.5c-1.4,0-2.5,1.2-2.4,2.6
	c0,0,0,0.1,0,0.1l0.1,2.1c0,1.4,1.2,2.5,2.6,2.4c0,0,0.1,0,0.1,0l9.3-0.5c1.4,0,2.5-1.2,2.4-2.6c0,0,0-0.1,0-0.1L97.3,137.1"/>
<path class="st11" d="M273.2,256.2c0-0.6,1.2-1,1.7-2.9c-3.2-3.2-10.4-8.9-13.3-11.8c-3.2-3.2-6.9-3.7-9.7-2.3s-29.5,13.8-37.3,16.6
	s-13.4,0.5-24.4,0.5s-12,4.6-12,4.6l0,0c0,0,9.7,5.5,9.7,5.9c0,0.4,69.4-4.3,85.2-5V256.2z"/>
<path class="st7" d="M168.1,261.7c2.3,3.7,9.7,8.3,17,8.3h82.4c4.1,0,5.5-1.8,5.5-3.7v-10.1c0-0.3,0.3-0.5,0.6-0.9h-24.6
	c-13.8,0-23,3.7-29,5.1s-29.9,0.9-36.8,0.9c-4.8,0-12-0.9-16-1.4C167.5,260.5,167.8,261.1,168.1,261.7z"/>
<path class="st4" d="M249.2,255.3c-6.8,0-12.5,0.9-17.3,2c-0.1,0-0.1,0.1-0.2,0.1c-6.4,3.1-10.6,8.3-12.8,11.7h48.1l-6.2-6.8
	l5.7-6.9H249.2z"/>
<path id="pfad-15_1_" class="st3" d="M167.1,257.1c-0.2,1.6,0.2,3.2,1,4.6c2.3,3.7,9.7,8.3,17,8.3h82.4c4.1,0,5.5-1.8,5.5-3.7v-1.4
	c0,1.8-1.4,3.7-5.5,3.7h-82.4c-7.4,0-14.7-4.6-17-8.3C167.6,259.3,167.2,258.3,167.1,257.1"/>
<path class="st11" d="M274.2,244.8c-1.2-4.8-3.2-10.9-4.8-14.1c-1.9,1.3-4.5,3.3-4.5,4.7c0,2.3,0.9,5.1,5.5,7.4
	C271.7,243.5,272.9,244.1,274.2,244.8z"/>
<g id="gruppe-2" transform="translate(185.322 323.32)">
	<path id="pfad-14" class="st7" d="M51.5-62.5c-1-0.1-1.9,0.8-2,1.8c0,0.1,0,0.1,0,0.2v1.7c0,1,0.8,1.9,1.9,1.9c0,0,0.1,0,0.1,0
		h16.4c1,0,1.9-0.8,2-1.8c0,0,0-0.1,0-0.1v-1.7c0.1-1-0.8-1.9-1.8-2c-0.1,0-0.1,0-0.2,0L51.5-62.5"/>
</g>
<path class="st10" d="M70.8,240l-0.1-0.4c-9.5-2.6-19.1-10-26.1-20.7C36,205.5,34,190.5,38.3,180c-0.1,0.1-0.3,0.1-0.4,0.2
	c-9.6,9.4-10.3,27.1-0.8,41.9C45.4,235,59,241.8,70.8,240z"/>
<path id="pfad-80" class="st6" d="M70.9,238.2L70.9,238.2l-1.2,0.1c-0.4,0-0.7,0.3-0.7,0.7c0,0,0,0.1,0,0.1l0.8,4L71,243
	c0.4,0,0.7-0.3,0.7-0.7c0,0,0-0.1,0-0.1L70.9,238.2z"/>
<path class="st10" d="M54.2,218c12.8,8.6,28.1,9.4,38.1,3l-0.3-0.5c-9.7,1.4-21.5-1.5-32.2-8.6c-13.2-8.8-21-21.8-21.2-33.1
	c-0.1,0.1-0.2,0.2-0.3,0.3C33,191.6,39.5,208.2,54.2,218z"/>
<path id="pfad-81" class="st6" d="M92.1,219.1L92.1,219.1l-1.1,0.6c-0.3,0.2-0.5,0.6-0.3,0.9c0,0,0,0.1,0.1,0.1l2.3,3.3l1.1-0.6
	c0.3-0.2,0.5-0.6,0.3-0.9c0,0,0-0.1-0.1-0.1L92.1,219.1z"/>
<path id="pfad-78" class="st9" d="M39.4,176.1l-0.3,7.5l-1.7,0.9c-0.5,0.2-1,0.2-1.5,0.1l-2.4-1c-0.3-0.1-0.5-0.4-0.4-0.7
	c0-0.1,0.1-0.2,0.2-0.3l1.7-2.2c0.3-0.4,0.4-0.9,0.3-1.4l-0.5-2.1c-0.1-0.4,0.1-0.8,0.5-0.9c0,0,0,0,0.1,0l3.1-0.6
	c0,0,0.7-0.1,1,0.4C39.4,175.8,39.4,175.9,39.4,176.1"/>
<path class="st8" d="M39,183.6l0.1-2.8H37l-2,3.3c0,0,0,0,0,0l0.9,0.4c0.5,0.2,1,0.2,1.5-0.1L39,183.6z"/>
</svg>
