<svg id="Ebene_1" data-name="Ebene 1" xmlns="http://www.w3.org/2000/svg" width="32" height="32" viewBox="0 0 32 32"><defs><style>.cls-1{fill:#4178be;}.cls-2{fill:none;}</style></defs><title>Zeichenfläche 1</title><g id="Gruppe_4964" data-name="Gruppe 4964"><path id="Differenzmenge_174" data-name="Differenzmenge 174" class="cls-1" d="M15,15H4V4H15ZM6,6v7h7V6Z"/><path id="Differenzmenge_175" data-name="Differenzmenge 175" class="cls-1" d="M15,28H4V17H15ZM6,19v7h7V19Z"/><path id="Differenzmenge_176" data-name="Differenzmenge 176" class="cls-1" d="M28,15H17V4H28ZM19,6v7h7V6Z"/><rect id="Rechteck_3098" data-name="Rechteck 3098" class="cls-2" width="32" height="32"/><rect id="rechteck-21" class="cls-1" x="8" y="8" width="3" height="3"/><rect id="rechteck-21-2" class="cls-1" x="8" y="21" width="3" height="3"/><rect id="rechteck-21-3" class="cls-1" x="21" y="8" width="3" height="3"/><path id="Vereinigungsmenge_768" data-name="Vereinigungsmenge 768" class="cls-1" d="M26,24V19H23v3H17V17h2v3h2V17h7v7Z"/><path id="Vereinigungsmenge_769" data-name="Vereinigungsmenge 769" class="cls-1" d="M17,28V24h2v2h9v2Z"/></g></svg>