<?xml version="1.0" encoding="utf-8"?>
<!-- Generator: Adobe Illustrator 20.1.0, SVG Export Plug-In . SVG Version: 6.00 Build 0)  -->
<svg version="1.1" id="Ebene_1" xmlns="http://www.w3.org/2000/svg" xmlns:xlink="http://www.w3.org/1999/xlink" x="0px" y="0px"
	 viewBox="0 0 88 88" style="enable-background:new 0 0 88 88;" xml:space="preserve">
<style type="text/css">
	.st0{fill:none;}
	.st1{fill:#8CD211;}
	.st2{fill:#FFFFFF;}
</style>
<g id="Symbol_32_1" transform="translate(-4160 -3556)">
	<rect id="Rechteck_1709" x="4160" y="3556" class="st0" width="88" height="88"/>
	<g id="Gruppe_2095" transform="translate(-29)">
		<circle id="Ellipse_99" class="st1" cx="4233" cy="3600" r="42"/>
		<path id="Differenzmenge_114" class="st2" d="M4240,3634.2c-1.8,0.1-3.3-1.3-3.4-3.1c0-0.1,0-0.3,0-0.4v-18.6h-6.9v18.6
			c0.1,1.8-1.3,3.3-3.1,3.4c-0.1,0-0.3,0-0.4,0c-1.9,0-3.4-1.5-3.4-3.4v-41.3h-17.2c-1.8,0.1-3.3-1.3-3.4-3.1c0-0.1,0-0.3,0-0.4
			c-0.1-1.8,1.3-3.3,3.1-3.4c0.1,0,0.3,0,0.4,0h55.1c1.8-0.1,3.3,1.3,3.4,3.1c0,0.1,0,0.3,0,0.4c0.1,1.8-1.3,3.3-3.1,3.4
			c-0.1,0-0.3,0-0.4,0h-7.1c0.3,0.9,0.5,1.8,0.4,2.7c0,4.7-4,8.5-10.5,14.9v23.8c0.1,1.8-1.3,3.3-3.1,3.4
			C4240.3,3634.2,4240.2,3634.2,4240,3634.2z M4233.5,3587c-3,0-5.5,2.4-5.6,5.4c0,3.2,3.4,6.5,8.9,11.9l0.1,0.1
			c0.8,0.8,1.6,1.6,2.5,2.4c1-1,2-1.9,2.9-2.8c5.4-5.3,8.6-8.4,8.6-11.6c-0.1-3-2.6-5.4-5.6-5.4c-2.7,0-4.6,2.1-5.7,3.4l-0.2,0.2
			l-0.3-0.3C4238,3589,4236.2,3587,4233.5,3587L4233.5,3587z M4233.1,3579.1c-3.8,0-6.9-3.1-6.9-6.9s3.1-6.9,6.9-6.9
			c3.8,0,6.9,3.1,6.9,6.9C4240,3576,4236.9,3579.1,4233.1,3579.1z"/>
	</g>
</g>
</svg>
