<svg id="Ebene_1" data-name="Ebene 1" xmlns="http://www.w3.org/2000/svg" width="375" height="140" viewBox="0 0 375 140"><defs><style>.cls-1,.cls-12{fill:#93c;}.cls-1{opacity:0.2;}.cls-2{fill:#9ed1de;opacity:0.8;}.cls-3{fill:#b2b3e4;}.cls-3,.cls-4{opacity:0.7;}.cls-4{fill:#4a5f86;}.cls-5{fill:#f4d6c8;}.cls-6{fill:#3c3c3c;}.cls-7{fill:#6ac8c4;}.cls-8{fill:#ad6ecf;}.cls-9{fill:#e49ec2;}.cls-10{fill:#ebd6f5;}.cls-11{fill:#a1cf2c;}</style></defs><title>Zeichenfläche 2 Kopie 12</title><rect class="cls-1" width="375" height="140"/><path class="cls-2" d="M122.24,69.55c0,27.91-24.94,50.54-24.94,50.54S72.35,97.46,72.35,69.55,97.3,19,97.3,19,122.24,41.64,122.24,69.55Z"/><path class="cls-3" d="M94.07,64.86C108.52,88.74,98.91,121,98.91,121S65.85,114.57,51.4,90.7s-4.84-56.15-4.84-56.15S79.62,41,94.07,64.86Z"/><path class="cls-4" d="M65.9,76.55c25.16,12.08,34.77,44.35,34.77,44.35s-31.19,12.7-56.36.62S9.54,77.17,9.54,77.17,40.73,64.48,65.9,76.55Z"/><path class="cls-3" d="M100.56,64.86C86.1,88.74,95.72,121,95.72,121s33.06-6.44,47.51-30.31,4.84-56.15,4.84-56.15S115,41,100.56,64.86Z"/><path class="cls-4" d="M128.73,76.55C103.57,88.63,94,120.9,94,120.9s31.19,12.7,56.36.62,34.77-44.35,34.77-44.35S153.89,64.48,128.73,76.55Z"/><ellipse class="cls-5" cx="253.38" cy="106.87" rx="12.56" ry="17.61" transform="matrix(0.27, -0.96, 0.96, 0.27, 81.5, 321.54)"/><path class="cls-6" d="M258.93,120.25s-6.26-13-2.71-18c0,0,2.72-2-2.13-3.91-2.64-1-3.74,1.88-3.74,1.88s-6.62-2.29-6.64-5.21c0,0,13.21-11.71,26.12,3.72,0,0,4.32,6,1.61,13.09C268.15,120.42,258.93,120.25,258.93,120.25Z"/><path class="cls-6" d="M262.8,95.28c-2.57-1.68-3.45-4.87-2-7.12h0c1.48-2.25,4.75-2.72,7.32-1l2.54,1.67c2.57,1.68,3.45,4.87,2,7.12h0c-1.48,2.25-4.75,2.72-7.32,1Z"/><path class="cls-5" d="M243.25,86.82s1.12-11.62-24.75-18.75c-3.34-.92-6.24-3.09-8.78-5.35a41.69,41.69,0,0,1-8.32-9.94c-3.52-6-6.67-9.88-13.64-12.27a17.26,17.26,0,0,0-13,.39c-6.61,2.75-8.89,7.73-11.86,13.66-3.14,6.27-6.23,12.6-9,19-.7,1.61-2.08,3.91-2.08,5.74,0,0-14.62,7.09-25.5,36.75,0,0-10.5,12,0,12.75,0,0,1.13-1.5,8.63,0s13.13.19,13.31-1.31-14.44-5.06-13.87-8.25S158,89.7,158,89.7s5.56-2.61,6.13-6c0,0,12-11.33,17-16.81,2.71-3,13.39,19.25,25.58,20-.53,0,1.3,5.15,1.42,5.39,2.55,4.66,8.35,6,13.27,6.24,5.21.25,14.71-4.05,15.93-4,3,.22,4-4.46,5.95-6.79"/><path class="cls-5" d="M300.3,129.17s6.66-4.44-15-6.71L256.54,94.39l-10.45,6.16a321.65,321.65,0,0,0,37,28S292,129.29,300.3,129.17Z"/><path class="cls-7" d="M243.25,86.82s1.12-11.62-24.75-18.75c-3.34-.92-6.24-3.09-8.78-5.35a41.69,41.69,0,0,1-8.32-9.94,32.07,32.07,0,0,0-6.13-8c-5.39,4.3-10.76,11.14-14,22,3-1.9,13.46,19.41,25.39,20.1-.53,0,1.3,5.15,1.42,5.39,2.55,4.66,8.35,6,13.27,6.24,5.21.25,14.71-4.05,15.93-4,3,.22,4-4.46,5.95-6.79Z"/><path class="cls-5" d="M265.74,107.89c-1.83,2.51-9.08,1.44-20.87-7.17a98.6,98.6,0,0,1-11.75-9.91c-2.73-2.74-6.2-5.35-5.85-9.67.22-2.72,2.44-6.43,5.44-6.78s4.72,2.72,6.35,4.71a50.62,50.62,0,0,0,9.44,8.81C260.29,96.5,267.57,105.38,265.74,107.89Z"/><path class="cls-8" d="M187.75,40.51a17.26,17.26,0,0,0-13,.39c-6.61,2.75-8.89,7.73-11.86,13.66-3.14,6.27-6.23,12.6-9,19-.7,1.61-2.08,3.91-2.08,5.74a23.28,23.28,0,0,0-4.08,2.84l8.63,9.48L158,89.7s5.56-2.61,6.13-6c0,0,12-11.33,17-16.81.86-1,2.53.65,4.8,3.3l12-22.56A20.68,20.68,0,0,0,187.75,40.51Z"/><path class="cls-9" d="M248.56,16,229,30.13c-7.53,5.47-8.25,14.16-.48,16.59l60.84,14.44s-7.78-3.48-1.49-12,22.65-18.25,22.65-18.25Z"/><path class="cls-9" d="M294.12,60.18a4.56,4.56,0,0,1-4.92-5.74c1.54-7.62,17.57-17.81,22.85-20.9l.46,4.32c-9.88,5.19-18.75,12.84-19.65,17.32a1.19,1.19,0,0,0,.19,1.11c1.22,1,9.57-1.41,16.36-6.66,2.93-2.26,5.37-4.54,4.75-5.63s-6.07,2.41-10.8,6.59l-5,.72c.13-.11,12.24-11.68,16.86-10.73a2.69,2.69,0,0,1,1.94,1.5c1.66,3.52-1.43,8.1-8.49,12.58C305.07,57,298.63,60.18,294.12,60.18Z"/><circle class="cls-10" cx="333.78" cy="90.23" r="27.82"/><path class="cls-11" d="M332.57,62.25h0Z"/><path class="cls-11" d="M333.77,119.34h0Z"/><path class="cls-12" d="M333.3,64.26h.46a12,12,0,0,1,1.74,23.92h-.19a8.44,8.44,0,0,0-1.27.12c-.18,0-.43.06-.53.06a16.43,16.43,0,0,0-16.67,16.54,16.74,16.74,0,0,0,1.6,7.16,26.33,26.33,0,0,1,14.85-47.8m.4-2.41a28.75,28.75,0,0,0,0,57.49,14.44,14.44,0,0,1-14.44-14.44,14,14,0,0,1,14.26-14.14c.55,0,1.22-.18,1.79-.18l.27,0a14.43,14.43,0,0,0-1.81-28.74h-.07Z"/><circle class="cls-12" cx="333.07" cy="75.52" r="3.91"/><path class="cls-12" d="M332.69,62.1a14.44,14.44,0,0,1,14.44,14.44c0,8-5.63,14.17-13.6,14.17-.64,0-2.1.21-2.71.13a14.43,14.43,0,0,0,1.81,28.74h.07a28.75,28.75,0,1,0,0-57.49Zm.38,46.21A3.91,3.91,0,1,1,337,104.4,3.91,3.91,0,0,1,333.07,108.31Z"/></svg>