<svg id="Ebene_1" data-name="Ebene 1" xmlns="http://www.w3.org/2000/svg" width="375" height="140" viewBox="0 0 375 140"><defs><style>.cls-1,.cls-16{fill:#93c;}.cls-1{opacity:0.2;}.cls-13,.cls-2{fill:#e49ec2;}.cls-2{opacity:0.8;}.cls-17,.cls-3{fill:#ad6ecf;}.cls-3,.cls-4{opacity:0.7;}.cls-4{fill:#9c8d85;}.cls-5{fill:#f4d6c8;}.cls-6{fill:#3c3c3c;}.cls-7{fill:#767777;}.cls-8{fill:#4a5f86;}.cls-9{fill:#d3d4f2;}.cls-10{fill:#6ac8c4;}.cls-11{fill:#ebd6f5;}.cls-12{fill:#a1cf2c;}.cls-14{fill:#f2ecfb;}.cls-15{fill:#b2b3e4;}.cls-18{fill:#8729b9;}</style></defs><title>Zeichenfläche 2 Kopie 11</title><rect class="cls-1" width="375" height="140"/><path class="cls-2" d="M115.6,73.41C115.6,99.69,92.11,121,92.11,121S68.63,99.69,68.63,73.41,92.11,25.82,92.11,25.82,115.6,47.12,115.6,73.41Z"/><path class="cls-3" d="M89.08,69c13.61,22.48,4.55,52.88,4.55,52.88S62.5,115.8,48.89,93.33s-4.55-52.88-4.55-52.88S75.46,46.52,89.08,69Z"/><path class="cls-4" d="M62.54,80c23.7,11.37,32.75,41.76,32.75,41.76s-29.37,12-53.07.59S9.48,80.59,9.48,80.59,38.85,68.63,62.54,80Z"/><path class="cls-3" d="M95.18,69c-13.61,22.48-4.55,52.88-4.55,52.88s31.13-6.07,44.74-28.55,4.55-52.88,4.55-52.88S108.79,46.52,95.18,69Z"/><path class="cls-4" d="M121.71,80C98,91.37,89,121.77,89,121.77s29.37,12,53.07.59,32.75-41.76,32.75-41.76S145.41,68.63,121.71,80Z"/><ellipse class="cls-5" cx="177.29" cy="57.65" rx="9.06" ry="12.71"/><path class="cls-5" d="M220.12,109.18c-7.45-2-23.66,2.11-31.12,4.21-2.46-6.14-.62-15.56-.21-17.62.34-1.72,4.72-11,5-16.29,2.73-7.16,7.06-30.42,6.91-32.57-.17-2.41-18.5-23.2-18.5-23.2,3-5.84-5-19.08-5.43-17.77a2.81,2.81,0,0,0-.08.53,2.88,2.88,0,0,0-.08-.53c-.44-1.32-8.44,11.93-5.43,17.77,0,0-18.34,20.79-18.5,23.2-.15,2.15,4.18,25.41,6.91,32.57.25,5.33,4.63,14.57,5,16.29.41,2.06,1.72,11.19-.21,17.62-7.47-2.1-23.67-6.17-31.12-4.21-9.86,2.59,1.31,13.11,1.31,13.77s25.56,9.75,42,10.72v0h.28v0c16.44-1,42-10.06,42-10.72S230,111.77,220.12,109.18ZM177.29,73.43H176a77.23,77.23,0,0,0-7.93.5c-1.23-4.7-5.67-21.36-7.63-25.49,0,0,13.92-19.59,16.11-22,0,0,0-1.65.08-4,0,2.37.08,4,.08,4,2.19,2.37,16.11,22,16.11,22-2,4.13-6.4,20.79-7.63,25.49A77.2,77.2,0,0,0,177.29,73.43Z"/><path class="cls-6" d="M177.29,50.2a21.71,21.71,0,0,0,7.61,2.5,38.61,38.61,0,0,0,1.43,7.21s4.78-15.1-9-15.1Z"/><path class="cls-6" d="M177.45,50.2a21.7,21.7,0,0,1-7.61,2.5,38.61,38.61,0,0,1-1.43,7.21s-4.09-15.1,9-15.1Z"/><path class="cls-6" d="M169.56,52.36a11.15,11.15,0,0,0,6.88,1.88c3.85-.34,2.89-2.12,8.71-1.35C185.15,52.9,178.36,45.81,169.56,52.36Z"/><path class="cls-7" d="M220.12,109.18c-7.45-2-22.89,2.11-30.35,4.21-2.46-6.14,3.74-28.57,4-33.9,2.73-7.16,7.06-30.42,6.91-32.57s-16.25-20.64-18.29-23l-5.64,2.54c2.19,2.37,16.11,22,16.11,22-2,4.13-6.4,20.79-7.63,25.49l-1.29-.14-14.13,0c-.83.07-.85.08-1.71.19-1.23-4.7-5.67-21.36-7.63-25.49,0,0,13.92-19.59,16.11-22L170.94,24c-2,2.32-18.13,20.7-18.29,23s4.18,25.41,6.91,32.57c.25,5.33,5.92,27.48,4,33.9-7.46-2.1-22.9-6.17-30.35-4.21-9.86,2.59,1.31,13.11,1.31,13.77s25.56,9.75,42,10.72v0h.28v0c16.44-1,42-10.06,42-10.72S230,111.77,220.12,109.18Z"/><polygon class="cls-8" points="175.43 78.51 178.6 78.51 180.19 74.99 173.85 74.99 175.43 78.51"/><polygon class="cls-8" points="178.6 80.32 175.43 80.32 173.85 100.33 177.1 103.33 180.19 100.33 178.6 80.32"/><polygon class="cls-9" points="177.02 73.14 177.02 75.14 182.52 81.91 185.21 73.55 177.02 73.14"/><polygon class="cls-9" points="171.52 81.91 177.02 75.14 177.02 73.14 168.06 73.55 171.52 81.91"/><path class="cls-6" d="M220.12,109.18c-7.45-2-22.89,2.11-30.35,4.21-9,5.33-17.14,5.33-26.21,0-7.46-2.1-22.9-6.17-30.35-4.21-9.86,2.59,1.31,13.11,1.31,13.77s25.56,9.75,42,10.72v0h.28v0c16.44-1,42-10.06,42-10.72S230,111.77,220.12,109.18Z"/><path class="cls-10" d="M291.73,72.48,272.15,86.66c-7.53,5.47-8.25,14.16-.48,16.59l60.84,14.44s-7.78-3.48-1.49-12,22.65-18.25,22.65-18.25Z"/><path class="cls-10" d="M337.29,116.71a4.56,4.56,0,0,1-4.92-5.74c1.54-7.62,17.57-17.81,22.85-20.9l.46,4.32c-9.88,5.19-18.75,12.84-19.65,17.32a1.19,1.19,0,0,0,.19,1.11c1.22,1,9.57-1.41,16.36-6.66,2.93-2.26,5.37-4.54,4.75-5.63s-6.07,2.41-10.8,6.59l-5,.72c.13-.11,12.24-11.68,16.86-10.73a2.69,2.69,0,0,1,1.94,1.5c1.66,3.52-1.43,8.1-8.49,12.58C348.25,113.48,341.8,116.71,337.29,116.71Z"/><circle class="cls-11" cx="318.64" cy="39.35" r="21.79"/><path class="cls-12" d="M317.69,17.44h0Z"/><path class="cls-12" d="M318.63,62.15h0Z"/><path class="cls-13" d="M318.26,19h.36A9.42,9.42,0,0,1,320,37.74h-.15a6.7,6.7,0,0,0-1,.09l-.41.05a12.87,12.87,0,0,0-13.05,13,13.12,13.12,0,0,0,1.25,5.61A20.62,20.62,0,0,1,318.26,19m.31-1.89a22.51,22.51,0,0,0,0,45,11.31,11.31,0,0,1-11.31-11.31,11,11,0,0,1,11.17-11.07c.43,0,1-.14,1.4-.14H320a11.3,11.3,0,0,0-1.42-22.51h-.05Z"/><circle class="cls-13" cx="318.08" cy="27.83" r="3.06"/><path class="cls-13" d="M317.78,17.32a11.31,11.31,0,0,1,11.31,11.31c0,6.25-4.41,11.1-10.66,11.1-.5,0-1.64.17-2.12.1a11.3,11.3,0,0,0,1.42,22.51h.05a22.51,22.51,0,1,0,0-45Zm.3,36.2a3.06,3.06,0,1,1,3.06-3.06A3.06,3.06,0,0,1,318.08,53.52Z"/><rect class="cls-14" x="230.9" y="52.73" width="23.92" height="45.18" rx="6" ry="6"/><path class="cls-15" d="M252.13,93.69V87.11h-18.6v6.78a3.38,3.38,0,0,0,1.29,1.2h15.92A3.38,3.38,0,0,0,252.13,93.69Z"/><path class="cls-16" d="M252.13,93.69V87.11h-18.6v6.78a3.38,3.38,0,0,0,1.29,1.2h15.92A3.38,3.38,0,0,0,252.13,93.69Z"/><path class="cls-14" d="M250.29,98.87H235.37a5.63,5.63,0,0,1-5.62-5.62V57.07a5.63,5.63,0,0,1,5.63-5.62h14.92a5.63,5.63,0,0,1,5.63,5.62V93.24A5.63,5.63,0,0,1,250.29,98.87ZM235.37,53.69A3.38,3.38,0,0,0,232,57.07V93.24a3.38,3.38,0,0,0,3.38,3.37h14.92a3.38,3.38,0,0,0,3.38-3.37V57.07a3.38,3.38,0,0,0-3.37-3.37Z"/><rect class="cls-14" x="237.5" y="47.28" width="10.73" height="5.29" rx="2.19" ry="2.19"/><rect class="cls-17" x="246.82" y="71.17" width="23.92" height="45.18" rx="6" ry="6"/><path class="cls-17" d="M266.23,117.47H251.32a5.63,5.63,0,0,1-5.62-5.62V75.67A5.63,5.63,0,0,1,251.32,70h14.92a5.63,5.63,0,0,1,5.63,5.62v36.18A5.63,5.63,0,0,1,266.23,117.47ZM251.32,72.29a3.38,3.38,0,0,0-3.37,3.37v36.18a3.38,3.38,0,0,0,3.38,3.37h14.92a3.38,3.38,0,0,0,3.38-3.37V75.67a3.38,3.38,0,0,0-3.37-3.37Z"/><rect class="cls-18" x="253.46" y="65.85" width="10.63" height="5.31" rx="2.19" ry="2.19"/><rect class="cls-17" x="253.46" y="65.85" width="10.63" height="5.31" rx="2.19" ry="2.19"/><path class="cls-18" d="M268.08,112.3v-6.58h-18.6v6.78a3.37,3.37,0,0,0,1.29,1.2h15.92A3.38,3.38,0,0,0,268.08,112.3Z"/><path class="cls-16" d="M268.08,112.3v-6.58h-18.6v6.78a3.37,3.37,0,0,0,1.29,1.2h15.92A3.38,3.38,0,0,0,268.08,112.3Z"/><rect class="cls-16" x="249.47" y="95.09" width="18.6" height="7.97"/><rect class="cls-16" x="249.47" y="84.46" width="18.6" height="7.97"/><path class="cls-18" d="M249.47,75.22V81.8h18.6V75a3.39,3.39,0,0,0-1.29-1.2H250.87A3.38,3.38,0,0,0,249.47,75.22Z"/><path class="cls-16" d="M249.47,75.22V81.8h18.6V75a3.39,3.39,0,0,0-1.29-1.2H250.87A3.38,3.38,0,0,0,249.47,75.22Z"/></svg>