<svg id="Ebene_1" data-name="Ebene 1" xmlns="http://www.w3.org/2000/svg" width="375" height="140" viewBox="0 0 375 140"><defs><style>.cls-1,.cls-9{fill:#4a5f86;}.cls-1{opacity:0.2;}.cls-2{fill:#fff;}.cls-3{fill:#767777;}.cls-4{fill:#b2b3e4;}.cls-5{fill:#c3c2c2;}.cls-6{fill:#c1c1c1;}.cls-7{fill:#f6f291;}.cls-8{fill:#f9f7b1;}.cls-10{fill:#ff7822;}</style></defs><title>Zeichenfläche 2 Kopie 18</title><rect class="cls-1" width="375" height="140"/><polygon class="cls-2" points="107.25 34.5 131.15 30.82 140.27 38.65 148.06 28.22 172.25 24.5 185.75 107.5 123.25 117.5 107.25 34.5"/><g id="gruppe-252-2"><path class="cls-3" d="M149.85,25.55a10.69,10.69,0,0,0-12.23-8.9h0A10.4,10.4,0,0,0,129,28.6c0,.08,0,.16,0,.24a10.52,10.52,0,1,0,20.78-3.29Zm-9.48,8.16a7,7,0,1,1,5.78-8A6.95,6.95,0,0,1,140.36,33.71Z"/><rect id="rechteck-28" class="cls-3" x="121.46" y="52.22" width="46.14" height="9.22" transform="translate(-7.12 23.34) rotate(-9.01)"/><rect id="rechteck-29" class="cls-3" x="123.79" y="67.45" width="33.23" height="9.22" transform="translate(-9.54 22.84) rotate(-8.99)"/><polygon id="rechteck-30" class="cls-3" points="125.47 83.95 171.04 76.73 172.5 85.84 126.91 93.06 125.47 83.95"/><path class="cls-3" d="M189.78,105.52,177,24.61s-.86-5.46-6.33-4.6l-25,4a7,7,0,1,1-13.23,2.09l-24.43,3.87s-5.47.86-4.6,6.33l12.81,80.91s.87,5.47,6.33,4.6l62.68-9.93S190.64,111,189.78,105.52Zm-66.67,8-12-75.94,12.44-2,7,12,23.7-3.75,2.95-13.61L171.36,28l12,75.92Z"/></g><rect class="cls-4" x="46.93" y="38.11" width="5.91" height="7.65" rx="1.63" ry="1.63" transform="translate(-15.25 43.88) rotate(-41.76)"/><path class="cls-2" d="M47.75,56.39a3.23,3.23,0,0,1-.66-2.54l1.45-6.42A5.42,5.42,0,0,1,50,45l2.84-2.54a5.5,5.5,0,0,1,2.57-1.16L62,40.52a3.19,3.19,0,0,1,2.45.93L100.9,82.21a1.48,1.48,0,0,1-.12,2.09l-14.53,13a1.48,1.48,0,0,1-2.09-.12Z"/><polygon class="cls-5" points="23.89 14.32 28.43 16.42 48.07 38.42 46.6 39.74 23.89 14.32"/><rect class="cls-6" x="97.88" y="72.51" width="7.82" height="55.11" transform="translate(-40.78 93.23) rotate(-41.77)"/><rect class="cls-2" x="76.93" y="89.14" width="33.9" height="4.11" rx="1.85" ry="1.85" transform="translate(-36.89 85.71) rotate(-41.77)"/><rect class="cls-2" x="112.05" y="120.09" width="18.93" height="4.11" rx="1.85" ry="1.85" transform="translate(-50.48 111.99) rotate(-41.77)"/><rect class="cls-6" x="74.96" y="74.29" width="16.95" height="10.43" transform="translate(-31.75 75.79) rotate(-41.77)"/><polygon class="cls-7" points="49.91 54.68 51.24 47.9 55.52 44.07 62.55 43.39 90.1 74.25 81.53 77.37 77.46 85.54 49.91 54.68"/><polygon class="cls-8" points="49.96 54.64 51.29 47.85 53.5 45.88 81.58 77.32 77.51 85.5 49.96 54.64"/><path class="cls-8" d="M28.26,32a5.07,5.07,0,0,1-4.76,5.33A5.07,5.07,0,0,1,18.75,32c0-2.94,4.76-10.21,4.76-10.21S28.26,29,28.26,32Z"/><g id="gruppe-251"><g id="gruppe-12"><path id="pfad-44" class="cls-9" d="M273.29,31H218.11a9.73,9.73,0,0,0-9.64,9.64V95.86a9.73,9.73,0,0,0,9.64,9.64h55.19a9.72,9.72,0,0,0,9.64-9.64V40.68A9.72,9.72,0,0,0,273.29,31ZM254.9,67.53H236.51L221.9,50.89a27.72,27.72,0,0,1,23.94-13.43,28.35,28.35,0,0,1,23.94,13.43Z"/></g><path id="pfad-45" class="cls-10" d="M249.93,63.45h-8.47l4.08-19.85Z"/></g><rect class="cls-2" x="218.72" y="81.75" width="53.47" height="1.09"/><rect class="cls-2" x="218.72" y="87.99" width="53.47" height="1.09"/><rect class="cls-2" x="218.72" y="94.23" width="53.47" height="1.09"/><rect class="cls-3" x="274.58" y="118.6" width="87.74" height="1.68"/><rect class="cls-3" x="361.06" y="51.44" width="1.68" height="68.43"/><rect class="cls-7" x="276.26" y="94.25" width="15.11" height="20.99" rx="5.6" ry="5.6"/><rect class="cls-7" x="297.67" y="82.92" width="15.11" height="32.33" rx="5.6" ry="5.6"/><rect class="cls-7" x="319.08" y="74.53" width="15.11" height="40.72" rx="5.6" ry="5.6"/><rect class="cls-7" x="340.49" y="66.55" width="15.11" height="48.7" rx="5.6" ry="5.6"/><polygon class="cls-10" points="275.36 116.05 272.95 114.44 290.06 88.91 302.67 95.49 318.58 67.54 327.63 78.36 344.25 51.03 359.81 78.9 357.27 80.31 344.15 56.79 328 83.33 319.03 72.61 303.81 99.36 291.02 92.68 275.36 116.05"/><path class="cls-10" d="M310.49,49l-2.18-5.23L305.74,49h-7.82l-1.81-8.42-6.22,20.12L285.06,43l-2.67,6h-6.14c3.55,5.56,9.84,11.26,17.85,18.53l3.57,3.25,3.58-3.23c8-7.28,14.3-13,17.85-18.55Z"/><path class="cls-10" d="M308.76,25.55a14.76,14.76,0,0,0-11.09,5.15,14.74,14.74,0,0,0-11.09-5.15h-.26A13.42,13.42,0,0,0,273,39.1a16.61,16.61,0,0,0,1.8,7.37h5.93l4.88-10.89L290,51.68l6.51-21.07L300,46.47h4.21l4.32-8.82,3.68,8.82h8.35a16.61,16.61,0,0,0,1.8-7.37v-.26A13.43,13.43,0,0,0,308.76,25.55Z"/></svg>