<svg id="Ebene_1" data-name="Ebene 1" xmlns="http://www.w3.org/2000/svg" width="375" height="140" viewBox="0 0 375 140"><defs><style>.cls-1,.cls-2{fill:#93c;}.cls-1{opacity:0.2;}.cls-3{fill:#ad6ecf;}.cls-4{fill:#c1c1c1;}.cls-5{fill:#3c3c3c;}.cls-6{fill:#767777;}.cls-7{fill:#9c8d85;}.cls-8{fill:#f4d6c8;}.cls-9{fill:#4a5f86;}.cls-10{fill:#6ac8c4;}.cls-11{fill:#f2ecfb;}.cls-12{fill:#b2b3e4;}.cls-13{fill:#8729b9;}</style></defs><title>Zeichenfläche 2 Kopie 16</title><rect class="cls-1" width="375" height="140"/><circle class="cls-2" cx="67.15" cy="57.96" r="42.95"/><path class="cls-3" d="M75.72,19c4.76,2,9.43,2.45,12.48,1.54a42.69,42.69,0,0,0-19.1-5.47A25.88,25.88,0,0,0,75.72,19Z"/><path class="cls-3" d="M59.18,21.8a121.29,121.29,0,0,0,41.88,9.8,43.31,43.31,0,0,0-2.86-3.31A119.88,119.88,0,0,1,55.54,16.62a42.5,42.5,0,0,0-4.28,1.45C53.68,19.32,56.33,20.58,59.18,21.8Z"/><path class="cls-3" d="M55.25,33.56A118,118,0,0,0,103.14,44q2.27,0,4.6-.1-.55-1.58-1.2-3.1C78.11,41.73,55.12,31,42.16,23q-1.39,1-2.69,2.09A127.62,127.62,0,0,0,55.25,33.56Z"/><path class="cls-3" d="M99.24,57.47q5.28,0,10.84-.55c0-1.05-.08-2.1-.18-3.13C73,57.52,44.19,40.9,32.44,32.69Q31.5,34,30.66,35.32A124.9,124.9,0,0,0,51.34,47,118,118,0,0,0,99.24,57.47Z"/><path class="cls-3" d="M47.44,59.34A118,118,0,0,0,95.33,69.8,109.41,109.41,0,0,0,108.67,69c.28-1.07.52-2.16.72-3.25-40.65,5.44-72.16-14.28-82.74-22q-.56,1.57-1,3.2A124,124,0,0,0,47.44,59.34Z"/><path class="cls-3" d="M24.39,61.93a124.58,124.58,0,0,0,21.09,12A118,118,0,0,0,93.38,84.37q3.86,0,7.87-.29,1.24-1.61,2.32-3.34C64.16,84.54,34,65.14,24.21,57.88c0,0,0,.06,0,.09C24.2,59.3,24.27,60.62,24.39,61.93Z"/><path class="cls-3" d="M42.55,88.47a119.66,119.66,0,0,0,38.7,10.07,42.8,42.8,0,0,0,6.34-2.79C61.71,95,40.92,85,29,77.66a43.06,43.06,0,0,0,3.63,5.84C35.58,85.15,38.9,86.84,42.55,88.47Z"/><path class="cls-4" d="M264.35,81.55c-1.78.9-3.66.81-4.16-.19s.54-2.55,2.33-3.45L302,58.06c1.78-.9,3.66-.81,4.16.19s-.54,2.55-2.33,3.45Z"/><rect class="cls-5" x="290.27" y="56.7" width="9.29" height="15.38" rx="2.83" ry="2.83" transform="translate(2.49 139.27) rotate(-26.68)"/><rect class="cls-6" x="295.14" y="54.14" width="9.29" height="15.38" rx="2.83" ry="2.83" transform="translate(4.16 141.2) rotate(-26.68)"/><rect class="cls-5" x="293.27" y="56.31" width="4.5" height="15.34" transform="translate(1.42 134.19) rotate(-25.64)"/><rect class="cls-5" x="261.75" y="70.39" width="9.28" height="15.38" rx="2.83" ry="2.83" transform="translate(-6.69 127.96) rotate(-26.69)"/><rect class="cls-6" x="266.62" y="67.83" width="9.29" height="15.38" rx="2.83" ry="2.83" transform="translate(-5.02 129.86) rotate(-26.68)"/><rect class="cls-5" x="264.75" y="70" width="4.5" height="15.34" transform="translate(-7.31 123.21) rotate(-25.65)"/><path class="cls-4" d="M274.94,58.9c-1.27,1.54-3,2.22-3.88,1.51s-.54-2.56.73-4.1l28.08-34.12c1.27-1.54,3-2.22,3.88-1.51s.54,2.56-.73,4.1Z"/><rect class="cls-5" x="291.3" y="23.15" width="9.29" height="15.38" rx="2.83" ry="2.83" transform="translate(84.08 239.77) rotate(-50.55)"/><rect class="cls-6" x="294.72" y="18.84" width="9.29" height="15.38" rx="2.83" ry="2.83" transform="translate(88.65 240.82) rotate(-50.55)"/><rect class="cls-5" x="294.09" y="22.55" width="4.5" height="15.34" transform="translate(80.9 235.94) rotate(-49.5)"/><rect class="cls-5" x="270.76" y="47.21" width="9.29" height="15.38" rx="2.83" ry="2.83" transform="translate(58.01 232.66) rotate(-50.54)"/><rect class="cls-6" x="274.18" y="42.89" width="9.29" height="15.38" rx="2.83" ry="2.83" transform="translate(62.58 233.72) rotate(-50.54)"/><rect class="cls-5" x="273.55" y="46.61" width="4.5" height="15.34" transform="translate(55.43 228.78) rotate(-49.51)"/><path class="cls-7" d="M233,90s5.27,6.47-2.52,20.82c0,0-1.46,4.25.37,5.32,0,0-15-13.3-1.66-26.86C229.18,89.3,232.14,88.42,233,90Z"/><ellipse class="cls-8" cx="228.92" cy="79.51" rx="14.49" ry="10.34" transform="translate(-11.45 48.7) rotate(-11.85)"/><path class="cls-8" d="M231.19,126.84s-12.41-2.76-20.14-4.23a60.63,60.63,0,0,0,1.7-13c.06-1.79.05-3.51,0-5.15.42-2.45-.2-6.67-.49-11.81l.08-2.3s-.1-15.52-7-23.27h0c-3.78-5.53-12.53-15.27-15.37-18,0,0,2.72-22.93,4.41-25.88,0,0-.44-1.56-1.08-3.79.73,2.2,1.25,3.74,1.25,3.74.35.17-4.71-12.79-6.11-19.18-3.71-.17-5.7,14-.75,18.45,0,0-7.16,25.53-6.65,27.85.35,1.59,7.22,14,12.65,22.3-6.78,3.85-15.27,8.59-21,11.54A59.31,59.31,0,0,0,129.3,94.8s-13.94,7-16.91,7.93c-3.9,1-7.72,2.3-11.55,3.58C94.05,108.59,88,112,81.32,114.57c-4.22,1.62-9.32,2.59-13.17,5-2.59,1.6-6.23,7.08-2,8.09a12.59,12.59,0,0,0,1.6,3s15.38-1.13,18-1a216.66,216.66,0,0,0,24.22-2.14c5.91-1.11,18.36-2.3,22.63-3.5,15.64-4.38,19.1-.35,49.76-14.69,0,0,10.42-4.24,21.16-3.62-.09,1.18-.17,2.39-.21,3.63-.14,4.28-.36,8.24-.23,11.46v0c0,1.33.19,7.25,1.71,8.26a8.51,8.51,0,0,0,3.14.78c1.59.13,3.76.66,5.35.81,4.28.41,7.62-.13,11.85.65,1.22.22,5.62,1,7.92.78-2.3.32,16-2,16.07-2C250.34,129.46,236.52,123.23,231.19,126.84ZM118.62,115.42c-6,2.3-12.25,2.2-18.46,3.91-3.85,1.06-11.41,2.52-15.22,3.7-.63-1.45-4.67-.59-7.82.16a21.7,21.7,0,0,1,8.08-3.26c11.23-1.75,22.12-5,33.29-7.2,6.32-1.24,12.57-2.73,18.86-4.1C131.21,111.21,124.82,113.06,118.62,115.42Z"/><path class="cls-5" d="M151.59,84.79a57.69,57.69,0,0,0-22.29,10s-13.94,7-16.91,7.93c-3.9,1-7.72,2.3-11.55,3.58C94.63,108.39,89,111.44,83,113.9c.62,2.46,1.73,4.81,3.72,5.78,10.68-1.8,21.1-4.85,31.76-6.94,6.32-1.24,12.57-2.73,18.86-4.1-6.12,2.57-12.52,4.42-18.72,6.78s-12.25,2.2-18.46,3.91c-3.17.87-8.84,2-12.87,3l-3.87,7.27c1,0,1.87-.07,2.31-.05a216.66,216.66,0,0,0,24.22-2.14c5.91-1.11,18.36-2.3,22.63-3.5,10.65-3,15.67-2.08,27.44-5.71A111.87,111.87,0,0,1,151.59,84.79Z"/><path class="cls-9" d="M212.76,109.59c.06-1.79.05-3.51,0-5.15a82.15,82.15,0,0,0,0-9.36c-19.2-6.41-8.63-17.93-4.34-23.3a20.34,20.34,0,0,0-3-4.72h0c-3.78-5.53-12.53-15.27-15.37-18,0,0,2.17-18.24,3.83-24.27a10.66,10.66,0,0,1-6.5-1c-1.49,5.37-6.69,24.45-6.25,26.43.35,1.59,7.22,14,12.65,22.3-6.78,3.85-15.27,8.59-21,11.54a57.82,57.82,0,0,0-23,1.18,69.81,69.81,0,0,0,6.72,34c6-1.59,13.87-4.38,25.91-10,0,0,10.42-4.24,21.16-3.62-.09,1.18-.17,2.39-.21,3.63-.14,4.28-.36,8.24-.23,11.46v0c0,1.33.19,7.25,1.71,8.26a8.51,8.51,0,0,0,3.14.78c1.59.13,3.76.66,5.35.81,4.28.41,7.62-.13,11.85.65.55.1,1.74.32,3.1.5a10.4,10.4,0,0,1,1.48-5.27c-3.53-.78-12.54-2.73-18.63-3.9A60.63,60.63,0,0,0,212.76,109.59Z"/><path class="cls-7" d="M226.8,69.4s2,8.82,16.47,8.8c0,0,3.55-8.84-9-10.9s-15.83,5.83-17,7.31C217.26,74.61,223.74,69,226.8,69.4Z"/><path class="cls-7" d="M239,77.78s-5.84,2.43-4.74,7.35c0,0-1.63,5.3-6.38,4.91,0,0,15.88,1,15.41-11.83"/><circle class="cls-10" cx="174.76" cy="96.97" r="11.61"/><path class="cls-10" d="M174.76,115.93a19,19,0,1,1,19-19A19,19,0,0,1,174.76,115.93Zm0-34.82A15.86,15.86,0,1,0,190.63,97,15.88,15.88,0,0,0,174.76,81.11Z"/><path class="cls-10" d="M174.76,122.12A25.15,25.15,0,1,1,199.91,97,25.18,25.18,0,0,1,174.76,122.12Zm0-46.43A21.28,21.28,0,1,0,196,97,21.31,21.31,0,0,0,174.76,75.69Z"/><rect class="cls-11" x="334.17" y="62.8" width="23.92" height="45.18" rx="6" ry="6"/><path class="cls-12" d="M336.86,103.76V97.18h18.6V104a3.39,3.39,0,0,1-1.29,1.2H338.25A3.38,3.38,0,0,1,336.86,103.76Z"/><path class="cls-2" d="M336.86,103.76V97.18h18.6V104a3.39,3.39,0,0,1-1.29,1.2H338.25A3.38,3.38,0,0,1,336.86,103.76Z"/><path class="cls-11" d="M333.08,103.31V67.13a5.63,5.63,0,0,1,5.63-5.63h14.92a5.63,5.63,0,0,1,5.63,5.63v36.18a5.63,5.63,0,0,1-5.62,5.63H338.7A5.63,5.63,0,0,1,333.08,103.31Zm5.63-39.55a3.38,3.38,0,0,0-3.37,3.38v36.18a3.38,3.38,0,0,0,3.38,3.38h14.92a3.38,3.38,0,0,0,3.38-3.37V67.13a3.38,3.38,0,0,0-3.37-3.38Z"/><rect class="cls-11" x="340.76" y="57.34" width="10.73" height="5.29" rx="2.19" ry="2.19"/><rect class="cls-3" x="318.25" y="81.23" width="23.92" height="45.18" rx="6" ry="6"/><path class="cls-3" d="M317.13,121.91V85.73a5.63,5.63,0,0,1,5.62-5.62h14.92a5.63,5.63,0,0,1,5.63,5.63v36.18a5.63,5.63,0,0,1-5.62,5.63H322.75A5.63,5.63,0,0,1,317.13,121.91Zm5.62-39.55a3.38,3.38,0,0,0-3.37,3.38v36.18a3.38,3.38,0,0,0,3.37,3.38h14.92a3.38,3.38,0,0,0,3.38-3.37V85.73a3.38,3.38,0,0,0-3.37-3.37Z"/><rect class="cls-13" x="324.9" y="75.92" width="10.63" height="5.31" rx="2.19" ry="2.19"/><rect class="cls-3" x="324.9" y="75.92" width="10.63" height="5.31" rx="2.19" ry="2.19"/><path class="cls-13" d="M320.91,122.36v-6.58h18.6v6.78a3.37,3.37,0,0,1-1.29,1.2H322.31A3.38,3.38,0,0,1,320.91,122.36Z"/><path class="cls-2" d="M320.91,122.36v-6.58h18.6v6.78a3.37,3.37,0,0,1-1.29,1.2H322.31A3.38,3.38,0,0,1,320.91,122.36Z"/><rect class="cls-2" x="320.91" y="105.15" width="18.6" height="7.97"/><rect class="cls-2" x="320.91" y="94.52" width="18.6" height="7.97"/><path class="cls-13" d="M339.51,85.28v6.58h-18.6V85.09a3.38,3.38,0,0,1,1.29-1.2h15.92A3.37,3.37,0,0,1,339.51,85.28Z"/><path class="cls-2" d="M339.51,85.28v6.58h-18.6V85.09a3.38,3.38,0,0,1,1.29-1.2h15.92A3.37,3.37,0,0,1,339.51,85.28Z"/></svg>