<svg id="Ebene_1" data-name="Ebene 1" xmlns="http://www.w3.org/2000/svg" width="375" height="140" viewBox="0 0 375 140"><defs><style>.cls-1{fill:#fcf3cc;}.cls-2{fill:#264a60;}.cls-3{fill:#fff;}.cls-4{fill:#f4d6c8;}.cls-5{fill:#eb5a8a;}.cls-6{fill:#e1beb0;}.cls-7{fill:#f6f291;}.cls-8{fill:#e30613;}.cls-9{fill:#ffd791;}.cls-10{fill:#e4003a;}</style></defs><title>Zeichenfläche 2 Kopie 2</title><rect class="cls-1" width="375" height="140"/><path class="cls-2" d="M34.68,8.87S33.9,21.66,29.31,28.5c-18.84,28.07,8.34,58.23-3.14,76.37-4,6.35-9.57,20.32-8.25,28.26H61.59s15-47.33,9.26-65.34c-.62-2,2.29-7.74,2.36-10.21.3-10.49-11.7-22.64-17-31.25V8.87Z"/><rect class="cls-3" x="36.75" y="30.6" width="2.22" height="4.79" rx="0.97" ry="0.97" transform="translate(3.04 69.19) rotate(-87.19)"/><path class="cls-3" d="M38.6,29.29a.9.9,0,0,0,.93.84L41,30.2a.81.81,0,1,0,.08-1.58l-1.46-.07A.9.9,0,0,0,38.6,29.29Z"/><rect class="cls-3" x="34.22" y="34.24" width="2.38" height="5.9" rx="1.04" ry="1.04" transform="matrix(0.05, -1, 1, 0.05, -3.47, 70.74)"/><rect class="cls-3" x="32.57" y="38.76" width="2.38" height="5.9" rx="1.04" ry="1.04" transform="translate(-9.54 73.38) rotate(-87.2)"/><rect class="cls-3" x="31.13" y="43.27" width="2.38" height="5.9" rx="1.04" ry="1.04" transform="translate(-15.42 76.23) rotate(-87.2)"/><rect class="cls-3" x="31.13" y="47.78" width="2.38" height="5.9" rx="1.04" ry="1.04" transform="translate(-19.93 80.52) rotate(-87.2)"/><rect class="cls-3" x="31.13" y="52.29" width="2.38" height="5.9" rx="1.04" ry="1.04" transform="translate(-24.44 84.82) rotate(-87.2)"/><rect class="cls-3" x="32.23" y="56.8" width="2.38" height="5.9" rx="1.04" ry="1.04" transform="translate(-27.9 90.21) rotate(-87.2)"/><rect class="cls-3" x="33.65" y="61.31" width="2.38" height="5.9" rx="1.04" ry="1.04" transform="translate(-31.05 95.92) rotate(-87.2)"/><rect class="cls-3" x="36.08" y="65.83" width="2.38" height="5.9" rx="1.04" ry="1.04" transform="translate(-33.24 102.64) rotate(-87.2)"/><rect class="cls-3" x="37.49" y="70.34" width="2.38" height="5.9" rx="1.04" ry="1.04" transform="translate(-36.41 108.35) rotate(-87.21)"/><rect class="cls-3" x="39.84" y="74.85" width="2.38" height="5.9" rx="1.04" ry="1.04" transform="translate(-38.68 114.99) rotate(-87.21)"/><rect class="cls-3" x="41.47" y="79.36" width="2.38" height="5.9" rx="1.04" ry="1.04" transform="translate(-41.64 120.9) rotate(-87.2)"/><rect class="cls-3" x="42.47" y="83.87" width="2.38" height="5.9" rx="1.04" ry="1.04" transform="translate(-45.19 126.19) rotate(-87.2)"/><rect class="cls-3" x="41.47" y="88.39" width="2.38" height="5.9" rx="1.04" ry="1.04" transform="translate(-50.65 129.48) rotate(-87.2)"/><rect class="cls-3" x="39.47" y="92.9" width="2.38" height="5.9" rx="1.04" ry="1.04" transform="translate(-57.06 131.77) rotate(-87.2)"/><rect class="cls-3" x="37.47" y="97.41" width="2.38" height="5.9" rx="1.04" ry="1.04" transform="translate(-63.47 134.06) rotate(-87.2)"/><rect class="cls-3" x="34.87" y="101.92" width="2.38" height="5.9" rx="1.04" ry="1.04" transform="translate(-70.44 135.76) rotate(-87.2)"/><rect class="cls-3" x="32.42" y="106.43" width="2.38" height="5.9" rx="1.04" ry="1.04" transform="translate(-77.28 137.61) rotate(-87.2)"/><rect class="cls-3" x="29.38" y="110.94" width="2.38" height="5.9" rx="1.04" ry="1.04" transform="translate(-84.68 138.86) rotate(-87.2)"/><rect class="cls-3" x="27.51" y="116.01" width="2.22" height="4.79" rx="0.97" ry="0.97" transform="matrix(0.05, -1, 1, 0.05, -91.05, 141.17)"/><path class="cls-3" d="M26.92,122.83a.9.9,0,0,0,.93.84l1.46.07a.81.81,0,1,0,.08-1.58l-1.46-.07A.9.9,0,0,0,26.92,122.83Z"/><circle class="cls-3" cx="319.93" cy="49.52" r="35.69"/><path class="cls-4" d="M338.41,80.43a11.37,11.37,0,0,1,2.09-1.72l1.13-.74c.3-.25.77-.62.93-.77.89-.78,1.75-1.61,2.66-2.37.71-.58,1.43-1.11,2.16-1.63.1-.24.21-.47.32-.7-1.26-4-2.88-9.18-3-13.28-.25-7.08,0-23.34,0-23.34,1.51-3.33,2.86-6.5,4-9.36A32.6,32.6,0,0,0,332,15.26c-2.21-.61-4.45-1.2-6.7-1.64-.05,0-2.28-.29-2.08-.31-1-.06-2-.08-3-.13-.53,0-1-.07-1.57-.13a9.78,9.78,0,0,1-4.55.37A23.72,23.72,0,0,1,309.83,15a11.08,11.08,0,0,1-1.5.24,31.39,31.39,0,0,0-8.72,5c.2-.13-1.81,1.5-1.7,1.41l-2.56,2.17q-2.24,1.91-4.53,3.78c1.07,2.58,2.28,5.39,3.61,8.32,0,0,.25,16.26,0,23.34-.14,3.77-1.52,8.47-2.72,12.3a24.77,24.77,0,0,1,4.94,5l-.21-.27c.32.42.66.82,1,1.2a9.63,9.63,0,0,1,3.61,3.47l15.36,4.28,1.25-.09.48.09a7.65,7.65,0,0,1,1.27-.32l.13-.21,2.27.07,1.76.28a7.67,7.67,0,0,1,4.3-1.33,7.54,7.54,0,0,1,1.87.24,7.53,7.53,0,0,1,1.88-.24l.56,0a7.82,7.82,0,0,1,3.32-1.89A7.73,7.73,0,0,1,338.41,80.43Z"/><path class="cls-5" d="M294.71,35.49c0-2,1-2.38,2.3-.81l1.42,1.77A14.11,14.11,0,0,1,301,43l2.42,30.23c.16,2-1,2.6-2.53,1.31l-3.37-2.81a8.93,8.93,0,0,1-2.82-6Z"/><path class="cls-5" d="M336.44,42.84a1.93,1.93,0,0,1-2.81,1.92l-9.39-3.65A4.76,4.76,0,0,1,321.43,37V34.9A1.93,1.93,0,0,1,324.24,33l9.39,3.65a4.76,4.76,0,0,1,2.81,4.11Z"/><path class="cls-5" d="M335.32,53.45a1.79,1.79,0,0,1-2.67,1.78l-8.55-3.59a4.74,4.74,0,0,1-2.67-4V45.28a1.79,1.79,0,0,1,2.67-1.78l8.55,3.59a4.74,4.74,0,0,1,2.67,4Z"/><path class="cls-5" d="M321.94,57.73a2.15,2.15,0,0,1,3-2.07l6.66,2.2a3.83,3.83,0,0,1,2.49,3.94L333.8,64a5,5,0,0,1-3.26,3.86l-6.23,1.87a2,2,0,0,1-2.77-2.14Z"/><path class="cls-5" d="M302.77,42.84a1.93,1.93,0,0,0,2.81,1.92L315,41.12A4.76,4.76,0,0,0,317.77,37V34.9A1.93,1.93,0,0,0,315,33l-9.39,3.65a4.76,4.76,0,0,0-2.81,4.11Z"/><path class="cls-5" d="M303.88,53.45a1.79,1.79,0,0,0,2.67,1.78l8.54-3.59a4.74,4.74,0,0,0,2.67-4V45.28a1.79,1.79,0,0,0-2.67-1.78l-8.54,3.59a4.74,4.74,0,0,0-2.67,4Z"/><path class="cls-5" d="M317.26,57.73a2.15,2.15,0,0,0-3-2.07l-6.66,2.2a3.83,3.83,0,0,0-2.49,3.94L305.4,64a5,5,0,0,0,3.26,3.86l6.22,1.87a2,2,0,0,0,2.77-2.14Z"/><ellipse class="cls-6" cx="319.6" cy="57.57" rx="1.06" ry="2.29"/><path class="cls-6" d="M292.43,28.85l1.39-.14c.88-.08,2.14-.19,3.65-.3l5.13-.4,2.87-.26c1-.09,2-.2,2.94-.34s2-.27,2.88-.48a13.8,13.8,0,0,0,2.59-.78,2.81,2.81,0,0,0,.27-.14l.13-.07.07,0,0,0h0l0,0,.57-.39a3.24,3.24,0,0,0,.47-.38,3.13,3.13,0,0,0,.41-.39l.38-.43.31-.46a3.36,3.36,0,0,0,.27-.47,3.12,3.12,0,0,0,.23-.48,7.6,7.6,0,0,0,.5-1.88,10.5,10.5,0,0,0,.09-1.55,9.71,9.71,0,0,0-.12-1.38,6.33,6.33,0,0,1,.49,1.33,8.1,8.1,0,0,1,.25,1.63,6.85,6.85,0,0,1-.2,2.18,6.33,6.33,0,0,1-1.14,2.4,4.34,4.34,0,0,1-.49.57,5.36,5.36,0,0,1-.53.53l-.53.44,0,0-.07.06-.09.05-.17.11c-.11.07-.23.15-.35.21a12.48,12.48,0,0,1-2.92,1.07c-1,.24-2,.43-3,.57s-2,.22-3,.29-2,.08-2.94.1-1.87,0-2.75,0-1.7-.08-2.46-.13c-1.52-.11-2.78-.26-3.66-.39S292.43,28.85,292.43,28.85Z"/><path class="cls-6" d="M346.81,28.85s-.5.1-1.38.23-2.14.28-3.66.39c-.76.06-1.58.11-2.46.13s-1.79.06-2.75,0-1.94,0-2.94-.1-2-.16-3-.29-2-.33-3-.57a12.48,12.48,0,0,1-2.92-1.07c-.12-.06-.23-.14-.35-.21l-.17-.11-.09-.05-.07-.06,0,0-.53-.44a4.8,4.8,0,0,1-.53-.53,4.6,4.6,0,0,1-.49-.57,6.38,6.38,0,0,1-1.14-2.4A6.91,6.91,0,0,1,321,21a8.22,8.22,0,0,1,.25-1.63,6.41,6.41,0,0,1,.49-1.33,9.77,9.77,0,0,0-.12,1.38A10.5,10.5,0,0,0,321.7,21a7.64,7.64,0,0,0,.5,1.88,3.22,3.22,0,0,0,.23.48,3,3,0,0,0,.27.47l.31.46.38.43a3.26,3.26,0,0,0,.41.39,3.16,3.16,0,0,0,.47.38l.57.39,0,0h0l0,0,.07,0,.13.07a2.76,2.76,0,0,0,.27.14,13.87,13.87,0,0,0,2.59.78c.93.21,1.9.36,2.88.48s2,.25,2.94.34l2.87.26,5.13.4c1.51.11,2.77.22,3.65.3Z"/><path class="cls-5" d="M344.48,35.49c0-2-1-2.38-2.3-.81l-1.42,1.77A14.11,14.11,0,0,0,338.18,43l-2.42,30.23c-.16,2,1,2.6,2.53,1.31l3.37-2.81a8.93,8.93,0,0,0,2.82-6Z"/><path class="cls-1" d="M320,86.81a37.16,37.16,0,1,1,37.16-37.16A37.2,37.2,0,0,1,320,86.81Zm0-72a34.88,34.88,0,1,0,34.88,34.88A34.92,34.92,0,0,0,320,14.77Z"/><circle class="cls-3" cx="268.73" cy="88.76" r="39.46"/><path class="cls-4" d="M303,71.58a11.31,11.31,0,0,1-2.68-4.5,11.41,11.41,0,0,1-3.53-5,11.49,11.49,0,0,1-2-1.6,80,80,0,0,0-17.44-3.24V50.66a14.37,14.37,0,0,1-2.43-.24l-1.11-.2c-.62-.06-1.24-.12-1.86-.17-1.72-.1-3.45-.18-5.18-.17-.77,0-1.54,0-2.31,0a13.47,13.47,0,0,1-1.89.75,14.43,14.43,0,0,1-2.89.55v6.09a79.73,79.73,0,0,0-17.29,3.39,11.54,11.54,0,0,1-3.07,2.78,11.47,11.47,0,0,1-4.11,5.27s0,.08,0,.12a11.08,11.08,0,0,1-2.21,6.6c1.33,4.38,3.91,8.89,5.72,12.19,1.44,3.65,3.29,8.15,5.49,13,0,0,.16,10.28.09,17.89A11.5,11.5,0,0,1,248.2,122a11.41,11.41,0,0,1,1.85,1.44c.33,0,.66,0,1,0a11.22,11.22,0,0,1,8.5,4,10.88,10.88,0,0,1,9.14.28,10.75,10.75,0,0,1,6.66-.09,11,11,0,0,1,6.08-1.84l.49,0a11.2,11.2,0,0,1,5.83-2.63,11.47,11.47,0,0,1,5.4-3.95c-.08-7.66.09-18.52.09-18.52,1.51-3.34,2.86-6.5,4-9.34a1.61,1.61,0,0,0,.14-.27c1.19-3,5.95-10,7.65-16.43A11.38,11.38,0,0,1,303,71.58Z"/><path class="cls-7" d="M268.9,127.59V74.66c0,17.34,0,35.33,0,52.94Z"/><path class="cls-6" d="M268.28,120.23c0,2.58.08,5,.13,7.31l.29.14c.23-.08.46-.15.69-.21.05-2.25.1-4.69.13-7.24,0-2,0-4,.06-6s0-4.13,0-6.22,0-4.17,0-6.22,0-4.07-.06-6c0-3.91-.13-7.55-.21-10.68s-.21-5.73-.27-7.55-.14-2.86-.14-2.86-.06,1-.14,2.86-.19,4.43-.27,7.55-.17,6.77-.21,10.68c0,2,0,4-.06,6s0,4.13,0,6.22,0,4.17,0,6.22S268.26,118.27,268.28,120.23Z"/><path class="cls-5" d="M296.77,62.1l-.33-.21c-9-3-23.64-7.12-23.64-1.76v4.22s6.11,40.52-1.17,48.32c0,0,5.15,4.86,9.1-15.18,1-5-1.93-32.44,16.9-33.52A11.09,11.09,0,0,1,296.77,62.1Z"/><path class="cls-5" d="M300.87,83.8S291.1,82,287,74.89c-4.13,6.11-.26,43.18-14.62,40.55a52.55,52.55,0,0,0,3.11,12.06,11,11,0,0,1,5.95-1.76l.49,0a11.19,11.19,0,0,1,5.83-2.63,11.42,11.42,0,0,1,6-4.14l-.93-17.84Z"/><path class="cls-5" d="M274.89,50.42l-1.11-.2-1.16-.11c-.62,4.91,0,12.85.69,17.75.7,5.33,5-7.49,5-7.49s-1-5-1.72-9.74A14.59,14.59,0,0,1,274.89,50.42Z"/><path class="cls-5" d="M264.86,64.35V60.13c0-5.33-14.46-1.32-23.46,1.7a11.39,11.39,0,0,1-2.11,1.68c-.06.15-.11.3-.17.44,19.82.26,16.81,28.47,17.81,33.54,3.95,20,9.1,15.18,9.1,15.18C258.75,104.87,264.86,64.35,264.86,64.35Z"/><path class="cls-5" d="M250.68,74.89c-4.11,7.08-13.89,8.91-13.89,8.91l8,17.36-.9,17.22a11.48,11.48,0,0,1,4.3,3.66,11.6,11.6,0,0,1,1.85,1.43c.33,0,.66,0,1,0a11.22,11.22,0,0,1,8.5,4,11,11,0,0,1,3-.8,52.6,52.6,0,0,0,2.76-11.16C250.93,118.07,254.81,81,250.68,74.89Z"/><path class="cls-5" d="M264.43,49.92a13.42,13.42,0,0,1-1.89.75c-.48.15-1.73,1-2.23,1.1-.68,4.65-1.67,9.34-1.67,9.34s5,12.08,5.7,6.75c.65-5,1.33-13.06.66-18Z"/><path class="cls-1" d="M268.74,128.68a39.92,39.92,0,1,1,39.92-39.92A40,40,0,0,1,268.74,128.68Zm0-77.4a37.48,37.48,0,1,0,37.48,37.48A37.52,37.52,0,0,0,268.74,51.28Z"/><path id="pfad-49" class="cls-8" d="M68.64,75.09A24,24,0,1,0,52.21,45.45,24,24,0,0,0,68.64,75.09"/><path id="pfad-50" class="cls-3" d="M94.62,43.31a87.13,87.13,0,0,0-25.82,12l-6.28-8.77-4.16,1.74,9.81,18.21c4.12-5.42,15-15.14,27-21.23Z"/><path id="pfad-60" class="cls-9" d="M151.53,124.25h16.12s4-4.48,7.34-8c2-2.06,4.75-6.27,4.75-9V95.68A2.85,2.85,0,0,0,176.88,93H144.19a2.79,2.79,0,0,0-2.87,2.69v10.48C141.5,112.43,149.47,124.25,151.53,124.25Z"/><path id="pfad-61" class="cls-2" d="M188.34,74.63s-4.66,0-4.66,4.66v33.23s0,4.66,4.66,4.66h2s4.66,0,4.66-4.66V79.29s0-4.66-4.66-4.66h-2"/><path id="pfad-62" class="cls-2" d="M197.84,80.81s-4,0-4,4v21s0,4,4,4h1.43s4,0,4-4v-21s0-4-4-4h-1.43"/><path id="pfad-63" class="cls-2" d="M133.44,74.63s4.66,0,4.66,4.66v33.23s0,4.66-4.66,4.66h-2s-4.66,0-4.66-4.66V79.29s0-4.66,4.66-4.66h2"/><path id="pfad-64" class="cls-2" d="M123.95,80.81s4,0,4,4v21s0,4-4,4h-1.43s-4,0-4-4v-21s0-4,4-4h1.43"/><rect class="cls-2" x="118.93" y="92.37" width="84.37" height="6.9"/><path id="rechteck-12" class="cls-9" d="M169.36,83.41h-1a2.83,2.83,0,0,0-2.87,2.87v7.61a2.83,2.83,0,0,0,2.87,2.87h1a2.83,2.83,0,0,0,2.87-2.87V86.28A2.89,2.89,0,0,0,169.36,83.41Z"/><path id="pfad-65" class="cls-9" d="M175.89,106H177c1.52,0,2.87-1.61,2.87-3.58V91.11c0-2-.54-3.58-2-3.58-3.67,0-4.75,5.1-4.75,7.07v7.7C173.12,104.46,174.37,106,175.89,106Z"/><path id="rechteck-13" class="cls-9" d="M153.32,83.41h-1a2.83,2.83,0,0,0-2.87,2.87v7.61a2.83,2.83,0,0,0,2.87,2.87h1a2.83,2.83,0,0,0,2.87-2.87V86.28A2.83,2.83,0,0,0,153.32,83.41Z"/><path id="rechteck-14" class="cls-9" d="M145.35,86.72h-1a2.83,2.83,0,0,0-2.87,2.87v4.3a2.83,2.83,0,0,0,2.87,2.87h1a2.83,2.83,0,0,0,2.87-2.87v-4.3A2.83,2.83,0,0,0,145.35,86.72Z"/><path id="rechteck-15" class="cls-9" d="M161.39,82.07h-1a2.83,2.83,0,0,0-2.87,2.87V95.59a2.83,2.83,0,0,0,2.87,2.87h1a2.83,2.83,0,0,0,2.87-2.87V84.93A2.89,2.89,0,0,0,161.39,82.07Z"/><path class="cls-10" d="M154.72,17.77,135.14,31.95c-7.53,5.47-8.25,14.16-.48,16.59L195.49,63S187.72,59.5,194,51s22.65-18.25,22.65-18.25Z"/><path class="cls-10" d="M200.28,62a4.56,4.56,0,0,1-4.92-5.74c1.54-7.62,17.57-17.81,22.85-20.9l.46,4.32C208.79,44.87,199.91,52.51,199,57a1.19,1.19,0,0,0,.19,1.11c1.22,1,9.57-1.41,16.36-6.66,2.93-2.26,5.37-4.54,4.75-5.63s-6.07,2.41-10.8,6.59l-5,.72c.13-.11,12.24-11.68,16.86-10.73a2.69,2.69,0,0,1,1.94,1.5c1.66,3.52-1.43,8.1-8.49,12.58C211.24,58.77,204.79,62,200.28,62Z"/><rect class="cls-9" x="150.37" y="121.92" width="17.37" height="18.08"/></svg>