<svg xmlns="http://www.w3.org/2000/svg" width="375" height="140" viewBox="0 0 375 140"><defs><style>.cls-1{isolation:isolate;}.cls-10,.cls-2{fill:#4a5f86;}.cls-2,.cls-6{opacity:0.2;}.cls-15,.cls-3{fill:none;}.cls-4,.cls-7{fill:#fff;}.cls-11,.cls-13,.cls-14,.cls-15,.cls-4{fill-rule:evenodd;}.cls-5{fill:#f4d6c8;}.cls-6,.cls-9{fill:#ff7822;}.cls-14,.cls-8{fill:#767777;}.cls-11{fill:#fdd600;opacity:0.5;mix-blend-mode:multiply;}.cls-12,.cls-13{fill:#c1c1c1;}.cls-16{fill:#3c3c3c;}</style></defs><title>Zeichenfläche 2 Kopie 17</title><g class="cls-1"><g id="Ebene_1" data-name="Ebene 1"><rect class="cls-2" width="375" height="140"/><circle class="cls-3" cx="82.6" cy="73.81" r="57.64"/><circle class="cls-3" cx="80.83" cy="72.04" r="59.41"/><circle class="cls-3" cx="80.98" cy="71.64" r="57.88"/><path class="cls-4" d="M80.83,14.51A57.53,57.53,0,1,0,138.36,72,57.6,57.6,0,0,0,80.83,14.51Z"/><path class="cls-5" d="M21.49,86.43c.46.62.91,1.25,1.33,1.89L22.71,88a17.21,17.21,0,0,1-1.13-2.25C21.56,85.95,21.52,86.19,21.49,86.43Z"/><path class="cls-6" d="M134.9,91.69c.41-1.12.77-2.27,1.11-3.42-2.46.4-4.83.49-6,.05-2.74-1-6.13-6.14-6.12-9.31,0-1.52,1.14-2.18,2.22-2.91q5-3.36,9.94-6.8a14.91,14.91,0,0,1,2.2-1.3c-.1-1.43-.25-2.85-.45-4.25-.75,1.74-2.62,2.36-4,3.48a9.83,9.83,0,0,1-4.25,2.62,21.33,21.33,0,0,1-5.84,4.22,4.18,4.18,0,0,1-3.65.31c-4.25-1.67-3.2-5.71-4-8.82-.54-2.23-.94-4.83,2-6.34s5.29-3.46,8.12-4.77c3.65-1.69,8.1.07,10.4,3.14-.45-1.74-1-3.45-1.59-5.12-4.5-.24-6.86-2.72-7.09-7.34-.12-2.36-.42-4.72-.62-7.08a58,58,0,0,0-9.13-9.82c-1-.27-2-.54-3-.75-1.25-.27-1.67-1.69-1.9-3-1.07-.73-2.16-1.42-3.28-2.08.17,1.11.31,2.22.42,3.34.4,4-2,6.09-6,5.47-2.68-.41-5.39-.48-8.09-1-4.36-.79-4.74-3.87-4.47-7.06.21-2.42-1.13-5.36-1-7.85q-1.41-.25-2.84-.42a27.55,27.55,0,0,1,.79,5.45c.09,1.28,0,2.57,0,5.06-.15,1.08,1,3.64-1.66,5.42-2.81,1.89-5.05,2.61-7.78-.44-4-4.45-8.57-8.26-8.36-15.08-.6.1-1.2.2-1.79.33.55,3.35.53,6.78-2.39,9.8,6.57,1.31,9.74,6.16,13,10.44,1.57,2-1.2,4.19-2.46,5.9-4,5.39-11.45,6.08-13.45,1.12-1.61-4-2.76-8.64-.79-12.9,1.26-2.71,0-2.57-1.81-2.57-7.94,0-9.63-.94-9.45-5.12-1.2.7-2.37,1.44-3.51,2.22a5.59,5.59,0,0,1-6,4.73c-1.15,1-2.24,2.12-3.3,3.24,1.44,1.94,2.42,3.92,2.47,5.46.07,2.16-.67,3.56-2.74,4.29-3,1.06-6,2.14-9,3.23-.71,1.37-1.39,2.77-2,4.2a4.78,4.78,0,0,1,2.06-1.19c2.85-1,5.7-1.92,8.57-2.83,5.83-1.84,8.79.56,8.28,6.64-.06.71,0,1.43,0,2.15h-.06c0,.29,0,.57,0,.86C46.52,64.14,44,66.66,35.15,67.21c-3.06.19-4.52-1.54-5.23-4.06-1-3.57-1.74-7.22-2.61-10.83a3.7,3.7,0,0,1-.1-1.07q-.95,2.43-1.67,5a33.49,33.49,0,0,1,1.27,5.54c.42,2.69-.22,4.42-3.12,5l-.13,0q-.14,1.53-.19,3.09a20.6,20.6,0,0,1,2.41-.71c5.38-1.14,6.33-.37,6.3,5.16,0,4,0,8-.11,12.06-.1,3-.17,6.62-4,7.18-.17,0-.32,0-.48,0a57.24,57.24,0,0,0,3.88,7.8c-.08-7.91.24-8.16,8.38-8.16,3.57,0,7.15.1,10.72,0,2.12-.07,3.3.48,3.05,2.84-.35,3.4-.55,6.82-1,10.22-.22,1.87-1.73,2.88-3.19,3.82A38.31,38.31,0,0,1,45,112.78a14.82,14.82,0,0,0-2.69,2q1.09,1,2.22,1.9c.48-.29,1-.6,1.55-.91a27.15,27.15,0,0,0,4.61-3.08c2.72-2.74,5-1.24,7.64.12,2.79,1.46,2.66,3.56,2.16,6.15-.41,2.16-.68,4.36-.95,6.55q1.41.56,2.85,1c.32-2.37.5-4.77.92-7.12,1.14-6.37,8.14-8.94,13-4.64,1.63,1.44,5.05,1.93,4.18,5.25s-1.25,6.79-3.23,9.42c1.08.07,2.17.11,3.27.11.79-7.33,7.05-13.52,14.33-13.92a3,3,0,0,1,3.26,2.13c1.17,2.62,2.32,5.25,3.5,7.86h.06q1.37-.53,2.7-1.14c-.66-1.26-1-2.67-1.59-4-1.05-2.24-3.27-4.83-.65-7,2.81-2.3,6-4.23,10.16-2.16,3.2,1.6,5.28,2.63,6.55,3.72.93-.82,1.84-1.67,2.71-2.55a6.26,6.26,0,0,1-1.39-.5c-1.52-.79-3-1.58-4.53-2.44-4.76-2.73-5.33-4.35-2.17-9a39.7,39.7,0,0,1,10-9.86c2.72-1.93,5.45-1.47,6.51,1.87.65,2,1.19,4.08,1.69,6.12.74-1.4,1.43-2.82,2.05-4.29A3,3,0,0,1,134.9,91.69ZM108,45a56.41,56.41,0,0,1,.75-7.25c1.21-6,1.67-6.63,6.78-6.57,7.35.1,7.86.65,8.93,7a58.73,58.73,0,0,1,.66,8.55c.08,3.85-6.49,10.64-10.35,10.7-2.09,0-6.55-5.29-6.76-8.17C107.89,47.83,108,46.39,108,45Zm4.08,15.73c1.46,3.46,2.58,8,.15,10.6-2.94,3.15-7.4,5.4-12.41,4-1.09-.31-2.25-.45-3.3-.87-2.85-1.11-7.92-2-7.75-4.06.31-3.71,1.69-8.08,5.39-10.65a3.25,3.25,0,0,1,1.8-2.74C101.7,52.38,109.26,54,112.05,60.68ZM82.21,82.18h0c0-.86,0-1.71,0-2.57,0-6.68,1-7.4,7.08-5,1.46.57,2.91,1.16,4.36,1.75,6,2.43,6.24,2.95,4.67,9.19S90.46,94.7,85,92a4.38,4.38,0,0,1-2.83-4.69C82.3,85.61,82.21,83.89,82.21,82.18Zm1.75-46c2.79-1.92,5.75-4.37,9.76-3.31a33,33,0,0,0,5.47.85c7,.63,6.57,1,6.05,7.78a13.67,13.67,0,0,1,0,2.9c-.46,2.52.39,5.79-2.82,7-3.5,1.32-7.08,2.18-10.59-.44a75.79,75.79,0,0,1-8.36-8A4.25,4.25,0,0,1,84,36.13ZM75.69,46.81c.82-.56,1.64-1.46,2.53-1.54,5.72-.56,7.53,4.84,11.14,7.52,2.07,1.54,2.25,3.37,1,5.62s-2.09,4.68-3.25,7C84.41,70.76,76.79,71.79,73,67.11c-1.93-2.36-.39-5.55-.84-8.29C71.64,54.3,71.28,49.84,75.69,46.81Zm-6.5,11.78c0,1.14,0,2.29,0,3.43-.08,6.34-5.79,10.13-11.7,7.77-8.13-3.25-11.5-11.51-7-18.93,2.18-3.63,6.85-3.9,10.74-3.59C68.61,47.88,69.21,49,69.18,58.59ZM44.28,36.65c0-5.32,1.95-7.21,7.61-7.19,6.35,0,8.26,2.56,8.55,11.33.12,3.46-2.37,4.78-9.19,4.86C46.24,45.7,44.33,43.24,44.28,36.65ZM51.75,89.8c-4.56.68-9.12.49-13.68.7-2.3.1-3.5-.51-3.22-3.11a56.58,56.58,0,0,0,0-6c0-.72,0-1.43,0-2.14.2-4.11-1.12-8.72,4.93-10.32,6.5-1.72,13.88-.14,17,4.25a4.68,4.68,0,0,1,.63,4.43c-.91,3-1.59,6-2.29,9.1A3.53,3.53,0,0,1,51.75,89.8Zm17,20.76a11.91,11.91,0,0,1-10.33-.76c-2.24-1.24-3.34-3-2.65-5.69a20,20,0,0,0,.54-4.24c.23-6.75.26-6.79,6.43-4.55.67.24,1.32.57,2,.83,6.06,2.38,7,3.74,6.87,10.5C72,108.74,70.81,109.82,68.77,110.56ZM65,93c-9.43-3.13-8.08-2.12-6.06-10,1-3.92.93-8.26,5.4-10.57,8-4.14,15.07-.16,15.09,8.68v2.57C80,88,79.27,92.21,73.62,94.3,70.33,95.52,67.73,93.9,65,93ZM92,113.3a10.88,10.88,0,0,1-16.88-4.68,39.68,39.68,0,0,1-1.47-6.46c-.22-5.48,3-7,6.33-7.89,3.67-1,8.51,1.4,9.65,4.63,1.27,3.62,2.28,7.34,3.36,11A2.76,2.76,0,0,1,92,113.3Zm5.88-1.53c-1.38-.24-1.68-1.37-2-2.51-.79-2.9-1.48-5.84-2.51-8.66s-.62-4.85,1.85-6.29c1.78-1,2.65-4.84,5.38-2.81,3.51,2.61,8.17,4.41,9,8.32C109.67,105.57,102.06,112.5,97.86,111.77ZM111.75,96.2c-2.66-.16-10.65-8.42-10.57-10.93.17-5.52,6.35-10.13,13.52-10.1,3.76,0,8.08,5.6,8,10.36C122.71,88,114.16,96.34,111.75,96.2Z"/><polygon class="cls-7" points="238.93 40.55 261.1 37.14 269.56 44.4 276.79 34.73 299.24 31.27 309.35 93.45 307.82 95.28 308.06 108.88 253.77 117.56 238.93 40.55"/><g id="gruppe-252-2"><path class="cls-8" d="M278.45,32.25A9.92,9.92,0,0,0,267.1,24h0a9.65,9.65,0,0,0-8,11.08,1.9,1.9,0,0,1,0,.22,9.76,9.76,0,1,0,19.28-3Zm-8.8,7.58A6.45,6.45,0,1,1,275,32.44,6.45,6.45,0,0,1,269.65,39.82Z"/><polygon id="rechteck-28" class="cls-8" points="251.71 60.4 261.75 58.94 263.08 67.4 253.05 68.85 251.71 60.4"/><polygon id="rechteck-28-2" data-name="rechteck-28" class="cls-8" points="254.71 76.15 264.75 74.69 266.08 83.15 256.05 84.61 254.71 76.15"/><polygon id="rechteck-28-3" data-name="rechteck-28" class="cls-8" points="257.71 91.9 267.75 90.44 269.08 98.9 259.05 100.36 257.71 91.9"/><path class="cls-8" d="M308.58,93.35l4.64-1.23-9.62-60.75s-.8-5.06-5.87-4.27l-23.23,3.68a6.45,6.45,0,1,1-12.27,1.94l-22.67,3.59s-5.07.8-4.27,5.88l11.89,75.07s.81,5.07,5.88,4.27l54.86-8.69-.12-3.51S308.07,98,308.58,93.35Zm-54.94,20.53L242.49,43.41,254,41.59l6.51,11.17,22-3.48,2.74-12.63,13.14-2.08,9.52,60.13-.27,10.62Z"/></g><path class="cls-9" d="M325.24,12.94a22.07,22.07,0,1,0,15.14,27.3A22.07,22.07,0,0,0,325.24,12.94Zm-12.6,34.54-9-16.77,3.84-1.61,5.79,8.08A80.34,80.34,0,0,1,337,26.1l.49,1.83C326.43,33.54,316.43,42.49,312.64,47.48Z"/><path class="cls-10" d="M353.09,130.69H310.42a3.9,3.9,0,0,1-3.9-3.9V95.17a3.9,3.9,0,0,1,3.9-3.9h42.68a3.9,3.9,0,0,1,3.9,3.9V126.8A3.9,3.9,0,0,1,353.09,130.69ZM310.42,93.87a1.3,1.3,0,0,0-1.3,1.3V126.8a1.3,1.3,0,0,0,1.3,1.3h42.68a1.3,1.3,0,0,0,1.3-1.3V95.17a1.3,1.3,0,0,0-1.3-1.3Z"/><rect class="cls-10" x="307.82" y="99.93" width="47.87" height="1.84"/><rect class="cls-10" x="345.9" y="107.3" width="6.11" height="6.11"/><rect class="cls-10" x="337.76" y="107.3" width="6.11" height="6.11"/><rect class="cls-10" x="329.62" y="107.3" width="6.11" height="6.11"/><rect class="cls-10" x="321.48" y="107.3" width="6.11" height="6.11"/><rect class="cls-10" x="313.34" y="107.3" width="6.1" height="6.11"/><rect class="cls-10" x="345.9" y="116.5" width="6.11" height="6.11"/><rect class="cls-10" x="337.76" y="116.5" width="6.11" height="6.11"/><rect class="cls-10" x="329.62" y="116.5" width="6.11" height="6.11"/><rect class="cls-10" x="321.48" y="116.5" width="6.11" height="6.11"/><path class="cls-10" d="M350.17,94.41a1.84,1.84,0,0,1-1.84,1.84h0a1.84,1.84,0,0,1-1.84-1.84V88.88A1.84,1.84,0,0,1,348.33,87h0a1.84,1.84,0,0,1,1.84,1.84Z"/><path class="cls-10" d="M317,94.41a1.84,1.84,0,0,1-1.84,1.84h0a1.84,1.84,0,0,1-1.84-1.84V88.88A1.84,1.84,0,0,1,315.18,87h0A1.84,1.84,0,0,1,317,88.88Z"/><path class="cls-11" d="M99.74,111.66C70.32,113.43,60.66,94.23,63,73.25l50.41-30,13.38,11.29Z"/><rect class="cls-12" x="136.15" y="27.29" width="10.59" height="31.84" transform="translate(9.59 110.21) rotate(-43.92)"/><path class="cls-13" d="M209.61,132.49,140.17,59.24l17.41-16.5L227,116C228,123.71,219.76,130.69,209.61,132.49Z"/><path class="cls-14" d="M168.53,71A9.55,9.55,0,0,0,155,70.65l-2.12,2,50.77,53.55,2.23-2.13a9.55,9.55,0,0,0,.33-13.5Z"/><path class="cls-15" d="M209.61,132.49,140.17,59.24l17.41-16.5L227,116C228.54,122.81,217.54,133.57,209.61,132.49Z"/><rect class="cls-8" x="137.46" y="50.13" width="27.61" height="7.08" rx="2.1" ry="2.1" transform="translate(4.98 119.72) rotate(-43.83)"/><rect class="cls-12" x="121.73" y="21.44" width="20.85" height="31.84" transform="translate(12.29 104.39) rotate(-45)"/><rect class="cls-8" x="134.22" y="9.82" width="16.24" height="34.71" rx="3.18" ry="3.18" transform="translate(22.48 108.61) rotate(-45)"/><rect class="cls-16" x="124.94" y="16.85" width="16.24" height="2.07" transform="translate(26.32 99.32) rotate(-45)"/><rect class="cls-16" x="128.65" y="20.57" width="16.24" height="2.07" transform="translate(24.78 103.04) rotate(-45)"/><rect class="cls-16" x="132.37" y="24.28" width="16.24" height="2.07" transform="translate(23.27 106.79) rotate(-45.02)"/><rect class="cls-16" x="136.08" y="28" width="16.24" height="2.07" transform="translate(21.7 110.46) rotate(-45)"/><rect class="cls-16" x="139.8" y="31.71" width="16.24" height="2.07" transform="translate(20.2 114.23) rotate(-45.02)"/><rect class="cls-16" x="143.51" y="35.43" width="16.24" height="2.07" transform="translate(18.63 117.9) rotate(-45)"/><path class="cls-14" d="M123.07,62.73a2.73,2.73,0,0,1-2.86-.51L107.29,49.31a2.73,2.73,0,0,1-.51-2.86l5.49-11.87a1.16,1.16,0,0,1,2-.36l21,21a1.16,1.16,0,0,1-.36,2Z"/></g></g></svg>