<svg id="Ebene_1" data-name="Ebene 1" xmlns="http://www.w3.org/2000/svg" width="375" height="140" viewBox="0 0 375 140"><defs><style>.cls-1{fill:#dbdfe7;}.cls-2{fill:#4a5f86;}.cls-3{fill:#fff;}.cls-4{fill:#ff7822;}.cls-5{fill:#f9f7b1;}.cls-6{fill:#f2ecfb;}.cls-7{fill:#f6f291;}.cls-8{opacity:0.4;}.cls-9{fill:#9c8d85;}.cls-10{fill:#e3e3e3;}.cls-11{fill:#d05f4e;}.cls-12{fill:#b2b3e4;}.cls-13{fill:#c3c2c2;}.cls-14{fill:#c1c1c1;}</style></defs><title>Zeichenfläche 2 Kopie 19</title><rect class="cls-1" width="375" height="140"/><circle class="cls-2" cx="147.64" cy="61.49" r="35.99"/><path class="cls-3" d="M147.68,97.57a36.64,36.64,0,1,1,36.64-36.64A36.68,36.68,0,0,1,147.68,97.57Zm0-70.16a33.51,33.51,0,1,0,33.51,33.51A33.55,33.55,0,0,0,147.68,27.42Z"/><circle class="cls-4" cx="145.1" cy="37.73" r="3.69"/><path class="cls-4" d="M146.2,36.1c-.48.89-1.07,1.52-1.31,1.39s0-1,.45-1.86l1.18-2.19c.48-.89,1.07-1.52,1.31-1.39s0,1-.45,1.86Z"/><path class="cls-4" d="M143.15,42c-.48.89-1.07,1.52-1.31,1.39s0-1,.45-1.86l1.18-2.19c.48-.89,1.07-1.52,1.31-1.39s0,1-.45,1.86Z"/><path class="cls-4" d="M144.16,35.67c.32,1,.37,1.83.11,1.91s-.72-.64-1-1.6l-.78-2.37c-.32-1-.37-1.83-.11-1.91s.72.64,1,1.6Z"/><path class="cls-4" d="M148.89,41c.57.84.85,1.66.63,1.81s-.87-.42-1.44-1.26l-1.39-2.07c-.57-.84-.85-1.66-.63-1.81s.87.42,1.44,1.26Z"/><path class="cls-4" d="M146.4,38c-1,.11-1.86,0-1.89-.28s.77-.58,1.78-.69l2.48-.27c1-.11,1.86,0,1.89.28s-.77.58-1.78.69Z"/><path class="cls-4" d="M142.13,39.18c-1,.11-1.86,0-1.89-.28s.77-.58,1.78-.69l2.48-.27c1-.11,1.86,0,1.89.28s-.77.58-1.78.69Z"/><path class="cls-4" d="M141.3,36.52c-.93-.4-1.61-.93-1.51-1.18s1-.12,1.89.28l2.29,1c.94.4,1.61.93,1.51,1.18s-1,.12-1.89-.28Z"/><path class="cls-4" d="M147.83,34.66c.87-.52,1.7-.76,1.84-.53s-.46.85-1.34,1.37l-2.14,1.28c-.87.52-1.7.76-1.84.53s.46-.85,1.34-1.37Z"/><path class="cls-4" d="M145.67,41.48c0,1-.27,1.84-.54,1.83s-.47-.85-.44-1.86l.07-2.49c0-1,.27-1.84.54-1.83s.47.85.44,1.86Z"/><path class="cls-5" d="M136.08,38.69a1.25,1.25,0,0,1-.9.37,3.69,3.69,0,0,0-2.83,1,4,4,0,0,0-.86,2.68,1.26,1.26,0,0,1-2.5.21,6.49,6.49,0,0,1,1.5-4.58,6,6,0,0,1,4.7-1.78,1.25,1.25,0,0,1,.88,2.14Z"/><circle class="cls-4" cx="157.96" cy="49.12" r="4.61" transform="translate(12.77 128.4) rotate(-45.91)"/><path class="cls-4" d="M160.35,48.61c-1.21.38-2.28.43-2.38.11s.81-.89,2-1.28l3-.94c1.21-.38,2.28-.43,2.38-.11s-.81.89-2,1.28Z"/><path class="cls-4" d="M152.49,51.26c-1.21.38-2.28.43-2.38.11s.81-.89,2-1.28l3-.94c1.21-.38,2.28-.43,2.38-.11s-.81.89-2,1.28Z"/><path class="cls-4" d="M158.91,46.46c-.55,1.14-1.26,2-1.56,1.81s-.1-1.2.46-2.34l1.36-2.79c.55-1.14,1.26-2,1.56-1.81s.1,1.2-.46,2.34Z"/><path class="cls-4" d="M158.53,55.33c-.22,1.25-.68,2.22-1,2.16s-.42-1.13-.19-2.38l.55-3.06c.22-1.25.68-2.22,1-2.16s.42,1.13.19,2.38Z"/><path class="cls-4" d="M158.88,50.5c-1-.78-1.65-1.63-1.45-1.9s1.19.15,2.2.93l2.45,1.91c1,.78,1.65,1.63,1.45,1.9s-1.19-.15-2.2-.93Z"/><path class="cls-4" d="M154,47.83c-1-.78-1.65-1.63-1.45-1.9s1.19.15,2.2.93l2.45,1.91c1,.78,1.65,1.63,1.45,1.9s-1.19-.15-2.2-.93Z"/><path class="cls-4" d="M155.6,44.74c-.49-1.17-.64-2.23-.33-2.36s1,.72,1.45,1.89l1.2,2.87c.49,1.17.64,2.23.33,2.36s-1-.72-1.45-1.89Z"/><path class="cls-4" d="M163.07,48.74c1.24.29,2.18.8,2.11,1.12s-1.15.36-2.39.07l-3-.71c-1.24-.29-2.18-.8-2.11-1.12s1.15-.36,2.39-.07Z"/><path class="cls-4" d="M155.21,53c-.91.89-1.84,1.42-2.08,1.17s.32-1.16,1.22-2l2.22-2.17c.91-.89,1.84-1.42,2.08-1.17s-.32,1.16-1.22,2Z"/><circle class="cls-4" cx="127.22" cy="55.61" r="3.33" transform="translate(47.99 169.62) rotate(-78.82)"/><path class="cls-4" d="M128.46,56.86c-.71-.58-1.16-1.21-1-1.4s.86.14,1.57.72l1.73,1.43c.71.58,1.16,1.21,1,1.4s-.86-.14-1.57-.72Z"/><path class="cls-4" d="M123.77,53.13c-.71-.58-1.16-1.21-1-1.4s.86.14,1.57.72l1.73,1.43c.71.58,1.16,1.21,1,1.4s-.86-.14-1.57-.72Z"/><path class="cls-4" d="M129.2,55.14c-.91.11-1.68,0-1.71-.24s.69-.53,1.6-.64l2.23-.27c.91-.11,1.68,0,1.71.24s-.69.53-1.6.64Z"/><path class="cls-4" d="M123.68,58.38c-.85.35-1.61.46-1.71.24s.52-.7,1.37-1.05l2.07-.87c.85-.35,1.61-.46,1.71-.24s-.52.7-1.37,1.05Z"/><path class="cls-4" d="M126.74,56.7c.08-.91.34-1.64.58-1.62s.38.79.3,1.7L127.43,59c-.08.91-.34,1.64-.58,1.62s-.38-.79-.3-1.7Z"/><path class="cls-4" d="M126.46,52.72c.08-.91.34-1.64.58-1.62s.37.79.3,1.7L127.14,55c-.08.91-.34,1.64-.58,1.62s-.37-.79-.3-1.7Z"/><path class="cls-4" d="M129,52.45c.52-.76,1.1-1.26,1.31-1.13s-.06.87-.58,1.63l-1.27,1.85c-.52.76-1.1,1.26-1.3,1.13s.06-.87.58-1.63Z"/><path class="cls-4" d="M129.45,58.55c.31.86.37,1.64.15,1.72s-.67-.56-1-1.42l-.76-2.11c-.31-.86-.37-1.64-.15-1.72s.67.56,1,1.42Z"/><path class="cls-4" d="M123.8,55.45c-.89-.2-1.58-.56-1.53-.8s.83-.26,1.72-.06l2.19.5c.89.2,1.58.56,1.53.8s-.83.26-1.72.06Z"/><path class="cls-5" d="M172.26,63.4a1,1,0,0,1,.1-.77,3,3,0,0,0,.45-2.35,3.15,3.15,0,0,0-1.52-1.66,1,1,0,0,1,.84-1.82,5.2,5.2,0,0,1,2.59,2.86,4.84,4.84,0,0,1-.62,4,1,1,0,0,1-1.84-.23Z"/><path class="cls-5" d="M135.88,75.79a1.25,1.25,0,0,1,.54.81,3.69,3.69,0,0,0,1.5,2.58,4,4,0,0,0,2.79.32,1.25,1.25,0,0,1,.7,2.41,6.49,6.49,0,0,1-4.78-.58A6,6,0,0,1,134,77.08a1.25,1.25,0,0,1,1.92-1.29Z"/><circle class="cls-4" cx="153.3" cy="79.51" r="3.69"/><path class="cls-4" d="M154.39,77.88c-.48.89-1.07,1.52-1.31,1.39s0-1,.45-1.86l1.18-2.19c.48-.89,1.07-1.52,1.31-1.39s0,1-.45,1.86Z"/><path class="cls-4" d="M151.34,83.79c-.48.89-1.07,1.52-1.31,1.39s0-1,.45-1.86l1.18-2.19c.48-.89,1.07-1.52,1.31-1.39s0,1-.45,1.86Z"/><path class="cls-4" d="M152.36,77.45c.32,1,.37,1.83.11,1.91s-.72-.64-1-1.6l-.78-2.37c-.32-1-.37-1.83-.11-1.91s.72.64,1,1.6Z"/><path class="cls-4" d="M157.08,82.76c.57.84.85,1.66.63,1.81s-.87-.42-1.44-1.26l-1.39-2.07c-.57-.84-.85-1.66-.63-1.81s.87.42,1.44,1.26Z"/><path class="cls-4" d="M154.59,79.78c-1,.11-1.86,0-1.89-.28s.77-.58,1.78-.69l2.48-.27c1-.11,1.86,0,1.89.28s-.77.58-1.78.69Z"/><path class="cls-4" d="M150.32,81c-1,.11-1.86,0-1.89-.28s.77-.58,1.78-.69l2.48-.27c1-.11,1.86,0,1.89.28s-.77.58-1.79.69Z"/><path class="cls-4" d="M149.49,78.3c-.94-.4-1.61-.93-1.51-1.18s1-.12,1.89.28l2.29,1c.94.4,1.61.93,1.51,1.18s-1,.12-1.89-.28Z"/><path class="cls-4" d="M156,76.44c.87-.52,1.7-.76,1.84-.53s-.46.85-1.34,1.37l-2.14,1.28c-.87.52-1.7.76-1.84.53s.46-.85,1.34-1.37Z"/><path class="cls-4" d="M153.86,83.26c0,1-.27,1.84-.54,1.83s-.47-.85-.44-1.86l.07-2.49c0-1,.27-1.84.54-1.83s.47.85.44,1.86Z"/><ellipse class="cls-5" cx="165.51" cy="77.99" rx="1.72" ry="2.56"/><ellipse class="cls-5" cx="136.44" cy="50.21" rx="1.72" ry="2.56" transform="translate(13.6 127.98) rotate(-52.54)"/><ellipse class="cls-5" cx="157.52" cy="36.55" rx="1.72" ry="2.56"/><circle class="cls-4" cx="133.9" cy="64.21" r="2.22"/><path class="cls-4" d="M134.55,63.24c-.29.54-.64.91-.79.84s0-.58.27-1.12l.71-1.32c.29-.54.64-.91.79-.84s0,.58-.27,1.12Z"/><path class="cls-4" d="M132.72,66.79c-.29.54-.64.91-.79.84s0-.58.27-1.12l.71-1.32c.29-.54.64-.91.79-.84s0,.58-.27,1.12Z"/><path class="cls-4" d="M133.33,63c.19.58.22,1.1.07,1.15s-.44-.38-.63-1l-.47-1.42c-.19-.58-.22-1.1-.07-1.15s.44.38.63,1Z"/><path class="cls-4" d="M136.17,66.17c.34.51.51,1,.38,1.09s-.52-.25-.86-.76l-.83-1.24c-.34-.51-.51-1-.38-1.09s.52.25.86.76Z"/><path class="cls-4" d="M134.68,64.38c-.61.07-1.12,0-1.14-.17s.46-.35,1.07-.41l1.49-.16c.61-.07,1.12,0,1.14.17s-.46.35-1.07.41Z"/><path class="cls-4" d="M132.11,65.08c-.61.07-1.12,0-1.14-.17s.46-.35,1.07-.41l1.49-.16c.61-.07,1.12,0,1.14.17s-.46.35-1.07.41Z"/><path class="cls-4" d="M131.61,63.49c-.56-.24-1-.56-.91-.71s.58-.07,1.14.17l1.37.59c.56.24,1,.56.91.71s-.57.07-1.14-.17Z"/><path class="cls-4" d="M135.54,62.37c.52-.31,1-.46,1.1-.32s-.28.51-.8.82l-1.28.77c-.52.31-1,.46-1.1.32s.28-.51.8-.82Z"/><path class="cls-4" d="M134.24,66.47c0,.61-.16,1.11-.33,1.1s-.28-.51-.26-1.12l0-1.5c0-.61.16-1.11.32-1.1s.28.51.26,1.12Z"/><path class="cls-5" d="M140.9,58.07a.87.87,0,0,1,.39-.55,2.57,2.57,0,0,0,1.31-1.62,2.75,2.75,0,0,0-.49-1.9.88.88,0,0,1,1.4-1.06,4.53,4.53,0,0,1,.81,3.26,4.22,4.22,0,0,1-2.11,2.8.88.88,0,0,1-1.32-.93Z"/><rect class="cls-6" x="31.8" y="74.6" width="39.76" height="52.18" rx="9.92" ry="9.92"/><rect class="cls-6" x="39.58" y="66.13" width="24.2" height="24.36"/><rect class="cls-2" x="35.54" y="54.77" width="32.28" height="13.09" rx="5.5" ry="5.5"/><rect class="cls-7" x="34.34" y="89.99" width="34.62" height="32.76" rx="7.33" ry="7.33"/><g class="cls-8"><rect class="cls-3" x="37.49" y="78.48" width="8.06" height="44.41" rx="3.67" ry="3.67"/></g><path id="pfad-15" class="cls-9" d="M305.72,43.07l-5.45,2.66s5.13,1.77,6.09,5.57-.75,12.29-.75,12.29l2,.7a99.16,99.16,0,0,0,2.78-11.59c1.2-6.54-4.7-9.63-4.7-9.63"/><path id="pfad-16" class="cls-4" d="M329.74,68.56c-9.84-10-19.42-5-22.85-5.6-3-1.79-7.66-11.55-21.46-9.66S269.09,74,270.07,84.74c1.18,13.7,3.18,20.59,10.35,23.06,4.86,1.67,7.68.53,10.56,1.37,2.79,1.11,4.3,3.75,9.17,5.42,7.16,2.47,12.94-1.59,22.35-11.8,7.4-7.88,17.09-24.19,7.25-34.23"/><path id="pfad-17" class="cls-9" d="M337.3,48.8s-9.57-5.56-17-3.6c-6,1.57-8.92,6.15-7.91,9.82s8.49,5.19,13.75,3.52C331,56.92,337.3,48.8,337.3,48.8"/><path class="cls-7" d="M326.11,105.77c2-6.4,8.71-12,11.54-11.18s4.75,9.73,2.79,16.12-7.06,7.9-9.89,7S324.15,112.17,326.11,105.77Z"/><path class="cls-7" d="M332.22,111.66c11,3.39,23.4-5,28-20l-40-12.27C315.63,94.44,321.18,108.27,332.22,111.66Z"/><ellipse class="cls-5" cx="340.21" cy="85.61" rx="9.35" ry="20.91" transform="translate(158.6 385.76) rotate(-72.95)"/><path class="cls-3" d="M342.43,78.38c10.78,3.31,17.12,9.42,16.07,12.84s-9.73,4.93-20.51,1.62S320.88,83.42,321.92,80s9.73-4.93,20.51-1.62m.52-1.7c-11-3.39-21.22-2.13-22.74,2.8s6.21,11.68,17.25,15.07,21.22,2.13,22.74-2.8S354,80.06,343,76.67Z"/><path class="cls-3" d="M341.08,89c-.49,1.58-1.49,2.09-2.44,1.8s-1.5-1.28-1-2.86,2.61-2.33,2.61-2.33S341.56,87.37,341.08,89Z"/><path class="cls-3" d="M334.72,86.93c-1.33,1-2.44.79-3,0s-.44-1.92.89-2.9,3.48-.32,3.48-.32S336,86,334.72,86.93Z"/><path class="cls-3" d="M328.89,82.58c-1.63.26-2.53-.41-2.69-1.4s.48-1.91,2.12-2.17,3.24,1.31,3.24,1.31S330.53,82.32,328.89,82.58Z"/><path class="cls-3" d="M344,89.79c.55,1.56,1.58,2,2.52,1.69s1.44-1.34.89-2.9-2.7-2.22-2.7-2.22S343.47,88.23,344,89.79Z"/><path class="cls-3" d="M351.28,89.45c1.21,1.13,2.33,1.08,3,.35s.67-1.85-.54-3-3.42-.73-3.42-.73S350.08,88.32,351.28,89.45Z"/><path class="cls-10" d="M214.4,116.9c-.49,2.13-1.94,3.64-3.23,3.34s-1.94-2.28-1.45-4.42l6.05-26.32c.49-2.13,1.94-3.64,3.23-3.34s1.94,2.28,1.45,4.42Z"/><path class="cls-3" d="M225.15,100.19a9.13,9.13,0,1,1-17.8-4.09l14.93-64.93a9.13,9.13,0,1,1,17.8,4.09Z"/><rect class="cls-11" x="185.44" y="65.52" width="76.43" height="0.86" transform="translate(109.24 269.13) rotate(-77.05)"/><rect class="cls-11" x="230.98" y="27.61" width="0.86" height="9.24" transform="translate(147.91 250.44) rotate(-76.99)"/><rect class="cls-11" x="228.56" y="38.13" width="0.86" height="9.24" transform="translate(136.11 256.37) rotate(-77.07)"/><rect class="cls-11" x="225.56" y="51.17" width="0.86" height="9.24" transform="translate(121.02 263.55) rotate(-77.06)"/><rect class="cls-11" x="222.56" y="64.21" width="0.86" height="9.24" transform="translate(106.03 270.78) rotate(-77.07)"/><rect class="cls-11" x="219.56" y="77.26" width="0.86" height="9.24" transform="translate(90.76 277.83) rotate(-77.01)"/><rect class="cls-11" x="216.56" y="90.3" width="0.86" height="9.24" transform="translate(75.73 285.02) rotate(-77.01)"/><rect class="cls-12" x="82.51" y="32.52" width="5.45" height="7.06" rx="1.5" ry="1.5" transform="translate(-6.71 46.57) rotate(-29.45)"/><path class="cls-3" d="M80.48,48.65a3,3,0,0,1-.09-2.42L83,40.73a5,5,0,0,1,1.76-1.91l3.06-1.73a5.08,5.08,0,0,1,2.54-.54l6.15.6a3,3,0,0,1,2,1.32l24.8,43.91a1.37,1.37,0,0,1-.52,1.86l-15.65,8.84a1.37,1.37,0,0,1-1.86-.52Z"/><polygon class="cls-13" points="67.25 6.04 82.71 33.42 84.3 32.52 70.92 8.83 67.25 6.04"/><rect class="cls-14" x="116.99" y="73.22" width="7.22" height="50.84" transform="translate(-32.92 72.07) rotate(-29.46)"/><rect class="cls-3" x="99.57" y="87.2" width="31.27" height="3.79" rx="1.71" ry="1.71" transform="translate(-28.92 68.18) rotate(-29.46)"/><rect class="cls-3" x="125.3" y="120.53" width="17.46" height="3.79" rx="1.71" ry="1.71" transform="translate(-42.88 81.75) rotate(-29.46)"/><rect class="cls-14" x="100.28" y="71.7" width="15.64" height="9.62" transform="translate(-23.65 63.06) rotate(-29.46)"/><polygon class="cls-7" points="82.75 47.54 85.3 41.69 89.9 39.08 96.37 39.85 115.14 73.08 106.8 74.21 101.52 80.77 82.75 47.54"/><polygon class="cls-5" points="82.81 47.51 85.35 41.66 87.72 40.32 106.85 74.18 101.58 80.74 82.81 47.51"/><rect class="cls-5" x="234.61" y="102.39" width="8.38" height="10.29" transform="translate(-0.34 214.32) rotate(-48.31)"/><ellipse class="cls-5" cx="241.21" cy="104.83" rx="5.08" ry="5.14" transform="translate(2.49 215.21) rotate(-48.31)"/><rect class="cls-7" x="229.04" y="108.65" width="8.38" height="10.29" transform="translate(-6.87 212.25) rotate(-48.31)"/><ellipse class="cls-7" cx="230.81" cy="116.49" rx="5.08" ry="5.14" transform="translate(-9.7 211.36) rotate(-48.31)"/><rect class="cls-5" x="253.1" y="111.05" width="6.92" height="8.5" transform="translate(-24.02 95.57) rotate(-20.18)"/><ellipse class="cls-5" cx="259.37" cy="114.27" rx="4.2" ry="4.25" transform="translate(-23.5 96.48) rotate(-20.18)"/><rect class="cls-7" x="246.6" y="113.44" width="6.92" height="8.5" transform="translate(-25.25 93.47) rotate(-20.18)"/><ellipse class="cls-7" cx="247.25" cy="118.72" rx="4.2" ry="4.25" transform="translate(-25.78 92.6) rotate(-20.18)"/></svg>