<svg id="Ebene_1" data-name="Ebene 1" xmlns="http://www.w3.org/2000/svg" width="375" height="140" viewBox="0 0 375 140"><defs><style>.cls-1,.cls-10,.cls-11{fill:#93c;}.cls-1{opacity:0.2;}.cls-2{fill:#e5c7f0;opacity:0.8;}.cls-3{fill:#e49ec2;}.cls-3,.cls-4{opacity:0.7;}.cls-4{fill:#ae5ed7;}.cls-5{fill:#9c8d85;}.cls-6{fill:#f4d6c8;}.cls-7{fill:#4a5f86;}.cls-8{fill:#9ed1de;}.cls-9{fill:#fff;}.cls-10{fill-rule:evenodd;}.cls-12{fill:#b2b3e4;}</style></defs><title>Zeichenfläche 2 Kopie 10</title><rect class="cls-1" width="375" height="140"/><path class="cls-2" d="M299,63.72c0,29.89-26.71,54.13-26.71,54.13s-26.71-24.23-26.71-54.13S272.24,9.59,272.24,9.59,299,33.83,299,63.72Z"/><path class="cls-3" d="M268.79,58.7c15.48,25.57,5.18,60.14,5.18,60.14s-35.4-6.9-50.88-32.47-5.18-60.14-5.18-60.14S253.31,33.13,268.79,58.7Z"/><path class="cls-4" d="M238.61,71.22c27,12.93,37.24,47.5,37.24,47.5s-33.41,13.6-60.35.67-37.24-47.5-37.24-47.5S211.66,58.29,238.61,71.22Z"/><path class="cls-3" d="M275.73,58.7c-15.48,25.57-5.18,60.14-5.18,60.14s35.4-6.9,50.88-32.47,5.18-60.14,5.18-60.14S291.21,33.13,275.73,58.7Z"/><path class="cls-4" d="M305.91,71.22c-26.95,12.93-37.24,47.5-37.24,47.5s33.4,13.6,60.35.67,37.24-47.5,37.24-47.5S332.86,58.29,305.91,71.22Z"/><path class="cls-5" d="M175.06,47.91H195s6.61-12.36,1.1-22.78c-3.86-7.3-22.25.47-22.25.47S168.76,34.15,175.06,47.91Z"/><ellipse class="cls-6" cx="184.77" cy="35.55" rx="10.92" ry="15.31"/><path class="cls-6" d="M204.61,61.86c1.87-4.94-10.26-6.79-10.29-6.69-1.12-.14-2.24-.24-3.32-.33H177.43c-1.08.08-2.2.19-3.32.33,0-.1-12.16,1.74-10.29,6.69C175.63,79.58,195,77.2,204.61,61.86Z"/><path class="cls-5" d="M184.77,26.57s11.09,2.83,10.92,13.07c0,0,8.24-19.56-10.92-19.56Z"/><path class="cls-5" d="M185,26.57s-5.87,9.64-11.9,10.86c0,0-1.46-3.43-.19-9.07,1-4.39,4.11-8.29,12.1-8.29Z"/><path class="cls-7" d="M233.08,94.28c-9-2.36-24.29,5.89-33.29,8.42-10.89,6.42-20.65,6.42-31.58,0-9-2.54-21.53-10.79-30.51-8.42-11.88,3.12,1.58,15.79,1.58,16.58S164,126,183.84,127.13v0h.34v0C204,126,231.5,111.65,231.5,110.87S245,97.4,233.08,94.28Z"/><path class="cls-6" d="M210.81,74c5.06,12.66,3.08,16.88.84,17.63s-6-6-9-14.91S199.1,60,201.33,59.2C206.25,57.49,207.31,65.28,210.81,74Z"/><path class="cls-6" d="M211,91.68s5.41,3.73,23.69,3.15a15.15,15.15,0,0,0,.77-2.6c.23-1.29-22.37-9.34-24.68-5.63Z"/><ellipse class="cls-6" cx="238.69" cy="92.5" rx="6.09" ry="3.32" transform="translate(-13.86 50.69) rotate(-11.78)"/><path class="cls-6" d="M157.79,74c-5.06,12.66-3.08,16.88-.84,17.63s6-6,9-14.91,3.59-16.8,1.36-17.57C162.36,57.49,161.29,65.28,157.79,74Z"/><path class="cls-6" d="M157.61,91.68s-5.41,3.73-23.69,3.15a15.09,15.09,0,0,1-.77-2.6c-.23-1.29,22.37-9.34,24.68-5.63Z"/><ellipse class="cls-6" cx="129.92" cy="92.5" rx="3.32" ry="6.09" transform="translate(12.84 200.79) rotate(-78.22)"/><path class="cls-8" d="M204.61,61.86c1.87-4.94-10.26-6.79-10.29-6.69-9.92,20.18-10.29,20.18-20.22,0,0-.1-12.16,1.74-10.29,6.69,3.23,6.07,5.58,17.55,6,19.62.5,2.48,4.31,13.41-.25,21.23-1.58,3.18,21,10,29.31,0-4.56-7.82-.75-18.74-.25-21.23C199,79.41,201.38,67.93,204.61,61.86Z"/><circle class="cls-9" cx="62.24" cy="58" r="45.99"/><path class="cls-10" d="M35.45,55.8c-2.09-3.22-4.15-6.39-6.22-9.54-.17-.25-.2-.4,0-.62,4-3.81,8.42-7.05,13.9-8.45A10.59,10.59,0,0,1,52.05,39a17.79,17.79,0,0,1,7.49,11.34c.67,3.14-.48,5.86-2.44,8.29a16.79,16.79,0,0,1-3.66,3.24,8.28,8.28,0,0,1,4.28,1.76C60.93,66,64,66,66.7,63.77a9.83,9.83,0,0,0,1.89-2.17,15.37,15.37,0,0,0,2.29-5.44,16.59,16.59,0,0,1,3.46-7.3c2.86-3.45,6.56-4.51,10.88-3.9,6.22.9,10.4,4.62,13.29,9.9,5.77,10.56,3.36,24.56-9,31.73-5,2.92-10,1.81-14.63-1.43-4.24-3-5.51-7-5.08-11.7.76.85,1.45,1.72,2.25,2.49,5.22,5,11.8,5.44,17.77,1.1a17.25,17.25,0,0,0,7.25-14.19,12.05,12.05,0,0,0-1.29-5.57c-1.56-3.24-5.88-6-10.4-2.5a18.55,18.55,0,0,0-5.65,7.87A15.6,15.6,0,0,1,75,69.51a8.74,8.74,0,0,1-11.26-.18l-1.07-.89A34.6,34.6,0,0,1,64,72.78a18,18,0,0,1-1.36,12.37,14.1,14.1,0,0,1-11,7.77c-5.34.77-10.05-1.19-14.35-4.16-5.45-3.75-9-9.06-11.73-15a42.92,42.92,0,0,1-2.2-5.71c-.09-.31-.43-.72,0-.91s.48.32.63.59a34.79,34.79,0,0,0,9.51,10.86c5.61,4,11.79,5.54,18.59,4.06a8.66,8.66,0,0,0,6.78-8.2,8,8,0,0,0-6.75-7.62,13.49,13.49,0,0,0-5.52.46c-.67.19-.77,0-.91-.58-.67-3-1.41-6-2.15-9.17a17.46,17.46,0,0,0,6.21-.17,8.94,8.94,0,0,0,2.52-.92A4.87,4.87,0,0,0,55,51.33c-.37-1.76-2.14-3-4.57-3.17-5.38-.42-9.68,1.71-13.25,5.55C36.61,54.35,36.09,55,35.45,55.8Z"/><path class="cls-10" d="M53.34,31.6a26.47,26.47,0,0,0,4.5,3.75c5.61,3.66,11.69,3.06,16.51-1.6a16.59,16.59,0,0,0,2-2.3c.24-.34.37-.36.62,0q3,4.1,6.08,8.18c.3.4,0,.55-.19.78A16.84,16.84,0,0,1,73,45.08a19.77,19.77,0,0,1-5.75.1c-4.74-.65-8-3.56-10.67-7.24a30,30,0,0,1-3-5.32A1.17,1.17,0,0,1,53.34,31.6Z"/><path class="cls-10" d="M70.18,30.21l-.4.44c-1.45,1.59-2.9,3.17-4.34,4.77-.32.36-.5.43-.87,0-1.77-1.91-3.57-3.78-5.37-5.66-.32-.33-.41-.54,0-.91C61,27.27,62.83,25.61,64.63,24c.27-.25.46-.55.81-.08,1.48,2,3,4,4.48,6Z"/><path class="cls-11" d="M62.32,105a46.62,46.62,0,1,1,46.62-46.62A46.68,46.68,0,0,1,62.32,105Zm0-90a43.42,43.42,0,1,0,43.42,43.42A43.47,43.47,0,0,0,62.32,14.94Z"/><path class="cls-7" d="M88.93,92.52V83.68H86.06v8.84a7.45,7.45,0,0,1-3.54,3.72v2.61c2.78-2.7,5-2,5-2s2.19-.67,5,2V96.25A7.45,7.45,0,0,1,88.93,92.52Z"/><path class="cls-12" d="M91.26,93.79S92,88,93.48,87.13,100.31,85,106,95.31s4.64,22.59,2.78,26.13-4,4.72-7.08.42-4.21-6-8.43-7.92-2.6-13.48-2.6-13.9"/><path class="cls-12" d="M83.73,93.79s-.78-5.82-2.22-6.66S74.68,85,68.95,95.31s-4.64,22.59-2.78,26.13,4,4.72,7.08.42,4.21-6,8.43-7.92,2.6-13.48,2.6-13.9"/></svg>