<svg id="Ebene_1" data-name="Ebene 1" xmlns="http://www.w3.org/2000/svg" width="375" height="140" viewBox="0 0 375 140"><defs><style>.cls-1{fill:#ffe5b7;}.cls-2{fill:#9c8d85;}.cls-3{fill:#e4003a;}.cls-4{fill:#ff7822;}.cls-5{isolation:isolate;}.cls-6{fill:#4178be;}.cls-7{fill:#264a60;}</style></defs><title>Zeichenfläche 2 Kopie 8</title><path id="Pfad_1102" data-name="Pfad 1102" class="cls-1" d="M0,0H375V140H0Z"/><path class="cls-2" d="M109.63,109.77,98.71,40.85S98,36.2,93.32,36.93L77.13,39.5a11.09,11.09,0,0,0-12.25-7.4h0a11.12,11.12,0,0,0-9.36,10.83L39.93,45.39s-4.66.74-3.92,5.39l10.91,68.91s.74,4.66,5.39,3.92l53.39-8.46S110.37,114.42,109.63,109.77ZM65.5,36h0A7.22,7.22,0,0,1,66.63,36,7.13,7.13,0,1,1,65.5,36ZM52.85,116.58,42.61,51.91l10.6-1.68,6,10.25,20.18-3.2,2.52-11.6,12.05-1.91,10.24,64.67Z"/><g id="gruppe-252-2"><rect id="rechteck-28" class="cls-2" x="51.44" y="64.37" width="39.3" height="7.86" transform="translate(-9.81 11.96) rotate(-9)"/><rect id="rechteck-29" class="cls-2" x="53.43" y="77.33" width="28.3" height="7.86" transform="matrix(0.99, -0.16, 0.16, 0.99, -11.88, 11.57)"/><rect id="rechteck-30" class="cls-2" x="55.23" y="88.27" width="39.31" height="7.86" transform="translate(-13.5 12.85) rotate(-9)"/></g><g id="Gruppe_827" data-name="Gruppe 827"><g id="ic_favorite_black_24px" data-name="ic favorite black 24px"><path id="Pfad_1104" data-name="Pfad 1104" class="cls-3" d="M121.49,114.25,118,111.08C105.63,99.85,97.45,92.45,97.45,83.36a13.09,13.09,0,0,1,13-13.22h.26a14.4,14.4,0,0,1,10.82,5,14.4,14.4,0,0,1,10.82-5,13.09,13.09,0,0,1,13.22,13q0,.13,0,.26c0,9.09-8.17,16.49-20.55,27.74Z"/></g><polygon class="cls-1" points="113.92 103.6 109.24 86.52 106.44 92.78 97.14 92.78 97.14 90.78 105.14 90.78 109.69 80.61 114.04 96.45 120.36 75.99 123.53 90.78 127.97 90.78 132.02 82.51 135.48 90.78 144.06 90.78 144.06 92.78 134.15 92.78 131.88 87.35 129.21 92.78 121.92 92.78 120.01 83.9 113.92 103.6"/></g><g id="ic_flash_on_black_24px" data-name="ic flash on black 24px"><path id="Pfad_1107" data-name="Pfad 1107" class="cls-4" d="M268,24.52l-12.64,8.86,1.45,2.07L246.48,42.7l17.18-4.84-1.93-2.76,11.13-3.69Z"/></g><g id="ic_flash_on_black_24px-2" data-name="ic flash on black 24px-2"><path id="Pfad_1109" data-name="Pfad 1109" class="cls-4" d="M155,39.67l14,6.53L170,43.91l11.44,5.34L168.71,36.78l-1.42,3.05L158.54,32Z"/></g><g id="ic_flash_on_black_24px-3" data-name="ic flash on black 24px-3"><path id="Pfad_1111" data-name="Pfad 1111" class="cls-4" d="M242.06,6.37l-7,16.44,2.33,1L231.7,37.27l13-15.63-3.1-1.32,8.18-10.64Z"/></g><g id="ic_flash_on_black_24px-4" data-name="ic flash on black 24px-4"><path id="Pfad_1113" data-name="Pfad 1113" class="cls-4" d="M166.37,13.48l12.08,14.93,2.11-1.71,9.89,12.21L182.2,18.64l-2.82,2.28-6-13.14Z"/></g><g id="_" data-name=" " class="cls-5"><g class="cls-5"><path class="cls-6" d="M109.43,37a5.94,5.94,0,0,1,1.36-2.74,10.08,10.08,0,0,1,2.88-1.62,7.74,7.74,0,0,0,2.08-1.34,4,4,0,0,0,1.17-2,3,3,0,0,0-.14-2.22A2.64,2.64,0,0,0,115,25.89a2.74,2.74,0,0,0-1.94.15,2.39,2.39,0,0,0-1.23,1.63l-4-1.08v-.09a5,5,0,0,1,2.91-3.68,7.75,7.75,0,0,1,5.16-.16,7.48,7.48,0,0,1,4.54,2.94,5.74,5.74,0,0,1,.63,4.85,5.94,5.94,0,0,1-1.95,3,9.74,9.74,0,0,1-3.33,1.85,3.5,3.5,0,0,0-1.49,1,5.28,5.28,0,0,0-.76,1.77ZM112,44l-4.16-1.12.95-3.54L113,40.47Z"/></g></g><g id="_2" data-name=" 2" class="cls-5"><g class="cls-5"><path class="cls-6" d="M339.39,28.61l-2.53-.09-1.12,5.35-2.42-.09,1.14-5.35-3-.11.08-2.24,3.37.12.81-3.81-3.06-.11.08-2.24,3.45.12,1.15-5.45,2.41.08-1.15,5.45,2.53.09,1.17-5.45,2.41.09-1.15,5.45,2.9.1-.08,2.24-3.29-.12-.81,3.81,3,.1-.08,2.24-3.35-.12L340.67,34,338.25,34Zm-2.05-2.31,2.52.09.81-3.81-2.53-.09Z"/></g></g><g id="_3" data-name=" 3" class="cls-5"><g class="cls-5"><path class="cls-6" d="M79.78,15l-5.31-1.56,1-3.11,5.22,2.16-.32-6.1h3.29l-.33,6.21,5.12-2.11,1,3.16-5.38,1.56,3.52,4.66L84.9,21.82l-3.06-5.1-3,4.94L76.11,19.8Z"/></g></g><g id="_4" data-name=" 4" class="cls-5"><g class="cls-5"><path class="cls-6" d="M307.71,41.26a1.84,1.84,0,0,0-.45-1.29,4.16,4.16,0,0,0-1.56-.93,9.62,9.62,0,0,1-3.22-1.76,3.55,3.55,0,0,1-1-2.74,3.64,3.64,0,0,1,1-2.69,4.51,4.51,0,0,1,2.83-1.24v-2.1h1.55v2.12a4.15,4.15,0,0,1,2.7,1.44,4.56,4.56,0,0,1,1,3.07l0,0h-2.78a2.9,2.9,0,0,0-.47-1.78,1.74,1.74,0,0,0-2.54-.14,1.92,1.92,0,0,0-.41,1.28,1.75,1.75,0,0,0,.43,1.24,4.42,4.42,0,0,0,1.6.93,10.27,10.27,0,0,1,3.2,1.82,3.51,3.51,0,0,1,1,2.71,3.61,3.61,0,0,1-1,2.71,4.62,4.62,0,0,1-2.84,1.2v1.93h-1.55V45.17a5,5,0,0,1-3-1.29,4.12,4.12,0,0,1-1.15-3.26l0,0h2.78a2.49,2.49,0,0,0,.6,1.87,2.14,2.14,0,0,0,1.53.57,1.85,1.85,0,0,0,1.36-.47A1.72,1.72,0,0,0,307.71,41.26Z"/></g></g><g id="_5" data-name=" 5" class="cls-5"><g class="cls-5"><path class="cls-6" d="M32.93,16.52a2.89,2.89,0,0,1,.82-2.1A3,3,0,0,1,36,13.58a3,3,0,0,1,2.29.83,2.9,2.9,0,0,1,.81,2.1v.75a2.87,2.87,0,0,1-.81,2.09,3,3,0,0,1-2.27.83,3.07,3.07,0,0,1-2.29-.83,2.85,2.85,0,0,1-.82-2.09Zm1.89.75a1.46,1.46,0,0,0,.31,1,1.09,1.09,0,0,0,.9.39,1.06,1.06,0,0,0,.87-.39,1.48,1.48,0,0,0,.31-1v-.75a1.51,1.51,0,0,0-.31-1,1.07,1.07,0,0,0-.89-.4,1.05,1.05,0,0,0-.88.4,1.52,1.52,0,0,0-.31,1Zm1.68,9.67-1.39-.73,6.94-11.11,1.39.73Zm3.22-2.42a2.87,2.87,0,0,1,.82-2.09,3.52,3.52,0,0,1,4.56,0,2.88,2.88,0,0,1,.82,2.09v.75a2.88,2.88,0,0,1-.81,2.1,3,3,0,0,1-2.27.83,3.07,3.07,0,0,1-2.29-.83,2.86,2.86,0,0,1-.83-2.09Zm1.89.75a1.42,1.42,0,0,0,.34,1,1.1,1.1,0,0,0,.88.4,1.06,1.06,0,0,0,.91-.37,1.61,1.61,0,0,0,.27-1v-.75a1.49,1.49,0,0,0-.31-1,1.2,1.2,0,0,0-1.78,0,1.5,1.5,0,0,0-.31,1Z"/></g></g><g id="_6" data-name=" 6" class="cls-5"><g class="cls-5"><path class="cls-6" d="M35.34,102.06,32,103.34,27.84,92.47l3.33-1.28Zm2.2,5.72-3.33,1.28-1.12-2.92,3.33-1.28Z"/></g></g><path class="cls-4" d="M234.43,94.56c23.55-29,4.59-59.63-23.54-56.27-12.23,1.22-23.85,9.79-27.83,17.43-3.67,6.73-3.06,10.4-2.75,13.46a51.34,51.34,0,0,1,.92,5.5c0,1.84-7.64,10.4-7.64,12.84,0,3.67,5.5,2.14,5.81,4,.31,2.45-1.22,2.75,0,4.89.31.61,1.22.61,1.22,1.22s-.61,1.22-.61,2.14c.31,2.14,4,2.45,3.67,4.89-.31,1.83-.92,3.36-.61,4.89.31,1.84,1.22,3.36,3.06,3.67,3.36.61,11.93-1.83,13.15,3.06,1.53,5.5,2.14,7.34,3.67,11.62,0,.92.61,3.06,2.75,2.45,1.83-.61,19.88-8.26,27.22-11.93,2.75-1.53,1.83-2.45,1.22-4.28C233.21,111.07,229.54,100.68,234.43,94.56ZM211.7,72.21h-1.41a2.4,2.4,0,1,0,0,4.8h1.4v3.38a1.82,1.82,0,0,1-1.86,1.78h-3.75V83.5a2.35,2.35,0,0,1-4.69,0V82.17h-3.75a1.83,1.83,0,0,1-1.87-1.78V76.84h-1.41a2.23,2.23,0,1,1,0-4.44h1.41V68.83a1.83,1.83,0,0,1,1.87-1.78h3.56v1.33a2.53,2.53,0,0,0,5.06,0V67.06h3.56a1.83,1.83,0,0,1,1.87,1.78Zm0-18.67h-1.41a2.4,2.4,0,1,0,0,4.8h1.4v3.38a1.82,1.82,0,0,1-1.86,1.78h-3.75v1.33a2.35,2.35,0,0,1-4.69,0V63.5h-3.75a1.83,1.83,0,0,1-1.87-1.78V58.17h-1.41a2.23,2.23,0,1,1,0-4.45h1.41V50.16a1.83,1.83,0,0,1,1.87-1.78h3.56v1.33a2.53,2.53,0,0,0,5.06,0V48.39h3.56a1.83,1.83,0,0,1,1.87,1.78Zm18.41,13.61-3.48-.74.28-1.3A2.53,2.53,0,0,0,222,64.06l-.28,1.3-3.48-.74a1.83,1.83,0,0,1-1.46-2.12l.74-3.48-1.37-.29a2.23,2.23,0,1,1,.92-4.35l1.38.29.74-3.48a1.83,1.83,0,0,1,2.2-1.35l3.67.78.28-1.3h0a2.35,2.35,0,0,1,4.58,1l-.28,1.3,3.67.78a1.83,1.83,0,0,1,1.46,2.13l-.7,3.3-1.37-.29a2.4,2.4,0,1,0-1,4.69l1.37.29-.7,3.3A1.83,1.83,0,0,1,230.11,67.16Z"/><g id="gruppe-39-2"><path id="pfad-78" class="cls-7" d="M298.87,116.64A30.5,30.5,0,1,0,282,76.93h0a30.5,30.5,0,0,0,16.85,39.7"/><path id="pfad-80" class="cls-1" d="M300.79,111.89a25.38,25.38,0,1,0-14-33,25.38,25.38,0,0,0,14,33h0"/><path id="rechteck-31" class="cls-7" d="M320.35,59.59,323,60.67l-3.67,9.07-2.67-1.08Z"/><path id="rechteck-32" class="cls-7" d="M301.21,107l2.67,1.08-3.67,9.07L297.55,116Z"/><path id="rechteck-33" class="cls-7" d="M282.61,75.61l9.07,3.67-1.08,2.67-9.07-3.67Z"/><path id="rechteck-34" class="cls-7" d="M330,94.74,339,98.41,338,101.08l-9.07-3.66Z"/><path id="rechteck-35" class="cls-7" d="M321.83,51.16l6,2.44-4.1,10.14-6-2.44Z"/><path id="rechteck-36" class="cls-7" d="M335.76,73l5.63-3.25,2,3.48-5.63,3.25Z"/><path id="rechteck-37" class="cls-7" d="M319.45,48.37l12.08,4.88-1.94,4.81L317.5,53.18Z"/><path id="rechteck-38" class="cls-7" d="M338.35,69.18l4.49-2.59,4,7-4.49,2.59Z"/><polygon class="cls-7" points="302.03 91.98 301.52 90.79 302.43 90.4 330.61 78.59 331.11 79.79 302.03 91.98"/><path id="pfad-82" class="cls-7" d="M306.23,88.63,299.93,90l1.58,3.7,5.34-3.6Z"/><path id="pfad-83" class="cls-7" d="M306.53,89.36a4.32,4.32,0,1,0,2.29-5.66h0a4.32,4.32,0,0,0-2.29,5.66"/><path id="pfad-84" class="cls-1" d="M308.57,88.5a2.12,2.12,0,1,0,1.12-2.78h0a2.12,2.12,0,0,0-1.12,2.78"/></g></svg>