<svg id="Ebene_1" data-name="Ebene 1" xmlns="http://www.w3.org/2000/svg" width="375" height="140" viewBox="0 0 375 140"><defs><style>.cls-1{fill:#ffe5b7;}.cls-2{fill:#9c8d85;}.cls-3{fill:#e4003a;}.cls-4{fill:#fff;}.cls-5{fill:none;}.cls-6{fill:#f4d6c8;}.cls-7{fill:#e1beb0;}.cls-8{fill:#dc76a9;}.cls-9{fill:#bc226b;}.cls-10{fill:#e49ec2;}</style></defs><title>Zeichenfläche 2 Kopie 9</title><rect class="cls-1" width="375" height="140"/><g id="gruppe-252-2"><path class="cls-2" d="M285.31,37.58A9.92,9.92,0,0,0,274,29.32h0a9.65,9.65,0,0,0-8,11.08,2,2,0,0,1,0,.22,9.76,9.76,0,1,0,19.28-3Zm-8.8,7.57a6.45,6.45,0,1,1,5.36-7.38A6.45,6.45,0,0,1,276.51,45.15Z"/><rect id="rechteck-28" class="cls-2" x="258.97" y="62.33" width="42.82" height="8.56" transform="translate(-6.97 44.74) rotate(-9.01)"/><rect id="rechteck-29" class="cls-2" x="261.13" y="76.45" width="30.84" height="8.56" transform="translate(-9.22 44.22) rotate(-8.99)"/><rect id="rechteck-30" class="cls-2" x="263.09" y="88.36" width="42.82" height="8.56" transform="translate(-10.99 45.65) rotate(-9)"/><path class="cls-2" d="M322.36,111.78,310.47,36.7s-.8-5.06-5.87-4.26l-23.23,3.68a6.45,6.45,0,1,1-12.27,1.94l-22.66,3.59s-5.07.8-4.27,5.88l11.89,75.07s.81,5.07,5.88,4.27l58.16-9.21S323.16,116.85,322.36,111.78Zm-61.86,7.43L249.35,48.75l11.55-1.83,6.51,11.17,22-3.48L292.13,42l13.14-2.08,11.15,70.45Z"/></g><path class="cls-3" d="M337.48,14a26.1,26.1,0,1,0,17.9,32.28A26.1,26.1,0,0,0,337.48,14Zm-14.9,40.84L311.89,35l4.54-1.9,6.85,9.55a95,95,0,0,1,28.1-13.1l.58,2.16C338.89,38.38,327.06,49,322.58,54.86Z"/><circle class="cls-4" cx="86.21" cy="70.96" r="62.49"/><circle class="cls-5" cx="88" cy="72.92" r="60.63"/><path class="cls-6" d="M136.21,32.14a43.31,43.31,0,0,1-9.82-9.4A42.9,42.9,0,0,1,122.18,20c-2.86,1.86-5.4,3-7,2.51-5.67-1.7-14.75,0-14.75,0l-7.39,1.7c-2.79-5.3-4.58-12.62-5.41-16.54a41.16,41.16,0,0,1-10.1,1.27c-.67,0-1.33,0-2-.05A42.22,42.22,0,0,1,63.7,14.42a83.78,83.78,0,0,1-3.7,10L51.7,22.5a51.59,51.59,0,0,0-5.34-.64,43.36,43.36,0,0,1-6.74,6.8,43.22,43.22,0,0,1-5.93,8.56A43.26,43.26,0,0,1,29,43.8a29.08,29.08,0,0,0,1.14,9.9c3.4,10.21,12.53,22.72,14,41.75.43,5.75-1.32,12.7-3.44,19.32A43.29,43.29,0,0,1,52.51,125.3,42.22,42.22,0,0,1,64.72,131a41.4,41.4,0,0,1,13.23,3.48c.92-.06,1.85-.11,2.79-.11a41,41,0,0,1,7.81.76,41.29,41.29,0,0,1,16.65-3.52h.43a42.68,42.68,0,0,1,11-6.47c-3-9-7.61-20.77-6.94-29.71.75-10,5.62-20.46,7.83-26.62,2-5.61,2.92-10.27,4.54-15.13,2-6,10.91-12.92,17.94-17.64A43.37,43.37,0,0,1,136.21,32.14Z"/><path class="cls-7" d="M35.85,65.42,36,66c.1.39.36.92.62,1.57s.7,1.42,1.21,2.26c.23.43.55.85.85,1.29s.66.89,1,1.35a20,20,0,0,0,2.61,2.63c.47.45,1,.77,1.57,1.18s1.16.67,1.74,1,1.26.53,1.89.82,1.34.37,2,.59,1.4.21,2.1.34a5.78,5.78,0,0,0,1.08.08l1.08,0A13.21,13.21,0,0,0,56,79.06L57.1,79c.36,0,.72-.12,1.08-.17l2.14-.37,1-.29a7.06,7.06,0,0,0,1-.33A12.1,12.1,0,0,0,64,77c.28-.17.57-.3.83-.49l.76-.56a5.49,5.49,0,0,0,.71-.6c.23-.21.46-.41.67-.62a14.92,14.92,0,0,0,1.16-1.35,20,20,0,0,0,1.73-2.72c.42-.88.8-1.67,1-2.36a19.72,19.72,0,0,0,.71-2.2s0,.21,0,.62a14,14,0,0,1-.13,1.75,17.87,17.87,0,0,1-.55,2.7,16.35,16.35,0,0,1-1.36,3.32,17.63,17.63,0,0,1-1.09,1.76c-.2.3-.45.56-.68.85a7.29,7.29,0,0,1-.76.83l-.84.79c-.29.26-.62.46-.93.7a12.65,12.65,0,0,1-2.13,1.24,7.2,7.2,0,0,1-1.07.45l-.53.19-.26.1-.13,0-.07,0h0l-.12,0q-1.15.28-2.32.53c-.39.08-.78.2-1.18.24l-1.22.12a15.46,15.46,0,0,1-2.46.13l-1.24-.05a7.48,7.48,0,0,1-1.24-.11c-.82-.15-1.64-.27-2.44-.48s-1.58-.5-2.33-.81S45.09,80.4,44.41,80a21.85,21.85,0,0,1-1.93-1.38l-.86-.77a6.14,6.14,0,0,1-.8-.8,18.33,18.33,0,0,1-2.49-3.38,17.8,17.8,0,0,1-1.5-3.22,18.24,18.24,0,0,1-.74-2.64A12.52,12.52,0,0,1,35.88,66Z"/><path class="cls-7" d="M113,77.46c-3.48,3.43-6.14,4.2-7.75,4.53a23.65,23.65,0,0,1-4.86.47A30.24,30.24,0,0,1,95.55,82c-.78-.15-1.57-.27-2.33-.49-.4-.11-.74-.18-1.18-.31s-.7-.21-1.11-.37a15.49,15.49,0,0,1-4.35-2.34A15.3,15.3,0,0,1,83.27,75a16.68,16.68,0,0,1-2-4.29,15.72,15.72,0,0,1-.73-4.58,19.67,19.67,0,0,0,1.58,4.23A17.13,17.13,0,0,0,84.56,74a14.06,14.06,0,0,0,3.26,2.75,15.12,15.12,0,0,0,3.84,1.63c.31.1.73.17,1.08.25l1.05.18c.72.13,1.45.22,2.17.31a27,27,0,0,0,4.32.16,24.56,24.56,0,0,0,4.2-.55,19.19,19.19,0,0,0,3.93-1.38c2.5-1.2,4.31-3.38,6-5.59a11.26,11.26,0,0,0,3-6.93C117.83,64.48,117.78,72.71,113,77.46Z"/><path class="cls-8" d="M99.88,45.57c-1.94-2.24-14.51-7.32-14.51-7.32.45-2,4.22-1.14,7.8-.74s4-3.4,4-3.4-1.93-1.5-8.89-3S73.18,36,70,37.88,50.35,50.14,29,50.83C24.5,51,23.63,62,22.93,65c.73,2.65.85,11.16,1,14,23.35-6.33,46.47-20.49,46.47-20.49,5.15,6.17,16,4.91,16,4.91s7.34,4,11.06,6.09,5.2-1.34,5.2-1.34c6.72,1,4.61-3.62,4.61-3.62,3.85-2.25.29-5.33.29-5.33a3.85,3.85,0,0,0,1.65-1.09C111.61,56,101.83,47.81,99.88,45.57Z"/><path class="cls-7" d="M77.57,118.33l.05.11c0,.07.1.17.14.29s.25.56.37.9a6.2,6.2,0,0,1,.38,2.13c0,.17,0,.34,0,.51s-.06.34-.09.51l-.13.5-.16.5c-.05.16-.13.33-.19.48s-.1.29-.15.41-.1.23-.13.3l0,.11-.12,0a2.22,2.22,0,0,1-.32-.1,2.78,2.78,0,0,1-.93-.57,3.17,3.17,0,0,1-.81-1.18,3.66,3.66,0,0,1-.29-1.55,3.83,3.83,0,0,1,.35-1.49,3.57,3.57,0,0,1,.8-1.11,3.46,3.46,0,0,1,.89-.59,2.1,2.1,0,0,1,.31-.12Z"/><circle class="cls-5" cx="86.14" cy="71.07" r="62.49"/><path class="cls-1" d="M86.14,135.53A64.46,64.46,0,1,1,150.6,71.07,64.54,64.54,0,0,1,86.14,135.53Zm0-125a60.52,60.52,0,1,0,60.52,60.52A60.59,60.59,0,0,0,86.14,10.55Z"/><path class="cls-9" d="M211.06,21.79S200.28,5,179.7,10L171.22,32.2a23.23,23.23,0,0,1,19.58-2,18.77,18.77,0,0,1,12.43,13.48Z"/><path class="cls-8" d="M211.2,21.25s-26.06,55-94,70.54l16.71,6s0,13.48-3.69,17,74-34,81.38-69.37Z"/><path class="cls-10" d="M179.7,10S164.94,69,207.62,124.15l-16.71-6s-8.52,10.45-7.92,15.46-35.65-73.27-18.9-105.25Z"/></svg>