<svg id="Ebene_1" data-name="Ebene 1" xmlns="http://www.w3.org/2000/svg" width="375" height="140" viewBox="0 0 375 140"><defs><style>.cls-1,.cls-9{fill:#8cd211;}.cls-1{opacity:0.25;isolation:isolate;}.cls-2{fill:#ffd791;}.cls-3{fill:#3c3c3c;}.cls-4{fill:#dc9a37;}.cls-5{fill:#fff;}.cls-6{fill:#eac442;}.cls-7{fill:#767777;}.cls-8{fill:#749d33;}.cls-10{fill:#f4d6c8;}.cls-11{fill:#e30613;}.cls-12{fill:#a1cf2c;}.cls-13{fill:#ff5003;}</style></defs><title>Zeichenfläche 26</title><rect id="rechteck-12-3" class="cls-1" width="375" height="140"/><path class="cls-2" d="M83.29,134.59l6.2,5.41h40.07l-27.81-24.29c-.09-1.54-.09-10.56-.51-17.25-.34-4.38-2.06-11.84-5.15-14.68L83.21,71.85l-.09-.09a4.09,4.09,0,0,0-5.75.51l-39.09,33h0a4.2,4.2,0,0,0,.09,5.92s9.22,8.88,16.17,15.31C60.63,132.1,77.54,135.28,83.29,134.59Z"/><path id="pfad-15" class="cls-2" d="M51.62,68.51l.26-.26a5,5,0,0,0-.26-7L37,47.91a5,5,0,0,0-7,.26l-.26.26a5,5,0,0,0,.26,7L44.67,68.77a4.89,4.89,0,0,0,7-.26Z"/><rect class="cls-3" x="34.5" y="31.79" width="49.74" height="25.61" rx="3.06" ry="3.06"/><rect class="cls-4" x="70.5" y="39.4" width="15.57" height="6.3" rx="1" ry="1" transform="translate(35.62 120.79) rotate(-89.92)"/><rect class="cls-5" x="60.76" y="63.09" width="34.99" height="6.3" transform="translate(11.89 144.39) rotate(-89.91)"/><rect class="cls-6" x="77.66" y="42.1" width="1.25" height="6.3" transform="translate(32.91 123.47) rotate(-89.91)"/><ellipse class="cls-7" cx="78.23" cy="83.73" rx="1.17" ry="3.15" transform="translate(-5.63 161.83) rotate(-89.91)"/><ellipse class="cls-7" cx="76.5" cy="82.84" rx="0.52" ry="0.49" transform="translate(-6.42 159.26) rotate(-89.94)"/><ellipse class="cls-7" cx="77.49" cy="82.85" rx="0.49" ry="0.52"/><rect class="cls-4" x="63.07" y="39.41" width="15.58" height="6.3" rx="1" ry="1" transform="translate(28.18 113.34) rotate(-89.9)"/><rect class="cls-5" x="53.33" y="63.09" width="34.99" height="6.3" transform="translate(4.47 136.96) rotate(-89.91)"/><rect class="cls-6" x="70.22" y="42.1" width="1.25" height="6.3" transform="translate(25.5 116.04) rotate(-89.92)"/><ellipse class="cls-7" cx="70.79" cy="83.73" rx="1.17" ry="3.15" transform="translate(-13.05 154.39) rotate(-89.91)"/><ellipse class="cls-7" cx="69.06" cy="82.84" rx="0.52" ry="0.49" transform="matrix(0, -1, 1, 0, -13.85, 151.82)"/><ellipse class="cls-7" cx="70.05" cy="82.85" rx="0.52" ry="0.49" transform="translate(-12.93 152.74) rotate(-89.89)"/><rect class="cls-4" x="55.63" y="39.41" width="15.58" height="6.3" rx="1" ry="1" transform="translate(20.75 105.9) rotate(-89.9)"/><rect class="cls-5" x="45.89" y="63.09" width="34.99" height="6.3" transform="translate(-2.96 129.52) rotate(-89.91)"/><rect class="cls-6" x="62.79" y="42.1" width="1.25" height="6.31" transform="translate(18.08 108.6) rotate(-89.92)"/><ellipse class="cls-7" cx="63.36" cy="83.73" rx="1.17" ry="3.15" transform="translate(-20.48 146.96) rotate(-89.91)"/><ellipse class="cls-7" cx="61.63" cy="82.84" rx="0.52" ry="0.49" transform="translate(-21.28 144.39) rotate(-89.94)"/><ellipse class="cls-7" cx="62.61" cy="82.85" rx="0.52" ry="0.49" transform="translate(-20.35 145.3) rotate(-89.89)"/><rect class="cls-4" x="48.2" y="32.65" width="15.57" height="6.3" rx="1" ry="1" transform="translate(20.12 91.74) rotate(-89.93)"/><rect class="cls-5" x="38.45" y="56.33" width="34.98" height="6.3" transform="translate(-3.61 115.35) rotate(-89.92)"/><rect class="cls-6" x="55.35" y="35.34" width="1.25" height="6.3" transform="translate(17.4 94.41) rotate(-89.91)"/><ellipse class="cls-7" cx="55.92" cy="76.98" rx="1.17" ry="3.15" transform="translate(-21.13 132.79) rotate(-89.92)"/><ellipse class="cls-7" cx="54.19" cy="76.08" rx="0.52" ry="0.49" transform="translate(-21.95 130.2) rotate(-89.94)"/><ellipse class="cls-7" cx="55.18" cy="76.09" rx="0.52" ry="0.49" transform="translate(-21.02 131.11) rotate(-89.88)"/><rect class="cls-4" x="40.76" y="39.41" width="15.58" height="6.3" rx="1" ry="1" transform="translate(5.91 91.03) rotate(-89.9)"/><rect class="cls-5" x="31.02" y="63.09" width="34.99" height="6.3" transform="translate(-17.81 114.65) rotate(-89.91)"/><rect class="cls-6" x="47.92" y="42.1" width="1.25" height="6.31" transform="translate(3.23 93.73) rotate(-89.92)"/><ellipse class="cls-7" cx="48.48" cy="83.73" rx="1.17" ry="3.15" transform="translate(-35.33 132.09) rotate(-89.91)"/><ellipse class="cls-7" cx="46.76" cy="82.84" rx="0.52" ry="0.49" transform="translate(-36.13 129.52) rotate(-89.94)"/><ellipse class="cls-7" cx="47.74" cy="82.85" rx="0.52" ry="0.49" transform="translate(-35.19 130.43) rotate(-89.89)"/><rect class="cls-4" x="32.73" y="39.59" width="15.58" height="6.3" rx="1" ry="1" transform="translate(-2.3 83.18) rotate(-89.9)"/><rect class="cls-5" x="22.98" y="63.28" width="34.99" height="6.3" transform="translate(-26.01 106.8) rotate(-89.91)"/><rect class="cls-6" x="39.88" y="42.28" width="1.25" height="6.3" transform="translate(-4.98 85.88) rotate(-89.92)"/><ellipse class="cls-7" cx="40.45" cy="83.92" rx="1.17" ry="3.15" transform="translate(-43.53 124.24) rotate(-89.91)"/><ellipse class="cls-7" cx="38.72" cy="83.03" rx="0.52" ry="0.49" transform="translate(-44.35 121.67) rotate(-89.94)"/><ellipse class="cls-7" cx="39.71" cy="83.03" rx="0.52" ry="0.49" transform="translate(-43.4 122.58) rotate(-89.89)"/><rect class="cls-8" x="34.5" y="53.82" width="49.74" height="58.64" rx="2" ry="2"/><polygon class="cls-8" points="39.84 53.92 79.05 53.92 84.23 48.87 84.23 53.92 84.23 58.98 84.23 62.78 34.49 62.78 34.49 58.81 34.49 57.17 34.49 53.92 34.49 48.71 39.84 53.92"/><rect class="cls-9" x="39.9" y="71.49" width="38.68" height="29.11"/><rect class="cls-6" x="70.22" y="42.1" width="1.25" height="6.3" transform="translate(25.5 116.04) rotate(-89.92)"/><rect class="cls-8" x="38.72" y="93.94" width="42.57" height="3"/><path id="pfad-19" class="cls-2" d="M41.29,105.24l.86-1A4.37,4.37,0,0,0,41.64,98h0l-.09-.09-7.47-6.18a4.37,4.37,0,0,0-6.18.52h0l-.08.09-.86,1a4.37,4.37,0,0,0,.51,6.18h0l.09.09L35,105.84A4.48,4.48,0,0,0,41.29,105.24Z"/><path id="pfad-46" class="cls-2" d="M91.19,87.38l1.12-1.2c1.63-1.8,1.2-4.81-1-6.78L76.68,65.84c-2.23-2.06-4.55-3.09-5.92-1.46-3.86,4.2.86,10.64,3,12.62l10.56,9.79C86.47,88.93,89.64,89.18,91.19,87.38Z"/><path id="pfad-47" class="cls-2" d="M41.29,89.42l.77-.94a4.5,4.5,0,0,0-.51-6.35h0c-.09,0-.09,0-.09-.08h0l-7.3-6.09a4.5,4.5,0,0,0-6.35.51h0c0,.09,0,.09-.09.09h0l-.77.94a4.5,4.5,0,0,0,.51,6.35h0c.09,0,.09,0,.09.09h0L34.86,90A4.7,4.7,0,0,0,41.29,89.42Z"/><path id="pfad-48" class="cls-2" d="M41.29,74.37l.77-.94a4.5,4.5,0,0,0-.51-6.35h0L41.46,67l-7.38-6.18a4.5,4.5,0,0,0-6.35.52h0l-.09.09-.77.94a4.5,4.5,0,0,0,.51,6.35h0l.09.09L34.86,75A4.7,4.7,0,0,0,41.29,74.37Z"/><circle class="cls-10" cx="176.13" cy="71.07" r="47.1"/><path class="cls-11" d="M177,30.83a39.68,39.68,0,1,1-39.68,39.68A39.72,39.72,0,0,1,177,30.83m0-12.56a52.24,52.24,0,1,0,52.24,52.24A52.24,52.24,0,0,0,177,18.27Z"/><rect class="cls-4" x="204.61" y="69.75" width="14.38" height="39.45" rx="2" ry="2" transform="translate(30.81 231.26) rotate(-60.98)"/><rect class="cls-5" x="156.04" y="21.54" width="14.38" height="81.97" transform="translate(29.36 174.91) rotate(-60.98)"/><ellipse class="cls-7" cx="127.39" cy="42.64" rx="7.19" ry="2.79" transform="translate(28.3 133.34) rotate(-60.98)"/><path class="cls-7" d="M127.86,46.12a1.13,1.13,0,1,1,1.09-2"/><rect class="cls-6" x="197.35" y="84" width="14.38" height="2.88" transform="translate(30.6 222.85) rotate(-60.98)"/><path class="cls-5" d="M122.27,20.39l.27.07a5.28,5.28,0,0,1,.74.3,5.61,5.61,0,0,1,1.06.68,6.1,6.1,0,0,1,1.16,1.22,8.07,8.07,0,0,1,.51.86c.07.16.14.32.21.49a3.18,3.18,0,0,1,.18.53c.05.18.1.37.14.56s.05.39.08.58a5.21,5.21,0,0,1,0,.6c0,.2,0,.41,0,.61a6.26,6.26,0,0,1-.18,1.23,6.8,6.8,0,0,1-.35,1.2l-.1.29,0,.07v0h0l0,0h0l-.05.12-.22.49c-.14.32-.32.67-.5,1-.37.69-.75,1.33-1.14,1.93S123.25,34.52,123,35a7,7,0,0,0-.69,1.39,4.87,4.87,0,0,0-.24,1.4,11.59,11.59,0,0,0,0,1.39c.05.43.07.82.12,1.14.08.64.11,1,.11,1s-.28-.26-.72-.77a11,11,0,0,1-.72-1,8.06,8.06,0,0,1-.72-1.48,6,6,0,0,1-.26-1,3,3,0,0,1-.06-.55,3.73,3.73,0,0,1,0-.58,7,7,0,0,1,.51-2.32c.07-.17.14-.36.22-.53l.24-.5c.16-.35.32-.65.49-1,.32-.63.68-1.25,1-1.84.16-.29.32-.57.48-.91.08-.16.16-.32.25-.48l.06-.12h0v0h0v0l0-.05.09-.2a8.53,8.53,0,0,0,.6-1.59l.1-.39c0-.13,0-.25.06-.38s0-.26.05-.38,0-.25,0-.37a5.56,5.56,0,0,0,0-.74c0-.24-.08-.48-.13-.71a7.45,7.45,0,0,0-.43-1.27,9.2,9.2,0,0,0-.5-1c-.16-.27-.3-.49-.4-.64Z"/><path class="cls-5" d="M118.38,13.85l.16.06a2.77,2.77,0,0,1,.43.23,3.65,3.65,0,0,1,.6.47,4,4,0,0,1,.63.8,4.25,4.25,0,0,1,.46,1.15,3.61,3.61,0,0,1,.11.67,4,4,0,0,1,0,.71,5.56,5.56,0,0,1-.27,1.45l-.05.18v0l0,.05,0,.08c0,.1-.07.21-.12.31s-.17.42-.27.64c-.2.43-.4.83-.62,1.21l-.59,1.05a5.19,5.19,0,0,0-.38.9,4,4,0,0,0-.13.9c0,.3,0,.59,0,.86s0,.5,0,.7c0,.39,0,.63,0,.63s-.16-.17-.4-.5c-.12-.16-.25-.37-.4-.62a5.43,5.43,0,0,1-.4-.9,4,4,0,0,1-.21-1.23,4.76,4.76,0,0,1,.24-1.39,11,11,0,0,1,.5-1.25l.53-1.16c.09-.19.17-.37.26-.58l.13-.3,0-.07v-.06l0-.13a6.62,6.62,0,0,0,.34-1,4.11,4.11,0,0,0,.09-.5l0-.25c0-.08,0-.16,0-.24a4.23,4.23,0,0,0-.06-.92,4.8,4.8,0,0,0-.21-.79,5.25,5.25,0,0,0-.26-.62A5.32,5.32,0,0,0,118.38,13.85Z"/><polygon class="cls-11" points="154.66 109.52 144.62 103.41 199.35 31.16 209.4 37.27 154.66 109.52"/><path class="cls-3" d="M319.38,45.94V28.3h-5.72V45.94a14.87,14.87,0,0,1-7.06,7.43v5.21c5.55-5.38,9.93-4,9.93-4s4.37-1.35,9.92,4V53.37A14.87,14.87,0,0,1,319.38,45.94Z"/><path class="cls-12" d="M324,48.47s1.56-11.61,4.42-13.29S342.08,31,353.52,51.49s9.25,45.08,5.55,52.15-7.91,9.42-14.13.84-8.41-11.94-16.82-15.81-5.2-26.9-5.2-27.74"/><path class="cls-12" d="M310.1,60.93,309,48.47s-1.56-11.61-4.42-13.29a10.35,10.35,0,0,0-7.51-.73,3.22,3.22,0,0,1,0,2.28,11.65,11.65,0,0,1-1.74,3.12c-1.25,1.57-5.3,1.83-7.74.44a50.83,50.83,0,0,0-8.11,11.21C268.07,72,270.26,96.57,274,103.64s7.91,9.42,14.13.84,8.41-11.94,16.82-15.81S310.1,61.77,310.1,60.93Z"/><path class="cls-13" d="M285.56,39.85l-2.49-6-2.92,6h-8.89l-2.06-9.57-7.08,22.89-5.5-20.1-3,6.79h-7c4,6.33,11.2,12.82,20.31,21.08l4.06,3.7L275,61c9.11-8.28,16.27-14.78,20.31-21.11Z"/><path class="cls-13" d="M283.6,13.18A16.78,16.78,0,0,0,271,19a16.76,16.76,0,0,0-12.62-5.86h-.29A15.27,15.27,0,0,0,242.94,28.6,18.89,18.89,0,0,0,245,37h6.74l5.56-12.39,5,18.32,7.41-24,3.87,18h4.79l4.91-10,4.19,10H297a18.9,18.9,0,0,0,2-8.38V28.3A15.27,15.27,0,0,0,283.6,13.18Z"/></svg>