<svg id="Ebene_1" data-name="Ebene 1" xmlns="http://www.w3.org/2000/svg" width="375" height="140" viewBox="0 0 375 140"><defs><style>.cls-1{fill:#fcf3cc;}.cls-2{fill:#ffd791;}.cls-3{fill:#fff;}.cls-4{fill:#e4003a;}.cls-5{fill:#eb5a8a;}.cls-6{fill:#d05f4e;}.cls-7{fill:#e3e3e3;}.cls-8{fill:#3c3c3c;}.cls-9{fill:#e71d32;}.cls-10{fill:#264a60;}.cls-11{fill:#7cc7ff;}.cls-12{fill:#efc100;}.cls-13{fill:#c0e6ff;}</style></defs><title>Zeichenfläche 2 Kopie 3</title><rect class="cls-1" width="375" height="140"/><rect class="cls-2" x="283.92" y="102.95" width="19.3" height="37.05"/><circle class="cls-3" cx="206.21" cy="36.05" r="23.37" transform="matrix(0, -1, 1, 0, 169.14, 242.08)"/><path class="cls-4" d="M206.1,60a24,24,0,1,1,24.08-23.84A24,24,0,0,1,206.1,60Zm.22-44.62a20.66,20.66,0,1,0,20.56,20.76A20.69,20.69,0,0,0,206.32,15.33Z"/><polygon class="cls-5" points="202.99 35.87 206.31 17.75 209.46 35.9 202.99 35.87"/><polygon class="cls-5" points="209.45 36.12 206.13 54.23 202.99 36.08 209.45 36.12"/><polygon class="cls-5" points="206.34 32.76 224.46 36.08 206.31 39.23 206.34 32.76"/><polygon class="cls-5" points="206.1 39.23 187.98 35.9 206.13 32.76 206.1 39.23"/><polygon class="cls-6" points="205.37 35.49 217.01 26 207.41 37.55 205.37 35.49"/><polygon class="cls-6" points="207.28 37.67 195.64 47.16 205.24 35.61 207.28 37.67"/><polygon class="cls-5" points="207.42 35.14 216.91 46.79 205.36 37.18 207.42 35.14"/><polygon class="cls-5" points="205.24 37.06 195.74 25.41 207.29 35.02 205.24 37.06"/><polygon class="cls-5" points="215.11 27.2 210.79 40.6 201.75 31.48 215.11 27.2"/><polygon class="cls-3" points="197.63 44.59 201.95 31.18 210.99 40.31 197.63 44.59"/><path class="cls-4" d="M214.37,27.93l-4.28,11.95-.07,0v0l-11.93,4.14,4.27-11.93.14,0v0l11.87-4.12m3.07-3-16.53,5.74h0L195,47.1l16.53-5.74h0l5.9-16.47Z"/><rect class="cls-7" x="20.46" y="103.88" width="4.53" height="5.3" transform="matrix(0, -1, 1, 0, -83.92, 128.75)"/><rect class="cls-7" x="181.05" y="103.97" width="4.53" height="5.3" transform="translate(75.8 289.41) rotate(-89.72)"/><ellipse class="cls-7" cx="103.01" cy="109.2" rx="14.11" ry="82.94" transform="translate(-6.7 211.66) rotate(-89.72)"/><ellipse class="cls-7" cx="103.03" cy="103.96" rx="14.11" ry="82.94" transform="translate(-1.43 206.48) rotate(-89.72)"/><path class="cls-8" d="M113.62,110.32l-26.77-.13s6.09-5.76.09-19.06l26.76.13C107,101.71,113.62,110.32,113.62,110.32Z"/><path class="cls-4" d="M184.94,96.23h0c.77-7.72-35.08-18.88-80.31-25-45.4-6.13-83-4.84-84.08,2.88,0,.19-.31,5.09-.31,5.09h.05c.84,7.69,36.09,18.5,80.3,24.46,45.4,6.13,83,4.84,84.08-2.88C184.66,100.78,184.94,96.23,184.94,96.23Z"/><path class="cls-4" d="M160.41,74.45a.65.65,0,0,1,.52-.93c.21,0,20.71-1.78,32.6,20a.65.65,0,1,1-1.14.62c-11.47-21-31.14-19.35-31.34-19.33A.65.65,0,0,1,160.41,74.45Z"/><path class="cls-4" d="M169.06,70.41a.66.66,0,0,1-.06-.22.65.65,0,0,1,.58-.71c.15,0,15.53-1.34,24.44,15a.64.64,0,0,1-.26.88.65.65,0,0,1-.88-.26c-8.49-15.54-23-14.33-23.18-14.31A.65.65,0,0,1,169.06,70.41Z"/><path class="cls-4" d="M17.41,38.21a.59.59,0,0,1-.5-.84c.08-.17,8-17.3,30.81-16.84a.6.6,0,0,1,0,1.19c-22-.45-29.62,16-29.7,16.13A.59.59,0,0,1,17.41,38.21Z"/><path class="cls-4" d="M18.14,29.49a.61.61,0,0,1-.2-.05.6.6,0,0,1-.3-.79c.06-.13,6-13,23.08-12.63a.59.59,0,0,1,.58.61.59.59,0,0,1-.61.58c-16.25-.33-21.92,11.8-22,11.93A.6.6,0,0,1,18.14,29.49Z"/><path id="pfad-7" class="cls-9" d="M130.37,59.09c-5.1-5.19-6.62-11.76-8.15-11.69s-6.33,1.89-7.41,3.57-.91,2.36,1,3.89,11.5,9.55,11.5,9.55Z"/><path id="pfad-8" class="cls-10" d="M126.11,53.36c4.35,5.35,30.25,25,37.49,28.82,2.44,1.25,2.81,5.81.45,8.17s-8.78,4.71-14.35,3.49L86.86,80.09c-3.12-.68-3.89-2.29-3.58-3.74L85,68.65c.15-.69-1.9-1.54-.14-5.94s7-13.18,8.65-14.33c3-1.91,5.56,1.62,8.62,4.45S111.32,56,113.77,55s10.79-3.63,12.34-1.62"/><path class="cls-11" d="M139,73.13c-1.58-.1-4.44-2.33-6.48-4S119.11,58.7,115.33,54.44c3.44-1.09,9.47-2.72,10.78-1.08h0c2.52,3.11,12.15,11,21.29,17.77A15,15,0,0,1,139,73.13Z"/><path id="pfad-15" class="cls-10" d="M165.58,87a5.81,5.81,0,0,1-1.53,3.34c-2.37,2.44-8.78,4.71-14.35,3.49L86.86,80.09c-3.12-.68-3.89-2.29-3.58-3.74l.23-1.07c-.3,1.37.45,3.06,3.58,3.74l62.84,13.75c5.64,1.24,12-1.05,14.35-3.49a6.68,6.68,0,0,0,1.3-2.27"/><path id="pfad-17" class="cls-9" d="M123,58.91a1.1,1.1,0,1,1,1.36-.74.82.82,0,0,1-.53.6,1,1,0,0,1-.83.14"/><path id="pfad-18" class="cls-9" d="M126.18,61.45a1.1,1.1,0,1,1,1.36-.74.82.82,0,0,1-.53.6,1,1,0,0,1-.83.14"/><path id="pfad-19" class="cls-9" d="M129.38,64a1.1,1.1,0,1,1,1.36-.74.82.82,0,0,1-.53.6.91.91,0,0,1-.83.14"/><path id="pfad-20" class="cls-9" d="M132.58,66.52a1.1,1.1,0,1,1,1.36-.74.81.81,0,0,1-.53.6,1,1,0,0,1-.83.14"/><path id="pfad-21" class="cls-9" d="M139,71.6a1.1,1.1,0,1,1,1.36-.74.82.82,0,0,1-.53.6,1.12,1.12,0,0,1-.83.14"/><path id="pfad-22" class="cls-9" d="M135.78,69.06a1.1,1.1,0,1,1,1.36-.74.82.82,0,0,1-.53.6,1,1,0,0,1-.83.14"/><path id="pfad-23" class="cls-9" d="M126.32,52.77a.49.49,0,0,1,.2.52h0L124,58.08a.49.49,0,0,1-.52.21h0l-.29-.14a.49.49,0,0,1-.21-.52h0l2.57-4.79a.49.49,0,0,1,.52-.2h0l.29.14"/><path id="pfad-24" class="cls-9" d="M129.45,55.29a.49.49,0,0,1,.21.52h0l-2.57,4.79a.49.49,0,0,1-.53.21h0l-.29-.14a.49.49,0,0,1-.2-.52h0l2.57-4.79a.49.49,0,0,1,.53-.2h0l.29.14"/><path id="pfad-25" class="cls-9" d="M132.57,57.81a.48.48,0,0,1,.2.52h0l-2.57,4.79a.48.48,0,0,1-.52.21h0l-.29-.14a.48.48,0,0,1-.2-.52h0l2.57-4.79a.48.48,0,0,1,.52-.2h0l.29.14"/><path id="pfad-26" class="cls-9" d="M135.7,60.33a.49.49,0,0,1,.21.52h0l-2.57,4.79a.49.49,0,0,1-.52.2h0l-.29-.14a.48.48,0,0,1-.2-.52h0l2.57-4.79a.49.49,0,0,1,.53-.21h0l.29.14"/><path id="pfad-27" class="cls-9" d="M138.82,62.85a.49.49,0,0,1,.21.52h0l-2.57,4.79a.49.49,0,0,1-.52.2h0l-.29-.14a.49.49,0,0,1-.21-.52h0L138,62.92a.48.48,0,0,1,.52-.21h0l.29.14"/><path id="pfad-28" class="cls-9" d="M142.33,65.46a.49.49,0,0,1,.21.52h0L140,70.78a.48.48,0,0,1-.52.21h0l-.29-.14a.48.48,0,0,1-.2-.52h0l2.57-4.79a.48.48,0,0,1,.52-.2h0l.29.14"/><path class="cls-12" d="M84.81,68.62c.1-.46-.75-1-.81-2.5,3-1.91,9.42-5.05,12.12-6.78,3-1.91,5.88-1.67,7.78-.14s20.2,15.45,25.68,18.89,10.14,2.62,18.53,4.45,8.39,5.51,8.39,5.51h0s-8.32,2.58-8.38,2.88S95.89,76.08,84,72.9l.93-4.27Z"/><path class="cls-13" d="M164.05,90.36c-2.37,2.44-8.78,4.71-14.35,3.49L86.86,80.09c-3.12-.68-3.89-2.29-3.58-3.74L85,68.65c0-.23-.15-.43-.31-.79L103.42,72c10.53,2.3,16.92,6.66,21.27,8.73s22.66,5.68,27.92,6.83A118,118,0,0,0,165,89.13Z"/><path class="cls-11" d="M103.27,71.94a59.46,59.46,0,0,1,12.86,4.41c.08,0,.06.09.14.11a25.69,25.69,0,0,1,7.81,11.06l-36.69-8,5.86-4.15-3.2-6.21L103.25,72Z"/><path id="pfad-15-2" data-name="pfad-15" class="cls-10" d="M165.58,87a5.81,5.81,0,0,1-1.53,3.34c-2.37,2.44-8.78,4.71-14.35,3.49L86.86,80.09c-3.12-.68-3.89-2.29-3.58-3.74l.23-1.07c-.3,1.37.45,3.06,3.58,3.74l62.84,13.75c5.64,1.24,12-1.05,14.35-3.49a6.68,6.68,0,0,0,1.3-2.27"/><path class="cls-12" d="M86,59.76a64.37,64.37,0,0,1,6-10c1.23,1.31,2.88,3.27,2.65,4.34-.38,1.75-1.54,3.74-5.43,4.73C88.08,59.18,87.06,59.44,86,59.76Z"/><g id="gruppe-2"><path id="pfad-14" class="cls-13" d="M111.79,78.21A1.53,1.53,0,0,1,113,79.92l0,.15-.28,1.3a1.49,1.49,0,0,1-1.77,1.13l-.08,0L98.34,79.75A1.6,1.6,0,0,1,97.12,78l0-.08.28-1.3a1.53,1.53,0,0,1,1.71-1.23l.15,0,12.51,2.74"/></g><path id="pfad-7-2" data-name="pfad-7" class="cls-9" d="M73.3,50.77c-3.49-6.39-3.16-13.12-4.65-13.48s-6.6.09-8.11,1.41-1.52,2-.12,4S68.88,55,68.88,55Z"/><path id="pfad-8-2" data-name="pfad-8" class="cls-10" d="M70.76,44.1C73.48,50.43,93,76.41,99,82.07c2,1.87,1.11,6.35-1.8,8s-9.74,2.13-14.76-.56l-56.7-30.4c-2.82-1.51-3.12-3.27-2.42-4.57L27,47.57c.33-.62-1.41-2,1.49-5.76S38.79,31,40.73,30.39c3.38-1,4.91,3.07,7.08,6.63s8,5.54,10.64,5.26,11.37-.55,12.31,1.82"/><path class="cls-11" d="M77.8,66.65c-1.49-.53-3.64-3.46-5.15-5.6S62.57,47.32,60.09,42.19c3.6-.11,9.85,0,10.67,1.91h0C72.33,47.78,79.45,58,86.39,67A15,15,0,0,1,77.8,66.65Z"/><path id="pfad-15-3" data-name="pfad-15" class="cls-10" d="M99.54,87.25A5.81,5.81,0,0,1,97.15,90c-2.95,1.7-9.74,2.13-14.76-.56l-56.7-30.4c-2.82-1.51-3.12-3.27-2.42-4.57l.52-1c-.66,1.24-.4,3.06,2.42,4.58l56.7,30.4c5.09,2.73,11.81,2.26,14.76.56a6.7,6.7,0,0,0,1.87-1.83"/><path id="pfad-17-2" data-name="pfad-17" class="cls-9" d="M66.23,48.58a1.1,1.1,0,1,1,1.51-.34.82.82,0,0,1-.68.44,1,1,0,0,1-.83-.09"/><path id="pfad-18-2" data-name="pfad-18" class="cls-9" d="M68.62,51.89a1.1,1.1,0,1,1,1.51-.34.82.82,0,0,1-.68.44,1,1,0,0,1-.83-.09"/><path id="pfad-19-2" data-name="pfad-19" class="cls-9" d="M71,55.21a1.1,1.1,0,1,1,1.51-.34.82.82,0,0,1-.68.43.91.91,0,0,1-.84-.09"/><path id="pfad-20-2" data-name="pfad-20" class="cls-9" d="M73.39,58.53a1.1,1.1,0,1,1,1.51-.34.81.81,0,0,1-.68.43,1,1,0,0,1-.83-.09"/><path id="pfad-21-2" data-name="pfad-21" class="cls-9" d="M78.16,65.16a1.1,1.1,0,1,1,1.51-.34.82.82,0,0,1-.67.44,1.12,1.12,0,0,1-.83-.09"/><path id="pfad-22-2" data-name="pfad-22" class="cls-9" d="M75.78,61.84a1.1,1.1,0,1,1,1.51-.34.82.82,0,0,1-.68.43,1,1,0,0,1-.84-.09"/><path id="pfad-23-2" data-name="pfad-23" class="cls-9" d="M71.13,43.58a.49.49,0,0,1,.05.56h0L67.4,48.05a.49.49,0,0,1-.56.05h0l-.24-.22a.49.49,0,0,1-.05-.56h0l3.78-3.91a.48.48,0,0,1,.56-.05h0l.24.22"/><path id="pfad-24-2" data-name="pfad-24" class="cls-9" d="M73.44,46.86a.48.48,0,0,1,.05.56h0l-3.78,3.91a.49.49,0,0,1-.56.05h0l-.24-.22a.49.49,0,0,1-.05-.56h0l3.78-3.91a.49.49,0,0,1,.56-.05h0l.24.22"/><path id="pfad-25-2" data-name="pfad-25" class="cls-9" d="M75.76,50.14a.48.48,0,0,1,.05.56h0L72,54.61a.48.48,0,0,1-.56.05h0l-.24-.22a.48.48,0,0,1-.05-.56h0L75,50a.48.48,0,0,1,.56-.05h0l.24.22"/><path id="pfad-26-2" data-name="pfad-26" class="cls-9" d="M78.08,53.42a.49.49,0,0,1,.05.56h0l-3.78,3.91a.48.48,0,0,1-.56.05h0l-.24-.22a.48.48,0,0,1-.05-.56h0l3.78-3.91a.48.48,0,0,1,.56-.05h0l.24.22"/><path id="pfad-27-2" data-name="pfad-27" class="cls-9" d="M80.39,56.7a.49.49,0,0,1,.05.56h0l-3.78,3.91a.48.48,0,0,1-.56.05h0L75.87,61a.49.49,0,0,1-.06-.56h0l3.78-3.91a.49.49,0,0,1,.56-.05h0l.24.22"/><path id="pfad-28-2" data-name="pfad-28" class="cls-9" d="M83.05,60.17a.49.49,0,0,1,.05.56h0l-3.78,3.91a.48.48,0,0,1-.56.05h0l-.24-.22a.48.48,0,0,1-.05-.56h0L82.26,60a.48.48,0,0,1,.56-.05h0l.24.22"/><path class="cls-12" d="M26.86,47.49c.22-.41-.46-1.13-.1-2.62,3.38-1,10.44-2.29,13.5-3.21,3.38-1,6.11,0,7.52,2S63,64,67.33,68.83s9,5.29,16.6,9.35,6.56,7.59,6.56,7.59h0s-8.71.21-8.85.48S35.48,57.69,24.87,51.38l2.07-3.85Z"/><path class="cls-13" d="M97.15,90c-2.95,1.7-9.74,2.13-14.76-.56l-56.7-30.4c-2.82-1.51-3.12-3.27-2.42-4.57L27,47.57c.11-.21,0-.45-.08-.84L43.85,55.8c9.5,5.09,14.46,11,18.07,14.21s20.24,11.65,25,14.2a118.19,118.19,0,0,0,11.53,4.94Z"/><path class="cls-11" d="M43.71,55.73a59.47,59.47,0,0,1,11.17,7.76c.07,0,0,.11.1.14A25.69,25.69,0,0,1,59.47,76.4L26.37,58.66l6.78-2.39-1.38-6.85,11.9,6.38Z"/><path id="pfad-15-4" data-name="pfad-15" class="cls-10" d="M99.54,87.25A5.81,5.81,0,0,1,97.15,90c-2.95,1.7-9.74,2.13-14.76-.56l-56.7-30.4c-2.82-1.51-3.12-3.27-2.42-4.57l.52-1c-.66,1.24-.4,3.06,2.42,4.58l56.7,30.4c5.09,2.73,11.81,2.26,14.76.56a6.7,6.7,0,0,0,1.87-1.83"/><path class="cls-12" d="M30.38,39.28a64.31,64.31,0,0,1,8.5-7.93c.83,1.6,1.88,3.93,1.36,4.89-.85,1.58-2.5,3.18-6.51,3.06C32.58,39.31,31.53,39.28,30.38,39.28Z"/><g id="gruppe-2-2" data-name="gruppe-2"><path id="pfad-14-2" data-name="pfad-14" class="cls-13" d="M50.19,64.09a1.53,1.53,0,0,1,.71,2l-.07.14-.63,1.17a1.48,1.48,0,0,1-2,.61l-.07,0-11.29-6a1.6,1.6,0,0,1-.71-2l0-.07.63-1.17a1.53,1.53,0,0,1,2-.71l.14.07,11.29,6"/></g><path id="pfad-33" class="cls-13" d="M217.82,103.06a1.24,1.24,0,0,0,1.2,1.3h1a1.24,1.24,0,0,0,1.3-1.2v-4.9a1.24,1.24,0,0,0-1.2-1.3H219a1.24,1.24,0,0,0-1.3,1.2v.1l.1,4.8"/><path id="pfad-34" class="cls-13" d="M257.82,110.16s0,6.5,6.5,6.5h53.9s6.5,0,6.5-6.5V91.06s0-6.5-6.5-6.5h-53.9s-6.5,0-6.5,6.5v19.1"/><path id="pfad-35" class="cls-13" d="M234.62,110.16s0,6.5,6.5,6.5h10.4s6.5,0,6.5-6.5V91.06s0-6.5-6.5-6.5h-10.4s-6.5,0-6.5,6.5v19.1"/><path id="pfad-36" class="cls-13" d="M223.42,111.06a1.69,1.69,0,0,0,1.7,1.7h.9a1.69,1.69,0,0,0,1.7-1.7V90.16a1.69,1.69,0,0,0-1.7-1.7h-1a1.69,1.69,0,0,0-1.7,1.7v20.9"/><path id="pfad-37" class="cls-13" d="M229,111.06a1.69,1.69,0,0,0,1.7,1.7h1a1.69,1.69,0,0,0,1.7-1.7V90.16a1.69,1.69,0,0,0-1.7-1.7h-1a1.69,1.69,0,0,0-1.7,1.7v20.9"/><rect id="rechteck-2" class="cls-13" x="220.42" y="98.66" width="3.9" height="3.9"/><rect id="rechteck-3" class="cls-13" x="231.52" y="91.96" width="3.9" height="17.4"/><path class="cls-13" d="M239.72,88.66l-1.9.2c0-.1-.7-5.2-3.6-7.2a4.39,4.39,0,0,0-3.9-.6,5,5,0,0,0-3.4,2.5c-2.5,4.6.6,13.5.6,13.6l-1.8.7c-.1-.4-3.4-9.7-.5-15.2a7.05,7.05,0,0,1,4.7-3.5,6.54,6.54,0,0,1,5.5.9C238.92,82.56,239.72,88.36,239.72,88.66Z"/><path id="pfad-41" class="cls-2" d="M301.82,82.06a2.42,2.42,0,0,0-2.4,2.6v.1l.3,6.7a2.42,2.42,0,0,0,2.6,2.4h.1l2.1-.1a2.42,2.42,0,0,0,2.4-2.6v-.1l-.4-6.7a2.42,2.42,0,0,0-2.6-2.4h-.1l-2,.1"/><path id="pfad-43" class="cls-2" d="M310.42,82.06a2.42,2.42,0,0,0-2.4,2.6v.1l.2,4.4a2.42,2.42,0,0,0,2.6,2.4h.1l2.1-.1a2.42,2.42,0,0,0,2.4-2.6v-.1l-.2-4.4a2.42,2.42,0,0,0-2.6-2.4h-.1l-2.1.1"/><polygon class="cls-9" points="305.42 116.76 297.92 84.56 266.72 84.56 274.12 116.76 305.42 116.76"/><path id="pfad-42" class="cls-2" d="M285.92,109.26a3.11,3.11,0,0,0-4.2,1.4.1.1,0,0,1-.1.1l-2.1,4.6a3.11,3.11,0,0,0,1.4,4.2.1.1,0,0,1,.1.1l1.6.7a3.11,3.11,0,0,0,4.2-1.4.1.1,0,0,1,.1-.1l2.1-4.6a3.11,3.11,0,0,0-1.4-4.2.1.1,0,0,1-.1-.1l-1.6-.7"/><path id="pfad-39" class="cls-2" d="M284.22,82.06a2.42,2.42,0,0,0-2.4,2.6v.1l.6,11.1a2.42,2.42,0,0,0,2.6,2.4h.1l2.1-.1a2.42,2.42,0,0,0,2.4-2.6v-.1l-.6-11.1a2.42,2.42,0,0,0-2.6-2.4h-.1l-2.1.1"/><path id="pfad-40" class="cls-2" d="M293.12,82.06a2.42,2.42,0,0,0-2.4,2.6v.1l.5,9.3a2.42,2.42,0,0,0,2.6,2.4h.1l2.1-.1a2.42,2.42,0,0,0,2.4-2.6v-.1l-.5-9.3a2.42,2.42,0,0,0-2.6-2.4h-.1l-2.1.1"/><path class="cls-5" d="M285,20.29s-16.67,12.06-20.68,15c-8,5.78-8.71,15-.51,17.52L328.1,68s-8.21-3.67-1.58-12.65S350.45,36.1,350.45,36.1Z"/><path class="cls-5" d="M333.16,67a4.82,4.82,0,0,1-5.2-6.06c1.62-8.05,18.55-18.81,24.13-22.08l.48,4.56C342.14,48.9,332.77,57,331.82,61.71a1.26,1.26,0,0,0,.2,1.17c1.28,1.07,10.11-1.49,17.28-7,3.09-2.39,5.67-4.8,5-5.94s-6.41,2.54-11.41,7l-5.24.76c.13-.12,12.92-12.34,17.8-11.33a2.84,2.84,0,0,1,2,1.58c1.76,3.71-1.51,8.55-9,13.29C344.73,63.59,337.92,67,333.16,67Z"/></svg>