<svg id="Ebene_1" data-name="Ebene 1" xmlns="http://www.w3.org/2000/svg" width="375" height="140" viewBox="0 0 375 140"><defs><style>.cls-1,.cls-16{fill:#93c;}.cls-1{opacity:0.2;}.cls-2{fill:#4a5f86;}.cls-3{fill:#9c8d85;}.cls-4{fill:#c1c1c1;}.cls-5{fill:#fff;}.cls-6{fill:#f6f291;}.cls-7{fill:#eac442;}.cls-8{fill:#d05f4e;}.cls-9{fill:#6ac8c4;}.cls-10{fill:#f4d6c8;}.cls-11{fill:#e1beb0;}.cls-12{fill:#e49ec2;}.cls-13{fill:#ebd6f5;}.cls-14{fill:#f2ecfb;}.cls-15{fill:#b2b3e4;}.cls-17{fill:#ad6ecf;}.cls-18{fill:#8729b9;}</style></defs><title>Zeichenfläche 2 Kopie 15</title><rect class="cls-1" width="375" height="140"/><path class="cls-2" d="M29.95,61.42a4.23,4.23,0,0,0,4.47,3.91h19a4.23,4.23,0,0,0,4.47-3.91,4.23,4.23,0,0,0-4.47-3.91h-19A4.23,4.23,0,0,0,29.95,61.42Z"/><polyline class="cls-3" points="58.42 99.27 56.39 102.39 62.77 111.66 77.62 116.46 79.85 113.56 59.09 99.27"/><path class="cls-4" d="M121.38,129.55l-4.05-3.88-1.75-46.39a2.9,2.9,0,1,0-5.8.22l1.53,40.4L86.51,96.17l12.14-9.83A2.9,2.9,0,1,0,95,81.83L82.28,92.12l-2.66-2.55-.15-.12a2.68,2.68,0,0,0-.26-.2L79,89.13,78.71,89l-.27-.09-.27-.07-.31,0-.21,0L60,88.55a2.9,2.9,0,0,0-.07,5.81l16.5.21,1.3,1.24L51.4,117.13l11.43-63.8a2.87,2.87,0,0,0,0-.82,5.47,5.47,0,0,0-.28-10.8L46.83,26.19l-.16-.13a2.83,2.83,0,0,0-.26-.21,2.65,2.65,0,0,0-.31-.17l-.17-.09-.06,0h0L25.62,16.88a2.9,2.9,0,1,0-2.29,5.34l19.81,8.49L57.09,44.47a5.45,5.45,0,0,0,.76,6.39,2.88,2.88,0,0,0-.73,1.45l-12.5,69.78a3,3,0,0,0,0,.58l-8.3,6.73a2.9,2.9,0,0,0,3.65,4.51l42-34L112.46,129h0l4.91,4.7a2.9,2.9,0,0,0,4-4.19Z"/><rect class="cls-2" x="82.72" y="73.31" width="38.77" height="9.15" rx="4.47" ry="4.47" transform="translate(-9.76 14.81) rotate(-7.92)"/><rect class="cls-2" x="66.12" y="78.64" width="9.13" height="47.34" rx="4.47" ry="4.47" transform="translate(-53.66 100.4) rotate(-54.48)"/><path class="cls-2" d="M53.74,26.83a4.26,4.26,0,0,0,.49,6L72.69,50.35a4,4,0,1,0,5.5-5.79L59.73,27A4.26,4.26,0,0,0,53.74,26.83Z"/><rect class="cls-2" x="30.57" y="0.39" width="10.46" height="34.4" rx="4.47" ry="4.47" transform="translate(5.52 43.56) rotate(-66.8)"/><circle class="cls-3" cx="61.6" cy="47.11" r="3.12"/><circle class="cls-3" cx="114.4" cy="120.25" r="1.07" transform="translate(-3.22 3.15) rotate(-1.55)"/><circle class="cls-3" cx="114.18" cy="112" r="1.07" transform="translate(-2.95 3.09) rotate(-1.53)"/><circle class="cls-3" cx="113.95" cy="103.75" r="1.07" transform="translate(-2.75 3.1) rotate(-1.54)"/><circle class="cls-3" cx="114.08" cy="108.25" r="1.07" transform="translate(-2.89 3.13) rotate(-1.55)"/><circle class="cls-3" cx="114.3" cy="116.5" r="1.07" transform="translate(-3.09 3.11) rotate(-1.54)"/><circle class="cls-5" cx="295.25" cy="59.65" r="45.8"/><path class="cls-6" d="M335,39.71a13.13,13.13,0,0,1-3.11-5.22,13.25,13.25,0,0,1-4.09-5.79,13.36,13.36,0,0,1-2.32-1.85,92.79,92.79,0,0,0-20.24-3.76V15.44a16.7,16.7,0,0,1-2.83-.28c-.76-.13-1.19-.21-1.29-.23-.72-.07-1.44-.15-2.16-.19-2-.12-4-.21-6-.2-.89,0-1.79,0-2.68.05a15.5,15.5,0,0,1-2.19.87,16.79,16.79,0,0,1-3.35.63v7.07a92.42,92.42,0,0,0-20.07,3.93,13.37,13.37,0,0,1-3.56,3.23,13.33,13.33,0,0,1-4.77,6.12s0,.09,0,.14a12.86,12.86,0,0,1-2.57,7.66c1.54,5.08,4.54,10.32,6.64,14.14,1.67,4.24,3.82,9.46,6.37,15.1,0,0,.19,11.93.11,20.76a13.34,13.34,0,0,1,4.55,4,13.26,13.26,0,0,1,2.15,1.67c.38,0,.77-.05,1.15-.05a13,13,0,0,1,9.86,4.6,12.63,12.63,0,0,1,10.61.33,12.46,12.46,0,0,1,7.72-.1,12.81,12.81,0,0,1,7.05-2.13c.19,0,.38,0,.57,0a13,13,0,0,1,6.77-3.05A13.29,13.29,0,0,1,323.57,95c-.09-8.89.1-21.5.1-21.5,1.75-3.87,3.32-7.55,4.67-10.85a1.75,1.75,0,0,0,.17-.32c1.38-3.53,6.9-11.58,8.88-19.06A13.27,13.27,0,0,1,335,39.71Z"/><path class="cls-6" d="M295.44,104.72V43.28c-.05,20.12-.06,41,0,61.44Z"/><path class="cls-7" d="M294.72,96.17c0,3,.09,5.84.15,8.48l.34.16c.27-.09.53-.18.8-.25.06-2.62.11-5.44.15-8.4,0-2.27,0-4.61.07-7s0-4.8,0-7.21,0-4.84,0-7.22,0-4.72-.07-7c-.06-4.53-.15-8.76-.25-12.39s-.24-6.65-.31-8.76-.16-3.33-.16-3.33-.07,1.21-.16,3.33-.22,5.14-.31,8.76-.19,7.86-.25,12.39c0,2.27,0,4.61-.07,7s0,4.8,0,7.22,0,4.83,0,7.21S294.7,93.9,294.72,96.17Z"/><circle class="cls-8" cx="283.23" cy="49.96" r="5.24"/><path class="cls-8" d="M283.23,57.45a7.5,7.5,0,1,1,7.5-7.5A7.5,7.5,0,0,1,283.23,57.45Zm0-13.92A6.42,6.42,0,1,0,289.66,50,6.43,6.43,0,0,0,283.23,43.53Z"/><circle class="cls-8" cx="307.19" cy="49.96" r="5.24"/><path class="cls-8" d="M307.19,57.45a7.5,7.5,0,1,1,7.49-7.5A7.5,7.5,0,0,1,307.19,57.45Zm0-13.92A6.42,6.42,0,1,0,313.62,50,6.43,6.43,0,0,0,307.19,43.53Z"/><circle class="cls-8" cx="276.98" cy="94.72" r="3.58"/><path class="cls-8" d="M277,99.85a5.13,5.13,0,1,1,5.13-5.13A5.14,5.14,0,0,1,277,99.85Zm0-9.53a4.4,4.4,0,1,0,4.4,4.4A4.4,4.4,0,0,0,277,90.32Z"/><circle class="cls-8" cx="313.8" cy="94.72" r="3.58"/><path class="cls-8" d="M313.8,99.85a5.13,5.13,0,1,1,5.13-5.13A5.14,5.14,0,0,1,313.8,99.85Zm0-9.53a4.4,4.4,0,1,0,4.4,4.4A4.4,4.4,0,0,0,313.8,90.32Z"/><circle class="cls-8" cx="287.2" cy="22.78" r="2.57"/><path class="cls-8" d="M287.2,26.46a3.68,3.68,0,1,1,3.68-3.68A3.68,3.68,0,0,1,287.2,26.46Zm0-6.83a3.15,3.15,0,1,0,3.15,3.15A3.16,3.16,0,0,0,287.2,19.63Z"/><circle class="cls-8" cx="302.51" cy="22.78" r="2.57"/><path class="cls-8" d="M302.51,26.46a3.68,3.68,0,1,1,3.68-3.68A3.68,3.68,0,0,1,302.51,26.46Zm0-6.83a3.15,3.15,0,1,0,3.15,3.15A3.16,3.16,0,0,0,302.51,19.63Z"/><circle class="cls-8" cx="266.72" cy="30.48" r="3.58"/><path class="cls-8" d="M266.72,35.61a5.13,5.13,0,1,1,5.13-5.13A5.14,5.14,0,0,1,266.72,35.61Zm0-9.53a4.4,4.4,0,1,0,4.4,4.4A4.4,4.4,0,0,0,266.72,26.08Z"/><circle class="cls-8" cx="323.29" cy="30.48" r="3.58"/><path class="cls-8" d="M323.29,35.61a5.13,5.13,0,1,1,5.13-5.13A5.14,5.14,0,0,1,323.29,35.61Zm0-9.53a4.4,4.4,0,1,0,4.4,4.4A4.4,4.4,0,0,0,323.29,26.08Z"/><path class="cls-2" d="M295.07,16.16a43.49,43.49,0,1,0,43.49,43.49A43.54,43.54,0,0,0,295.07,16.16Z"/><path class="cls-9" d="M195,64.35C215.83,38.61,199,11.5,174.1,14.49c-10.84,1.08-21.14,8.67-24.66,15.44-3.25,6-2.72,9.22-2.45,11.93a44,44,0,0,1,.81,4.87c0,1.64-6.77,9.22-6.77,11.39,0,3.25,4.88,1.9,5.15,3.52.27,2.17-1.09,2.44,0,4.34.27.54,1.08.54,1.08,1.08s-.55,1.08-.55,1.9c.27,1.9,3.52,2.17,3.25,4.34-.27,1.63-.81,3-.54,4.34.26,1.63,1.07,3,2.71,3.25,3,.55,10.56-1.63,11.65,2.71,1.35,4.87,1.9,6.51,3.25,10.3,0,.82.54,2.71,2.44,2.17,1.62-.55,17.61-7.32,24.12-10.57,2.44-1.36,1.62-2.17,1.08-3.79C193.89,79,190.63,69.77,195,64.35Zm-17.3-4a19.63,19.63,0,1,1,19.62-19.63A19.62,19.62,0,0,1,177.66,60.36Z"/><path class="cls-9" d="M177.3,24.3h0Z"/><path class="cls-9" d="M177.36,24.21a8.34,8.34,0,0,1,8.34,8.34c0,4.61-3.25,8.18-7.86,8.18-.37,0-1.21.12-1.57.08a8.33,8.33,0,0,0,1,16.6h0a16.6,16.6,0,1,0,0-33.2Zm.22,26.68a2.26,2.26,0,1,1,2.26-2.26A2.26,2.26,0,0,1,177.59,50.89Z"/><path class="cls-9" d="M178,57.26h0Z"/><path class="cls-9" d="M177.72,25.45H178a6.94,6.94,0,0,1,1,13.81h-.11a4.86,4.86,0,0,0-.73.07l-.3,0a9.49,9.49,0,0,0-9.62,9.55,9.65,9.65,0,0,0,.92,4.13,15.2,15.2,0,0,1,8.57-27.6m.23-1.39a16.6,16.6,0,0,0,0,33.2,8.34,8.34,0,0,1-8.34-8.34,8.1,8.1,0,0,1,8.23-8.16c.32,0,.71-.11,1-.11H179a8.33,8.33,0,0,0-1-16.6h0Z"/><circle class="cls-9" cx="177.59" cy="31.96" r="2.26"/><circle class="cls-5" cx="335.9" cy="104.68" r="22.45"/><path class="cls-6" d="M346.2,125q.38-.42.79-.8c.69-6.24.52-25.18.52-25.18-2.35-8-24-13-24-13s-.87.34-2.2.94a33.33,33.33,0,0,1-5.56,9.19,12.76,12.76,0,0,1-1.75,5.19c0,.21,0,.42,0,.64a12.63,12.63,0,0,1-.18,2c9.43,4.94,21.28,3.43,21.28,3.43-2.14,10,3.73,18.47,3.73,18.47h4A12.64,12.64,0,0,1,346.2,125Z"/><circle class="cls-8" cx="344.15" cy="98.01" r="4.99"/><path class="cls-8" d="M344.15,105.15A7.14,7.14,0,1,1,351.29,98,7.15,7.15,0,0,1,344.15,105.15Zm0-13.26A6.12,6.12,0,1,0,350.27,98,6.13,6.13,0,0,0,344.15,91.89Z"/><path class="cls-2" d="M335.9,83.8a20.88,20.88,0,1,0,20.88,20.88A20.9,20.9,0,0,0,335.9,83.8Z"/><circle class="cls-5" cx="295.25" cy="59.57" r="45.8"/><path class="cls-10" d="M335,39.63a13.13,13.13,0,0,1-3.11-5.22,13.24,13.24,0,0,1-4.09-5.79,13.34,13.34,0,0,1-2.32-1.85A92.82,92.82,0,0,0,305.22,23V15.35a16.66,16.66,0,0,1-2.83-.28c-.76-.13-1.19-.2-1.29-.23-.72-.07-1.44-.15-2.16-.19-2-.12-4-.21-6-.2-.89,0-1.79,0-2.68.05a15.49,15.49,0,0,1-2.19.87,16.78,16.78,0,0,1-3.35.63v7.07A92.42,92.42,0,0,0,264.65,27a13.37,13.37,0,0,1-3.56,3.23,13.33,13.33,0,0,1-4.77,6.12s0,.09,0,.14a12.86,12.86,0,0,1-2.57,7.66c1.54,5.08,4.54,10.32,6.64,14.14,1.67,4.24,3.82,9.46,6.37,15.1,0,0,.19,11.93.11,20.76a13.35,13.35,0,0,1,4.55,4,13.26,13.26,0,0,1,2.15,1.67c.38,0,.77-.05,1.15-.05a13,13,0,0,1,9.86,4.6,12.63,12.63,0,0,1,10.61.33,12.46,12.46,0,0,1,7.72-.1,12.81,12.81,0,0,1,7.05-2.13c.19,0,.38,0,.57,0a13,13,0,0,1,6.77-3.05,13.3,13.3,0,0,1,6.27-4.58c-.09-8.89.1-21.5.1-21.5,1.75-3.87,3.32-7.55,4.67-10.85a1.74,1.74,0,0,0,.17-.32c1.38-3.53,6.9-11.58,8.88-19.06A13.27,13.27,0,0,1,335,39.63Z"/><path class="cls-6" d="M295.44,104.63V43.2c-.05,20.12-.06,41,0,61.44Z"/><path class="cls-11" d="M294.72,96.08c0,3,.09,5.84.15,8.48l.34.16c.27-.09.53-.18.8-.25.06-2.62.11-5.44.15-8.4,0-2.27,0-4.61.07-7s0-4.8,0-7.21,0-4.84,0-7.22,0-4.72-.07-7c-.06-4.53-.15-8.76-.25-12.39s-.24-6.65-.31-8.76-.16-3.33-.16-3.33-.07,1.21-.16,3.33-.22,5.14-.31,8.76-.19,7.86-.25,12.39c0,2.27,0,4.61-.07,7s0,4.8,0,7.22,0,4.83,0,7.21S294.7,93.82,294.72,96.08Z"/><circle class="cls-12" cx="283.23" cy="49.87" r="5.24"/><path class="cls-12" d="M283.23,57.37a7.5,7.5,0,1,1,7.5-7.5A7.5,7.5,0,0,1,283.23,57.37Zm0-13.92a6.42,6.42,0,1,0,6.42,6.42A6.43,6.43,0,0,0,283.23,43.45Z"/><circle class="cls-12" cx="307.19" cy="49.87" r="5.24"/><path class="cls-12" d="M307.19,57.37a7.5,7.5,0,1,1,7.49-7.5A7.5,7.5,0,0,1,307.19,57.37Zm0-13.92a6.42,6.42,0,1,0,6.42,6.42A6.43,6.43,0,0,0,307.19,43.45Z"/><circle class="cls-12" cx="276.98" cy="94.63" r="3.58"/><path class="cls-12" d="M277,99.77a5.13,5.13,0,1,1,5.13-5.13A5.14,5.14,0,0,1,277,99.77Zm0-9.53a4.4,4.4,0,1,0,4.4,4.4A4.4,4.4,0,0,0,277,90.24Z"/><circle class="cls-12" cx="313.8" cy="94.63" r="3.58"/><path class="cls-12" d="M313.8,99.77a5.13,5.13,0,1,1,5.13-5.13A5.14,5.14,0,0,1,313.8,99.77Zm0-9.53a4.4,4.4,0,1,0,4.4,4.4A4.4,4.4,0,0,0,313.8,90.24Z"/><circle class="cls-12" cx="287.2" cy="22.69" r="2.57"/><path class="cls-12" d="M287.2,26.37a3.68,3.68,0,1,1,3.68-3.68A3.68,3.68,0,0,1,287.2,26.37Zm0-6.83a3.15,3.15,0,1,0,3.15,3.15A3.16,3.16,0,0,0,287.2,19.54Z"/><circle class="cls-12" cx="302.51" cy="22.69" r="2.57"/><path class="cls-12" d="M302.51,26.37a3.68,3.68,0,1,1,3.68-3.68A3.68,3.68,0,0,1,302.51,26.37Zm0-6.83a3.15,3.15,0,1,0,3.15,3.15A3.16,3.16,0,0,0,302.51,19.54Z"/><circle class="cls-12" cx="266.72" cy="30.39" r="3.58"/><path class="cls-12" d="M266.72,35.52a5.13,5.13,0,1,1,5.13-5.13A5.14,5.14,0,0,1,266.72,35.52Zm0-9.53a4.4,4.4,0,1,0,4.4,4.4A4.4,4.4,0,0,0,266.72,26Z"/><circle class="cls-12" cx="323.29" cy="30.39" r="3.58"/><path class="cls-12" d="M323.29,35.52a5.13,5.13,0,1,1,5.13-5.13A5.14,5.14,0,0,1,323.29,35.52Zm0-9.53a4.4,4.4,0,1,0,4.4,4.4A4.4,4.4,0,0,0,323.29,26Z"/><path class="cls-13" d="M295.07,105.9a46.33,46.33,0,1,1,46.33-46.33A46.38,46.38,0,0,1,295.07,105.9Zm0-89.82a43.49,43.49,0,1,0,43.49,43.49A43.54,43.54,0,0,0,295.07,16.08Z"/><circle class="cls-5" cx="335.9" cy="104.59" r="22.45"/><path class="cls-10" d="M346.2,124.93q.38-.42.79-.8c.69-6.24.52-25.18.52-25.18-2.35-8-24-13-24-13s-.87.34-2.2.94a33.33,33.33,0,0,1-5.56,9.19,12.76,12.76,0,0,1-1.75,5.19c0,.21,0,.42,0,.64a12.63,12.63,0,0,1-.18,2c9.43,4.94,21.28,3.43,21.28,3.43-2.14,10,3.73,18.47,3.73,18.47h4A12.64,12.64,0,0,1,346.2,124.93Z"/><circle class="cls-12" cx="344.15" cy="97.92" r="4.99"/><path class="cls-12" d="M344.15,105.06a7.14,7.14,0,1,1,7.14-7.14A7.15,7.15,0,0,1,344.15,105.06Zm0-13.26a6.12,6.12,0,1,0,6.12,6.12A6.13,6.13,0,0,0,344.15,91.8Z"/><path class="cls-13" d="M335.9,128.61a24,24,0,1,1,24-24A24,24,0,0,1,335.9,128.61Zm0-44.9a20.88,20.88,0,1,0,20.88,20.88A20.9,20.9,0,0,0,335.9,83.71Z"/><rect class="cls-14" x="205.58" y="59.86" width="23.92" height="45.18" rx="6" ry="6"/><path class="cls-15" d="M208.27,100.82V94.24h18.6V101a3.39,3.39,0,0,1-1.29,1.2H209.66A3.38,3.38,0,0,1,208.27,100.82Z"/><path class="cls-16" d="M208.27,100.82V94.24h18.6V101a3.39,3.39,0,0,1-1.29,1.2H209.66A3.38,3.38,0,0,1,208.27,100.82Z"/><path class="cls-14" d="M204.48,100.37V64.19a5.63,5.63,0,0,1,5.63-5.62H225a5.63,5.63,0,0,1,5.63,5.63v36.18A5.63,5.63,0,0,1,225,106H210.11A5.63,5.63,0,0,1,204.48,100.37Zm5.63-39.55a3.38,3.38,0,0,0-3.37,3.38v36.18a3.38,3.38,0,0,0,3.38,3.38H225a3.38,3.38,0,0,0,3.38-3.37V64.19A3.38,3.38,0,0,0,225,60.82Z"/><rect class="cls-14" x="212.17" y="54.41" width="10.73" height="5.29" rx="2.19" ry="2.19"/><rect class="cls-17" x="189.66" y="78.3" width="23.92" height="45.18" rx="6" ry="6"/><path class="cls-17" d="M188.54,119V82.8a5.63,5.63,0,0,1,5.62-5.62h14.92a5.63,5.63,0,0,1,5.63,5.63V119a5.63,5.63,0,0,1-5.62,5.63H194.16A5.63,5.63,0,0,1,188.54,119Zm5.62-39.55a3.38,3.38,0,0,0-3.37,3.38V119a3.38,3.38,0,0,0,3.37,3.38h14.92a3.38,3.38,0,0,0,3.38-3.37V82.8a3.38,3.38,0,0,0-3.37-3.37Z"/><rect class="cls-18" x="196.31" y="72.98" width="10.63" height="5.31" rx="2.19" ry="2.19"/><rect class="cls-17" x="196.31" y="72.98" width="10.63" height="5.31" rx="2.19" ry="2.19"/><path class="cls-18" d="M192.32,119.42v-6.58h18.6v6.78a3.37,3.37,0,0,1-1.29,1.2H193.71A3.38,3.38,0,0,1,192.32,119.42Z"/><path class="cls-16" d="M192.32,119.42v-6.58h18.6v6.78a3.37,3.37,0,0,1-1.29,1.2H193.71A3.38,3.38,0,0,1,192.32,119.42Z"/><rect class="cls-16" x="192.32" y="102.21" width="18.6" height="7.97"/><rect class="cls-16" x="192.32" y="91.58" width="18.6" height="7.97"/><path class="cls-18" d="M210.92,82.35v6.58h-18.6V82.15a3.38,3.38,0,0,1,1.29-1.2h15.92A3.37,3.37,0,0,1,210.92,82.35Z"/><path class="cls-16" d="M210.92,82.35v6.58h-18.6V82.15a3.38,3.38,0,0,1,1.29-1.2h15.92A3.37,3.37,0,0,1,210.92,82.35Z"/></svg>