<svg id="Ebene_1" data-name="Ebene 1" xmlns="http://www.w3.org/2000/svg" width="375" height="140" viewBox="0 0 375 140"><defs><style>.cls-1,.cls-5{fill:#93c;}.cls-1{opacity:0.2;}.cls-2{fill:#fff;}.cls-3{fill:#e49ec2;}.cls-4{fill:#ebd6f5;}.cls-6{fill:#ad6ecf;}.cls-7{fill:#f4d6c8;}.cls-8{fill:#9c8d85;}.cls-9{fill:#4a5f86;}.cls-10{fill:#c1c1c1;}.cls-11{fill:#3c3c3c;}.cls-12{fill:#767777;}.cls-13{fill:#6ac8c4;}</style></defs><title>Zeichenfläche 2 Kopie 14</title><rect class="cls-1" width="375" height="140"/><circle class="cls-2" cx="74.53" cy="66.53" r="56.28"/><path class="cls-3" d="M77.67,30.91l-.12,0h0a66.11,66.11,0,0,0-21,14.41A65.81,65.81,0,0,0,41.93,66.89l0,0C38.37,77.28,29.66,89.14,24.61,95.53A59.81,59.81,0,0,0,42,113.91c6.13-4.9,18.39-14.06,29.22-17.72l0,0A65.84,65.84,0,0,0,92.71,81.53c8.19-8.2,13.75-17.52,16.2-26.11a133,133,0,0,1,13.33-21.22,60,60,0,0,0-19.81-17.67C96.3,21.12,88.34,26.5,80,30,79.26,30.28,78.46,30.58,77.67,30.91Z"/><path class="cls-2" d="M56.47,45.45c-1.33,1.33-2.59,2.7-3.78,4.08l1.49-.12-.4,4.84-4.84.4,0-.39q-1.18,1.65-2.24,3.31l-.34,4.06-2.11.17c-.36.68-.7,1.37-1,2l3-.25-.4,4.84-4.69.39c-.27.66-.57,1.35-.89,2l5.41-.45-.4,4.84-4.54.38q.51,1,1,1.88l3.36-.28-.4,4.84h-.18q1,1.45,1.91,2.75l.08-1,4.84-.4L51,88.34l-1.6.13a45.88,45.88,0,0,0,3.28,3.38l.14-1.7,4.84-.4-.4,4.84-1.16.1a34.23,34.23,0,0,0,3,2l0-.24,4.84-.4-.24,2.87.85.3,1.13-.59.23-2.74,4.84-.4-.08,1,.62-.22,0,0,1.45-.61,0-.27.69-.06a59.07,59.07,0,0,0,6.37-3.39L80,87.9l4.84-.4-.07.88q2-1.49,3.93-3.16L87,85.36l.4-4.84,4.84-.4-.17,2,.6-.59q1.81-1.82,3.45-3.7L94.41,78l.4-4.84,4.84-.4-.07.87q1.17-1.57,2.22-3.17l.39-4.69,2.54-.21q.55-1,1-2l-3.42.28.4-4.84,5.15-.43c.25-.68.47-1.35.68-2l-5.66.47.4-4.84,7.67-.63c.39-.68.79-1.37,1.2-2.06l-8.71.72.4-4.84,6-.49c-.39-.64-.78-1.26-1.17-1.86l-4.63.38.5-6q-.9-1.08-1.79-2L102.61,37l-4.84.4.53-6.37q-.94-.76-1.85-1.4l-.09,1.12-4.84.4.35-4.26c-.65-.32-1.28-.6-1.89-.84l-.44,5.27-4.84.4L85,27.57q-1,.56-2,1.07l-.27,3.28-4.84.4L78,30.78l-.33.13-.12,0h0c-.53.22-1.05.45-1.59.69l-.07.84-2,.17c-1.66.84-3.33,1.79-5,2.83l-.36,4.39-4.84.4.1-1.24q-2.16,1.66-4.27,3.54l2-.17-.37,4.46-4.84.4Zm-7.7,11.18,4.84-.4-.4,4.84-4.84.4ZM66.29,66.76l-4.84.4.4-4.84,4.84-.4Zm2.94-11.83,4.84-.4-.4,4.84-4.84.4Zm-.56,6.82,4.84-.4-.4,4.85-4.84.4Zm6.82-.57,4.84-.4-.4,4.84-4.84.4Zm-2.54,7L72.54,73l-4.84.4.4-4.84Zm2-.16,4.84-.4-.4,4.84-4.84.4Zm4.28,6.42-.4,4.84-4.84.4.4-4.84Zm2.54-7,4.84-.4-.4,4.84-4.84.4Zm.16-2,.4-4.84,4.84-.4-.4,4.84Zm.56-6.82.4-4.84,4.84-.4-.4,4.84Zm-2,.16-4.84.4.4-4.84,4.84-.4Zm-4.28-6.42.4-4.84,4.84-.4L81.06,52Zm-2,.16L69.4,53l.4-4.84,4.84-.4Zm-7.38,7.38-4.84.4.4-4.84,4.84-.4Zm-7.38,7.38-4.84.4.4-4.84,4.84-.4Zm-.16,2-.4,4.84-4.84.4.4-4.84Zm2-.16,4.84-.4-.4,4.84-4.84.4Zm4.28,6.42-.4,4.85-4.84.4.4-4.84Zm2-.16,4.84-.4L72,79.83l-4.84.4Zm4.28,6.42-.4,4.84-4.84.4.4-4.84Zm2-.16,4.84-.4-.4,4.84-4.84.4Zm7.38-7.38,4.84-.4-.4,4.84-4.84.4Zm7.38-7.38,4.84-.4L93,71.32l-4.85.4Zm.16-2,.4-4.84,4.84-.4-.4,4.84Zm.57-6.82.4-4.84,4.84-.4-.4,4.84Zm.56-6.82.4-4.84,4.84-.4-.4,4.84Zm-2,.16-4.84.4.4-4.84,4.84-.4ZM83.6,45,84,40.55l4.84-.4-.37,4.46Zm-2,.16-4.84.4.37-4.46,4.84-.4Zm-6.82.56-4.84.4.37-4.46,4.84-.4Zm-7.38,7.38-4.84.4.4-4.84,4.84-.4ZM60,60.51l-4.84.4.4-4.84,4.84-.4ZM48.21,63.45l4.84-.4-.4,4.84-4.84.4Zm-.56,6.82,4.84-.4-.4,4.84-4.84.4Zm-1,11.66.4-4.84,4.84-.4-.4,4.84Zm7.22-5.41,4.84-.4L58.34,81l-4.84.4Zm-1,11.66.4-4.84,4.84-.4-.4,4.84Zm7.22-5.41,4.84-.4-.4,4.84-4.84.4Zm-1,11.66.4-4.84,4.84-.4L64,94ZM66,93.87l.4-4.84,4.84-.4-.4,4.84Zm11.66-1-4.84.4.4-4.84,4.84-.4Zm7.38-7.38-4.84.4.4-4.84,4.84-.4Zm7.38-7.38-4.84.4L88,73.7l4.84-.4Zm7.38-7.38-4.84.4.4-4.84,4.85-.4Zm.56-6.82-4.84.4.4-4.84,4.84-.4Zm.57-6.82-4.84.4.4-4.84,4.84-.4Zm.56-6.82-4.84.4.4-4.84,4.84-.4ZM102.45,39l-.37,4.46-4.84.4.37-4.46Zm-7.19,5-4.84.4L90.78,40l4.84-.4Zm.93-11.28-.4,4.84-4.84.4.4-4.84Zm-6.82.56L89,38.17l-4.84.4.4-4.84Zm-6.82.56-.4,4.84-4.84.4.4-4.84Zm-11.66,1,4.84-.4-.4,4.84-4.84.4Zm-7.38,7.38,4.84-.4L68,46.31l-4.84.4ZM61,48.84l-.4,4.84-4.84.4.4-4.84Z"/><path class="cls-4" d="M74.39,125a58.39,58.39,0,1,1,58.39-58.39A58.46,58.46,0,0,1,74.39,125Zm0-113.21a54.82,54.82,0,1,0,54.82,54.82A54.88,54.88,0,0,0,74.39,11.74Z"/><circle class="cls-2" cx="136.38" cy="97.6" r="33.51"/><path class="cls-3" d="M137.53,78.34l-.08,0h0A43.73,43.73,0,0,0,115,101l0,0c-1.68,5-5.41,10.69-8.51,14.92a35.24,35.24,0,0,0,12.27,11.88c4.21-3.06,9.81-6.7,14.69-8.35l0,0a41.41,41.41,0,0,0,13.54-9.2,39.35,39.35,0,0,0,10.19-16.42,88.05,88.05,0,0,1,8.48-14.21,34.37,34.37,0,0,0-11.42-11.11A71.46,71.46,0,0,1,139,77.77C138.53,77.95,138,78.14,137.53,78.34Z"/><polygon class="cls-2" points="136.69 117.88 136.7 117.87 136.69 117.87 136.69 117.88"/><path class="cls-2" d="M146.21,109.73c-.15-.35-.29-.76-.44-1.21a3.08,3.08,0,0,0,2-1.53l0-.1a26.22,26.22,0,0,0,3-2.32c.09.34.17.68.25,1,.28-.36.55-.73.81-1.1-.07-.26-.13-.51-.21-.77l.15-.16,0,0,.3-.42L152,103a1.46,1.46,0,0,0-.29-.26l-.06,0c.23-.43.45-.86.67-1.29s.51-1,.78-1.49a4.41,4.41,0,0,0,.76,1l.16.16.12-.13c.15-.27.3-.53.44-.8a2.61,2.61,0,0,1-.79-1.34,8.88,8.88,0,0,1,1.08-1.33l-.74-.74c-.18.18-.35.37-.51.56a6.14,6.14,0,0,0-.32-1.34,4,4,0,0,0-.24-.52l1,.15a24.45,24.45,0,0,0,2.46.31c.13-.35.25-.69.36-1a21.13,21.13,0,0,1-2.65-.31c-.52-.09-1.06-.17-1.59-.24a37.27,37.27,0,0,1,4.06-2.58c.16.85.26,1.75.34,2.59.06-.19.12-.38.17-.57.21-.44.43-.87.66-1.31-.06-.42-.13-.84-.21-1.25l1-.57-.5-.92-.82.44c-.08-.24-.16-.47-.25-.69a5.42,5.42,0,0,0-4-3.15,8.93,8.93,0,0,0,1.35-3.53l-.49-.53-.51,0A7.83,7.83,0,0,1,152,86.06l-.35-.08a10.22,10.22,0,0,1-3.69-1.3,2.48,2.48,0,0,1-.71-.82c.47-.47,1-.9,1.5-1.33a13.28,13.28,0,0,0,2.7-2.74l-.79-.71a11.92,11.92,0,0,1-2.58,2.64c-.33.27-.65.54-1,.83,0-.35,0-.7,0-1.05,0,0,0-.09,0-.14,1-.92,2-1.86,2.92-2.82l-.81-.68c-.7.69-1.4,1.37-2.1,2a31.11,31.11,0,0,1,.23-3.5l-1-.7a26.25,26.25,0,0,0-.29,3.32c0-.28-.06-.55-.08-.81-.1-1-.2-1.91-.35-2.67l-.09-.4-.62-.41-.48.28c.05.24.11.48.16.73.14.7.23,1.61.33,2.57s.22,2.19.42,3.24c-.87.82-1.72,1.65-2.55,2.48-.32-1.05-.62-2.11-.89-3.17a20.12,20.12,0,0,0,1.38-5.2l-1.13.61a18.15,18.15,0,0,1-.7,2.79q-.27-1.11-.5-2.19l-1,.48a15.58,15.58,0,0,1,.13,5.13c-.18.39-.38.77-.57,1.14-.13-.62-.24-1.24-.34-1.81s-.15-.86-.22-1.22a12.8,12.8,0,0,1-.14-2.74l-1.06.4a12.26,12.26,0,0,0,.17,2.54c.07.36.14.77.22,1.2.13.76.28,1.58.46,2.39a5.56,5.56,0,0,1-2,.45l0-.17c0-.22.05-.45.08-.69.22-1.8.48-3.74.85-5.65l-.08,0-.08,0h0l-1,.44c-.31,1.71-.53,3.42-.73,5,0,.24-.05.47-.08.7l0,.33h-1.22a18.87,18.87,0,0,0-2.64.07c0-.91,0-1.83,0-2.37s0-.84,0-1.17l-1.05.69c0,.15,0,.3,0,.46,0,1,0,1.85,0,2.62a3.39,3.39,0,0,0-1.93,1.71l-.29-.55-.09-.17a22.13,22.13,0,0,0,1.88-3.7l0-.1q-.86.6-1.71,1.26a16.34,16.34,0,0,1-.78,1.47l-.31-.6-.82.69.47.91c-.95,1.38-2.19,3.34-1,5A6.29,6.29,0,0,1,125,92.79a52.42,52.42,0,0,1,.42-6.38v-.13c-.39.37-.79.74-1.17,1.13a39.43,39.43,0,0,0-.26,6.45c-.84.84-1.8,1.65-2.62,2.35-.44.37-.84.72-1.17,1-.62.56-1.18,1-1.69,1.44.06-.87.16-1.75.25-2.61s.17-1.59.24-2.39q-.65.94-1.24,1.89l0,.38c-.12,1.16-.25,2.34-.31,3.52l-.32.2a8.08,8.08,0,0,1-.77.4c-.1-.48-.18-1-.26-1.43-.27.55-.52,1.1-.76,1.64,0,.08,0,.15,0,.23l-.18.08-.17.4,0,0q-.2.59-.44,1.19a6,6,0,0,1,1.06-.62,9.55,9.55,0,0,0,2,4l.44.46c-.15.2-.3.4-.48.6s-.51.56-.77.83a11.11,11.11,0,0,0-2.25,3l.67.3c-.61.74-1.25,1.46-1.92,2.14l.74.74a48.14,48.14,0,0,0,3.73-4.4c.52-.66,1-1.32,1.55-2l.07.07c-.35.46-.68.92-1,1.39a20.27,20.27,0,0,0-2.26,5.1l1,.33a19.47,19.47,0,0,1,2.14-4.85c.25-.38.51-.74.79-1.11a12.45,12.45,0,0,0,1.4,1.53c-.58,2.16-2.32,4.45-3.88,6.5-.55.72-1.07,1.41-1.5,2l.87.59c.42-.62.93-1.29,1.47-2a24.39,24.39,0,0,0,3.92-6.41q.31.24.64.45a5,5,0,0,1,.95,2.85c0,.19,0,.39.07.59-.23.56-.44,1.13-.66,1.71s-.49,1.3-.76,2l1,.4c.28-.68.53-1.34.77-2l.11-.28a6.11,6.11,0,0,0,.39.84c.1.18.22.36.33.54a4.38,4.38,0,0,0-.37.45,7.45,7.45,0,0,0-1,1c-.15.17-.3.34-.45.48l.58.58a18.34,18.34,0,0,0-.34,2.65c-.05.67-.11,1.36-.21,2l1.15-.73c0-.41.08-.81.11-1.21a8.52,8.52,0,0,1,.93-4l.28-.15a32.16,32.16,0,0,0,2.56,3.17l1-.5a32.61,32.61,0,0,1-2.51-3,3.76,3.76,0,0,0,1.23-.61,2.39,2.39,0,0,0,.57-.65,12.59,12.59,0,0,1,1.32-.07,10.3,10.3,0,0,0-.14,4.14l1-.46a9.6,9.6,0,0,1,.24-3.69l1,0a8,8,0,0,0,.36,1.39,9.06,9.06,0,0,0,.71,1.42l.38-.13,0,0,.62-.26a8.65,8.65,0,0,1-.7-1.37,6.73,6.73,0,0,1-.3-1.15l.35-.07c.76.58,1.51,1.2,2.26,1.85l1-.52c-.71-.63-1.44-1.25-2.17-1.82l.19-.16a2.24,2.24,0,0,0,.46-1.45,2.75,2.75,0,0,1,.09-.61,7.19,7.19,0,0,1,1.57-2.23,16.83,16.83,0,0,0,1.59,3.07v0a33.5,33.5,0,0,0-1.74,3.18c.55-.29,1.09-.59,1.64-.91.24-.44.48-.88.73-1.3l.4.61.88-.58-.66-1a27.06,27.06,0,0,1,1.8-2.46,15.63,15.63,0,0,0,.72,2.14l.86-.67a11.46,11.46,0,0,1-.71-2.47c.24-.26.49-.52.73-.76a18.23,18.23,0,0,1,1.74-1.48c.14.41.28.81.42,1.15s.27.67.42,1l.09.22.82-.78C146.44,110.3,146.32,110,146.21,109.73ZM127.22,88c.15-.28.32-.56.5-.84l.16.3A2.53,2.53,0,0,0,127.22,88Zm24.46,7.31a3.64,3.64,0,0,1,.61,1A5.94,5.94,0,0,1,152.6,98c0,.18,0,.36,0,.54-.49.77-.9,1.58-1.3,2.37l-.36.71a43.48,43.48,0,0,0-1.68-4.14,13.74,13.74,0,0,1,2.11-2.25h.26Zm4.47-5.4a7.08,7.08,0,0,1,.27.8,37.42,37.42,0,0,0-4.76,3.06c-.42-.39-.86-.75-1.27-1.08l-.32-.26a17.43,17.43,0,0,1-1.33-1.26l-.05-.05a23.92,23.92,0,0,0,3.77-3.85C154.08,87.64,155.43,88.2,156.15,89.89Zm-7.34,6.6-.12-.24-.32-.62a9.18,9.18,0,0,1,1.49-.3A14.24,14.24,0,0,0,148.8,96.49Zm-.92-4.72.12.12a18.77,18.77,0,0,0,1.41,1.33l.32.26c.29.23.6.48.89.74a10.46,10.46,0,0,0-2.77.46c-.33-.59-.72-1.27-1.16-2Zm-2.82,2.15.79-.59c.35.57.69,1.15,1,1.72a11,11,0,0,0-2.36,1.39,3.9,3.9,0,0,0-1.61,3.47,10.7,10.7,0,0,1-.15,1.46,2.7,2.7,0,0,1-.2.62h0a3.39,3.39,0,0,0-1.32-.57l-.09,0c-.07-.61-.2-1.23-.32-1.81a14.26,14.26,0,0,1-.28-1.65,7.23,7.23,0,0,1,0-.94l.54-.33c1-.6,2-1.22,2.95-1.94Zm-15.48,16.91a14.75,14.75,0,0,1,5.2-5.33c.19.55.38,1.11.55,1.66a39.72,39.72,0,0,0-3.17,4.45C131.54,110.52,130.52,110.61,129.58,110.83Zm1.87,1.8c0,.05,0,.11,0,.16-.16.31-.31.61-.46.92a16.17,16.17,0,0,0-2-.82,4.47,4.47,0,0,1,0-.63c0-.08,0-.16,0-.25l.29-.07C130.78,111.61,131.15,111.56,131.46,112.63Zm3.92-15.05c.81-.45,1.66-.84,2.51-1.2.07.29.12.62.18,1l-.58.43a3.66,3.66,0,0,0-1.7,3,6.93,6.93,0,0,1-.26,1.32,3,3,0,0,1-.64,1c-.19-.34-.4-.66-.62-1l-.36-.56a7.77,7.77,0,0,1-.52-1,2.89,2.89,0,0,0,.27-.18A6.12,6.12,0,0,0,135.38,97.58Zm.47-1.43a15.16,15.16,0,0,1,.66-1.84c.17-.35.34-.69.52-1,.24.73.43,1.45.6,2.07C137,95.6,136.43,95.87,135.85,96.15ZM133,99.53l-.06-.2.22-.21q.29-.26.59-.49A3.3,3.3,0,0,1,133,99.53Zm2.82-9.09a12.37,12.37,0,0,1,.72,1.52c-.35.61-.68,1.25-1,1.9a16,16,0,0,0-.73,2c-.1.32-.2.65-.31,1a12.61,12.61,0,0,0-1.83,1.29c-.07-.39-.13-.79-.19-1.21s-.12-.83-.2-1.26a16.18,16.18,0,0,0-.38-1.61l.85-.74A37.78,37.78,0,0,0,135.83,90.44Zm8.43.54a8.66,8.66,0,0,1-2.94,2.67,26.83,26.83,0,0,1,2-3.81C143.66,90.19,144,90.57,144.27,91Zm.25-1.41a2.43,2.43,0,0,0,.41.24l-.08.17Zm-5,6.81-.49.31q-.07-.39-.15-.73l.76-.33C139.58,95.88,139.54,96.13,139.51,96.38Zm.45-2-1.37.6c-.24-.89-.52-1.89-.88-2.88a31.46,31.46,0,0,1,3-4.16c.52,0,1.19.4,1.93,1.14A24.32,24.32,0,0,0,140,94.33Zm-13.67,9-.65.07a10.56,10.56,0,0,1,1.35-1.9l.19-.05h0l.33.28.4-.33.2-.16.73-.11a9,9,0,0,1,1.47,0h.38a5,5,0,0,1-.49.74C129.23,103,127.87,103.17,126.3,103.32Zm15-8.46a10.09,10.09,0,0,0,3.63-3l.37.55-.85.63-1.07.8c-.85.65-1.78,1.22-2.68,1.77,0-.19.09-.38.14-.57Zm4.65-4.73.2.1a7.9,7.9,0,0,1,1,.8l-1,.78-.59-.88C145.68,90.67,145.82,90.4,145.94,90.13ZM139.47,98a14.74,14.74,0,0,0,.3,1.78l.14.7a8.3,8.3,0,0,1-.72-2.67l.26-.17C139.46,97.78,139.46,97.9,139.47,98Zm-2.65,2.84a2.68,2.68,0,0,1,1.3-2.26l.12-.09a5.43,5.43,0,0,0,1.39,3.29,2.59,2.59,0,0,0,.49.34,3.21,3.21,0,0,1-.18,1.19c-.38,0-.79.08-1.24.11a13.07,13.07,0,0,0-2.66.36,6.21,6.21,0,0,0-.63.22,4.37,4.37,0,0,0,1.1-1.65A7.92,7.92,0,0,0,136.82,100.86Zm2.21,3.6a11.62,11.62,0,0,1-1.29.82,11.94,11.94,0,0,0-1.58,1c-.14-.43-.28-.86-.44-1.3a5.3,5.3,0,0,1,.6-.22,12.33,12.33,0,0,1,2.45-.32Zm-11,8.06-.64-.25a5,5,0,0,0,.67,0C128,112.33,128,112.43,128,112.52Zm13.15-10a2.18,2.18,0,0,1,.68.31,2.89,2.89,0,0,1-.75.33A4.82,4.82,0,0,0,141.16,102.49Zm6.2-16.94a10.76,10.76,0,0,0,4,1.44,24.75,24.75,0,0,1-3.38,3.37,9.24,9.24,0,0,0-1.23-1,2.11,2.11,0,0,0-.4-.2,16.3,16.3,0,0,0,.71-3.89A3.06,3.06,0,0,0,147.37,85.55Zm-2.06,3.28a1.55,1.55,0,0,1-.37-.26,3.41,3.41,0,0,1-.45-.52c.49-.79,1-1.55,1.35-2.31l.09-.17A14.31,14.31,0,0,1,145.31,88.83Zm-2.06-.78-.06.09A5.36,5.36,0,0,0,141.49,87l.89-1A11.75,11.75,0,0,0,143.25,88.05Zm2.42-5.32a8.45,8.45,0,0,0,.32.94,8.35,8.35,0,0,0-1.08,1.58c-.3.58-.65,1.16-1,1.76a14,14,0,0,1-.65-1.7l0-.15C144,84.35,144.83,83.54,145.67,82.74Zm-5.94,4.68a32.89,32.89,0,0,0-2.52,3.43,11,11,0,0,0-.64-1.21,30.58,30.58,0,0,0,2.62-3.36A6.78,6.78,0,0,0,139.74,87.42ZM142,84.88q-.79.83-1.55,1.68a8.52,8.52,0,0,1-.55-1.44l.26-.47.17-.3a4,4,0,0,0,.75-1.46l0-.09.17-.37C141.52,83.24,141.76,84.07,142,84.88ZM128.23,96.2a18.66,18.66,0,0,1,.51-5.57c.05-.22.1-.45.15-.68l.09-.4a30.36,30.36,0,0,1,1.76,4.18Q129.41,94.94,128.23,96.2Zm1.18-8.11a9.72,9.72,0,0,1,2.39.44l.82.21a4.21,4.21,0,0,0,1.92.09,4.23,4.23,0,0,1,.7.71,36.56,36.56,0,0,1-3.14,3l-.52.45A37,37,0,0,0,129.41,88.09Zm9-2.51A29.18,29.18,0,0,1,136,88.76a5.46,5.46,0,0,0-.41-.44,4,4,0,0,0,1-2.43A8.28,8.28,0,0,0,138.4,85.58Zm-4,.32h1.1a2.6,2.6,0,0,1-.75,1.73l0,0-.15-.09a2.7,2.7,0,0,0-1.56-.13,1.61,1.61,0,0,1-.8,0l0,0a3,3,0,0,1-.34-1.45A17.19,17.19,0,0,1,134.36,85.9Zm-3.59.35a6.65,6.65,0,0,0,.17,1,8.16,8.16,0,0,0-1.09-.17A2.34,2.34,0,0,1,130.77,86.25Zm-3.25,3.32a2.46,2.46,0,0,1,.63-1c-.11.41-.2.82-.28,1.21,0,.22-.09.44-.14.66a19.38,19.38,0,0,0-.44,6.87c-.37.42-.72.85-1.07,1.28a9.7,9.7,0,0,1-.86-2.51l.16-.25a18.73,18.73,0,0,0,1.35-2.32,5.65,5.65,0,0,0,.44-2.31c0-.12,0-.23,0-.35v0h0A4.25,4.25,0,0,1,127.51,89.57Zm-2.4,4.89,0-.2.37-.4Zm-8.51,6.64c.27-.12.55-.26.82-.41,0,.28,0,.55,0,.83a10.64,10.64,0,0,0,.56,2.81A9.5,9.5,0,0,1,116.61,101.1Zm1.89.36c0-.47,0-1,0-1.45a26.92,26.92,0,0,0,2.46-2c.33-.29.72-.63,1.15-1,.64-.55,1.37-1.17,2.06-1.82,0,.21.06.42.1.62a13.48,13.48,0,0,0-1.15,2.13c-.22.53-.39,1.06-.56,1.57s-.33,1-.53,1.48a9.47,9.47,0,0,0-2.14,2.09c-.29.4-.54.81-.77,1.21A9.91,9.91,0,0,1,118.5,101.46Zm5.42-1.66-.45.25.07-.22c.16-.5.33-1,.54-1.51a9.53,9.53,0,0,1,.52-1.05,9.88,9.88,0,0,0,.81,2A8,8,0,0,0,123.92,99.8Zm-1.6,2.91a8.43,8.43,0,0,0,.54-1,15.14,15.14,0,0,1,1.55-.94l.27-.13-.21.29c-.17.25-.35.49-.52.73A14.23,14.23,0,0,0,122.32,102.71Zm-2.26,3.61q.38-.43.76-.84l-.73.89Zm5.8-5.57.28-.39.19.23Zm1.16-1a3.06,3.06,0,0,0,1.39-1.16l.11-.17,0-.2c0-.22-.07-.44-.1-.66q1.25-1.41,2.67-2.73c.08.33.16.66.21,1s.13.84.19,1.24c.1.67.2,1.32.34,2a6.71,6.71,0,0,0-.59,1l-.86,0a12.34,12.34,0,0,0-1.33,0l.15-.29-.76-.09a2,2,0,0,0-1.23.3Zm-2.35,2.64.47-.24q-.41.63-.82,1.41a6.26,6.26,0,0,0-.74.21C124,103.35,124.33,102.89,124.68,102.42Zm-3.87,4.73.48-.58a6.51,6.51,0,0,0,.16.79q.06.24.11.48Zm1.86,1.77a5.1,5.1,0,0,0-.2-1.82c-.22-.9-.33-1.31.65-1.91a3.93,3.93,0,0,1,.64-.32,9.68,9.68,0,0,0-.15,5l0,.14C123.33,109.61,123,109.26,122.67,108.92Zm2,2.84.07.07c.09.09.18.17.28.25l-.18.35A5.79,5.79,0,0,0,124.64,111.76Zm6-5.5c-.82.54-1.6,1-2.14,1.47a12.93,12.93,0,0,0-2.87,3.19l-.49-.16a3.11,3.11,0,0,1-.55-1.17,8.16,8.16,0,0,1,.37-5l0-.08c.44-.07.9-.12,1.37-.16,1.66-.16,3.37-.32,4.62-1.86a7,7,0,0,0,.87-1.44,4.39,4.39,0,0,0,.54-.1,8.69,8.69,0,0,0,.59,1.11l.37.57c.26.4.5.77.71,1.17A33.74,33.74,0,0,1,130.66,106.26Zm-3.91,4.9a11.86,11.86,0,0,1,2.43-2.61c.39-.31.94-.68,1.54-1.08a11.51,11.51,0,0,0-2.41,3.65,4.21,4.21,0,0,1-1.16.08Zm-.8,5.6-.22-.38a5.7,5.7,0,0,1-.66-2c.24-.58.49-1.15.78-1.7a13.12,13.12,0,0,0,2.16,1c0,.07,0,.14,0,.21a6.45,6.45,0,0,1-.12,2.09A6.46,6.46,0,0,0,126,116.76Zm3.07-1a8.44,8.44,0,0,0,.06-1.75,12.14,12.14,0,0,1,1.54.66q-.21.52-.37,1C129.82,115.74,129.4,115.75,129,115.77Zm2.34-.06.18-.49.32.21c0,.09,0,.17,0,.26Zm2.76-1.35a2,2,0,0,1-.16.8,1.13,1.13,0,0,1-.34.22l-.76-.54a16.57,16.57,0,0,0-.25-1.89,33.88,33.88,0,0,1,3.1-4.57c.22.72.45,1.44.71,2.17a8.73,8.73,0,0,0-2.14,2.91A3.31,3.31,0,0,0,134.12,114.36Zm5.29-5.91a10.83,10.83,0,0,0-2.13,1.36c-.24-.7-.46-1.41-.69-2.14l-.08-.25a8.61,8.61,0,0,1,1.76-1.22,6.52,6.52,0,0,0,2.35-1.9,4.59,4.59,0,0,0,2-.75,11.57,11.57,0,0,1,1.46,3.11A3.46,3.46,0,0,0,141.8,108,7.15,7.15,0,0,0,139.41,108.44Zm-1.75,2.41a10.18,10.18,0,0,1,2.2-1.45,5,5,0,0,1,1.5-.34,4.9,4.9,0,0,0-.1.71,7.28,7.28,0,0,0,0,1.1,26.86,26.86,0,0,0-2.2,2.85A16.88,16.88,0,0,1,137.66,110.85Zm5-1.9.55,0c-.3.26-.6.53-.89.81l-.06.06a3.23,3.23,0,0,1,.16-.81Zm1.1-1.13.6-.16,0,.08Zm3.1-1.83a10.19,10.19,0,0,1-1.79.46,12.09,12.09,0,0,0-1.78-3.69,3.52,3.52,0,0,0,.44-1.18,11.39,11.39,0,0,0,.17-1.61,2.88,2.88,0,0,1,1.21-2.69A9.94,9.94,0,0,1,147.36,96l.39.75.36.72a8.81,8.81,0,0,0-1.46,4.08,10.06,10.06,0,0,0,.17,2.15,9.82,9.82,0,0,1,.17,2.26Zm1.16-.6a15.42,15.42,0,0,0-.2-1.85,9.38,9.38,0,0,1-.16-1.91,7.62,7.62,0,0,1,.94-3,41.49,41.49,0,0,1,1.66,4.33A7.5,7.5,0,0,1,148.05,105.39Z"/><path class="cls-3" d="M112.71,106.18a73.48,73.48,0,0,1-5.44,9.24A34,34,0,0,0,119.43,127a67.82,67.82,0,0,1,9.44-5.57A49.41,49.41,0,0,1,112.71,106.18Z"/><path class="cls-4" d="M136.32,65.68a31.7,31.7,0,1,1-31.7,31.7,31.74,31.74,0,0,1,31.7-31.7m0-3.37a35.08,35.08,0,1,0,35.08,35.08A35.08,35.08,0,0,0,136.32,62.3Z"/><circle class="cls-5" cx="243.58" cy="89.4" r="34.34"/><path class="cls-6" d="M250.42,58.23c3.81,1.58,7.54,2,10,1.23a34.15,34.15,0,0,0-15.27-4.37A20.7,20.7,0,0,0,250.42,58.23Z"/><path class="cls-6" d="M237.2,60.49a97,97,0,0,0,33.48,7.84,34.19,34.19,0,0,0-2.29-2.65,95.83,95.83,0,0,1-34.11-9.34,34.19,34.19,0,0,0-3.43,1.16C232.8,58.5,234.92,59.51,237.2,60.49Z"/><path class="cls-6" d="M234.06,69.89a94.33,94.33,0,0,0,38.29,8.37q1.82,0,3.68-.08-.44-1.26-1-2.48c-22.73.72-41.11-7.87-51.48-14.22q-1.11.8-2.15,1.67A102.31,102.31,0,0,0,234.06,69.89Z"/><path class="cls-6" d="M269.23,89q4.22,0,8.67-.44c0-.84-.06-1.68-.14-2.51-29.46,3-52.54-10.31-61.94-16.87q-.75,1-1.42,2.11a99.77,99.77,0,0,0,16.54,9.35A94.33,94.33,0,0,0,269.23,89Z"/><path class="cls-6" d="M227.81,90.5a94.33,94.33,0,0,0,38.29,8.37,87.46,87.46,0,0,0,10.67-.66c.23-.85.41-1.72.58-2.6C244.85,100,219.65,84.18,211.19,78q-.44,1.26-.79,2.56A99.21,99.21,0,0,0,227.81,90.5Z"/><path class="cls-6" d="M209.38,92.57a99.73,99.73,0,0,0,16.86,9.57,94.32,94.32,0,0,0,38.29,8.37q3.09,0,6.29-.23,1-1.29,1.86-2.67c-31.51,3-55.65-12.47-63.46-18.28,0,0,0,0,0,.07C209.23,90.47,209.29,91.53,209.38,92.57Z"/><path class="cls-6" d="M223.9,113.79a95.7,95.7,0,0,0,30.94,8,34.07,34.07,0,0,0,5.07-2.23c-20.69-.56-37.32-8.56-46.85-14.46a34.24,34.24,0,0,0,2.9,4.67C218.33,111.14,221,112.49,223.9,113.79Z"/><rect class="cls-6" x="343.17" y="15.89" width="8.5" height="100.23"/><path class="cls-7" d="M291.19,64.62c.92.24,1.95,6.72,2.7,7.8,1.77,2.56,5,3,7.79,2.12,5.78-1.75,6.55-2.65,6.55-2.65s2.83,9.5,1.75,12.06-15.61,17.94-15.2,29a97.66,97.66,0,0,0,1.74,14.55c7.54,1.08,19.3,1.45,30.57-4.54l.21-.42s18.17-23.65,4.19-35.34l-5.72-7.06c-.14-1.7-2.94-9.36-2.16-11.85s.23-1.79,1.28-4.9c3.55-10.49,11.72-21.91,2.16-34.33,0,0-5.81-10.73-22.61-8.36,0,0-22.38,3.13-18.44,24.36,0,0,5.07,9.36,1.9,15.2a2,2,0,0,0,.73,3.33Z"/><path class="cls-8" d="M288.29,34.77s14.64,17.26,26,14.06c0,0,6.57-4,6.88,4.89s-3.34,4.18-3.34,4.18-.77,9.5,4.95,10.78c0,0,25.94-12.16,6.48-40.53,0,0-9.93-12.29-24.68-9.53-14.46,2.71-29.07,9.63-19.93,26.43.18.33,1.33,0,1.33,0a17.26,17.26,0,0,1-.41-5.93A6.28,6.28,0,0,1,288.29,34.77Z"/><circle class="cls-6" cx="333.08" cy="73.22" r="10.09"/><path class="cls-9" d="M341,111.25c-1.45-9.86-4.36-20.36-10.12-26.13L328.16,83c-5.35,7.89-12.66,12.76-20.72,12.76a20.16,20.16,0,0,1-6-.92c-4,5.73-7.91,12.6-8.2,18.19s-.24,10.45-.12,13.89C302.67,128.73,325,131.2,341,111.25Z"/><path class="cls-10" d="M195.9,62.52c1.7.54,3.34.19,3.64-.76s-.84-2.17-2.54-2.71L159.38,47.2c-1.7-.54-3.34-.19-3.64.76s.84,2.17,2.54,2.71Z"/><rect class="cls-11" x="159.66" y="47.62" width="13.72" height="8.29" rx="2.53" ry="2.53" transform="translate(67.14 195.06) rotate(-72.53)"/><rect class="cls-12" x="155.01" y="46.06" width="13.72" height="8.29" rx="2.53" ry="2.53" transform="translate(65.37 189.52) rotate(-72.52)"/><rect class="cls-11" x="159.08" y="49.49" width="13.69" height="4.02" transform="translate(69.6 196.08) rotate(-73.57)"/><rect class="cls-11" x="186.74" y="55.61" width="13.72" height="8.29" rx="2.53" ry="2.53" transform="matrix(0.3, -0.95, 0.95, 0.3, 78.45, 226.47)"/><rect class="cls-12" x="182.09" y="54.05" width="13.72" height="8.29" rx="2.53" ry="2.53" transform="translate(76.69 220.93) rotate(-72.52)"/><rect class="cls-11" x="186.16" y="57.47" width="13.69" height="4.02" transform="translate(81.35 227.77) rotate(-73.56)"/><path class="cls-10" d="M183.34,44.08c1.34,1.18,3,1.53,3.63.78s.11-2.33-1.23-3.51L156.13,15.29c-1.34-1.18-3-1.53-3.64-.78s-.11,2.33,1.23,3.51Z"/><rect class="cls-11" x="153.96" y="18.21" width="13.72" height="8.29" rx="2.53" ry="2.53" transform="translate(37.81 128.34) rotate(-48.66)"/><rect class="cls-12" x="150.33" y="14.9" width="13.72" height="8.29" rx="2.53" ry="2.53" transform="translate(39.06 124.48) rotate(-48.66)"/><rect class="cls-11" x="153.54" y="19.86" width="13.69" height="4.02" transform="translate(39.98 130.05) rotate(-49.7)"/><rect class="cls-11" x="175.49" y="36.47" width="13.72" height="8.29" rx="2.53" ry="2.53" transform="translate(31.41 150.7) rotate(-48.66)"/><rect class="cls-12" x="171.87" y="33.16" width="13.73" height="8.29" rx="2.53" ry="2.53" transform="translate(32.67 146.85) rotate(-48.66)"/><rect class="cls-11" x="175.07" y="38.12" width="13.69" height="4.02" transform="translate(33.65 152.91) rotate(-49.7)"/><circle class="cls-13" cx="205.69" cy="111.62" r="14.08"/><circle class="cls-2" cx="205.69" cy="111.62" r="5.57"/></svg>