<svg id="Ebene_1" data-name="Ebene 1" xmlns="http://www.w3.org/2000/svg" width="375" height="140" viewBox="0 0 375 140"><defs><style>.cls-1,.cls-6{fill:#93c;}.cls-1{opacity:0.2;}.cls-2{fill:#f4d6c8;}.cls-3{fill:#4a5f86;}.cls-4{fill:#b2b3e4;}.cls-5{fill:#3c3c3c;}.cls-7{fill:#767777;}.cls-8{fill:#6ac8c4;}.cls-9{fill:#c1c1c1;}.cls-10{fill:#d3d4f2;}.cls-11{fill:#9c8d85;}.cls-12{fill:#fff;}.cls-13{fill:#e49ec2;}.cls-14{fill:#e1beb0;}.cls-15{fill:#f6f291;}.cls-16{fill:#ad6ecf;}</style></defs><title>Zeichenfläche 2 Kopie 13</title><rect class="cls-1" width="375" height="140"/><ellipse class="cls-2" cx="54.21" cy="31.34" rx="16.43" ry="23.04" transform="translate(-7.55 21.03) rotate(-20.56)"/><path class="cls-3" d="M37.56,128a40,40,0,0,0,37.54-.73c.63-13.58-1.55-32.45-1.56-32.72-.5-11.16-1.77-23.42-5.33-28.78-3.77-5.68-2.69-2-3.54-3.4-2.1-3.32-19.1-2.87-23-3.07l-1.8.74s-12,5.29.55,38.07c1.62,4.23,1.59,9,1.18,13.4A54.5,54.5,0,0,1,37.56,128Z"/><path class="cls-4" d="M29.69,118c-4-.88-6.66-9.41-2.9-26.48A108.15,108.15,0,0,1,32.1,73.93c1.75-4.3,2.94-9.36,8.26-11a12,12,0,0,1,11,2.9c4.36,4.54-3.21,14.87-5.3,20.73C40.16,103.06,33.65,118.91,29.69,118Z"/><path class="cls-5" d="M62.77,17.24a8.67,8.67,0,0,1,5-1.44s-1.67-2.34-3.11-2c0,0,2.19-2.13,2.24-2.78.07-1-8.78-2.18-9.59-2.31-4.49-.74-9.5-1-13.87.49a21.82,21.82,0,0,0-7.41,4.56c-1.72,1.56-4.61,4.21-5.18,6.56-6.24,25.57,18.3,30.4,18.3,30.4,3-2.28.36-11,.34-11,.08.26-2.25,0-2.41-.1a4.51,4.51,0,0,1-2.22-1.92c-1-1.62-1.54-4,.16-5.42,2.13-1.76,4.5,1.47,5.62,2.9.93,1.2,1.5,1.32,3,1.06a61.7,61.7,0,0,1,1.69-7.12,40.53,40.53,0,0,1,4.45-7.35C60.58,20.7,61.69,17.9,62.77,17.24Z"/><polygon class="cls-4" points="40.99 57.16 61.59 57.16 66.67 63.52 37.92 61.93 37.92 57.16 40.99 57.16"/><path class="cls-6" d="M43.91,50.74A18.57,18.57,0,0,0,26,64.68h3A15.62,15.62,0,1,1,47,84.6v3a18.55,18.55,0,0,0-3.13-36.83Z"/><polygon class="cls-6" points="32.66 64.68 27.56 71.06 22.46 64.68 32.66 64.68"/><path class="cls-4" d="M36.08,106.88Z"/><path class="cls-4" d="M63,131.66C44.42,108.83,36.6,107,36.08,106.88l-9.26,8.7L48,131.6a38.44,38.44,0,0,0,15,.05Z"/><rect class="cls-7" x="123.86" y="99.78" width="4.56" height="10.8" rx="0.5" ry="0.5"/><path class="cls-5" d="M126.33,93.26c-13.57,0-24.87-8.36-25-8.45-.52-.42-1.32-1.05-1-12.11l2.64.08a70.19,70.19,0,0,0,.21,10.13c1.59,1.12,11.43,7.71,23.11,7.71Z"/><path class="cls-5" d="M126.21,93.26c13.57,0,24.87-8.36,25-8.45.52-.42,1.32-1.05,1-12.11l-2.64.08a70.34,70.34,0,0,1-.21,10.13c-1.59,1.12-11.43,7.71-23.11,7.71Z"/><rect class="cls-5" x="123.38" y="64.9" width="5.68" height="36.71" rx="1.02" ry="1.02"/><rect class="cls-8" x="108.02" y="26.99" width="35.51" height="42.71" rx="4.8" ry="4.8"/><path class="cls-8" d="M147.85,81.06c-1.19-5.95-19.46-5.57-21.38-5.52s-20.19-.43-21.38,5.52c-1.16,5.75,9.5,9.17,20,9.51v0h2.84v0C138.35,90.23,149,86.81,147.85,81.06Z"/><rect class="cls-5" x="123.38" y="107.22" width="5.68" height="10.8" rx="0.55" ry="0.55"/><rect class="cls-5" x="125.13" y="110.42" width="2.5" height="10.8" rx="0.37" ry="0.37"/><path class="cls-5" d="M124.73,112.58l-20.64,5.76s-1.44,2.56.8,3,21.28-3,21.28-3Z"/><path class="cls-5" d="M127.16,112.58l20.64,5.76s1.44,2.56-.8,3-21.28-3-21.28-3Z"/><circle class="cls-7" cx="105.06" cy="124.89" r="3.12"/><circle class="cls-7" cx="146.57" cy="125.13" r="3.12"/><ellipse class="cls-7" cx="126.42" cy="125.13" rx="1.92" ry="3.12"/><rect class="cls-8" x="98.5" y="65.54" width="6.08" height="8" rx="2.56" ry="2.56"/><rect class="cls-8" x="147.7" y="65.54" width="6.08" height="8" rx="2.56" ry="2.56"/><rect class="cls-7" x="138.77" y="53.24" width="98.5" height="5.25"/><path class="cls-9" d="M211.7,49.42a2.78,2.78,0,0,1-2.81,3.82H200.2a2.78,2.78,0,0,1-2.81-3.82l2.12-6.8a5.23,5.23,0,0,1,10.07,0Z"/><rect class="cls-9" x="178.01" y="11.99" width="54.75" height="34.19" rx="3.11" ry="3.11"/><rect class="cls-10" x="181.01" y="14.1" width="48.75" height="27.15" rx="2.62" ry="2.62"/><path class="cls-11" d="M227.8,41.63H183a2.34,2.34,0,0,1-2.34-2.34V16.07A2.34,2.34,0,0,1,183,13.73H227.8a2.34,2.34,0,0,1,2.34,2.34V39.29A2.34,2.34,0,0,1,227.8,41.63ZM183,14.48a1.59,1.59,0,0,0-1.59,1.59V39.29A1.59,1.59,0,0,0,183,40.88H227.8a1.59,1.59,0,0,0,1.59-1.59V16.07a1.59,1.59,0,0,0-1.59-1.59Z"/><circle class="cls-12" cx="309.93" cy="66.07" r="46.86"/><path class="cls-2" d="M345.68,69.36a2,2,0,0,0,.18-.34c1.29-3.31,6-10.31,8.57-17.4a47.23,47.23,0,0,0-15-21.88,101.29,101.29,0,0,0-18.82-3.18V20.37a46.84,46.84,0,0,0-22.2,0v6.21a101.13,101.13,0,0,0-19,3.44,47.25,47.25,0,0,0-14.16,20.37c1.74,5.18,4.71,10.42,6.85,14.31,1.8,4.59,4.14,10.24,6.9,16.34,0,0,.18,11.52.13,20.86a46.86,46.86,0,0,0,30.25,11.25c0-2-.09-4-.12-6.12s0-4.23-.08-6.42,0-4.4,0-6.62,0-4.44,0-6.62.05-4.33.07-6.41c.06-4.16.16-8,.27-11.37s.26-6.1.34-8c.06-1.31.12-2.23.15-2.7q0-5.26,0-10.48V58.55s.08,1.11.17,3.05.23,4.71.33,8,.21,7.21.27,11.37c0,2.08,0,4.23.07,6.41s0,4.4,0,6.62,0,4.44,0,6.62-.05,4.33-.08,6.42-.07,4.16-.12,6.1a46.86,46.86,0,0,0,29.78-11.52c0-9.28.13-20.57.13-20.57C342.52,76.91,344.22,72.93,345.68,69.36Z"/><circle class="cls-13" cx="310.2" cy="30.11" r="4.99"/><path class="cls-13" d="M310.2,37.25a7.14,7.14,0,1,1,7.14-7.14A7.15,7.15,0,0,1,310.2,37.25Zm0-13.26a6.12,6.12,0,1,0,6.12,6.12A6.12,6.12,0,0,0,310.2,24Z"/><path class="cls-14" d="M276.8,60.72l.44.18c.29.12.71.31,1.25.49s1.21.38,2,.61,1.65.38,2.61.54,2,.27,3.12.36c.55,0,1.13,0,1.71.07s1.18,0,1.79,0a25.13,25.13,0,0,0,3.7-.44A14.49,14.49,0,0,0,297,61.34l.44-.19.41-.24.41-.24.21-.12h0l0,0,0,0,.05,0,.1-.08c.27-.22.58-.43.8-.65l.6-.64a15.58,15.58,0,0,0,2-3.33,37.12,37.12,0,0,0,1.38-3.61c.37-1.19.71-2.33,1-3.4.58-2.13,1.07-3.93,1.46-5.17.18-.63.36-1.11.48-1.44l.18-.5-.08.53c-.06.34-.12.85-.21,1.49-.18,1.28-.39,3.12-.76,5.32-.18,1.1-.41,2.3-.71,3.56a28.19,28.19,0,0,1-1.23,3.94,15.8,15.8,0,0,1-2.23,3.94l-.86.91c-.28.27-.55.46-.82.69l-.1.08-.05,0,0,0-.08.06h0l-.24.15-.49.29-.49.29-.5.23a16.32,16.32,0,0,1-4.09,1.24l-1,.15c-.34,0-.67.05-1,.08-.67.06-1.32,0-2,.05s-1.26-.05-1.88-.1-1.2-.15-1.78-.24a24.71,24.71,0,0,1-3.18-.74c-.48-.16-.95-.29-1.37-.46l-1.21-.5a17.15,17.15,0,0,1-1.89-1,9.59,9.59,0,0,1-1.13-.77Z"/><circle class="cls-13" cx="304.19" cy="58.55" r="3.88"/><path class="cls-13" d="M304.19,64.1a5.55,5.55,0,1,1,5.55-5.55A5.56,5.56,0,0,1,304.19,64.1Zm0-10.32A4.76,4.76,0,1,0,309,58.55,4.77,4.77,0,0,0,304.19,53.79Z"/><path class="cls-14" d="M344.63,60.72l-.44.18c-.29.12-.71.31-1.25.49s-1.21.38-2,.61-1.65.38-2.61.54-2,.27-3.12.36c-.56,0-1.13,0-1.71.07s-1.18,0-1.79,0a25.15,25.15,0,0,1-3.7-.44,14.54,14.54,0,0,1-3.63-1.16l-.44-.19-.41-.24-.41-.24-.2-.12h0l0,0,0,0-.05,0-.1-.08c-.27-.22-.58-.43-.8-.65l-.6-.64a15.62,15.62,0,0,1-2-3.33A37.11,37.11,0,0,1,318,52.22c-.37-1.19-.71-2.33-1-3.4-.58-2.13-1.07-3.93-1.46-5.17-.18-.63-.36-1.11-.48-1.44l-.18-.5.08.53c.06.34.12.85.21,1.49.18,1.28.39,3.12.76,5.32.18,1.1.41,2.3.71,3.56a28.56,28.56,0,0,0,1.23,3.94,15.85,15.85,0,0,0,2.23,3.94l.86.91c.28.27.55.46.82.69l.1.08.05,0,0,0,.08.06h0l.24.15.49.29.49.29.5.23a16.33,16.33,0,0,0,4.09,1.24l1,.15c.34,0,.67.05,1,.08.67.06,1.32,0,2,.05s1.27-.05,1.88-.1,1.2-.15,1.78-.24a24.72,24.72,0,0,0,3.18-.74c.48-.16.95-.29,1.37-.46l1.21-.5a17.12,17.12,0,0,0,1.89-1,9.59,9.59,0,0,0,1.13-.77Z"/><path class="cls-15" d="M310,113V46.73C310,68.45,310,91,310,113Z"/><path class="cls-14" d="M308.88,105.24c.06,2.74.15,5.35.24,7.76l.55.15c.43-.08.86-.16,1.31-.23.1-2.4.18-5,.24-7.69,0-2.07.07-4.22.11-6.4s0-4.39,0-6.6,0-4.43,0-6.6-.08-4.32-.12-6.4c-.09-4.15-.24-8-.41-11.34s-.39-6.09-.5-8-.26-3-.26-3-.12,1.11-.26,3-.35,4.7-.5,8-.31,7.19-.41,11.34c0,2.07-.08,4.22-.11,6.4s0,4.39,0,6.6,0,4.43,0,6.6S308.84,103.16,308.88,105.24Z"/><circle class="cls-13" cx="309.86" cy="105.1" r="5.67"/><path class="cls-13" d="M309.86,113.22A8.11,8.11,0,1,1,318,105.1,8.12,8.12,0,0,1,309.86,113.22Zm0-15.07a7,7,0,1,0,7,7A7,7,0,0,0,309.86,98.15Z"/><polygon class="cls-12" points="282.57 116.56 260.63 119.46 248.06 109.86 249.32 87.64 284.4 88.6 282.57 116.56"/><path class="cls-16" d="M266.87,79a22.66,22.66,0,1,0,22.53,22.8A22.66,22.66,0,0,0,266.87,79ZM264,116.6,250.4,102.52l3.35-2.65,8,6.38a82.47,82.47,0,0,1,20.43-17.54l1,1.67C273.75,99,266.34,110.61,264,116.6Z"/></svg>