<svg id="Ebene_1" data-name="Ebene 1" xmlns="http://www.w3.org/2000/svg" width="375" height="140" viewBox="0 0 375 140"><defs><style>.cls-1{fill:#fcf3cc;}.cls-2{fill:#fff;}.cls-3{fill:#f4d6c8;}.cls-4{fill:#f6f291;}.cls-5{fill:#e1beb0;}.cls-6{fill:#eb5a8a;}.cls-7{fill:#e30613;}.cls-8{fill:#4a5f86;}.cls-9{fill:#767777;}.cls-10{fill:#264a60;}</style></defs><title>Zeichenfläche 2 Kopie 7</title><rect class="cls-1" width="375" height="140"/><circle class="cls-2" cx="286.53" cy="70.75" r="58.65"/><path class="cls-3" d="M337.4,45.22a16.85,16.85,0,0,1-4-6.69,17,17,0,0,1-5.24-7.42,17.11,17.11,0,0,1-3-2.37,118.83,118.83,0,0,0-25.91-4.82V14.13a21.39,21.39,0,0,1-3.62-.36q-1.46-.24-1.65-.3c-.92-.09-1.84-.19-2.76-.25-2.56-.15-5.13-.26-7.7-.25-1.15,0-2.29,0-3.43.07a19.78,19.78,0,0,1-2.81,1.12A21.52,21.52,0,0,1,273,15V24a118.41,118.41,0,0,0-25.7,5,17.14,17.14,0,0,1-4.56,4.13A17.07,17.07,0,0,1,236.66,41c0,.06,0,.12,0,.18A16.48,16.48,0,0,1,233.39,51c2,6.51,5.81,13.21,8.5,18.11,2.13,5.43,4.89,12.12,8.16,19.33,0,0,.24,15.28.14,26.59A17.08,17.08,0,0,1,256,120.2a16.94,16.94,0,0,1,2.76,2.13c.49,0,1-.07,1.48-.07a16.68,16.68,0,0,1,12.62,5.89,16.18,16.18,0,0,1,13.59.42,15.94,15.94,0,0,1,9.89-.13,16.4,16.4,0,0,1,9-2.73c.24,0,.48,0,.72,0a16.62,16.62,0,0,1,8.66-3.91,17,17,0,0,1,8-5.86c-.12-11.39.13-27.53.13-27.53,2.25-5,4.25-9.67,6-13.89a2.28,2.28,0,0,0,.21-.41c1.77-4.52,8.84-14.83,11.37-24.41A17,17,0,0,1,337.4,45.22Z"/><path class="cls-4" d="M286.77,128.46V49.79c-.07,25.77-.07,52.5,0,78.68Z"/><path class="cls-5" d="M285.85,119.2c0,3.25.11,6.34.19,9.21l.43.18c.34-.1.68-.19,1-.27.08-2.84.14-5.91.19-9.12,0-2.46.06-5,.09-7.59s0-5.21,0-7.83,0-5.25,0-7.84-.06-5.13-.09-7.59c-.07-4.92-.19-9.52-.32-13.45s-.3-7.22-.4-9.52-.2-3.61-.2-3.61-.09,1.31-.2,3.61-.28,5.58-.4,9.52-.25,8.53-.32,13.45c0,2.46-.06,5-.09,7.59s0,5.21,0,7.84,0,5.25,0,7.83S285.82,116.74,285.85,119.2Z"/><circle class="cls-6" cx="286.53" cy="120.48" r="6.71"/><path class="cls-6" d="M286.53,130.08a9.6,9.6,0,1,1,9.6-9.6A9.61,9.61,0,0,1,286.53,130.08Zm0-17.83a8.23,8.23,0,1,0,8.23,8.22A8.24,8.24,0,0,0,286.53,112.26Z"/><circle class="cls-6" cx="286.94" cy="28.12" r="5.9"/><path class="cls-6" d="M286.94,36.57a8.45,8.45,0,1,1,8.45-8.45A8.45,8.45,0,0,1,286.94,36.57Zm0-15.69a7.24,7.24,0,1,0,7.24,7.24A7.25,7.25,0,0,0,286.94,20.88Z"/><path class="cls-1" d="M286.29,130.08a59.33,59.33,0,1,1,59.33-59.33A59.39,59.39,0,0,1,286.29,130.08Zm0-115A55.7,55.7,0,1,0,342,70.75,55.76,55.76,0,0,0,286.29,15.05Z"/><path class="cls-5" d="M247.42,64.34l.52.22c.34.14.84.37,1.48.58s1.43.45,2.33.72,2,.45,3.09.64,2.38.32,3.69.43c.66,0,1.34.06,2,.08s1.4,0,2.11,0a29.54,29.54,0,0,0,4.38-.52,17.14,17.14,0,0,0,4.3-1.37l.52-.23.48-.28.49-.28.24-.14h0l-.06,0,0,0,.06,0,.12-.1c.31-.26.68-.52,1-.77l.71-.75a18.45,18.45,0,0,0,2.42-3.93A44.07,44.07,0,0,0,279,54.28c.43-1.41.84-2.76,1.19-4,.69-2.52,1.26-4.65,1.72-6.12.22-.74.43-1.31.57-1.7l.21-.6-.09.63c-.07.41-.14,1-.25,1.76-.21,1.52-.46,3.69-.9,6.29-.21,1.3-.48,2.72-.84,4.21a33.63,33.63,0,0,1-1.46,4.66,18.67,18.67,0,0,1-2.64,4.67l-1,1.08c-.33.32-.65.54-1,.82l-.12.1-.06.05,0,0-.09.07h0l-.29.17-.58.35-.58.35-.6.28a19.33,19.33,0,0,1-4.84,1.46l-1.2.18c-.4.05-.79.06-1.19.09-.79.07-1.56.06-2.32.06s-1.5-.06-2.22-.11-1.42-.17-2.1-.28a29,29,0,0,1-3.76-.88c-.57-.19-1.12-.34-1.62-.54l-1.43-.59a20.42,20.42,0,0,1-2.23-1.17,11.49,11.49,0,0,1-1.34-.91Z"/><circle class="cls-6" cx="279.82" cy="61.77" r="4.59"/><path class="cls-6" d="M279.82,68.34a6.57,6.57,0,1,1,6.57-6.57A6.58,6.58,0,0,1,279.82,68.34Zm0-12.2a5.63,5.63,0,1,0,5.63,5.63A5.64,5.64,0,0,0,279.82,56.13Z"/><path class="cls-5" d="M327.66,64.34l-.52.22c-.34.14-.84.37-1.48.58s-1.43.45-2.33.72-2,.45-3.09.64-2.38.32-3.69.43c-.66,0-1.34.06-2,.08s-1.4,0-2.11,0a29.54,29.54,0,0,1-4.38-.52,17.14,17.14,0,0,1-4.3-1.37l-.52-.23-.48-.28-.49-.28-.24-.14h0l.06,0,0,0-.06,0-.12-.1c-.31-.26-.68-.52-1-.77l-.71-.75a18.49,18.49,0,0,1-2.42-3.93,44,44,0,0,1-1.64-4.27c-.43-1.41-.84-2.76-1.19-4-.69-2.52-1.26-4.65-1.72-6.12-.22-.74-.43-1.31-.57-1.7l-.21-.6.09.63c.07.41.14,1,.25,1.76.21,1.52.46,3.69.9,6.29.21,1.3.48,2.72.84,4.21A33.77,33.77,0,0,0,296,59.4a18.67,18.67,0,0,0,2.64,4.67l1,1.08c.33.32.65.54,1,.82l.12.1.06.05,0,0,.09.07h0l.29.17.58.35.58.35.6.28a19.33,19.33,0,0,0,4.84,1.46L309,69c.4.05.8.06,1.19.09.79.07,1.56.06,2.32.06s1.5-.06,2.22-.11,1.42-.17,2.1-.28a29,29,0,0,0,3.76-.88c.57-.19,1.12-.34,1.63-.54l1.43-.59a20.41,20.41,0,0,0,2.23-1.17,11.42,11.42,0,0,0,1.34-.91Z"/><polygon class="cls-2" points="352.28 117.58 330.34 120.48 317.77 110.88 319.03 88.66 354.11 89.62 352.28 117.58"/><path class="cls-7" d="M336.58,80a22.66,22.66,0,1,0,22.53,22.8A22.66,22.66,0,0,0,336.58,80Zm-2.89,37.64-13.58-14.08,3.35-2.65,8,6.38a82.47,82.47,0,0,1,20.43-17.54l1,1.67C343.46,100,336.05,111.63,333.69,117.62Z"/><rect class="cls-8" x="22.72" y="49.56" width="77.57" height="77.57" rx="12.41" ry="12.41"/><rect class="cls-2" x="54.06" y="54.97" width="4.81" height="11.94" rx="1.04" ry="1.04" transform="translate(-7.15 114.37) rotate(-87.2)"/><rect class="cls-2" x="58.82" y="64.11" width="4.81" height="11.94" rx="1.04" ry="1.04" transform="translate(-11.75 127.82) rotate(-87.2)"/><rect class="cls-2" x="62.13" y="73.24" width="4.81" height="11.94" rx="1.04" ry="1.04" transform="translate(-17.73 139.81) rotate(-87.2)"/><rect class="cls-2" x="64.16" y="82.38" width="4.81" height="11.94" rx="1.04" ry="1.04" transform="translate(-24.93 150.51) rotate(-87.2)"/><rect class="cls-2" x="62.13" y="91.51" width="4.81" height="11.94" rx="1.04" ry="1.04" transform="translate(-35.98 157.18) rotate(-87.2)"/><rect class="cls-2" x="58.08" y="100.65" width="4.81" height="11.94" rx="1.04" ry="1.04" transform="translate(-48.96 161.82) rotate(-87.2)"/><rect class="cls-2" x="54.03" y="109.78" width="4.81" height="11.94" rx="1.04" ry="1.04" transform="translate(-61.93 166.46) rotate(-87.2)"/><polygon class="cls-2" points="75.29 35.53 92.23 27.85 100.61 31.75 104.21 22.41 121.35 14.64 148.58 73.31 104.36 93.69 75.29 35.53"/><g id="gruppe-252-2"><path class="cls-9" d="M105,20.06A8.22,8.22,0,0,0,94.07,16h0a8,8,0,0,0-3.87,10.63l.08.17A8.09,8.09,0,1,0,105,20.06Zm-5.33,8A5.35,5.35,0,1,1,102.28,21,5.34,5.34,0,0,1,99.65,28.08Z"/><rect id="rechteck-28" class="cls-9" x="89.79" y="40.79" width="35.49" height="7.1" transform="translate(-8.69 48.91) rotate(-24.66)"/><rect id="rechteck-29" class="cls-9" x="94.86" y="52.92" width="25.56" height="7.09" transform="translate(-13.74 50.02) rotate(-24.64)"/><rect id="rechteck-30" class="cls-9" x="98.9" y="60.65" width="35.5" height="7.1" transform="translate(-16.14 54.5) rotate(-24.65)"/><path class="cls-9" d="M151.15,71,124.87,13.74s-1.77-3.86-5.64-2.09l-17.72,8.13a5.27,5.27,0,0,1,.77,1.21,5.35,5.35,0,1,1-10.13,3.09L74.86,32S71,33.78,72.77,37.65L99,94.92s1.78,3.87,5.65,2.1l44.37-20.36S152.92,74.88,151.15,71ZM103.43,90.77,78.77,37l8.81-4,7.7,7.46L112,32.74,111.41,22l10-4.6,24.66,53.74Z"/></g><path id="pfad-52" class="cls-10" d="M186.65,125.09a25.55,25.55,0,1,0-25.5-25.6h0a25.56,25.56,0,0,0,25.5,25.6"/><path id="pfad-53" class="cls-10" d="M186.55,72.59a7.8,7.8,0,1,0-7.8-7.8,7.81,7.81,0,0,0,7.8,7.8h0"/><path id="pfad-54" class="cls-1" d="M186.65,120.79a21.3,21.3,0,1,0-21.3-21.3,21.32,21.32,0,0,0,21.3,21.3h0"/><rect id="rechteck-4" class="cls-10" x="185.45" y="73.99" width="2.4" height="8.2"/><rect id="rechteck-5" class="cls-10" x="185.45" y="116.79" width="2.4" height="8.2"/><rect id="rechteck-6" class="cls-10" x="161.15" y="98.29" width="8.2" height="2.4"/><rect id="rechteck-7" class="cls-10" x="203.95" y="98.29" width="8.2" height="2.4"/><path id="pfad-56" class="cls-1" d="M186.55,71.09a6.3,6.3,0,1,0-6.3-6.3,6.27,6.27,0,0,0,6.3,6.3h0"/><rect id="rechteck-8" class="cls-10" x="184.85" y="65.99" width="3.4" height="9.2"/><rect id="rechteck-9" class="cls-10" x="201.88" y="76.85" width="5.4" height="3.4" transform="translate(16.73 191.4) rotate(-52)"/><rect id="rechteck-10" class="cls-10" x="183.15" y="63.59" width="6.7" height="4.3"/><rect id="rechteck-11" class="cls-10" x="204.24" y="72.83" width="4.3" height="6.7" transform="translate(19.3 191.92) rotate(-52)"/><rect class="cls-6" x="190.46" y="88.87" width="1.3" height="26.4" transform="translate(-2.03 200.24) rotate(-55.05)"/><path id="pfad-57" class="cls-6" d="M184.25,96.4l-3.75-3.89-1.93,2.79,5,2.15Z"/><path id="pfad-58" class="cls-6" d="M183.85,97a3.61,3.61,0,1,0,5-.91h0a3.62,3.62,0,0,0-5,.91"/><path id="pfad-59" class="cls-1" d="M185.36,98a1.77,1.77,0,1,0,2.46-.45h0a1.75,1.75,0,0,0-2.46.45"/></svg>