<svg id="Ebene_1" data-name="Ebene 1" xmlns="http://www.w3.org/2000/svg" width="375" height="140" viewBox="0 0 375 140"><defs><style>.cls-1{fill:#fcf3cc;}.cls-2{fill:#fdd600;}.cls-3{fill:#264a60;}.cls-4{fill:#e4003a;}.cls-5{fill:#eb5a8a;}.cls-6{fill:#1d1d1b;}.cls-7{fill:#30211e;}.cls-8{fill:#fff;}.cls-9{fill:#ffd791;}.cls-10{fill:#ad6ecf;}</style></defs><title>Zeichenfläche 2 Kopie</title><rect class="cls-1" width="375" height="140"/><path class="cls-2" d="M169.26,105.51a8.14,8.14,0,0,1-3.92-5.13,12.68,12.68,0,0,1-.17-3.83,8.14,8.14,0,0,1-2.17-4c-2.19-9.22,9.59-23.51,20.92-37.24.68-.76,1.28-1.56,2-2.32-4.24-6.37-3.8-15.89-.39-23.75,3.51-8,9.19-12.1,14.19-9.94a7.15,7.15,0,0,1,4.64,5.1l.17.69A7.16,7.16,0,0,1,208.71,30c1.46,6.34-5.37,16.24-14.21,27.15a23.13,23.13,0,0,0,4.77,1c1.21-3.59,2.4-7,3.66-10,1.65-4.14,4.71-6.74,8.6-7.21a11.34,11.34,0,0,1,10.17,4.43,11.21,11.21,0,0,1,2.19,5.5,21.23,21.23,0,0,0,2.82-3.56c5.21-8,11.48-7.94,15.3-5.55,4.24,2.65,6.51,9,3,14.93-4.1,6.87-12.79,21.25-12.79,21.25l-1.72-1s8.64-14.29,12.79-21.25c2.92-4.9,1.1-10.05-2.28-12.19l-.17-.1c-4.81-2.87-9.76.94-12.44,5a24.11,24.11,0,0,1-4.46,5.14,18.94,18.94,0,0,1-1.32,5.15c-1.77,3.95-7.28,16.5-7.38,16.67l-1.82-.85c.05-.09,5.69-12.67,7.38-16.67a10.66,10.66,0,0,0,.87-2.63c-6.47,4.41-14.49,5.56-20.91,5-1,3-1.89,6.09-2.87,9.12-5.25,17-10.21,33.14-18.71,37a9.61,9.61,0,0,1-8.33-.08A12.69,12.69,0,0,1,169.26,105.51Zm-2.15-7.33a7.46,7.46,0,0,0,.23,1.76c.43,2,1.9,3.46,4.2,4.48a7.67,7.67,0,0,0,6.67.14c7.71-3.55,12.74-20,17.63-35.82.93-2.94,1.82-5.79,2.75-8.72a22.15,22.15,0,0,1-5.37-1.34l-3.9,4.78c-1.28,16-2.89,31.8-10.12,36.11-2.67,1.55-5.86,1.63-9.55,0A14.78,14.78,0,0,1,167.11,98.18Zm.22-2.32a10.25,10.25,0,0,0,3,1.79c3.12,1.4,5.68,1.41,7.7.17,6-3.64,7.74-17.27,8.9-31.72C177.9,77.14,169,88.22,167.32,95.86Zm19.83-41.27c-.55.72-1.13,1.31-1.67,2-11,13.44-22.51,27.21-20.57,35.47a10.93,10.93,0,0,0,.79,2c2.46-8.43,11.57-19.41,21-30.91.1-.17.34-.38.44-.55a17.35,17.35,0,0,0,.11-2.14c.13-1.78.3-3.43.43-5.21A6.85,6.85,0,0,0,187.15,54.59Zm2.53,2.21c0,1-.2,2.09-.23,3.12.55-.72,1.18-1.39,1.78-2.2A5.42,5.42,0,0,1,189.68,56.8Zm.22-2.32a10.61,10.61,0,0,0,2.61,1.67c8.44-10.45,15.5-20.33,14.16-25.9a4.66,4.66,0,0,0-2.29-3c-.77,6.18-6.9,14.51-14.17,23.57C190.08,52,189.94,53.23,189.9,54.48Zm10-32.94a4.83,4.83,0,0,0-1.08-.53c-4.43-1.94-9,3-11.47,8.88-3,7-3.63,15.65-.06,21.39a8.77,8.77,0,0,0,1-1.27c1.12-12,3-22.06,8.14-25.18a7.24,7.24,0,0,1,5.74-.65A5,5,0,0,0,199.87,21.54Zm17.32,22.31a8.57,8.57,0,0,0-5.56-1.22c-3,.4-5.57,2.5-6.95,6-1.16,2.92-2.38,6.15-3.44,9.48,6.24.46,14.35-.64,20.65-5.73a9.32,9.32,0,0,0-1.89-6A11.55,11.55,0,0,0,217.19,43.86Zm-14.71-17.5c-2-.73-3.67-.67-5,.25-4,2.4-5.77,10.65-6.82,20.62C197.05,39,202.37,31.42,202.47,26.35Z"/><path id="pfad-52" class="cls-3" d="M290.57,79.59A25.55,25.55,0,1,0,265.07,54h0a25.56,25.56,0,0,0,25.5,25.6"/><path id="pfad-54" class="cls-1" d="M290.57,75.29A21.3,21.3,0,1,0,269.27,54a21.32,21.32,0,0,0,21.3,21.3h0"/><rect id="rechteck-4" class="cls-3" x="289.37" y="28.49" width="2.4" height="8.2"/><rect id="rechteck-5" class="cls-3" x="289.37" y="71.29" width="2.4" height="8.2"/><rect id="rechteck-6" class="cls-3" x="265.07" y="52.79" width="8.2" height="2.4"/><rect id="rechteck-7" class="cls-3" x="307.87" y="52.79" width="8.2" height="2.4"/><rect id="rechteck-8" class="cls-3" x="288.77" y="20.49" width="3.4" height="9.2"/><rect id="rechteck-9" class="cls-3" x="305.8" y="31.34" width="5.4" height="3.4" transform="translate(92.56 255.83) rotate(-52.01)"/><rect id="rechteck-10" class="cls-3" x="287.07" y="18.09" width="6.7" height="4.3"/><rect id="rechteck-11" class="cls-3" x="308.16" y="27.32" width="4.3" height="6.7" transform="translate(95.1 256.32) rotate(-52)"/><rect class="cls-3" x="281.08" y="49.09" width="26.4" height="1.3" transform="translate(50.29 221.63) rotate(-44.76)"/><path id="pfad-57" class="cls-3" d="M287.47,55.49l-4.5,3,2.4,2.4,3-4.5Z"/><path id="pfad-58" class="cls-3" d="M288,56a3.61,3.61,0,1,0,0-5.1h0a3.62,3.62,0,0,0,0,5.1"/><path id="pfad-59" class="cls-1" d="M289.27,54.69a1.77,1.77,0,1,0,0-2.5h0a1.75,1.75,0,0,0,0,2.5"/><path class="cls-4" d="M341.06,89.89l-2.6-6.23-3.05,6.23h-9.3l-2.15-10-7.4,23.94-5.75-21-3.18,7.1h-7.31c4.23,6.62,11.71,13.41,21.24,22.05l4.25,3.87,4.26-3.84c9.53-8.66,17-15.46,21.24-22.08Z"/><path class="cls-4" d="M339,62a17.56,17.56,0,0,0-13.2,6.13A17.53,17.53,0,0,0,312.6,62h-.31a16,16,0,0,0-15.82,16.13,19.77,19.77,0,0,0,2.14,8.77h7.05l5.81-13,5.25,19.16L324.48,68l4,18.87h5l5.14-10.49,4.38,10.49H353a19.77,19.77,0,0,0,2.14-8.77v-.31A16,16,0,0,0,339,62Z"/><polygon class="cls-4" points="93.61 68.99 92.47 35.17 75.97 45.19 93.61 68.99"/><path class="cls-4" d="M91.44,32.76a9.06,9.06,0,1,1-12.44-3A9,9,0,0,1,91.44,32.76Z"/><polygon class="cls-5" points="94.91 71.02 58.57 93.1 28.04 57.96 77.8 27.74 94.91 71.02"/><path class="cls-5" d="M78.37,28.68c5,8.31-2,21.8-15.69,30.13s-28.92,8.34-34,0,2-21.8,15.68-30.13C66.61,15.23,73.33,20.37,78.37,28.68Z"/><rect class="cls-4" x="60.81" y="80.58" width="42.46" height="20.52" transform="translate(-35.24 55.79) rotate(-31.27)"/><rect class="cls-5" x="76.68" y="80.22" width="25.35" height="12.37" transform="translate(-31.87 58.94) rotate(-31.27)"/><ellipse class="cls-5" cx="78.26" cy="93.14" rx="6.34" ry="6.19" transform="matrix(0.85, -0.52, 0.52, 0.85, -36.98, 54.15)"/><rect class="cls-6" x="69.28" y="64.09" width="6.19" height="19.01" transform="translate(-27.69 48.26) rotate(-31.27)"/><ellipse class="cls-7" cx="67.36" cy="65.34" rx="3.09" ry="3.25" transform="translate(-24.13 44.45) rotate(-31.27)"/><path class="cls-8" d="M75.22,69.12a.67.67,0,0,1-.51.08L61.65,66A.67.67,0,0,1,62,64.7L75,67.89a.67.67,0,0,1,.19,1.23Z"/><path class="cls-8" d="M66.56,74.51a.66.66,0,0,1-.51.08.67.67,0,0,1-.49-.81l3.19-13.05a.67.67,0,1,1,1.31.32L66.87,74.09A.67.67,0,0,1,66.56,74.51Z"/><path class="cls-8" d="M65.94,73.49a.66.66,0,0,1,.51-.08L79.51,76.6a.67.67,0,0,1-.32,1.31L66.13,74.72a.68.68,0,0,1-.49-.81A.66.66,0,0,1,65.94,73.49Z"/><path class="cls-8" d="M74.6,68.1a.67.67,0,0,1,1,.74L72.41,81.89a.67.67,0,1,1-1.31-.32l3.19-13.05A.67.67,0,0,1,74.6,68.1Z"/><path class="cls-5" d="M163.83,70.23a8.81,8.81,0,0,0-1-.28l1-1.89L108.4,49.21,101,95.43l40.49,13.76,1.22-2.25s24.73-21.59,25.6-22.82a9.11,9.11,0,0,0-4.49-13.9Z"/><path class="cls-4" d="M163.47,69.11C160.32,78.37,143,88,127.69,82.81S105,59.56,108.16,50.3s18.08-12.56,33.36-7.36C166.25,51.35,166.62,59.85,163.47,69.11Z"/><rect class="cls-4" x="107.6" y="90.72" width="20.64" height="42.71" transform="translate(-26.15 187.65) rotate(-71.23)"/><rect class="cls-5" x="111.69" y="90.72" width="12.45" height="42.71" transform="translate(-26.14 187.66) rotate(-71.23)"/><path class="cls-2" d="M22.56,40.46a.75.75,0,0,1-.75-1C21.89,39.26,29.38,16.67,58,14a.75.75,0,0,1,.14,1.49c-27.56,2.6-34.78,24.26-34.85,24.48A.75.75,0,0,1,22.56,40.46Z"/><path class="cls-2" d="M21.89,30.23a.75.75,0,0,1-.75-1c.05-.17,5.67-17.11,27.07-19.13a.75.75,0,1,1,.14,1.49C28,13.54,22.62,29.55,22.57,29.71A.75.75,0,0,1,21.89,30.23Z"/><path id="pfad-66" class="cls-9" d="M234,105.69l-9.65,15.19S217.74,122,212.46,123c-3.12.62-8.11-1.6-10.73-3.26l-9-5.74a3.18,3.18,0,0,1-.82-4.31l13.64-24.27a3.18,3.18,0,0,1,4.25-1.09l9.88,6.27C225.48,94.34,235.26,103.75,234,105.69Z"/><path id="pfad-68" class="cls-10" d="M207.06,79.68a93.73,93.73,0,0,0-11.16,17.2c-4.13,8.75-6.68,20.4-6.68,20.4s6.12,8.27,8.1,3.84a80,80,0,0,0,11.5-17.93,76.52,76.52,0,0,0,6.33-19.67s-6-8.22-8.1-3.84"/><path id="pfad-69" class="cls-3" d="M211.05,71.91a3,3,0,0,0-4,1.39l-.05.08-1.2,2.44a3,3,0,0,0,1.39,4l.08.05,7.63,3.66a3,3,0,0,0,4-1.39L219,82l1.19-2.44a3,3,0,0,0-1.39-4l-.08-.05-7.63-3.66"/><path id="pfad-70" class="cls-3" d="M189.48,117.44a3,3,0,0,0-4,1.39l-.05.08-1.19,2.44a3,3,0,0,0,1.39,4l.08.05,7.63,3.66a3,3,0,0,0,4-1.39l.05-.08,1.19-2.44a3,3,0,0,0-1.39-4l-.08-.05-7.63-3.66"/><path id="pfad-72" class="cls-3" d="M228.47,74a3,3,0,0,0-4,1.39l-.05.08-1.19,2.44a3,3,0,0,0,1.39,4l.08.05,7.63,3.66a3,3,0,0,0,4-1.39l.05-.08,1.19-2.44a3,3,0,0,0-1.39-4l-.08-.05L228.47,74"/><path id="rechteck-16" class="cls-9" d="M212.4,90.3l-.76.82a3.2,3.2,0,0,1-4.52.21l-6.39-5.6a3.2,3.2,0,0,1-.21-4.52l.76-.82a3.2,3.2,0,0,1,4.52-.21l6.39,5.6A3.25,3.25,0,0,1,212.4,90.3Z"/><path id="rechteck-17" class="cls-9" d="M201.86,105l-.76.82a3.19,3.19,0,0,1-4.52.21l-6.39-5.6A3.2,3.2,0,0,1,190,96l.76-.82a3.2,3.2,0,0,1,4.52-.21l6.39,5.6A3.31,3.31,0,0,1,201.86,105Z"/><path id="rechteck-19" class="cls-9" d="M197.42,112.77l-.76.82a3.19,3.19,0,0,1-4.52.21l-3.54-3.2a3.2,3.2,0,0,1-.21-4.52l.76-.82a3.2,3.2,0,0,1,4.52-.21l3.54,3.2A3.36,3.36,0,0,1,197.42,112.77Z"/><path id="rechteck-20" class="cls-9" d="M208.77,99l-.76.82a3.2,3.2,0,0,1-4.52.21l-8.86-7.88a3.19,3.19,0,0,1-.21-4.52l.76-.82a3.2,3.2,0,0,1,4.52-.21l8.86,7.88A3.2,3.2,0,0,1,208.77,99Z"/><path id="pfad-71" class="cls-10" d="M224.48,81.62a93.63,93.63,0,0,0-10.67,17.51c-3.89,8.86-6.1,20.58-6.1,20.58s6.35,8.09,8.21,3.61a79.94,79.94,0,0,0,11-18.24,76.5,76.5,0,0,0,5.78-19.84c.05-.09-6.21-8.13-8.21-3.61"/><path id="pfad-73" class="cls-3" d="M208,119.86a3,3,0,0,0-3.92,1.5l-.05.09-1.13,2.47a3,3,0,0,0,1.5,3.92l.08.05,7.73,3.44a3,3,0,0,0,3.92-1.5l.05-.09,1.13-2.47a3,3,0,0,0-1.5-3.92l-.09-.05L208,119.86"/><path id="rechteck-18" class="cls-9" d="M219.69,95l.11-1.11a3.21,3.21,0,0,1,3.57-2.83l8.4,1a3.21,3.21,0,0,1,2.83,3.57l-.11,1.11a3.21,3.21,0,0,1-3.57,2.83l-8.4-1A3.3,3.3,0,0,1,219.69,95Z"/><polygon class="cls-9" points="290.47 140 232.53 103.2 222.18 119.49 254.47 140 290.47 140"/></svg>