<svg id="Ebene_1" data-name="Ebene 1" xmlns="http://www.w3.org/2000/svg" width="375" height="140" viewBox="0 0 375 140"><defs><style>.cls-1,.cls-2{fill:#8cd211;}.cls-1{opacity:0.25;isolation:isolate;}.cls-3{fill:#749d33;}.cls-4{fill:#e4003a;}.cls-5{fill:#d6eab9;}.cls-6{fill:#ff5003;}.cls-7{fill:#fff;}.cls-8{fill:#fdd600;}.cls-9{fill:#5aa700;}.cls-10{fill:#efc100;}.cls-11{fill:#144d14;}.cls-12{fill:#2d660a;}</style></defs><title>Zeichenfläche 26 Kopie</title><rect id="rechteck-12-3" class="cls-1" width="375" height="140"/><path class="cls-2" d="M342.75,29.35l-17.91-5.13a12.21,12.21,0,0,0-23.12-6.63l-17.23-4.94s-5.08-1.46-6.54,3.62L256.38,91.48S254.92,96.56,260,98l58.27,16.71s5.08,1.46,6.54-3.62l21.57-75.21S347.83,30.81,342.75,29.35Zm-38-8.68A8.2,8.2,0,0,1,315,15h0a8.22,8.22,0,1,1-10.17,5.63Zm15.1,86.51-56-16.06,20.24-70.58,11.57,3.32,1.22,13.25,22,6.31L327,32.83l13.15,3.77Z"/><g id="gruppe-251"><g id="gruppe-12"><path id="pfad-44" class="cls-3" d="M94.07,38H40.23a9.48,9.48,0,0,0-9.4,9.4v53.84a9.48,9.48,0,0,0,9.4,9.4H94.07a9.48,9.48,0,0,0,9.4-9.4V47.44A9.48,9.48,0,0,0,94.07,38ZM76.12,73.65H58.18L43.93,57.41a27,27,0,0,1,23.36-13.1,27.66,27.66,0,0,1,23.36,13.1Z"/></g><path id="pfad-45" class="cls-4" d="M71.28,69.66H63l4-19.37Z"/></g><rect class="cls-5" x="40.83" y="87.55" width="52.16" height="1"/><rect class="cls-5" x="40.83" y="93.63" width="52.16" height="1"/><g id="gruppe-252"><path id="pfad-49" class="cls-6" d="M317.46,98.37A24,24,0,1,0,301,68.72a24,24,0,0,0,16.43,29.64"/><rect id="rechteck-20" class="cls-2" x="283.94" y="41.43" width="8.81" height="8.81" transform="translate(164.8 310.38) rotate(-74)"/><rect id="rechteck-21" class="cls-2" x="280.15" y="54.64" width="8.81" height="8.81" transform="translate(149.36 316.31) rotate(-74)"/><rect id="rechteck-22" class="cls-2" x="276.46" y="67.52" width="8.81" height="8.81" transform="translate(134.31 322.08) rotate(-74)"/><rect id="rechteck-23" class="cls-2" x="272.67" y="80.73" width="8.81" height="8.81" transform="translate(118.87 328.01) rotate(-74)"/><path id="pfad-50" class="cls-7" d="M343.44,66.58a87.14,87.14,0,0,0-25.82,12l-6.28-8.77-4.16,1.74L317,89.79c4.12-5.42,15-15.14,27-21.23Z"/></g><rect class="cls-5" x="40.83" y="99.72" width="52.16" height="1"/><path class="cls-8" d="M238.41,60.65c-.26-.37-6.6-9.07-20.82-6.2-7.12,1.39-14.69,9-14.69,20.46V90.17L204.33,87c.05-.11,5.25-11.33,16.9-11.33s15.72,7.79,15.89,8.12l1.42,2.81V60.84Z"/><g id="gruppe-259"><g id="gruppe-13"><path id="pfad-53" class="cls-3" d="M122.85,37.1V20.85h0a1,1,0,0,0-2,0h0V32.21h-1.46V20.85h0a1,1,0,0,0-2,0h0V32.21H116V20.85h0a1,1,0,0,0-2,0h0V32.21h-1.47V20.85h0a1,1,0,0,0-2,0h0V37.1a6.22,6.22,0,0,0,4.15,5.74l-1.71,34.33a2.22,2.22,0,0,0,2.11,2.32h3.14a2.19,2.19,0,0,0,2.2-2.18v0L119.18,43a6.15,6.15,0,0,0,3.67-5.87"/></g><g id="gruppe-14"><path id="pfad-54" class="cls-3" d="M136,53.84h0V23.66A3.6,3.6,0,0,0,132.51,20h-1.84A3.6,3.6,0,0,0,127,23.53s0,.09,0,.13V53.84h3.67l-2.08,23.09a2.12,2.12,0,0,0,1.91,2.31h.17l3.06.12a2.19,2.19,0,0,0,2.2-2.18v0Z"/></g></g><path class="cls-8" d="M284.23,95c-.27-.35-6.8-8.57-21.68-8.57-8.19,0-16,1.63-22.85,3.08-5.43,1.14-10.56,2.21-14.8,2.21-9.41,0-17.66-6.58-20.54-16.36l-1.47.21v19c0,7.08,7.08,16.88,20.38,16.88,7.32,0,14.14-1.27,20.73-2.5,5.56-1,10.81-2,15.55-2,10,0,23.53,8.59,23.67,8.67l1.15.74V95.22Z"/><g id="gruppe-88"><path id="pfad-55" class="cls-9" d="M144.86,56l-3.76,1.83s3.54,1.22,4.2,3.85-.52,8.48-.52,8.48l1.4.48a68.41,68.41,0,0,0,1.92-8c.82-4.51-3.24-6.64-3.24-6.64"/><path id="pfad-56" class="cls-2" d="M161.44,73.59c-6.79-6.93-13.4-3.47-15.77-3.87-2.08-1.24-5.28-8-14.81-6.66s-11.27,14.27-10.6,21.69c.81,9.46,2.2,14.21,7.14,15.91,3.36,1.16,5.3.36,7.29.95,1.93.77,3,2.59,6.33,3.74,4.94,1.7,8.93-1.1,15.42-8.14,5.1-5.43,11.8-16.69,5-23.62"/><path id="pfad-57" class="cls-9" d="M166.65,60s-6.6-3.84-11.76-2.49c-4.13,1.08-6.15,4.24-5.46,6.77s5.86,3.58,9.49,2.43c3.41-1.12,7.74-6.72,7.74-6.72"/></g><path id="pfad-74" class="cls-10" d="M160.24,98.3c-8.86,4.23-21,5.08-33.31,1.51-15.24-4.43-26.62-14.44-30.22-25.17A22.26,22.26,0,0,0,95,78.8c-4.31,14.76,7.32,31.11,26,36.53,18.1,5.26,36.16-1.72,41.14-15.64Z"/><path id="pfad-76" class="cls-10" d="M146.87,124.86c-10.1,10.78-29.45,10-43.94-2.06a44,44,0,0,1-5.94-6h0C87.11,104.72,85.37,89,93.72,79a22.34,22.34,0,0,1,3.18-3.09c-1,11.3,5.46,25,17.66,35.15,9.87,8.2,21.32,12.25,31.13,11.91Z"/><path class="cls-8" d="M145.92,123.29l-.22-.37c-9.81.34-21.26-3.71-31.13-11.91-12.2-10.14-18.64-23.85-17.66-35.15-.12.1-.23.21-.35.3-6.33,11.9-1.63,29,11.86,40.17C120.26,126.19,135.29,128.56,145.92,123.29Z"/><path id="pfad-80" class="cls-11" d="M145.55,121.52h0l-1.12.44a.68.68,0,0,0-.43.87.7.7,0,0,0,.06.13l1.91,3.55,1.12-.44a.68.68,0,0,0,.43-.87.7.7,0,0,0-.06-.13Z"/><path class="cls-8" d="M123.47,107.28c14.84,4.3,29.6.46,37.23-8.65l-.45-.33c-8.86,4.23-21,5.08-33.31,1.51-15.24-4.43-26.62-14.44-30.22-25.17-.06.11-.1.23-.16.34C95.35,88.5,106.53,102.37,123.47,107.28Z"/><path id="pfad-81" class="cls-11" d="M159.95,96.93h0l-.85.86a.68.68,0,0,0,0,1l.11.1,3.19,2.47.85-.86a.68.68,0,0,0,0-1l-.11-.1Z"/><path id="pfad-78" class="cls-12" d="M96.73,71.83l1.93,7.24L97.31,80.4a1.9,1.9,0,0,1-1.38.5l-2.61-.21a.58.58,0,0,1-.54-.87l.94-2.66a1.84,1.84,0,0,0-.14-1.45l-1.11-1.83a.75.75,0,0,1,.22-1l.06,0,2.75-1.52a.92.92,0,0,1,1.07.1,1.09,1.09,0,0,1,.19.42"/><path class="cls-2" d="M98.66,79.07l-.72-2.7-2.1.66L95,80.81s0,0,0,0l1,.08a1.9,1.9,0,0,0,1.38-.5Z"/><path class="cls-7" d="M211.82,108.49V98.3a.75.75,0,0,0-1.5,0v9.21C210.8,107.86,211.3,108.18,211.82,108.49Z"/><path class="cls-7" d="M217.8,110.82V100.47a.75.75,0,1,0-1.5,0v10C216.79,110.58,217.29,110.71,217.8,110.82Z"/><path class="cls-7" d="M259.52,106.9h0V97.19a.75.75,0,1,0-1.5,0v9.75C258.54,106.92,259,106.9,259.52,106.9Z"/><path class="cls-7" d="M253.57,107.32v-13a.75.75,0,0,0-1.5,0v13.23Z"/><path class="cls-7" d="M247.59,108.25v-9.7a.75.75,0,1,0-1.5,0v10Z"/><path class="cls-7" d="M241.62,109.35v-9.6a.75.75,0,0,0-1.5,0v9.87Z"/><path class="cls-7" d="M235.64,110.37v-9.85a.75.75,0,1,0-1.5,0v10.08Z"/><path class="cls-7" d="M229.75,111.1v-9.9a.75.75,0,0,0-1.5,0v10Z"/><path class="cls-7" d="M223.24,111.42h.53V97.19a.75.75,0,1,0-1.5,0V111.4Z"/><path class="cls-7" d="M277.39,112.33V102.05a.75.75,0,0,0-1.5,0v9.54Z"/><path class="cls-7" d="M271.44,109.65a.74.74,0,0,0,.05-.27V99.75a.75.75,0,1,0-1.5,0v9.35Z"/><path class="cls-7" d="M265.52,107.72V97.87a.75.75,0,0,0-1.5,0v9.52Q264.77,107.54,265.52,107.72Z"/></svg>