<svg id="Ebene_1" data-name="Ebene 1" xmlns="http://www.w3.org/2000/svg" width="375" height="140" viewBox="0 0 375 140"><defs><style>.cls-1{fill:#fcf3cc;}.cls-2{fill:#fff;}.cls-3{fill:#f4d6c8;}.cls-4{fill:#eb5a8a;}.cls-5{fill:#e1beb0;}.cls-6{fill:#264a60;}.cls-7{fill:#e71d32;}.cls-8{fill:#e4003a;}.cls-9{fill:#ffd791;}.cls-10{fill:#e30613;}</style></defs><title>Zeichenfläche 2 Kopie 4</title><rect class="cls-1" width="375" height="140"/><circle class="cls-2" cx="79.51" cy="68.33" r="61.56"/><path class="cls-3" d="M112.66,122.23a11.57,11.57,0,0,1,2.91-2.23,11.64,11.64,0,0,1,4.72-5.27c-1.88-6-4.79-14.68-5-21.35-.37-10.38,0-34.25,0-34.25,5.83-12.87,10.06-24.08,12-29.54a12.84,12.84,0,0,1-4.48-4.16c-.2-.3-.75-1-.9-1.21l-.08-.09c-.88-1-1.78-1.94-2.72-2.86-1.35-1.32-2.72-2.62-4.08-3.93a9.5,9.5,0,0,1-1.49-.78c-6.24-4.12-12.25-7.81-19.33-9.35-4-.88-6.58-.94-11.5-1.74-.59-.09-1.16-.21-1.74-.33a11.1,11.1,0,0,1-4.1.8,11.08,11.08,0,0,1-2.8-.37,12,12,0,0,1-6.32,1.85c-.5.14-1,.28-1.49.46-.73.26-1.46.53-2.18.82l-1.46.64c-3.69,1.69-7.32,3.5-11,5.25-2.17,1-4.35,2-6.58,2.92-.38.16-.76.29-1.15.43l-.83.4c-.78.42-1.54.87-2.28,1.35,0,.1-2,1.71-2.22,2-.1.11-1.64,2.06-1.32,1.53a51.73,51.73,0,0,0-3.17,5.38,9.8,9.8,0,0,1-3.55,3.81l.88,2.35c2.3,6.06,5.76,14.77,10.13,24.4,0,0,.37,23.87,0,34.25-.22,6.23-2.78,14.19-4.64,20.11a11.6,11.6,0,0,1,4.14,5.9,11.58,11.58,0,0,1,7,5.07l27,6.14.58.75c.24,0,.47.08.7.13A11.11,11.11,0,0,1,78.2,131l.19-.3,3.34.1,2.58.42a11.24,11.24,0,0,1,6.31-2,11.07,11.07,0,0,1,2.74.36,11,11,0,0,1,2.76-.36c.28,0,.55,0,.82,0a11.48,11.48,0,0,1,4.87-2.77,11.35,11.35,0,0,1,5.07-2.23A11.28,11.28,0,0,1,112.66,122.23Z"/><path class="cls-4" d="M104.83,70.66c0,2.58-2,3.93-4.38,3l-15-5.82a7.41,7.41,0,0,1-4.38-6.4V58c0-2.58,2-3.93,4.38-3l15,5.82a7.41,7.41,0,0,1,4.38,6.4Z"/><path class="cls-4" d="M103.07,87.45c0,2.49-1.87,3.73-4.17,2.77L85.26,84.49a7.38,7.38,0,0,1-4.17-6.27V74.39c0-2.49,1.87-3.73,4.17-2.77L98.9,77.34a7.38,7.38,0,0,1,4.17,6.27Z"/><path class="cls-4" d="M81.91,94.06a3.35,3.35,0,0,1,4.65-3.22l10.67,3.53a6,6,0,0,1,3.87,6.13l-.45,3.57a7.86,7.86,0,0,1-5.08,6l-10,3a3.15,3.15,0,0,1-4.31-3.34Z"/><path class="cls-4" d="M51.58,70.66c0,2.58,2,3.93,4.38,3l15-5.82a7.41,7.41,0,0,0,4.38-6.4V58c0-2.58-2-3.93-4.38-3L56,60.79a7.41,7.41,0,0,0-4.38,6.4Z"/><path class="cls-4" d="M53.34,87.45c0,2.49,1.87,3.73,4.17,2.77l13.64-5.73a7.38,7.38,0,0,0,4.17-6.27V74.39c0-2.49-1.87-3.73-4.17-2.77L57.51,77.34a7.38,7.38,0,0,0-4.17,6.27Z"/><path class="cls-4" d="M74.5,94.06a3.35,3.35,0,0,0-4.65-3.22L59.18,94.38a6,6,0,0,0-3.87,6.14l.45,3.57a7.86,7.86,0,0,0,5.08,6l10,3a3.14,3.14,0,0,0,4.31-3.34Z"/><ellipse class="cls-5" cx="78.48" cy="90.94" rx="1.56" ry="3.35"/><path class="cls-5" d="M38.59,48.79l2-.2c1.3-.12,3.14-.28,5.36-.45l7.53-.58,4.22-.38c1.43-.13,2.88-.29,4.32-.5s2.86-.4,4.23-.7a20.5,20.5,0,0,0,3.8-1.15c.15-.06.26-.14.4-.2l.19-.1.1-.05,0,0h0l0,0,.05,0,.83-.57a4.82,4.82,0,0,0,.68-.55,4.54,4.54,0,0,0,.6-.57l.56-.63.46-.68a4.81,4.81,0,0,0,.4-.69,4.74,4.74,0,0,0,.33-.7,11.23,11.23,0,0,0,.74-2.75A15.74,15.74,0,0,0,75.56,35a14.45,14.45,0,0,0-.18-2,9.44,9.44,0,0,1,.71,1.95,11.94,11.94,0,0,1,.37,2.39,10.23,10.23,0,0,1-.29,3.2A9.37,9.37,0,0,1,74.49,44a6.42,6.42,0,0,1-.71.84,7.63,7.63,0,0,1-.78.77l-.78.64-.05,0-.11.08-.12.08-.25.16c-.17.1-.34.22-.51.3a18.36,18.36,0,0,1-4.29,1.57c-1.47.36-3,.63-4.46.84s-3,.32-4.47.42-2.92.12-4.32.15-2.75,0-4-.05-2.49-.11-3.6-.19c-2.23-.16-4.08-.38-5.37-.57S38.59,48.79,38.59,48.79Z"/><path class="cls-5" d="M118.39,48.79s-.73.15-2,.33-3.14.41-5.37.57c-1.12.08-2.32.16-3.6.19s-2.63.08-4,.05-2.85,0-4.32-.15-3-.24-4.47-.42-3-.48-4.46-.84A18.35,18.35,0,0,1,85.82,47c-.17-.08-.34-.2-.51-.3l-.25-.16-.12-.08-.11-.08,0,0L84,45.65a7.53,7.53,0,0,1-.78-.77,6.34,6.34,0,0,1-.71-.84,9.36,9.36,0,0,1-1.68-3.52,10.19,10.19,0,0,1-.29-3.2,11.87,11.87,0,0,1,.37-2.39A9.46,9.46,0,0,1,81.6,33a14.5,14.5,0,0,0-.18,2,15.59,15.59,0,0,0,.13,2.27A11.23,11.23,0,0,0,82.29,40a4.55,4.55,0,0,0,.33.7,4.71,4.71,0,0,0,.4.69l.46.68.56.63a4.54,4.54,0,0,0,.6.57,4.75,4.75,0,0,0,.68.55l.83.57.05,0,0,0h0l0,0,.1.05.19.1c.13.07.25.14.39.2A20.5,20.5,0,0,0,90.7,46c1.37.3,2.79.52,4.23.7s2.88.37,4.32.5l4.22.38,7.53.58c2.21.16,4.06.33,5.36.45Z"/><path class="cls-5" d="M115.89,99.5s-10.21,20.91-14.21,22.45L114,110.33l3.38-4.13Z"/><path class="cls-5" d="M40.43,100.29s10.21,20.91,14.21,22.45l-12.3-11.62L39,107Z"/><path class="cls-1" d="M79.16,133a64.19,64.19,0,1,1,64.19-64.19A64.26,64.26,0,0,1,79.16,133Zm0-124.46a60.26,60.26,0,1,0,60.26,60.26A60.33,60.33,0,0,0,79.16,8.58Z"/><path id="pfad-52" class="cls-6" d="M140,132.08a25.55,25.55,0,1,0-25.5-25.6h0a25.56,25.56,0,0,0,25.5,25.6"/><path id="pfad-53" class="cls-6" d="M139.89,79.58a7.8,7.8,0,1,0-7.8-7.8,7.81,7.81,0,0,0,7.8,7.8h0"/><path id="pfad-54" class="cls-1" d="M140,127.78a21.3,21.3,0,1,0-21.3-21.3,21.32,21.32,0,0,0,21.3,21.3h0"/><rect id="rechteck-4" class="cls-6" x="138.78" y="80.98" width="2.4" height="8.2"/><rect id="rechteck-5" class="cls-6" x="138.78" y="123.78" width="2.4" height="8.2"/><rect id="rechteck-6" class="cls-6" x="114.48" y="105.28" width="8.2" height="2.4"/><rect id="rechteck-7" class="cls-6" x="157.28" y="105.28" width="8.2" height="2.4"/><path id="pfad-56" class="cls-1" d="M139.89,78.08a6.3,6.3,0,1,0-6.3-6.3,6.27,6.27,0,0,0,6.3,6.3h0"/><rect id="rechteck-8" class="cls-6" x="138.19" y="72.98" width="3.4" height="9.2"/><rect id="rechteck-9" class="cls-6" x="155.22" y="83.83" width="5.4" height="3.4" transform="translate(-6.71 157.31) rotate(-52)"/><rect id="rechteck-10" class="cls-6" x="136.48" y="70.58" width="6.7" height="4.3"/><rect id="rechteck-11" class="cls-6" x="157.57" y="79.81" width="4.3" height="6.7" transform="translate(-4.15 157.83) rotate(-52)"/><rect class="cls-7" x="143.8" y="95.86" width="1.3" height="26.4" transform="translate(-27.69 164.98) rotate(-55.05)"/><path id="pfad-57" class="cls-7" d="M137.58,103.39l-3.75-3.89-1.93,2.79,5,2.15Z"/><path id="pfad-58" class="cls-7" d="M137.18,104a3.61,3.61,0,1,0,5-.91h0a3.62,3.62,0,0,0-5,.91"/><path id="pfad-59" class="cls-1" d="M138.69,105a1.77,1.77,0,1,0,2.46-.45h0a1.75,1.75,0,0,0-2.46.45"/><path class="cls-8" d="M185,17.36S167.43,30,163.21,33.11c-8.37,6.08-9.16,15.73-.54,18.43l67.59,16s-8.64-3.87-1.66-13.31S253.77,34,253.77,34Z"/><path class="cls-8" d="M235.58,66.49a5.07,5.07,0,0,1-5.47-6.37c1.71-8.47,19.52-19.78,25.39-23.22l.51,4.8C245,47.46,235.17,56,234.17,60.93a1.32,1.32,0,0,0,.21,1.23c1.35,1.13,10.63-1.57,18.18-7.4,3.25-2.51,6-5,5.28-6.25s-6.74,2.68-12,7.32l-5.51.8c.14-.12,13.59-13,18.73-11.92a3,3,0,0,1,2.16,1.66c1.85,3.91-1.59,9-9.44,14C247.75,62.91,240.59,66.49,235.58,66.49Z"/><path id="pfad-60" class="cls-9" d="M306.45,72.74H289.39s-4.26,4.74-7.77,8.43c-2.08,2.18-5,6.63-5,9.57V103a3,3,0,0,0,3,2.84h34.58a3,3,0,0,0,3-2.84V91.88C317.06,85.25,308.62,72.74,306.45,72.74Z"/><path id="pfad-61" class="cls-6" d="M267.51,125.23s4.92,0,4.92-4.93V85.16s0-4.93-4.93-4.93h-2.08s-4.93,0-4.93,4.93V120.3s0,4.93,4.93,4.93h2.08"/><path id="pfad-62" class="cls-6" d="M257.47,118.69s4.26,0,4.26-4.26V92.26s0-4.26-4.26-4.26H256s-4.26,0-4.26,4.26v22.17s0,4.26,4.26,4.26h1.52"/><path id="pfad-63" class="cls-6" d="M325.58,125.23s-4.93,0-4.93-4.93V85.16s0-4.93,4.93-4.93h2.08s4.92,0,4.92,4.93V120.3s0,4.93-4.93,4.93h-2.08"/><path id="pfad-64" class="cls-6" d="M335.62,118.69s-4.26,0-4.26-4.26V92.26s0-4.26,4.26-4.26h1.51s4.26,0,4.26,4.26v22.17s0,4.26-4.26,4.26h-1.52"/><rect class="cls-6" x="251.69" y="99.18" width="89.24" height="7.29"/><path id="rechteck-12" class="cls-9" d="M287.59,115.94h1a3,3,0,0,0,3-3v-8.05a3,3,0,0,0-3-3h-1a3,3,0,0,0-3,3v8.05A3.05,3.05,0,0,0,287.59,115.94Z"/><path id="pfad-65" class="cls-9" d="M280.68,92.07h-1.14c-1.61,0-3,1.71-3,3.79V107.8c0,2.09.57,3.79,2.08,3.79,3.88,0,5-5.4,5-7.48V96C283.61,93.68,282.29,92.07,280.68,92.07Z"/><path id="rechteck-13" class="cls-9" d="M304.55,115.94h1a3,3,0,0,0,3-3v-8.05a3,3,0,0,0-3-3h-1a3,3,0,0,0-3,3v8.05A3,3,0,0,0,304.55,115.94Z"/><path id="rechteck-14" class="cls-9" d="M313,112.44h1a3,3,0,0,0,3-3v-4.55a3,3,0,0,0-3-3h-1a3,3,0,0,0-3,3v4.55A3,3,0,0,0,313,112.44Z"/><path id="rechteck-15" class="cls-9" d="M296,117.37h1a3,3,0,0,0,3-3V103.06a3,3,0,0,0-3-3h-1a3,3,0,0,0-3,3v11.27A3.05,3.05,0,0,0,296,117.37Z"/><rect class="cls-9" x="289.3" width="18.38" height="75.21"/><path id="pfad-49" class="cls-10" d="M315,64.27a24,24,0,1,0-16.43-29.64A24,24,0,0,0,315,64.27"/><path id="pfad-50" class="cls-2" d="M341,32.49a87.13,87.13,0,0,0-25.82,12l-6.28-8.77-4.16,1.74,9.81,18.21c4.12-5.42,15-15.14,27-21.23Z"/></svg>