<svg id="Ebene_1" data-name="Ebene 1" xmlns="http://www.w3.org/2000/svg" width="375" height="140" viewBox="0 0 375 140"><defs><style>.cls-1{fill:#fcf3cc;}.cls-2{fill:#ffd791;}.cls-3{fill:#f3d896;}.cls-4{fill:#f4d6c8;}.cls-5{fill:#4a5f86;}.cls-6{fill:#e30613;}.cls-7{fill:#3c3c3c;}.cls-8{fill:#eb5a8a;}.cls-9{fill:#767777;}.cls-10{fill:#c1c1c1;}.cls-11{fill:#c0e6ff;}.cls-12{fill:#e4003a;}.cls-13{fill:#264a60;}</style></defs><title>Zeichenfläche 2 Kopie 6</title><rect class="cls-1" width="375" height="140"/><polygon class="cls-2" points="354.08 140.69 298.59 91.1 286.68 104.44 327.24 140.69 354.08 140.69"/><path class="cls-3" d="M103.33,92.56s-7.53-5.48-2-18.34l7.15-.43s1.11,8.31-3.11,11.07S103.33,92.56,103.33,92.56Z"/><ellipse class="cls-4" cx="106.35" cy="67.35" rx="12.93" ry="9.22" transform="translate(-4.41 7.53) rotate(-3.98)"/><path class="cls-4" d="M94.33,135.29s5.38,1.37-3.53-10.85L91.9,96.6l-8-2.52a223.2,223.2,0,0,0,2.77,32S90.42,131.09,94.33,135.29Z"/><path class="cls-4" d="M89.23,107.61c-2.14.22-5-4-6-14.08a68.35,68.35,0,0,1-.36-10.65c.14-2.68-.13-5.68,2.26-7.51,1.51-1.15,4.44-1.73,6-.35s.79,3.7.52,5.46a35,35,0,0,0-.15,9C92.56,99.51,91.37,107.38,89.23,107.61Z"/><path class="cls-4" d="M75.8,126.51a17.31,17.31,0,0,0,1.69-.67,16.61,16.61,0,0,0,2.85-1.61c.15-.11.85-.56,1.39-.93.9,2.69,1.74,4.67,2.35,5.14,1,.75,11.48,5.34,11.35,6.44s-4.27,2.07-9.78,1-6.33,0-6.33,0c-5-.36-3.51-4.2-1.84-6.85Q76.59,127.75,75.8,126.51Z"/><path class="cls-4" d="M25.69,128.44c.78-.59,1.91-3.6,3.08-7.41a8.34,8.34,0,0,0,1,1.21,8.6,8.6,0,0,0,5.4,2.31c-.89,1.46-1.84,2.94-2.88,4.44,1.66,2.65,3.16,6.49-1.84,6.85,0,0-.83-1.1-6.33,0s-9.64.14-9.77-1S24.7,129.19,25.69,128.44Z"/><path class="cls-5" d="M33.48,126q-.64-.2-1.27-.44l0,0a25.59,25.59,0,0,1-4.08-2.42c2.62-7.89,5.79-21.62,5.79-21.62,3.18-13.52,3.3-36.23,19-42A8.78,8.78,0,0,0,57.35,61l.25,0,.56.12c.25.07.77.31,1,.41s.66.38,1,.6.42.33.51.41a28.21,28.21,0,0,1,2.5,2.65c.07.13.94,1.31,1.08,1.52.36.54.72,1.09,1.06,1.64,2.29,3.68,4.27,7.5,6.59,11.13l-.63,0q.31.9.64,1.88c1.29,5.79,4,20.21,4,20.21s3.56,15.45,6.26,23a8,8,0,0,0-2.19,1.76l-3.54,1.14C65.55,111,64,96.66,56.22,84.42c-.47-.75-.92-1.47-1.34-2.19-.42.72-.87,1.44-1.34,2.19C46,96.36,44.29,110.31,34.14,126.21Z"/><path class="cls-6" d="M81.41,58.11S92,56.79,92,59.85c0,2.08.13,10,.12,15.27,0,2.5-4.21,4.12-8.29,4s-8.14.56-12.65.28l.18.51c-3.52-.5-14.75-3.35-20.91-19.4C55.8,57.86,65.06,56.19,81.41,58.11Z"/><path class="cls-4" d="M94.05,2.89s5.38-1.37-3.53,10.85l1.1,27.84-8,2.52a223,223,0,0,1,2.77-32S90.14,7.1,94.05,2.89Z"/><path class="cls-4" d="M89,30.58c-2.14-.22-5,4-6,14.08a68.45,68.45,0,0,0-.36,10.65c.14,2.68-.13,5.68,2.26,7.51,1.51,1.15,4.44,1.73,6,.35s.79-3.7.52-5.46a35.09,35.09,0,0,1-.15-9C92.29,38.68,91.09,30.8,89,30.58Z"/><path class="cls-3" d="M119.27,68.62s-9.56-.34-12.92-5.2-6.83-4.67-9.2-2.23c3.43-3.54,6.79-5.31,11.85-5.52,3.4-.14,7.53.52,10,3.09C121.27,61.12,122.61,66.45,119.27,68.62Z"/><path class="cls-3" d="M114.07,68.62s-4.84,7.71-13.88,7.06c0,0,18.12,7.13,21.09-8.32C121.28,67.35,115.45,66.86,114.07,68.62Z"/><path class="cls-7" d="M92.34,132.67c1.78,1,3.13,1.82,3.08,2.22-.14,1.1-4.27,2.07-9.78,1s-6.33,0-6.33,0c-4.69-.34-3.67-3.73-2.15-6.34C81.45,132.66,86.95,132.71,92.34,132.67Z"/><path class="cls-7" d="M18.58,132.05c1.24.1,2.47.22,3.72.24a22,22,0,0,0,9.62-2.19,5.78,5.78,0,0,0,.78-.43c1.46,2.58,2.35,5.84-2.25,6.17,0,0-.83-1.1-6.33,0s-9.64.14-9.77-1C14.28,134.4,16.26,133.25,18.58,132.05Z"/><path class="cls-8" d="M212.75,117.42l-1.09-.74C195,105.55,186.89,93.53,187.55,80.93c1.13-21.61-26.37-42-27.55-42.89l-1.38,1.88c.28.2,27.66,20.53,26.59,40.88-.71,13.48,7.75,26.2,25.14,37.82l1,.7Z"/><path class="cls-8" d="M217,111.4l-1.09-.74c-16.66-11.12-24.77-23.15-24.11-35.75,1.13-21.61-26.37-42-27.55-42.89l-1.38,1.89c.28.2,27.66,20.53,26.59,40.88-.71,13.48,7.75,26.2,25.14,37.82l1,.7Z"/><path class="cls-8" d="M221.18,105.38l-1.09-.74C203.43,93.51,195.32,81.49,196,68.89c1.13-21.61-26.37-42-27.55-42.89l-1.38,1.89c.28.2,27.66,20.53,26.59,40.88-.71,13.48,7.75,26.2,25.14,37.82l1,.7Z"/><path class="cls-9" d="M156.76,40.08c-.56-.11-13.71-2.78-16.89-9.45l2.36-1.12c2.18,4.57,11.59,7.33,15,8Z"/><path class="cls-9" d="M168.58,25.65l-2.41,1c-1.35-3.24-5.92-11.93-10.82-13.16L156,11C163.15,12.76,168.36,25.12,168.58,25.65Z"/><path class="cls-7" d="M169.92,23.68a2.42,2.42,0,0,1,.34,3.41L158.61,41.31a2.42,2.42,0,0,1-3.41.34h0a2.42,2.42,0,0,1-.34-3.41L166.52,24a2.42,2.42,0,0,1,3.41-.34Z"/><path class="cls-7" d="M157.19,11a2.62,2.62,0,0,0-3.63.62L140.17,28a2.62,2.62,0,0,0,.11,3.68,2.4,2.4,0,0,0,2.59.21,2.29,2.29,0,0,0,2.65-2.8l.72-.88a2.29,2.29,0,0,0,2.32-2.83l.72-.87a2.29,2.29,0,0,0,2.32-2.83l.72-.88A2.29,2.29,0,0,0,154.63,18l.72-.88a2.3,2.3,0,0,0,2.3-2.92A2.51,2.51,0,0,0,157.19,11Z"/><path class="cls-9" d="M220.22,104.15c.57,0,13.93,1.27,17.81,7.56l-2.22,1.37c-2.66-4.3-12.32-6-15.81-6.33Z"/><path class="cls-9" d="M210,119.78l2.29-1.26c1.69,3.08,7.18,11.22,12.18,11.91l-.36,2.59C216.83,132,210.31,120.27,210,119.78Z"/><path class="cls-7" d="M208.92,121.88a2.42,2.42,0,0,1-.71-3.35l10-15.41a2.42,2.42,0,0,1,3.35-.71h0a2.42,2.42,0,0,1,.71,3.35l-10,15.41a2.42,2.42,0,0,1-3.35.71Z"/><path class="cls-7" d="M222.95,133.06a2.62,2.62,0,0,0,3.55-1L238,114.36a2.62,2.62,0,0,0-.51-3.65,2.4,2.4,0,0,0-2.6.07,2.29,2.29,0,0,0-2.33,3.07l-.62.95a2.29,2.29,0,0,0-2,3.07l-.62.95a2.29,2.29,0,0,0-2,3.07l-.62.95a2.29,2.29,0,0,0-2,3.07l-.62.95a2.3,2.3,0,0,0-2,3.15A2.51,2.51,0,0,0,222.95,133.06Z"/><path class="cls-10" d="M142.77,119.4c-1.78.9-3.66.81-4.16-.19s.54-2.55,2.33-3.45l39.48-19.85c1.78-.9,3.66-.81,4.16.19s-.54,2.55-2.33,3.45Z"/><rect class="cls-7" x="168.7" y="94.56" width="9.28" height="15.38" rx="2.83" ry="2.83" transform="translate(-27.45 88.72) rotate(-26.68)"/><rect class="cls-9" x="173.56" y="91.99" width="9.29" height="15.38" rx="2.83" ry="2.83" transform="translate(-25.78 90.65) rotate(-26.69)"/><rect class="cls-7" x="171.7" y="94.17" width="4.5" height="15.34" transform="translate(-26.94 85.3) rotate(-25.64)"/><rect class="cls-7" x="140.18" y="108.24" width="9.29" height="15.38" rx="2.83" ry="2.83" transform="translate(-36.64 77.4) rotate(-26.69)"/><rect class="cls-9" x="145.04" y="105.68" width="9.28" height="15.38" rx="2.83" ry="2.83" transform="translate(-34.97 79.3) rotate(-26.69)"/><rect class="cls-7" x="143.18" y="107.86" width="4.5" height="15.34" transform="translate(-35.67 74.32) rotate(-25.64)"/><path class="cls-10" d="M153.36,96.75c-1.27,1.54-3,2.22-3.88,1.51s-.54-2.56.73-4.1L178.29,60c1.27-1.54,3-2.22,3.88-1.51s.54,2.56-.73,4.1Z"/><rect class="cls-7" x="169.73" y="61.01" width="9.29" height="15.38" rx="2.83" ry="2.83" transform="translate(10.52 159.68) rotate(-50.54)"/><rect class="cls-9" x="173.14" y="56.69" width="9.29" height="15.38" rx="2.83" ry="2.83" transform="translate(15.1 160.75) rotate(-50.55)"/><rect class="cls-7" x="172.51" y="60.41" width="4.5" height="15.34" transform="translate(9.5 156.76) rotate(-49.5)"/><rect class="cls-7" x="149.19" y="85.06" width="9.29" height="15.38" rx="2.83" ry="2.83" transform="translate(-15.54 152.6) rotate(-50.55)"/><rect class="cls-9" x="152.6" y="80.75" width="9.28" height="15.38" rx="2.83" ry="2.83" transform="translate(-10.97 153.65) rotate(-50.54)"/><rect class="cls-7" x="151.97" y="84.46" width="4.5" height="15.34" transform="translate(-15.99 149.59) rotate(-49.51)"/><path id="pfad-33" class="cls-11" d="M329.53,33.88a1.15,1.15,0,0,1,.59,1.53l0,.08-.37.75a1.15,1.15,0,0,1-1.53.59l-.08,0-4-2a1.15,1.15,0,0,1-.59-1.53l0-.08.41-.83a1.15,1.15,0,0,1,1.53-.59l.08,0,3.95,2.06"/><path id="pfad-34" class="cls-11" d="M319,70s5.4,2.67,2.73,8.07l-22.14,44.77s-2.67,5.4-8.07,2.73l-15.87-7.84s-5.4-2.67-2.73-8.07L295.06,64.9s2.67-5.4,8.07-2.73L319,70"/><path id="pfad-35" class="cls-11" d="M328.52,50.75s5.4,2.67,2.73,8.07L327,67.46s-2.67,5.4-8.07,2.73L303,62.34s-5.4-2.67-2.73-8.07l4.27-8.64s2.67-5.4,8.07-2.73l15.86,7.85"/><path id="pfad-36" class="cls-11" d="M333.87,41.82a1.56,1.56,0,0,1,.71,2.11l0,.08-.33.67a1.56,1.56,0,0,1-2.11.71l-.09,0L314.75,36.8a1.56,1.56,0,0,1-.71-2.11l0-.08.37-.75a1.56,1.56,0,0,1,2.11-.71l.08,0,17.28,8.54"/><path id="pfad-37" class="cls-11" d="M331.57,46.47a1.56,1.56,0,0,1,.71,2.11l0,.08-.37.75a1.56,1.56,0,0,1-2.11.71l-.08,0L312.4,41.54a1.56,1.56,0,0,1-.71-2.11l0-.08.37-.75a1.56,1.56,0,0,1,2.11-.71l.08,0,17.27,8.54"/><rect id="rechteck-2" class="cls-11" x="323.82" y="34.84" width="3.61" height="3.61" transform="translate(148.35 312.24) rotate(-63.67)"/><rect id="rechteck-3" class="cls-11" x="319.3" y="37.83" width="3.61" height="16.12" transform="translate(137.61 313.37) rotate(-63.68)"/><path class="cls-11" d="M308.57,46.15l.95-1.5c-.08,0-4-2.72-4.5-5.95a4.07,4.07,0,0,1,1.1-3.49,4.59,4.59,0,0,1,3.47-1.8c4.85-.19,11,6,11,6.08L322,38.3c-.29-.25-6.66-6.81-12.42-6.66a6.53,6.53,0,0,0-4.84,2.47A6.06,6.06,0,0,0,303.2,39C303.83,43,308.32,46,308.57,46.15Z"/><path id="pfad-41" class="cls-2" d="M276.48,94.17a2.24,2.24,0,0,1,3.28-.05l.07.06,4.45,4.34a2.24,2.24,0,0,1,.05,3.28l-.06.07-1.37,1.39a2.24,2.24,0,0,1-3.28.05l-.07-.06-4.38-4.41a2.24,2.24,0,0,1-.05-3.28l.06-.07,1.3-1.32"/><path id="pfad-43" class="cls-2" d="M273.11,102.25a2.24,2.24,0,0,1,3.28-.05l.07.06,2.92,2.85a2.24,2.24,0,0,1,.05,3.28l-.06.07L278,109.85a2.24,2.24,0,0,1-3.28,0l-.07-.06L271.74,107a2.24,2.24,0,0,1-.05-3.28l.06-.07,1.37-1.39"/><polygon class="cls-12" points="304.92 112.26 281.26 92.81 294.08 66.89 317.78 86.27 304.92 112.26"/><path id="pfad-42" class="cls-2" d="M301.43,98.5a2.78,2.78,0,0,1,3.65-2,.1.1,0,0,0,.14,0L310,98.19a3.29,3.29,0,0,1,2.31,3.8.09.09,0,0,0,0,.14l-.46,1.58a2.77,2.77,0,0,1-3.65,2,.1.1,0,0,0-.14,0L303.29,104a3.28,3.28,0,0,1-2.3-3.8.1.1,0,0,0,0-.14l.46-1.58"/><path id="pfad-39" class="cls-2" d="M284.26,78.28a2.24,2.24,0,0,1,3.28-.05l.07.06,7.3,7.27a2.24,2.24,0,0,1,.05,3.28l-.06.07-1.37,1.39a2.24,2.24,0,0,1-3.28.05l-.07-.06L282.88,83a2.24,2.24,0,0,1-.05-3.28l.06-.07,1.37-1.39"/><path id="pfad-40" class="cls-2" d="M280.23,86.08A2.24,2.24,0,0,1,283.5,86l.07.06,6.12,6.09a2.24,2.24,0,0,1,.05,3.28l-.06.07-1.37,1.39A2.24,2.24,0,0,1,285,97L285,96.9l-6.12-6.09a2.24,2.24,0,0,1-.05-3.28l.06-.07,1.37-1.39"/><path id="pfad-61" class="cls-13" d="M269.73,15.67s-4.42,0-4.42,4.42V51.6s0,4.42,4.42,4.42h1.87S276,56,276,51.6V20.09s0-4.42-4.42-4.42h-1.87"/><path id="pfad-62" class="cls-13" d="M278.74,21.53s-3.82,0-3.82,3.82V45.23s0,3.82,3.82,3.82h1.36s3.82,0,3.82-3.82V25.35s0-3.82-3.82-3.82h-1.36"/><path id="pfad-63" class="cls-13" d="M217.66,15.67s4.42,0,4.42,4.42V51.6s0,4.42-4.42,4.42h-1.87s-4.42,0-4.42-4.42V20.09s0-4.42,4.42-4.42h1.87"/><path id="pfad-64" class="cls-13" d="M208.65,21.53s3.82,0,3.82,3.82V45.23s0,3.82-3.82,3.82h-1.36s-3.82,0-3.82-3.82V25.35s0-3.82,3.82-3.82h1.36"/><rect class="cls-13" x="203.89" y="32.49" width="80.02" height="6.54"/></svg>